M48
; DRILL file {KiCad (5.1.6)-1} date 03/17/22 22:37:42
; FORMAT={-:-/ absolute / inch / decimal}
; #@! TF.CreationDate,2022-03-17T22:37:42-05:00
; #@! TF.GenerationSoftware,Kicad,Pcbnew,(5.1.6)-1
; #@! TF.FileFunction,Plated,1,2,PTH
FMAT,2
INCH
T1C0.0157
T2C0.0335
T3C0.0354
T4C0.0660
T5C0.0700
T6C0.0787
T7C0.0900
%
G90
G05
T1
X3.9014Y-2.1102
X4.26Y-2.58
X4.26Y-3.04
X4.26Y-3.47
X4.27Y-1.91
X4.35Y-3.0464
X4.35Y-3.4265
X4.54Y-2.41
X4.6Y-2.55
X4.6Y-2.65
X4.62Y-5.05
X4.65Y-2.5
X4.65Y-2.6
X4.65Y-2.7
X4.7Y-2.45
X4.7Y-2.55
X4.7Y-2.65
X4.75Y-2.5
X4.75Y-2.6
X4.75Y-2.7
X4.8Y-2.45
X4.8Y-2.55
X4.8Y-2.65
X4.88Y-2.74
X4.88Y-3.43
X5.1Y-3.4
X5.15Y-3.45
X5.17Y-2.4
X5.1814Y-2.45
X5.2Y-3.4
X5.2Y-3.5
X5.21Y-2.74
X5.21Y-3.08
X5.24Y-2.17
X5.24Y-2.45
X5.25Y-3.45
X5.25Y-3.55
X5.27Y-1.92
X5.3Y-3.4
X5.3Y-3.5
X5.3Y-3.6
X5.32Y-3.75
X5.32Y-3.79
X5.32Y-3.83
X5.32Y-3.87
X5.32Y-3.91
X5.32Y-3.95
X5.56Y-2.4
X5.7293Y-3.9507
X5.7295Y-3.9105
X5.7298Y-3.8702
X5.73Y-3.75
X5.73Y-3.7894
X5.73Y-3.83
X5.75Y-3.15
X5.75Y-3.25
X5.75Y-3.35
X5.75Y-3.45
X5.75Y-3.55
X5.8Y-3.2
X5.8Y-3.3
X5.8Y-3.4
X5.8Y-3.5
X5.85Y-3.15
X5.85Y-3.25
X5.85Y-3.35
X5.85Y-3.45
X5.85Y-3.55
X5.85Y-3.8
X5.9Y-3.2
X5.9Y-3.3
X5.9Y-3.4
X5.9Y-3.5
X5.95Y-3.8
X5.95Y-3.95
X6.05Y-3.8
X6.05Y-3.95
X6.05Y-4.15
X6.15Y-3.8
X6.15Y-3.95
X6.15Y-4.15
X6.25Y-3.8
X6.25Y-3.95
X6.25Y-4.15
X6.28Y-2.74
X6.28Y-3.08
X6.4Y-1.94
X6.4Y-3.95
X6.57Y-3.99
X6.63Y-2.4
X6.97Y-2.74
X6.97Y-3.08
X7.01Y-2.18
X7.02Y-2.66
X7.03Y-3.5844
X7.03Y-3.6556
X7.06Y-3.79
X7.194Y-3.035
X7.194Y-3.1136
X7.235Y-2.6349
X7.24Y-4.15
X7.28Y-2.42
X7.28Y-3.1136
X7.32Y-2.46
X7.32Y-2.6
X7.35Y-2.17
X7.35Y-2.66
X7.38Y-3.83
X7.45Y-3.2
X7.45Y-3.3
X7.5Y-3.15
X7.5Y-3.25
X7.57Y-2.6349
X7.57Y-4.11
X7.62Y-2.45
X7.62Y-3.1136
X7.65Y-3.2
X7.65Y-3.3
X7.7Y-2.6
X7.7Y-2.7
X7.7Y-3.15
X7.7Y-3.25
X7.75Y-2.65
X7.8Y-2.6
X7.8Y-2.7
X7.85Y-2.65
X7.87Y-3.75
X7.87Y-3.79
X7.87Y-3.83
X7.87Y-3.87
X7.87Y-3.91
X7.87Y-3.95
X7.87Y-3.99
X7.87Y-4.03
X7.87Y-4.07
X7.87Y-4.11
X7.87Y-4.15
X7.87Y-4.19
X7.88Y-3.08
X7.88Y-3.12
X7.88Y-3.16
X7.88Y-3.2
X7.88Y-3.24
X7.88Y-3.28
X7.88Y-3.32
X7.9Y-2.6
X7.9Y-2.7
X8.21Y-2.17
X8.22Y-3.08
X8.23Y-3.75
X8.23Y-3.79
X8.23Y-3.83
X8.23Y-3.87
X8.23Y-3.91
X8.23Y-3.95
X8.23Y-3.99
X8.23Y-4.03
X8.23Y-4.07
X8.23Y-4.1094
X8.23Y-4.15
X8.23Y-4.19
X8.27Y-2.79
X8.3437Y-2.4354
X8.38Y-2.64
X8.39Y-2.42
X8.39Y-2.6
X8.3936Y-3.12
X8.42Y-2.74
X8.43Y-3.16
X8.46Y-3.2
X8.4602Y-2.8402
X8.49Y-3.24
X8.53Y-3.28
X8.57Y-3.32
X8.58Y-2.17
X8.6Y-3.17
X8.6002Y-2.8902
X8.64Y-2.8886
X8.65Y-3.0
X8.65Y-3.1
X8.67Y-2.61
X8.7Y-2.28
X8.7Y-2.34
X8.7Y-2.4
X8.7Y-2.95
X8.7Y-3.05
X8.7002Y-3.1702
X8.75Y-2.62
X8.75Y-3.0
X8.8Y-2.95
X8.89Y-2.18
X8.92Y-2.89
X8.93Y-2.23
X8.95Y-3.17
X8.99Y-3.13
X9.02Y-2.92
X9.07Y-2.9
X9.1Y-2.62
X9.1073Y-2.8876
X9.12Y-2.24
X9.136Y-3.13
X9.2686Y-2.25
X9.3Y-2.22
X9.3Y-3.17
T2
X8.16Y-3.3889
X8.26Y-3.3889
X8.36Y-3.3889
T3
X8.875Y-4.175
X8.875Y-4.275
X8.875Y-4.375
X8.875Y-4.475
X8.875Y-4.575
X8.875Y-4.675
X8.875Y-4.775
X8.875Y-4.875
X8.875Y-4.975
X8.875Y-3.075
X8.875Y-3.175
X8.875Y-3.275
X8.875Y-3.375
X8.875Y-3.475
X8.875Y-3.575
X8.875Y-3.675
X8.875Y-3.775
X8.875Y-3.875
T4
X6.73Y-2.305
X6.73Y-2.835
X6.865Y-2.305
X6.865Y-2.835
X4.635Y-2.305
X4.635Y-2.835
X4.77Y-2.305
X4.77Y-2.835
X7.72Y-2.305
X7.72Y-2.835
X7.855Y-2.305
X7.855Y-2.835
X5.66Y-2.305
X5.66Y-2.835
X5.795Y-2.305
X5.795Y-2.835
T5
X6.05Y-4.75
X6.05Y-5.05
X6.05Y-5.35
X8.05Y-4.9
X8.05Y-5.05
X8.05Y-5.2
X3.55Y-4.75
X3.55Y-5.05
X3.55Y-5.35
X5.55Y-4.9
X5.55Y-5.05
X5.55Y-5.2
T7
X8.05Y-4.75
X8.05Y-5.35
X5.55Y-4.75
X5.55Y-5.35
T6
G00X9.1526Y-1.5073
M15
G01X9.0699Y-1.5073
M16
G05
G00X9.1526Y-1.8173
M15
G01X9.0699Y-1.8173
M16
G05
G00X7.6526Y-1.5073
M15
G01X7.5699Y-1.5073
M16
G05
G00X7.6526Y-1.8173
M15
G01X7.5699Y-1.8173
M16
G05
G00X8.0276Y-1.5073
M15
G01X7.9449Y-1.5073
M16
G05
G00X8.0276Y-1.8173
M15
G01X7.9449Y-1.8173
M16
G05
G00X8.4026Y-1.5073
M15
G01X8.3199Y-1.5073
M16
G05
G00X8.4026Y-1.8173
M15
G01X8.3199Y-1.8173
M16
G05
G00X7.2776Y-1.5073
M15
G01X7.1949Y-1.5073
M16
G05
G00X7.2776Y-1.8173
M15
G01X7.1949Y-1.8173
M16
G05
G00X6.2759Y-1.5059
M15
G01X6.1932Y-1.5059
M16
G05
G00X6.5859Y-1.5059
M15
G01X6.5032Y-1.5059
M16
G05
G00X6.8959Y-1.5059
M15
G01X6.8132Y-1.5059
M16
G05
G00X8.7776Y-1.507
M15
G01X8.6949Y-1.507
M16
G05
G00X8.7776Y-1.817
M15
G01X8.6949Y-1.817
M16
G05
G00X4.2259Y-1.5059
M15
G01X4.1432Y-1.5059
M16
G05
G00X4.5359Y-1.5059
M15
G01X4.4532Y-1.5059
M16
G05
G00X4.8459Y-1.5059
M15
G01X4.7632Y-1.5059
M16
G05
G00X8.3768Y-5.3539
M15
G01X8.3768Y-5.2713
M16
G05
G00X8.6868Y-5.3539
M15
G01X8.6868Y-5.2713
M16
G05
G00X3.2009Y-1.5059
M15
G01X3.1182Y-1.5059
M16
G05
G00X3.5109Y-1.5059
M15
G01X3.4282Y-1.5059
M16
G05
G00X3.8209Y-1.5059
M15
G01X3.7382Y-1.5059
M16
G05
G00X5.2509Y-1.5059
M15
G01X5.1682Y-1.5059
M16
G05
G00X5.5609Y-1.5059
M15
G01X5.4782Y-1.5059
M16
G05
G00X5.8709Y-1.5059
M15
G01X5.7882Y-1.5059
M16
G05
T0
M30
