%TF.GenerationSoftware,KiCad,Pcbnew,(5.1.6)-1*%
%TF.CreationDate,2022-03-17T22:35:52-05:00*%
%TF.ProjectId,2022_Rev2,32303232-5f52-4657-9632-2e6b69636164,rev?*%
%TF.SameCoordinates,Original*%
%TF.FileFunction,Soldermask,Top*%
%TF.FilePolarity,Negative*%
%FSLAX46Y46*%
G04 Gerber Fmt 4.6, Leading zero omitted, Abs format (unit mm)*
G04 Created by KiCad (PCBNEW (5.1.6)-1) date 2022-03-17 22:35:52*
%MOMM*%
%LPD*%
G01*
G04 APERTURE LIST*
%ADD10C,2.946400*%
%ADD11O,5.100000X3.000000*%
%ADD12C,1.524000*%
%ADD13C,3.450000*%
%ADD14C,3.048000*%
%ADD15C,3.810000*%
%ADD16R,0.650000X1.060000*%
%ADD17R,1.358000X1.358000*%
%ADD18C,1.358000*%
%ADD19R,0.900000X0.800000*%
%ADD20R,0.700000X1.000000*%
%ADD21C,2.819400*%
%ADD22O,3.000000X5.100000*%
G04 APERTURE END LIST*
D10*
%TO.C,REF\u002A\u002A*%
X70612000Y-24384000D03*
%TD*%
%TO.C,REF\u002A\u002A*%
X242570000Y-24384000D03*
%TD*%
%TO.C,REF\u002A\u002A*%
X234640120Y-143200120D03*
%TD*%
%TO.C,REF\u002A\u002A*%
X78541880Y-143200120D03*
%TD*%
%TO.C,R36*%
G36*
G01*
X231707001Y-50749000D02*
X229556999Y-50749000D01*
G75*
G02*
X229307000Y-50499001I0J249999D01*
G01*
X229307000Y-49473999D01*
G75*
G02*
X229556999Y-49224000I249999J0D01*
G01*
X231707001Y-49224000D01*
G75*
G02*
X231957000Y-49473999I0J-249999D01*
G01*
X231957000Y-50499001D01*
G75*
G02*
X231707001Y-50749000I-249999J0D01*
G01*
G37*
G36*
G01*
X231707001Y-55424000D02*
X229556999Y-55424000D01*
G75*
G02*
X229307000Y-55174001I0J249999D01*
G01*
X229307000Y-54148999D01*
G75*
G02*
X229556999Y-53899000I249999J0D01*
G01*
X231707001Y-53899000D01*
G75*
G02*
X231957000Y-54148999I0J-249999D01*
G01*
X231957000Y-55174001D01*
G75*
G02*
X231707001Y-55424000I-249999J0D01*
G01*
G37*
%TD*%
%TO.C,R35*%
G36*
G01*
X184463001Y-51003000D02*
X182312999Y-51003000D01*
G75*
G02*
X182063000Y-50753001I0J249999D01*
G01*
X182063000Y-49727999D01*
G75*
G02*
X182312999Y-49478000I249999J0D01*
G01*
X184463001Y-49478000D01*
G75*
G02*
X184713000Y-49727999I0J-249999D01*
G01*
X184713000Y-50753001D01*
G75*
G02*
X184463001Y-51003000I-249999J0D01*
G01*
G37*
G36*
G01*
X184463001Y-55678000D02*
X182312999Y-55678000D01*
G75*
G02*
X182063000Y-55428001I0J249999D01*
G01*
X182063000Y-54402999D01*
G75*
G02*
X182312999Y-54153000I249999J0D01*
G01*
X184463001Y-54153000D01*
G75*
G02*
X184713000Y-54402999I0J-249999D01*
G01*
X184713000Y-55428001D01*
G75*
G02*
X184463001Y-55678000I-249999J0D01*
G01*
G37*
%TD*%
%TO.C,R34*%
G36*
G01*
X115248001Y-44907000D02*
X113097999Y-44907000D01*
G75*
G02*
X112848000Y-44657001I0J249999D01*
G01*
X112848000Y-43631999D01*
G75*
G02*
X113097999Y-43382000I249999J0D01*
G01*
X115248001Y-43382000D01*
G75*
G02*
X115498000Y-43631999I0J-249999D01*
G01*
X115498000Y-44657001D01*
G75*
G02*
X115248001Y-44907000I-249999J0D01*
G01*
G37*
G36*
G01*
X115248001Y-49582000D02*
X113097999Y-49582000D01*
G75*
G02*
X112848000Y-49332001I0J249999D01*
G01*
X112848000Y-48306999D01*
G75*
G02*
X113097999Y-48057000I249999J0D01*
G01*
X115248001Y-48057000D01*
G75*
G02*
X115498000Y-48306999I0J-249999D01*
G01*
X115498000Y-49332001D01*
G75*
G02*
X115248001Y-49582000I-249999J0D01*
G01*
G37*
%TD*%
%TO.C,R26*%
G36*
G01*
X193099001Y-51054500D02*
X190948999Y-51054500D01*
G75*
G02*
X190699000Y-50804501I0J249999D01*
G01*
X190699000Y-49779499D01*
G75*
G02*
X190948999Y-49529500I249999J0D01*
G01*
X193099001Y-49529500D01*
G75*
G02*
X193349000Y-49779499I0J-249999D01*
G01*
X193349000Y-50804501D01*
G75*
G02*
X193099001Y-51054500I-249999J0D01*
G01*
G37*
G36*
G01*
X193099001Y-55729500D02*
X190948999Y-55729500D01*
G75*
G02*
X190699000Y-55479501I0J249999D01*
G01*
X190699000Y-54454499D01*
G75*
G02*
X190948999Y-54204500I249999J0D01*
G01*
X193099001Y-54204500D01*
G75*
G02*
X193349000Y-54454499I0J-249999D01*
G01*
X193349000Y-55479501D01*
G75*
G02*
X193099001Y-55729500I-249999J0D01*
G01*
G37*
%TD*%
%TO.C,R23*%
G36*
G01*
X168461001Y-44907000D02*
X166310999Y-44907000D01*
G75*
G02*
X166061000Y-44657001I0J249999D01*
G01*
X166061000Y-43631999D01*
G75*
G02*
X166310999Y-43382000I249999J0D01*
G01*
X168461001Y-43382000D01*
G75*
G02*
X168711000Y-43631999I0J-249999D01*
G01*
X168711000Y-44657001D01*
G75*
G02*
X168461001Y-44907000I-249999J0D01*
G01*
G37*
G36*
G01*
X168461001Y-49582000D02*
X166310999Y-49582000D01*
G75*
G02*
X166061000Y-49332001I0J249999D01*
G01*
X166061000Y-48306999D01*
G75*
G02*
X166310999Y-48057000I249999J0D01*
G01*
X168461001Y-48057000D01*
G75*
G02*
X168711000Y-48306999I0J-249999D01*
G01*
X168711000Y-49332001D01*
G75*
G02*
X168461001Y-49582000I-249999J0D01*
G01*
G37*
%TD*%
%TO.C,R21*%
G36*
G01*
X213419001Y-50495000D02*
X211268999Y-50495000D01*
G75*
G02*
X211019000Y-50245001I0J249999D01*
G01*
X211019000Y-49219999D01*
G75*
G02*
X211268999Y-48970000I249999J0D01*
G01*
X213419001Y-48970000D01*
G75*
G02*
X213669000Y-49219999I0J-249999D01*
G01*
X213669000Y-50245001D01*
G75*
G02*
X213419001Y-50495000I-249999J0D01*
G01*
G37*
G36*
G01*
X213419001Y-55170000D02*
X211268999Y-55170000D01*
G75*
G02*
X211019000Y-54920001I0J249999D01*
G01*
X211019000Y-53894999D01*
G75*
G02*
X211268999Y-53645000I249999J0D01*
G01*
X213419001Y-53645000D01*
G75*
G02*
X213669000Y-53894999I0J-249999D01*
G01*
X213669000Y-54920001D01*
G75*
G02*
X213419001Y-55170000I-249999J0D01*
G01*
G37*
%TD*%
%TO.C,R18*%
G36*
G01*
X222309001Y-50495000D02*
X220158999Y-50495000D01*
G75*
G02*
X219909000Y-50245001I0J249999D01*
G01*
X219909000Y-49219999D01*
G75*
G02*
X220158999Y-48970000I249999J0D01*
G01*
X222309001Y-48970000D01*
G75*
G02*
X222559000Y-49219999I0J-249999D01*
G01*
X222559000Y-50245001D01*
G75*
G02*
X222309001Y-50495000I-249999J0D01*
G01*
G37*
G36*
G01*
X222309001Y-55170000D02*
X220158999Y-55170000D01*
G75*
G02*
X219909000Y-54920001I0J249999D01*
G01*
X219909000Y-53894999D01*
G75*
G02*
X220158999Y-53645000I249999J0D01*
G01*
X222309001Y-53645000D01*
G75*
G02*
X222559000Y-53894999I0J-249999D01*
G01*
X222559000Y-54920001D01*
G75*
G02*
X222309001Y-55170000I-249999J0D01*
G01*
G37*
%TD*%
%TO.C,R16*%
G36*
G01*
X141283001Y-45161000D02*
X139132999Y-45161000D01*
G75*
G02*
X138883000Y-44911001I0J249999D01*
G01*
X138883000Y-43885999D01*
G75*
G02*
X139132999Y-43636000I249999J0D01*
G01*
X141283001Y-43636000D01*
G75*
G02*
X141533000Y-43885999I0J-249999D01*
G01*
X141533000Y-44911001D01*
G75*
G02*
X141283001Y-45161000I-249999J0D01*
G01*
G37*
G36*
G01*
X141283001Y-49836000D02*
X139132999Y-49836000D01*
G75*
G02*
X138883000Y-49586001I0J249999D01*
G01*
X138883000Y-48560999D01*
G75*
G02*
X139132999Y-48311000I249999J0D01*
G01*
X141283001Y-48311000D01*
G75*
G02*
X141533000Y-48560999I0J-249999D01*
G01*
X141533000Y-49586001D01*
G75*
G02*
X141283001Y-49836000I-249999J0D01*
G01*
G37*
%TD*%
%TO.C,R2*%
G36*
G01*
X89563001Y-42733000D02*
X86712999Y-42733000D01*
G75*
G02*
X86463000Y-42483001I0J249999D01*
G01*
X86463000Y-41457999D01*
G75*
G02*
X86712999Y-41208000I249999J0D01*
G01*
X89563001Y-41208000D01*
G75*
G02*
X89813000Y-41457999I0J-249999D01*
G01*
X89813000Y-42483001D01*
G75*
G02*
X89563001Y-42733000I-249999J0D01*
G01*
G37*
G36*
G01*
X89563001Y-48708000D02*
X86712999Y-48708000D01*
G75*
G02*
X86463000Y-48458001I0J249999D01*
G01*
X86463000Y-47432999D01*
G75*
G02*
X86712999Y-47183000I249999J0D01*
G01*
X89563001Y-47183000D01*
G75*
G02*
X89813000Y-47432999I0J-249999D01*
G01*
X89813000Y-48458001D01*
G75*
G02*
X89563001Y-48708000I-249999J0D01*
G01*
G37*
%TD*%
D11*
%TO.C,Conn10*%
X231425000Y-38285000D03*
X231425000Y-46159000D03*
%TD*%
%TO.C,Conn5*%
X212375000Y-38285000D03*
X212375000Y-46159000D03*
%TD*%
%TO.C,Conn7*%
X193325000Y-38285000D03*
X193325000Y-46159000D03*
%TD*%
%TO.C,Conn8*%
X221900000Y-38278000D03*
X221900000Y-46152000D03*
%TD*%
%TO.C,Conn6*%
X183800000Y-38285000D03*
X183800000Y-46159000D03*
%TD*%
%TO.C,Conn11*%
X202850000Y-38285000D03*
X202850000Y-46159000D03*
%TD*%
D12*
%TO.C,Conn13*%
X225425000Y-126365000D03*
X225425000Y-123825000D03*
X225425000Y-121285000D03*
X225425000Y-118745000D03*
D13*
X234061000Y-127635000D03*
X234061000Y-104775000D03*
D12*
X225425000Y-116205000D03*
X225425000Y-113665000D03*
X225425000Y-111125000D03*
X225425000Y-108585000D03*
X225425000Y-106045000D03*
%TD*%
%TO.C,Conn1*%
X225425000Y-98425000D03*
X225425000Y-95885000D03*
X225425000Y-93345000D03*
X225425000Y-90805000D03*
D13*
X234061000Y-99695000D03*
X234061000Y-76835000D03*
D12*
X225425000Y-88265000D03*
X225425000Y-85725000D03*
X225425000Y-83185000D03*
X225425000Y-80645000D03*
X225425000Y-78105000D03*
%TD*%
D14*
%TO.C,VR2*%
X204470000Y-132080000D03*
X204470000Y-128270000D03*
X204470000Y-124460000D03*
D15*
X204470000Y-120650000D03*
X204470000Y-135890000D03*
D14*
X153670000Y-120650000D03*
X153670000Y-128270000D03*
X153670000Y-135890000D03*
%TD*%
%TO.C,VR1*%
X140970000Y-132080000D03*
X140970000Y-128270000D03*
X140970000Y-124460000D03*
D15*
X140970000Y-120650000D03*
X140970000Y-135890000D03*
D14*
X90170000Y-120650000D03*
X90170000Y-128270000D03*
X90170000Y-135890000D03*
%TD*%
D16*
%TO.C,U25*%
X225872000Y-51224000D03*
X227772000Y-51224000D03*
X227772000Y-53424000D03*
X226822000Y-53424000D03*
X225872000Y-53424000D03*
%TD*%
%TO.C,U24*%
X178628000Y-51478000D03*
X180528000Y-51478000D03*
X180528000Y-53678000D03*
X179578000Y-53678000D03*
X178628000Y-53678000D03*
%TD*%
%TO.C,U23*%
X109540000Y-45128000D03*
X111440000Y-45128000D03*
X111440000Y-47328000D03*
X110490000Y-47328000D03*
X109540000Y-47328000D03*
%TD*%
%TO.C,U22*%
G36*
G01*
X225575000Y-62254000D02*
X225275000Y-62254000D01*
G75*
G02*
X225125000Y-62104000I0J150000D01*
G01*
X225125000Y-60454000D01*
G75*
G02*
X225275000Y-60304000I150000J0D01*
G01*
X225575000Y-60304000D01*
G75*
G02*
X225725000Y-60454000I0J-150000D01*
G01*
X225725000Y-62104000D01*
G75*
G02*
X225575000Y-62254000I-150000J0D01*
G01*
G37*
G36*
G01*
X226845000Y-62254000D02*
X226545000Y-62254000D01*
G75*
G02*
X226395000Y-62104000I0J150000D01*
G01*
X226395000Y-60454000D01*
G75*
G02*
X226545000Y-60304000I150000J0D01*
G01*
X226845000Y-60304000D01*
G75*
G02*
X226995000Y-60454000I0J-150000D01*
G01*
X226995000Y-62104000D01*
G75*
G02*
X226845000Y-62254000I-150000J0D01*
G01*
G37*
G36*
G01*
X228115000Y-62254000D02*
X227815000Y-62254000D01*
G75*
G02*
X227665000Y-62104000I0J150000D01*
G01*
X227665000Y-60454000D01*
G75*
G02*
X227815000Y-60304000I150000J0D01*
G01*
X228115000Y-60304000D01*
G75*
G02*
X228265000Y-60454000I0J-150000D01*
G01*
X228265000Y-62104000D01*
G75*
G02*
X228115000Y-62254000I-150000J0D01*
G01*
G37*
G36*
G01*
X229385000Y-62254000D02*
X229085000Y-62254000D01*
G75*
G02*
X228935000Y-62104000I0J150000D01*
G01*
X228935000Y-60454000D01*
G75*
G02*
X229085000Y-60304000I150000J0D01*
G01*
X229385000Y-60304000D01*
G75*
G02*
X229535000Y-60454000I0J-150000D01*
G01*
X229535000Y-62104000D01*
G75*
G02*
X229385000Y-62254000I-150000J0D01*
G01*
G37*
G36*
G01*
X229385000Y-67204000D02*
X229085000Y-67204000D01*
G75*
G02*
X228935000Y-67054000I0J150000D01*
G01*
X228935000Y-65404000D01*
G75*
G02*
X229085000Y-65254000I150000J0D01*
G01*
X229385000Y-65254000D01*
G75*
G02*
X229535000Y-65404000I0J-150000D01*
G01*
X229535000Y-67054000D01*
G75*
G02*
X229385000Y-67204000I-150000J0D01*
G01*
G37*
G36*
G01*
X228115000Y-67204000D02*
X227815000Y-67204000D01*
G75*
G02*
X227665000Y-67054000I0J150000D01*
G01*
X227665000Y-65404000D01*
G75*
G02*
X227815000Y-65254000I150000J0D01*
G01*
X228115000Y-65254000D01*
G75*
G02*
X228265000Y-65404000I0J-150000D01*
G01*
X228265000Y-67054000D01*
G75*
G02*
X228115000Y-67204000I-150000J0D01*
G01*
G37*
G36*
G01*
X226845000Y-67204000D02*
X226545000Y-67204000D01*
G75*
G02*
X226395000Y-67054000I0J150000D01*
G01*
X226395000Y-65404000D01*
G75*
G02*
X226545000Y-65254000I150000J0D01*
G01*
X226845000Y-65254000D01*
G75*
G02*
X226995000Y-65404000I0J-150000D01*
G01*
X226995000Y-67054000D01*
G75*
G02*
X226845000Y-67204000I-150000J0D01*
G01*
G37*
G36*
G01*
X225575000Y-67204000D02*
X225275000Y-67204000D01*
G75*
G02*
X225125000Y-67054000I0J150000D01*
G01*
X225125000Y-65404000D01*
G75*
G02*
X225275000Y-65254000I150000J0D01*
G01*
X225575000Y-65254000D01*
G75*
G02*
X225725000Y-65404000I0J-150000D01*
G01*
X225725000Y-67054000D01*
G75*
G02*
X225575000Y-67204000I-150000J0D01*
G01*
G37*
%TD*%
%TO.C,U21*%
G36*
G01*
X180109000Y-62951000D02*
X179809000Y-62951000D01*
G75*
G02*
X179659000Y-62801000I0J150000D01*
G01*
X179659000Y-61151000D01*
G75*
G02*
X179809000Y-61001000I150000J0D01*
G01*
X180109000Y-61001000D01*
G75*
G02*
X180259000Y-61151000I0J-150000D01*
G01*
X180259000Y-62801000D01*
G75*
G02*
X180109000Y-62951000I-150000J0D01*
G01*
G37*
G36*
G01*
X181379000Y-62951000D02*
X181079000Y-62951000D01*
G75*
G02*
X180929000Y-62801000I0J150000D01*
G01*
X180929000Y-61151000D01*
G75*
G02*
X181079000Y-61001000I150000J0D01*
G01*
X181379000Y-61001000D01*
G75*
G02*
X181529000Y-61151000I0J-150000D01*
G01*
X181529000Y-62801000D01*
G75*
G02*
X181379000Y-62951000I-150000J0D01*
G01*
G37*
G36*
G01*
X182649000Y-62951000D02*
X182349000Y-62951000D01*
G75*
G02*
X182199000Y-62801000I0J150000D01*
G01*
X182199000Y-61151000D01*
G75*
G02*
X182349000Y-61001000I150000J0D01*
G01*
X182649000Y-61001000D01*
G75*
G02*
X182799000Y-61151000I0J-150000D01*
G01*
X182799000Y-62801000D01*
G75*
G02*
X182649000Y-62951000I-150000J0D01*
G01*
G37*
G36*
G01*
X183919000Y-62951000D02*
X183619000Y-62951000D01*
G75*
G02*
X183469000Y-62801000I0J150000D01*
G01*
X183469000Y-61151000D01*
G75*
G02*
X183619000Y-61001000I150000J0D01*
G01*
X183919000Y-61001000D01*
G75*
G02*
X184069000Y-61151000I0J-150000D01*
G01*
X184069000Y-62801000D01*
G75*
G02*
X183919000Y-62951000I-150000J0D01*
G01*
G37*
G36*
G01*
X183919000Y-67901000D02*
X183619000Y-67901000D01*
G75*
G02*
X183469000Y-67751000I0J150000D01*
G01*
X183469000Y-66101000D01*
G75*
G02*
X183619000Y-65951000I150000J0D01*
G01*
X183919000Y-65951000D01*
G75*
G02*
X184069000Y-66101000I0J-150000D01*
G01*
X184069000Y-67751000D01*
G75*
G02*
X183919000Y-67901000I-150000J0D01*
G01*
G37*
G36*
G01*
X182649000Y-67901000D02*
X182349000Y-67901000D01*
G75*
G02*
X182199000Y-67751000I0J150000D01*
G01*
X182199000Y-66101000D01*
G75*
G02*
X182349000Y-65951000I150000J0D01*
G01*
X182649000Y-65951000D01*
G75*
G02*
X182799000Y-66101000I0J-150000D01*
G01*
X182799000Y-67751000D01*
G75*
G02*
X182649000Y-67901000I-150000J0D01*
G01*
G37*
G36*
G01*
X181379000Y-67901000D02*
X181079000Y-67901000D01*
G75*
G02*
X180929000Y-67751000I0J150000D01*
G01*
X180929000Y-66101000D01*
G75*
G02*
X181079000Y-65951000I150000J0D01*
G01*
X181379000Y-65951000D01*
G75*
G02*
X181529000Y-66101000I0J-150000D01*
G01*
X181529000Y-67751000D01*
G75*
G02*
X181379000Y-67901000I-150000J0D01*
G01*
G37*
G36*
G01*
X180109000Y-67901000D02*
X179809000Y-67901000D01*
G75*
G02*
X179659000Y-67751000I0J150000D01*
G01*
X179659000Y-66101000D01*
G75*
G02*
X179809000Y-65951000I150000J0D01*
G01*
X180109000Y-65951000D01*
G75*
G02*
X180259000Y-66101000I0J-150000D01*
G01*
X180259000Y-67751000D01*
G75*
G02*
X180109000Y-67901000I-150000J0D01*
G01*
G37*
%TD*%
%TO.C,U20*%
G36*
G01*
X110005000Y-56920000D02*
X109705000Y-56920000D01*
G75*
G02*
X109555000Y-56770000I0J150000D01*
G01*
X109555000Y-55120000D01*
G75*
G02*
X109705000Y-54970000I150000J0D01*
G01*
X110005000Y-54970000D01*
G75*
G02*
X110155000Y-55120000I0J-150000D01*
G01*
X110155000Y-56770000D01*
G75*
G02*
X110005000Y-56920000I-150000J0D01*
G01*
G37*
G36*
G01*
X111275000Y-56920000D02*
X110975000Y-56920000D01*
G75*
G02*
X110825000Y-56770000I0J150000D01*
G01*
X110825000Y-55120000D01*
G75*
G02*
X110975000Y-54970000I150000J0D01*
G01*
X111275000Y-54970000D01*
G75*
G02*
X111425000Y-55120000I0J-150000D01*
G01*
X111425000Y-56770000D01*
G75*
G02*
X111275000Y-56920000I-150000J0D01*
G01*
G37*
G36*
G01*
X112545000Y-56920000D02*
X112245000Y-56920000D01*
G75*
G02*
X112095000Y-56770000I0J150000D01*
G01*
X112095000Y-55120000D01*
G75*
G02*
X112245000Y-54970000I150000J0D01*
G01*
X112545000Y-54970000D01*
G75*
G02*
X112695000Y-55120000I0J-150000D01*
G01*
X112695000Y-56770000D01*
G75*
G02*
X112545000Y-56920000I-150000J0D01*
G01*
G37*
G36*
G01*
X113815000Y-56920000D02*
X113515000Y-56920000D01*
G75*
G02*
X113365000Y-56770000I0J150000D01*
G01*
X113365000Y-55120000D01*
G75*
G02*
X113515000Y-54970000I150000J0D01*
G01*
X113815000Y-54970000D01*
G75*
G02*
X113965000Y-55120000I0J-150000D01*
G01*
X113965000Y-56770000D01*
G75*
G02*
X113815000Y-56920000I-150000J0D01*
G01*
G37*
G36*
G01*
X113815000Y-61870000D02*
X113515000Y-61870000D01*
G75*
G02*
X113365000Y-61720000I0J150000D01*
G01*
X113365000Y-60070000D01*
G75*
G02*
X113515000Y-59920000I150000J0D01*
G01*
X113815000Y-59920000D01*
G75*
G02*
X113965000Y-60070000I0J-150000D01*
G01*
X113965000Y-61720000D01*
G75*
G02*
X113815000Y-61870000I-150000J0D01*
G01*
G37*
G36*
G01*
X112545000Y-61870000D02*
X112245000Y-61870000D01*
G75*
G02*
X112095000Y-61720000I0J150000D01*
G01*
X112095000Y-60070000D01*
G75*
G02*
X112245000Y-59920000I150000J0D01*
G01*
X112545000Y-59920000D01*
G75*
G02*
X112695000Y-60070000I0J-150000D01*
G01*
X112695000Y-61720000D01*
G75*
G02*
X112545000Y-61870000I-150000J0D01*
G01*
G37*
G36*
G01*
X111275000Y-61870000D02*
X110975000Y-61870000D01*
G75*
G02*
X110825000Y-61720000I0J150000D01*
G01*
X110825000Y-60070000D01*
G75*
G02*
X110975000Y-59920000I150000J0D01*
G01*
X111275000Y-59920000D01*
G75*
G02*
X111425000Y-60070000I0J-150000D01*
G01*
X111425000Y-61720000D01*
G75*
G02*
X111275000Y-61870000I-150000J0D01*
G01*
G37*
G36*
G01*
X110005000Y-61870000D02*
X109705000Y-61870000D01*
G75*
G02*
X109555000Y-61720000I0J150000D01*
G01*
X109555000Y-60070000D01*
G75*
G02*
X109705000Y-59920000I150000J0D01*
G01*
X110005000Y-59920000D01*
G75*
G02*
X110155000Y-60070000I0J-150000D01*
G01*
X110155000Y-61720000D01*
G75*
G02*
X110005000Y-61870000I-150000J0D01*
G01*
G37*
%TD*%
%TO.C,U19*%
X187264000Y-51478000D03*
X189164000Y-51478000D03*
X189164000Y-53678000D03*
X188214000Y-53678000D03*
X187264000Y-53678000D03*
%TD*%
%TO.C,U18*%
G36*
G01*
X188618000Y-62951000D02*
X188318000Y-62951000D01*
G75*
G02*
X188168000Y-62801000I0J150000D01*
G01*
X188168000Y-61151000D01*
G75*
G02*
X188318000Y-61001000I150000J0D01*
G01*
X188618000Y-61001000D01*
G75*
G02*
X188768000Y-61151000I0J-150000D01*
G01*
X188768000Y-62801000D01*
G75*
G02*
X188618000Y-62951000I-150000J0D01*
G01*
G37*
G36*
G01*
X189888000Y-62951000D02*
X189588000Y-62951000D01*
G75*
G02*
X189438000Y-62801000I0J150000D01*
G01*
X189438000Y-61151000D01*
G75*
G02*
X189588000Y-61001000I150000J0D01*
G01*
X189888000Y-61001000D01*
G75*
G02*
X190038000Y-61151000I0J-150000D01*
G01*
X190038000Y-62801000D01*
G75*
G02*
X189888000Y-62951000I-150000J0D01*
G01*
G37*
G36*
G01*
X191158000Y-62951000D02*
X190858000Y-62951000D01*
G75*
G02*
X190708000Y-62801000I0J150000D01*
G01*
X190708000Y-61151000D01*
G75*
G02*
X190858000Y-61001000I150000J0D01*
G01*
X191158000Y-61001000D01*
G75*
G02*
X191308000Y-61151000I0J-150000D01*
G01*
X191308000Y-62801000D01*
G75*
G02*
X191158000Y-62951000I-150000J0D01*
G01*
G37*
G36*
G01*
X192428000Y-62951000D02*
X192128000Y-62951000D01*
G75*
G02*
X191978000Y-62801000I0J150000D01*
G01*
X191978000Y-61151000D01*
G75*
G02*
X192128000Y-61001000I150000J0D01*
G01*
X192428000Y-61001000D01*
G75*
G02*
X192578000Y-61151000I0J-150000D01*
G01*
X192578000Y-62801000D01*
G75*
G02*
X192428000Y-62951000I-150000J0D01*
G01*
G37*
G36*
G01*
X192428000Y-67901000D02*
X192128000Y-67901000D01*
G75*
G02*
X191978000Y-67751000I0J150000D01*
G01*
X191978000Y-66101000D01*
G75*
G02*
X192128000Y-65951000I150000J0D01*
G01*
X192428000Y-65951000D01*
G75*
G02*
X192578000Y-66101000I0J-150000D01*
G01*
X192578000Y-67751000D01*
G75*
G02*
X192428000Y-67901000I-150000J0D01*
G01*
G37*
G36*
G01*
X191158000Y-67901000D02*
X190858000Y-67901000D01*
G75*
G02*
X190708000Y-67751000I0J150000D01*
G01*
X190708000Y-66101000D01*
G75*
G02*
X190858000Y-65951000I150000J0D01*
G01*
X191158000Y-65951000D01*
G75*
G02*
X191308000Y-66101000I0J-150000D01*
G01*
X191308000Y-67751000D01*
G75*
G02*
X191158000Y-67901000I-150000J0D01*
G01*
G37*
G36*
G01*
X189888000Y-67901000D02*
X189588000Y-67901000D01*
G75*
G02*
X189438000Y-67751000I0J150000D01*
G01*
X189438000Y-66101000D01*
G75*
G02*
X189588000Y-65951000I150000J0D01*
G01*
X189888000Y-65951000D01*
G75*
G02*
X190038000Y-66101000I0J-150000D01*
G01*
X190038000Y-67751000D01*
G75*
G02*
X189888000Y-67901000I-150000J0D01*
G01*
G37*
G36*
G01*
X188618000Y-67901000D02*
X188318000Y-67901000D01*
G75*
G02*
X188168000Y-67751000I0J150000D01*
G01*
X188168000Y-66101000D01*
G75*
G02*
X188318000Y-65951000I150000J0D01*
G01*
X188618000Y-65951000D01*
G75*
G02*
X188768000Y-66101000I0J-150000D01*
G01*
X188768000Y-67751000D01*
G75*
G02*
X188618000Y-67901000I-150000J0D01*
G01*
G37*
%TD*%
%TO.C,U17*%
G36*
G01*
X163345000Y-56920000D02*
X163045000Y-56920000D01*
G75*
G02*
X162895000Y-56770000I0J150000D01*
G01*
X162895000Y-55120000D01*
G75*
G02*
X163045000Y-54970000I150000J0D01*
G01*
X163345000Y-54970000D01*
G75*
G02*
X163495000Y-55120000I0J-150000D01*
G01*
X163495000Y-56770000D01*
G75*
G02*
X163345000Y-56920000I-150000J0D01*
G01*
G37*
G36*
G01*
X164615000Y-56920000D02*
X164315000Y-56920000D01*
G75*
G02*
X164165000Y-56770000I0J150000D01*
G01*
X164165000Y-55120000D01*
G75*
G02*
X164315000Y-54970000I150000J0D01*
G01*
X164615000Y-54970000D01*
G75*
G02*
X164765000Y-55120000I0J-150000D01*
G01*
X164765000Y-56770000D01*
G75*
G02*
X164615000Y-56920000I-150000J0D01*
G01*
G37*
G36*
G01*
X165885000Y-56920000D02*
X165585000Y-56920000D01*
G75*
G02*
X165435000Y-56770000I0J150000D01*
G01*
X165435000Y-55120000D01*
G75*
G02*
X165585000Y-54970000I150000J0D01*
G01*
X165885000Y-54970000D01*
G75*
G02*
X166035000Y-55120000I0J-150000D01*
G01*
X166035000Y-56770000D01*
G75*
G02*
X165885000Y-56920000I-150000J0D01*
G01*
G37*
G36*
G01*
X167155000Y-56920000D02*
X166855000Y-56920000D01*
G75*
G02*
X166705000Y-56770000I0J150000D01*
G01*
X166705000Y-55120000D01*
G75*
G02*
X166855000Y-54970000I150000J0D01*
G01*
X167155000Y-54970000D01*
G75*
G02*
X167305000Y-55120000I0J-150000D01*
G01*
X167305000Y-56770000D01*
G75*
G02*
X167155000Y-56920000I-150000J0D01*
G01*
G37*
G36*
G01*
X167155000Y-61870000D02*
X166855000Y-61870000D01*
G75*
G02*
X166705000Y-61720000I0J150000D01*
G01*
X166705000Y-60070000D01*
G75*
G02*
X166855000Y-59920000I150000J0D01*
G01*
X167155000Y-59920000D01*
G75*
G02*
X167305000Y-60070000I0J-150000D01*
G01*
X167305000Y-61720000D01*
G75*
G02*
X167155000Y-61870000I-150000J0D01*
G01*
G37*
G36*
G01*
X165885000Y-61870000D02*
X165585000Y-61870000D01*
G75*
G02*
X165435000Y-61720000I0J150000D01*
G01*
X165435000Y-60070000D01*
G75*
G02*
X165585000Y-59920000I150000J0D01*
G01*
X165885000Y-59920000D01*
G75*
G02*
X166035000Y-60070000I0J-150000D01*
G01*
X166035000Y-61720000D01*
G75*
G02*
X165885000Y-61870000I-150000J0D01*
G01*
G37*
G36*
G01*
X164615000Y-61870000D02*
X164315000Y-61870000D01*
G75*
G02*
X164165000Y-61720000I0J150000D01*
G01*
X164165000Y-60070000D01*
G75*
G02*
X164315000Y-59920000I150000J0D01*
G01*
X164615000Y-59920000D01*
G75*
G02*
X164765000Y-60070000I0J-150000D01*
G01*
X164765000Y-61720000D01*
G75*
G02*
X164615000Y-61870000I-150000J0D01*
G01*
G37*
G36*
G01*
X163345000Y-61870000D02*
X163045000Y-61870000D01*
G75*
G02*
X162895000Y-61720000I0J150000D01*
G01*
X162895000Y-60070000D01*
G75*
G02*
X163045000Y-59920000I150000J0D01*
G01*
X163345000Y-59920000D01*
G75*
G02*
X163495000Y-60070000I0J-150000D01*
G01*
X163495000Y-61720000D01*
G75*
G02*
X163345000Y-61870000I-150000J0D01*
G01*
G37*
%TD*%
%TO.C,U16*%
X162626000Y-45382000D03*
X164526000Y-45382000D03*
X164526000Y-47582000D03*
X163576000Y-47582000D03*
X162626000Y-47582000D03*
%TD*%
%TO.C,U15*%
X207584000Y-50970000D03*
X209484000Y-50970000D03*
X209484000Y-53170000D03*
X208534000Y-53170000D03*
X207584000Y-53170000D03*
%TD*%
%TO.C,U13*%
X216474000Y-50716000D03*
X218374000Y-50716000D03*
X218374000Y-52916000D03*
X217424000Y-52916000D03*
X216474000Y-52916000D03*
%TD*%
%TO.C,U12*%
X135448000Y-45636000D03*
X137348000Y-45636000D03*
X137348000Y-47836000D03*
X136398000Y-47836000D03*
X135448000Y-47836000D03*
%TD*%
%TO.C,U11*%
G36*
G01*
X207287000Y-62000000D02*
X206987000Y-62000000D01*
G75*
G02*
X206837000Y-61850000I0J150000D01*
G01*
X206837000Y-60200000D01*
G75*
G02*
X206987000Y-60050000I150000J0D01*
G01*
X207287000Y-60050000D01*
G75*
G02*
X207437000Y-60200000I0J-150000D01*
G01*
X207437000Y-61850000D01*
G75*
G02*
X207287000Y-62000000I-150000J0D01*
G01*
G37*
G36*
G01*
X208557000Y-62000000D02*
X208257000Y-62000000D01*
G75*
G02*
X208107000Y-61850000I0J150000D01*
G01*
X208107000Y-60200000D01*
G75*
G02*
X208257000Y-60050000I150000J0D01*
G01*
X208557000Y-60050000D01*
G75*
G02*
X208707000Y-60200000I0J-150000D01*
G01*
X208707000Y-61850000D01*
G75*
G02*
X208557000Y-62000000I-150000J0D01*
G01*
G37*
G36*
G01*
X209827000Y-62000000D02*
X209527000Y-62000000D01*
G75*
G02*
X209377000Y-61850000I0J150000D01*
G01*
X209377000Y-60200000D01*
G75*
G02*
X209527000Y-60050000I150000J0D01*
G01*
X209827000Y-60050000D01*
G75*
G02*
X209977000Y-60200000I0J-150000D01*
G01*
X209977000Y-61850000D01*
G75*
G02*
X209827000Y-62000000I-150000J0D01*
G01*
G37*
G36*
G01*
X211097000Y-62000000D02*
X210797000Y-62000000D01*
G75*
G02*
X210647000Y-61850000I0J150000D01*
G01*
X210647000Y-60200000D01*
G75*
G02*
X210797000Y-60050000I150000J0D01*
G01*
X211097000Y-60050000D01*
G75*
G02*
X211247000Y-60200000I0J-150000D01*
G01*
X211247000Y-61850000D01*
G75*
G02*
X211097000Y-62000000I-150000J0D01*
G01*
G37*
G36*
G01*
X211097000Y-66950000D02*
X210797000Y-66950000D01*
G75*
G02*
X210647000Y-66800000I0J150000D01*
G01*
X210647000Y-65150000D01*
G75*
G02*
X210797000Y-65000000I150000J0D01*
G01*
X211097000Y-65000000D01*
G75*
G02*
X211247000Y-65150000I0J-150000D01*
G01*
X211247000Y-66800000D01*
G75*
G02*
X211097000Y-66950000I-150000J0D01*
G01*
G37*
G36*
G01*
X209827000Y-66950000D02*
X209527000Y-66950000D01*
G75*
G02*
X209377000Y-66800000I0J150000D01*
G01*
X209377000Y-65150000D01*
G75*
G02*
X209527000Y-65000000I150000J0D01*
G01*
X209827000Y-65000000D01*
G75*
G02*
X209977000Y-65150000I0J-150000D01*
G01*
X209977000Y-66800000D01*
G75*
G02*
X209827000Y-66950000I-150000J0D01*
G01*
G37*
G36*
G01*
X208557000Y-66950000D02*
X208257000Y-66950000D01*
G75*
G02*
X208107000Y-66800000I0J150000D01*
G01*
X208107000Y-65150000D01*
G75*
G02*
X208257000Y-65000000I150000J0D01*
G01*
X208557000Y-65000000D01*
G75*
G02*
X208707000Y-65150000I0J-150000D01*
G01*
X208707000Y-66800000D01*
G75*
G02*
X208557000Y-66950000I-150000J0D01*
G01*
G37*
G36*
G01*
X207287000Y-66950000D02*
X206987000Y-66950000D01*
G75*
G02*
X206837000Y-66800000I0J150000D01*
G01*
X206837000Y-65150000D01*
G75*
G02*
X206987000Y-65000000I150000J0D01*
G01*
X207287000Y-65000000D01*
G75*
G02*
X207437000Y-65150000I0J-150000D01*
G01*
X207437000Y-66800000D01*
G75*
G02*
X207287000Y-66950000I-150000J0D01*
G01*
G37*
%TD*%
%TO.C,U9*%
G36*
G01*
X215161000Y-62000000D02*
X214861000Y-62000000D01*
G75*
G02*
X214711000Y-61850000I0J150000D01*
G01*
X214711000Y-60200000D01*
G75*
G02*
X214861000Y-60050000I150000J0D01*
G01*
X215161000Y-60050000D01*
G75*
G02*
X215311000Y-60200000I0J-150000D01*
G01*
X215311000Y-61850000D01*
G75*
G02*
X215161000Y-62000000I-150000J0D01*
G01*
G37*
G36*
G01*
X216431000Y-62000000D02*
X216131000Y-62000000D01*
G75*
G02*
X215981000Y-61850000I0J150000D01*
G01*
X215981000Y-60200000D01*
G75*
G02*
X216131000Y-60050000I150000J0D01*
G01*
X216431000Y-60050000D01*
G75*
G02*
X216581000Y-60200000I0J-150000D01*
G01*
X216581000Y-61850000D01*
G75*
G02*
X216431000Y-62000000I-150000J0D01*
G01*
G37*
G36*
G01*
X217701000Y-62000000D02*
X217401000Y-62000000D01*
G75*
G02*
X217251000Y-61850000I0J150000D01*
G01*
X217251000Y-60200000D01*
G75*
G02*
X217401000Y-60050000I150000J0D01*
G01*
X217701000Y-60050000D01*
G75*
G02*
X217851000Y-60200000I0J-150000D01*
G01*
X217851000Y-61850000D01*
G75*
G02*
X217701000Y-62000000I-150000J0D01*
G01*
G37*
G36*
G01*
X218971000Y-62000000D02*
X218671000Y-62000000D01*
G75*
G02*
X218521000Y-61850000I0J150000D01*
G01*
X218521000Y-60200000D01*
G75*
G02*
X218671000Y-60050000I150000J0D01*
G01*
X218971000Y-60050000D01*
G75*
G02*
X219121000Y-60200000I0J-150000D01*
G01*
X219121000Y-61850000D01*
G75*
G02*
X218971000Y-62000000I-150000J0D01*
G01*
G37*
G36*
G01*
X218971000Y-66950000D02*
X218671000Y-66950000D01*
G75*
G02*
X218521000Y-66800000I0J150000D01*
G01*
X218521000Y-65150000D01*
G75*
G02*
X218671000Y-65000000I150000J0D01*
G01*
X218971000Y-65000000D01*
G75*
G02*
X219121000Y-65150000I0J-150000D01*
G01*
X219121000Y-66800000D01*
G75*
G02*
X218971000Y-66950000I-150000J0D01*
G01*
G37*
G36*
G01*
X217701000Y-66950000D02*
X217401000Y-66950000D01*
G75*
G02*
X217251000Y-66800000I0J150000D01*
G01*
X217251000Y-65150000D01*
G75*
G02*
X217401000Y-65000000I150000J0D01*
G01*
X217701000Y-65000000D01*
G75*
G02*
X217851000Y-65150000I0J-150000D01*
G01*
X217851000Y-66800000D01*
G75*
G02*
X217701000Y-66950000I-150000J0D01*
G01*
G37*
G36*
G01*
X216431000Y-66950000D02*
X216131000Y-66950000D01*
G75*
G02*
X215981000Y-66800000I0J150000D01*
G01*
X215981000Y-65150000D01*
G75*
G02*
X216131000Y-65000000I150000J0D01*
G01*
X216431000Y-65000000D01*
G75*
G02*
X216581000Y-65150000I0J-150000D01*
G01*
X216581000Y-66800000D01*
G75*
G02*
X216431000Y-66950000I-150000J0D01*
G01*
G37*
G36*
G01*
X215161000Y-66950000D02*
X214861000Y-66950000D01*
G75*
G02*
X214711000Y-66800000I0J150000D01*
G01*
X214711000Y-65150000D01*
G75*
G02*
X214861000Y-65000000I150000J0D01*
G01*
X215161000Y-65000000D01*
G75*
G02*
X215311000Y-65150000I0J-150000D01*
G01*
X215311000Y-66800000D01*
G75*
G02*
X215161000Y-66950000I-150000J0D01*
G01*
G37*
%TD*%
%TO.C,U8*%
G36*
G01*
X136040000Y-56855000D02*
X135740000Y-56855000D01*
G75*
G02*
X135590000Y-56705000I0J150000D01*
G01*
X135590000Y-55055000D01*
G75*
G02*
X135740000Y-54905000I150000J0D01*
G01*
X136040000Y-54905000D01*
G75*
G02*
X136190000Y-55055000I0J-150000D01*
G01*
X136190000Y-56705000D01*
G75*
G02*
X136040000Y-56855000I-150000J0D01*
G01*
G37*
G36*
G01*
X137310000Y-56855000D02*
X137010000Y-56855000D01*
G75*
G02*
X136860000Y-56705000I0J150000D01*
G01*
X136860000Y-55055000D01*
G75*
G02*
X137010000Y-54905000I150000J0D01*
G01*
X137310000Y-54905000D01*
G75*
G02*
X137460000Y-55055000I0J-150000D01*
G01*
X137460000Y-56705000D01*
G75*
G02*
X137310000Y-56855000I-150000J0D01*
G01*
G37*
G36*
G01*
X138580000Y-56855000D02*
X138280000Y-56855000D01*
G75*
G02*
X138130000Y-56705000I0J150000D01*
G01*
X138130000Y-55055000D01*
G75*
G02*
X138280000Y-54905000I150000J0D01*
G01*
X138580000Y-54905000D01*
G75*
G02*
X138730000Y-55055000I0J-150000D01*
G01*
X138730000Y-56705000D01*
G75*
G02*
X138580000Y-56855000I-150000J0D01*
G01*
G37*
G36*
G01*
X139850000Y-56855000D02*
X139550000Y-56855000D01*
G75*
G02*
X139400000Y-56705000I0J150000D01*
G01*
X139400000Y-55055000D01*
G75*
G02*
X139550000Y-54905000I150000J0D01*
G01*
X139850000Y-54905000D01*
G75*
G02*
X140000000Y-55055000I0J-150000D01*
G01*
X140000000Y-56705000D01*
G75*
G02*
X139850000Y-56855000I-150000J0D01*
G01*
G37*
G36*
G01*
X139850000Y-61805000D02*
X139550000Y-61805000D01*
G75*
G02*
X139400000Y-61655000I0J150000D01*
G01*
X139400000Y-60005000D01*
G75*
G02*
X139550000Y-59855000I150000J0D01*
G01*
X139850000Y-59855000D01*
G75*
G02*
X140000000Y-60005000I0J-150000D01*
G01*
X140000000Y-61655000D01*
G75*
G02*
X139850000Y-61805000I-150000J0D01*
G01*
G37*
G36*
G01*
X138580000Y-61805000D02*
X138280000Y-61805000D01*
G75*
G02*
X138130000Y-61655000I0J150000D01*
G01*
X138130000Y-60005000D01*
G75*
G02*
X138280000Y-59855000I150000J0D01*
G01*
X138580000Y-59855000D01*
G75*
G02*
X138730000Y-60005000I0J-150000D01*
G01*
X138730000Y-61655000D01*
G75*
G02*
X138580000Y-61805000I-150000J0D01*
G01*
G37*
G36*
G01*
X137310000Y-61805000D02*
X137010000Y-61805000D01*
G75*
G02*
X136860000Y-61655000I0J150000D01*
G01*
X136860000Y-60005000D01*
G75*
G02*
X137010000Y-59855000I150000J0D01*
G01*
X137310000Y-59855000D01*
G75*
G02*
X137460000Y-60005000I0J-150000D01*
G01*
X137460000Y-61655000D01*
G75*
G02*
X137310000Y-61805000I-150000J0D01*
G01*
G37*
G36*
G01*
X136040000Y-61805000D02*
X135740000Y-61805000D01*
G75*
G02*
X135590000Y-61655000I0J150000D01*
G01*
X135590000Y-60005000D01*
G75*
G02*
X135740000Y-59855000I150000J0D01*
G01*
X136040000Y-59855000D01*
G75*
G02*
X136190000Y-60005000I0J-150000D01*
G01*
X136190000Y-61655000D01*
G75*
G02*
X136040000Y-61805000I-150000J0D01*
G01*
G37*
%TD*%
%TO.C,U2*%
X83124000Y-43858000D03*
X85024000Y-43858000D03*
X85024000Y-46058000D03*
X84074000Y-46058000D03*
X83124000Y-46058000D03*
%TD*%
D17*
%TO.C,U1*%
X207264000Y-86078000D03*
D18*
X209804000Y-86078000D03*
X212344000Y-86078000D03*
%TD*%
%TO.C,R33*%
G36*
G01*
X191532500Y-90520000D02*
X192007500Y-90520000D01*
G75*
G02*
X192245000Y-90757500I0J-237500D01*
G01*
X192245000Y-91332500D01*
G75*
G02*
X192007500Y-91570000I-237500J0D01*
G01*
X191532500Y-91570000D01*
G75*
G02*
X191295000Y-91332500I0J237500D01*
G01*
X191295000Y-90757500D01*
G75*
G02*
X191532500Y-90520000I237500J0D01*
G01*
G37*
G36*
G01*
X191532500Y-88770000D02*
X192007500Y-88770000D01*
G75*
G02*
X192245000Y-89007500I0J-237500D01*
G01*
X192245000Y-89582500D01*
G75*
G02*
X192007500Y-89820000I-237500J0D01*
G01*
X191532500Y-89820000D01*
G75*
G02*
X191295000Y-89582500I0J237500D01*
G01*
X191295000Y-89007500D01*
G75*
G02*
X191532500Y-88770000I237500J0D01*
G01*
G37*
%TD*%
%TO.C,R32*%
G36*
G01*
X175022500Y-90520000D02*
X175497500Y-90520000D01*
G75*
G02*
X175735000Y-90757500I0J-237500D01*
G01*
X175735000Y-91332500D01*
G75*
G02*
X175497500Y-91570000I-237500J0D01*
G01*
X175022500Y-91570000D01*
G75*
G02*
X174785000Y-91332500I0J237500D01*
G01*
X174785000Y-90757500D01*
G75*
G02*
X175022500Y-90520000I237500J0D01*
G01*
G37*
G36*
G01*
X175022500Y-88770000D02*
X175497500Y-88770000D01*
G75*
G02*
X175735000Y-89007500I0J-237500D01*
G01*
X175735000Y-89582500D01*
G75*
G02*
X175497500Y-89820000I-237500J0D01*
G01*
X175022500Y-89820000D01*
G75*
G02*
X174785000Y-89582500I0J237500D01*
G01*
X174785000Y-89007500D01*
G75*
G02*
X175022500Y-88770000I237500J0D01*
G01*
G37*
%TD*%
%TO.C,R31*%
G36*
G01*
X158766500Y-90520000D02*
X159241500Y-90520000D01*
G75*
G02*
X159479000Y-90757500I0J-237500D01*
G01*
X159479000Y-91332500D01*
G75*
G02*
X159241500Y-91570000I-237500J0D01*
G01*
X158766500Y-91570000D01*
G75*
G02*
X158529000Y-91332500I0J237500D01*
G01*
X158529000Y-90757500D01*
G75*
G02*
X158766500Y-90520000I237500J0D01*
G01*
G37*
G36*
G01*
X158766500Y-88770000D02*
X159241500Y-88770000D01*
G75*
G02*
X159479000Y-89007500I0J-237500D01*
G01*
X159479000Y-89582500D01*
G75*
G02*
X159241500Y-89820000I-237500J0D01*
G01*
X158766500Y-89820000D01*
G75*
G02*
X158529000Y-89582500I0J237500D01*
G01*
X158529000Y-89007500D01*
G75*
G02*
X158766500Y-88770000I237500J0D01*
G01*
G37*
%TD*%
%TO.C,R30*%
G36*
G01*
X228885000Y-68342500D02*
X228885000Y-68817500D01*
G75*
G02*
X228647500Y-69055000I-237500J0D01*
G01*
X228072500Y-69055000D01*
G75*
G02*
X227835000Y-68817500I0J237500D01*
G01*
X227835000Y-68342500D01*
G75*
G02*
X228072500Y-68105000I237500J0D01*
G01*
X228647500Y-68105000D01*
G75*
G02*
X228885000Y-68342500I0J-237500D01*
G01*
G37*
G36*
G01*
X230635000Y-68342500D02*
X230635000Y-68817500D01*
G75*
G02*
X230397500Y-69055000I-237500J0D01*
G01*
X229822500Y-69055000D01*
G75*
G02*
X229585000Y-68817500I0J237500D01*
G01*
X229585000Y-68342500D01*
G75*
G02*
X229822500Y-68105000I237500J0D01*
G01*
X230397500Y-68105000D01*
G75*
G02*
X230635000Y-68342500I0J-237500D01*
G01*
G37*
%TD*%
%TO.C,R29*%
G36*
G01*
X183546000Y-69104500D02*
X183546000Y-69579500D01*
G75*
G02*
X183308500Y-69817000I-237500J0D01*
G01*
X182733500Y-69817000D01*
G75*
G02*
X182496000Y-69579500I0J237500D01*
G01*
X182496000Y-69104500D01*
G75*
G02*
X182733500Y-68867000I237500J0D01*
G01*
X183308500Y-68867000D01*
G75*
G02*
X183546000Y-69104500I0J-237500D01*
G01*
G37*
G36*
G01*
X185296000Y-69104500D02*
X185296000Y-69579500D01*
G75*
G02*
X185058500Y-69817000I-237500J0D01*
G01*
X184483500Y-69817000D01*
G75*
G02*
X184246000Y-69579500I0J237500D01*
G01*
X184246000Y-69104500D01*
G75*
G02*
X184483500Y-68867000I237500J0D01*
G01*
X185058500Y-68867000D01*
G75*
G02*
X185296000Y-69104500I0J-237500D01*
G01*
G37*
%TD*%
%TO.C,R28*%
G36*
G01*
X113188000Y-63008500D02*
X113188000Y-63483500D01*
G75*
G02*
X112950500Y-63721000I-237500J0D01*
G01*
X112375500Y-63721000D01*
G75*
G02*
X112138000Y-63483500I0J237500D01*
G01*
X112138000Y-63008500D01*
G75*
G02*
X112375500Y-62771000I237500J0D01*
G01*
X112950500Y-62771000D01*
G75*
G02*
X113188000Y-63008500I0J-237500D01*
G01*
G37*
G36*
G01*
X114938000Y-63008500D02*
X114938000Y-63483500D01*
G75*
G02*
X114700500Y-63721000I-237500J0D01*
G01*
X114125500Y-63721000D01*
G75*
G02*
X113888000Y-63483500I0J237500D01*
G01*
X113888000Y-63008500D01*
G75*
G02*
X114125500Y-62771000I237500J0D01*
G01*
X114700500Y-62771000D01*
G75*
G02*
X114938000Y-63008500I0J-237500D01*
G01*
G37*
%TD*%
%TO.C,R27*%
G36*
G01*
X192182000Y-69104500D02*
X192182000Y-69579500D01*
G75*
G02*
X191944500Y-69817000I-237500J0D01*
G01*
X191369500Y-69817000D01*
G75*
G02*
X191132000Y-69579500I0J237500D01*
G01*
X191132000Y-69104500D01*
G75*
G02*
X191369500Y-68867000I237500J0D01*
G01*
X191944500Y-68867000D01*
G75*
G02*
X192182000Y-69104500I0J-237500D01*
G01*
G37*
G36*
G01*
X193932000Y-69104500D02*
X193932000Y-69579500D01*
G75*
G02*
X193694500Y-69817000I-237500J0D01*
G01*
X193119500Y-69817000D01*
G75*
G02*
X192882000Y-69579500I0J237500D01*
G01*
X192882000Y-69104500D01*
G75*
G02*
X193119500Y-68867000I237500J0D01*
G01*
X193694500Y-68867000D01*
G75*
G02*
X193932000Y-69104500I0J-237500D01*
G01*
G37*
%TD*%
%TO.C,R25*%
G36*
G01*
X170450500Y-90520000D02*
X170925500Y-90520000D01*
G75*
G02*
X171163000Y-90757500I0J-237500D01*
G01*
X171163000Y-91332500D01*
G75*
G02*
X170925500Y-91570000I-237500J0D01*
G01*
X170450500Y-91570000D01*
G75*
G02*
X170213000Y-91332500I0J237500D01*
G01*
X170213000Y-90757500D01*
G75*
G02*
X170450500Y-90520000I237500J0D01*
G01*
G37*
G36*
G01*
X170450500Y-88770000D02*
X170925500Y-88770000D01*
G75*
G02*
X171163000Y-89007500I0J-237500D01*
G01*
X171163000Y-89582500D01*
G75*
G02*
X170925500Y-89820000I-237500J0D01*
G01*
X170450500Y-89820000D01*
G75*
G02*
X170213000Y-89582500I0J237500D01*
G01*
X170213000Y-89007500D01*
G75*
G02*
X170450500Y-88770000I237500J0D01*
G01*
G37*
%TD*%
%TO.C,R24*%
G36*
G01*
X178324500Y-90520000D02*
X178799500Y-90520000D01*
G75*
G02*
X179037000Y-90757500I0J-237500D01*
G01*
X179037000Y-91332500D01*
G75*
G02*
X178799500Y-91570000I-237500J0D01*
G01*
X178324500Y-91570000D01*
G75*
G02*
X178087000Y-91332500I0J237500D01*
G01*
X178087000Y-90757500D01*
G75*
G02*
X178324500Y-90520000I237500J0D01*
G01*
G37*
G36*
G01*
X178324500Y-88770000D02*
X178799500Y-88770000D01*
G75*
G02*
X179037000Y-89007500I0J-237500D01*
G01*
X179037000Y-89582500D01*
G75*
G02*
X178799500Y-89820000I-237500J0D01*
G01*
X178324500Y-89820000D01*
G75*
G02*
X178087000Y-89582500I0J237500D01*
G01*
X178087000Y-89007500D01*
G75*
G02*
X178324500Y-88770000I237500J0D01*
G01*
G37*
%TD*%
%TO.C,R22*%
G36*
G01*
X166782000Y-63008500D02*
X166782000Y-63483500D01*
G75*
G02*
X166544500Y-63721000I-237500J0D01*
G01*
X165969500Y-63721000D01*
G75*
G02*
X165732000Y-63483500I0J237500D01*
G01*
X165732000Y-63008500D01*
G75*
G02*
X165969500Y-62771000I237500J0D01*
G01*
X166544500Y-62771000D01*
G75*
G02*
X166782000Y-63008500I0J-237500D01*
G01*
G37*
G36*
G01*
X168532000Y-63008500D02*
X168532000Y-63483500D01*
G75*
G02*
X168294500Y-63721000I-237500J0D01*
G01*
X167719500Y-63721000D01*
G75*
G02*
X167482000Y-63483500I0J237500D01*
G01*
X167482000Y-63008500D01*
G75*
G02*
X167719500Y-62771000I237500J0D01*
G01*
X168294500Y-62771000D01*
G75*
G02*
X168532000Y-63008500I0J-237500D01*
G01*
G37*
%TD*%
%TO.C,R19*%
G36*
G01*
X184928500Y-90520000D02*
X185403500Y-90520000D01*
G75*
G02*
X185641000Y-90757500I0J-237500D01*
G01*
X185641000Y-91332500D01*
G75*
G02*
X185403500Y-91570000I-237500J0D01*
G01*
X184928500Y-91570000D01*
G75*
G02*
X184691000Y-91332500I0J237500D01*
G01*
X184691000Y-90757500D01*
G75*
G02*
X184928500Y-90520000I237500J0D01*
G01*
G37*
G36*
G01*
X184928500Y-88770000D02*
X185403500Y-88770000D01*
G75*
G02*
X185641000Y-89007500I0J-237500D01*
G01*
X185641000Y-89582500D01*
G75*
G02*
X185403500Y-89820000I-237500J0D01*
G01*
X184928500Y-89820000D01*
G75*
G02*
X184691000Y-89582500I0J237500D01*
G01*
X184691000Y-89007500D01*
G75*
G02*
X184928500Y-88770000I237500J0D01*
G01*
G37*
%TD*%
%TO.C,R17*%
G36*
G01*
X181626500Y-90520000D02*
X182101500Y-90520000D01*
G75*
G02*
X182339000Y-90757500I0J-237500D01*
G01*
X182339000Y-91332500D01*
G75*
G02*
X182101500Y-91570000I-237500J0D01*
G01*
X181626500Y-91570000D01*
G75*
G02*
X181389000Y-91332500I0J237500D01*
G01*
X181389000Y-90757500D01*
G75*
G02*
X181626500Y-90520000I237500J0D01*
G01*
G37*
G36*
G01*
X181626500Y-88770000D02*
X182101500Y-88770000D01*
G75*
G02*
X182339000Y-89007500I0J-237500D01*
G01*
X182339000Y-89582500D01*
G75*
G02*
X182101500Y-89820000I-237500J0D01*
G01*
X181626500Y-89820000D01*
G75*
G02*
X181389000Y-89582500I0J237500D01*
G01*
X181389000Y-89007500D01*
G75*
G02*
X181626500Y-88770000I237500J0D01*
G01*
G37*
%TD*%
%TO.C,R15*%
G36*
G01*
X188230500Y-90520000D02*
X188705500Y-90520000D01*
G75*
G02*
X188943000Y-90757500I0J-237500D01*
G01*
X188943000Y-91332500D01*
G75*
G02*
X188705500Y-91570000I-237500J0D01*
G01*
X188230500Y-91570000D01*
G75*
G02*
X187993000Y-91332500I0J237500D01*
G01*
X187993000Y-90757500D01*
G75*
G02*
X188230500Y-90520000I237500J0D01*
G01*
G37*
G36*
G01*
X188230500Y-88770000D02*
X188705500Y-88770000D01*
G75*
G02*
X188943000Y-89007500I0J-237500D01*
G01*
X188943000Y-89582500D01*
G75*
G02*
X188705500Y-89820000I-237500J0D01*
G01*
X188230500Y-89820000D01*
G75*
G02*
X187993000Y-89582500I0J237500D01*
G01*
X187993000Y-89007500D01*
G75*
G02*
X188230500Y-88770000I237500J0D01*
G01*
G37*
%TD*%
%TO.C,R14*%
G36*
G01*
X164608500Y-90520000D02*
X165083500Y-90520000D01*
G75*
G02*
X165321000Y-90757500I0J-237500D01*
G01*
X165321000Y-91332500D01*
G75*
G02*
X165083500Y-91570000I-237500J0D01*
G01*
X164608500Y-91570000D01*
G75*
G02*
X164371000Y-91332500I0J237500D01*
G01*
X164371000Y-90757500D01*
G75*
G02*
X164608500Y-90520000I237500J0D01*
G01*
G37*
G36*
G01*
X164608500Y-88770000D02*
X165083500Y-88770000D01*
G75*
G02*
X165321000Y-89007500I0J-237500D01*
G01*
X165321000Y-89582500D01*
G75*
G02*
X165083500Y-89820000I-237500J0D01*
G01*
X164608500Y-89820000D01*
G75*
G02*
X164371000Y-89582500I0J237500D01*
G01*
X164371000Y-89007500D01*
G75*
G02*
X164608500Y-88770000I237500J0D01*
G01*
G37*
%TD*%
%TO.C,R13*%
G36*
G01*
X210978000Y-68088500D02*
X210978000Y-68563500D01*
G75*
G02*
X210740500Y-68801000I-237500J0D01*
G01*
X210165500Y-68801000D01*
G75*
G02*
X209928000Y-68563500I0J237500D01*
G01*
X209928000Y-68088500D01*
G75*
G02*
X210165500Y-67851000I237500J0D01*
G01*
X210740500Y-67851000D01*
G75*
G02*
X210978000Y-68088500I0J-237500D01*
G01*
G37*
G36*
G01*
X212728000Y-68088500D02*
X212728000Y-68563500D01*
G75*
G02*
X212490500Y-68801000I-237500J0D01*
G01*
X211915500Y-68801000D01*
G75*
G02*
X211678000Y-68563500I0J237500D01*
G01*
X211678000Y-68088500D01*
G75*
G02*
X211915500Y-67851000I237500J0D01*
G01*
X212490500Y-67851000D01*
G75*
G02*
X212728000Y-68088500I0J-237500D01*
G01*
G37*
%TD*%
%TO.C,R11*%
G36*
G01*
X218344000Y-68088500D02*
X218344000Y-68563500D01*
G75*
G02*
X218106500Y-68801000I-237500J0D01*
G01*
X217531500Y-68801000D01*
G75*
G02*
X217294000Y-68563500I0J237500D01*
G01*
X217294000Y-68088500D01*
G75*
G02*
X217531500Y-67851000I237500J0D01*
G01*
X218106500Y-67851000D01*
G75*
G02*
X218344000Y-68088500I0J-237500D01*
G01*
G37*
G36*
G01*
X220094000Y-68088500D02*
X220094000Y-68563500D01*
G75*
G02*
X219856500Y-68801000I-237500J0D01*
G01*
X219281500Y-68801000D01*
G75*
G02*
X219044000Y-68563500I0J237500D01*
G01*
X219044000Y-68088500D01*
G75*
G02*
X219281500Y-67851000I237500J0D01*
G01*
X219856500Y-67851000D01*
G75*
G02*
X220094000Y-68088500I0J-237500D01*
G01*
G37*
%TD*%
%TO.C,R10*%
G36*
G01*
X139096000Y-63008500D02*
X139096000Y-63483500D01*
G75*
G02*
X138858500Y-63721000I-237500J0D01*
G01*
X138283500Y-63721000D01*
G75*
G02*
X138046000Y-63483500I0J237500D01*
G01*
X138046000Y-63008500D01*
G75*
G02*
X138283500Y-62771000I237500J0D01*
G01*
X138858500Y-62771000D01*
G75*
G02*
X139096000Y-63008500I0J-237500D01*
G01*
G37*
G36*
G01*
X140846000Y-63008500D02*
X140846000Y-63483500D01*
G75*
G02*
X140608500Y-63721000I-237500J0D01*
G01*
X140033500Y-63721000D01*
G75*
G02*
X139796000Y-63483500I0J237500D01*
G01*
X139796000Y-63008500D01*
G75*
G02*
X140033500Y-62771000I237500J0D01*
G01*
X140608500Y-62771000D01*
G75*
G02*
X140846000Y-63008500I0J-237500D01*
G01*
G37*
%TD*%
%TO.C,R3*%
G36*
G01*
X152924500Y-90520000D02*
X153399500Y-90520000D01*
G75*
G02*
X153637000Y-90757500I0J-237500D01*
G01*
X153637000Y-91332500D01*
G75*
G02*
X153399500Y-91570000I-237500J0D01*
G01*
X152924500Y-91570000D01*
G75*
G02*
X152687000Y-91332500I0J237500D01*
G01*
X152687000Y-90757500D01*
G75*
G02*
X152924500Y-90520000I237500J0D01*
G01*
G37*
G36*
G01*
X152924500Y-88770000D02*
X153399500Y-88770000D01*
G75*
G02*
X153637000Y-89007500I0J-237500D01*
G01*
X153637000Y-89582500D01*
G75*
G02*
X153399500Y-89820000I-237500J0D01*
G01*
X152924500Y-89820000D01*
G75*
G02*
X152687000Y-89582500I0J237500D01*
G01*
X152687000Y-89007500D01*
G75*
G02*
X152924500Y-88770000I237500J0D01*
G01*
G37*
%TD*%
%TO.C,R1*%
G36*
G01*
X194834500Y-90520000D02*
X195309500Y-90520000D01*
G75*
G02*
X195547000Y-90757500I0J-237500D01*
G01*
X195547000Y-91332500D01*
G75*
G02*
X195309500Y-91570000I-237500J0D01*
G01*
X194834500Y-91570000D01*
G75*
G02*
X194597000Y-91332500I0J237500D01*
G01*
X194597000Y-90757500D01*
G75*
G02*
X194834500Y-90520000I237500J0D01*
G01*
G37*
G36*
G01*
X194834500Y-88770000D02*
X195309500Y-88770000D01*
G75*
G02*
X195547000Y-89007500I0J-237500D01*
G01*
X195547000Y-89582500D01*
G75*
G02*
X195309500Y-89820000I-237500J0D01*
G01*
X194834500Y-89820000D01*
G75*
G02*
X194597000Y-89582500I0J237500D01*
G01*
X194597000Y-89007500D01*
G75*
G02*
X194834500Y-88770000I237500J0D01*
G01*
G37*
%TD*%
D19*
%TO.C,Q8*%
X227854000Y-57912000D03*
X229854000Y-56962000D03*
X229854000Y-58862000D03*
%TD*%
D20*
%TO.C,Q7*%
X182372000Y-57090000D03*
X181422000Y-57090000D03*
X183322000Y-57090000D03*
X183322000Y-59690000D03*
X182372000Y-59690000D03*
X181422000Y-59690000D03*
%TD*%
%TO.C,Q6*%
X112268000Y-51024000D03*
X111318000Y-51024000D03*
X113218000Y-51024000D03*
X113218000Y-53624000D03*
X112268000Y-53624000D03*
X111318000Y-53624000D03*
%TD*%
%TO.C,Q5*%
X190942000Y-57120000D03*
X189992000Y-57120000D03*
X191892000Y-57120000D03*
X191892000Y-59720000D03*
X190942000Y-59720000D03*
X189992000Y-59720000D03*
%TD*%
%TO.C,Q4*%
X165608000Y-51024000D03*
X164658000Y-51024000D03*
X166558000Y-51024000D03*
X166558000Y-53624000D03*
X165608000Y-53624000D03*
X164658000Y-53624000D03*
%TD*%
D19*
%TO.C,Q3*%
X208804000Y-57592000D03*
X210804000Y-56642000D03*
X210804000Y-58542000D03*
%TD*%
D20*
%TO.C,Q2*%
X138430000Y-51024000D03*
X137480000Y-51024000D03*
X139380000Y-51024000D03*
X139380000Y-53624000D03*
X138430000Y-53624000D03*
X137480000Y-53624000D03*
%TD*%
D19*
%TO.C,Q1*%
X217440000Y-57658000D03*
X219440000Y-56708000D03*
X219440000Y-58608000D03*
%TD*%
D21*
%TO.C,F9*%
X121158000Y-72009000D03*
X117729000Y-72009000D03*
X117729000Y-58547000D03*
X121158000Y-58547000D03*
%TD*%
%TO.C,F8*%
X199517000Y-72009000D03*
X196088000Y-72009000D03*
X196088000Y-58547000D03*
X199517000Y-58547000D03*
%TD*%
%TO.C,F6*%
X147193000Y-72009000D03*
X143764000Y-72009000D03*
X143764000Y-58547000D03*
X147193000Y-58547000D03*
%TD*%
%TO.C,F1*%
X174371000Y-72009000D03*
X170942000Y-72009000D03*
X170942000Y-58547000D03*
X174371000Y-58547000D03*
%TD*%
%TO.C,D14*%
G36*
G01*
X191532500Y-86964000D02*
X192007500Y-86964000D01*
G75*
G02*
X192245000Y-87201500I0J-237500D01*
G01*
X192245000Y-87776500D01*
G75*
G02*
X192007500Y-88014000I-237500J0D01*
G01*
X191532500Y-88014000D01*
G75*
G02*
X191295000Y-87776500I0J237500D01*
G01*
X191295000Y-87201500D01*
G75*
G02*
X191532500Y-86964000I237500J0D01*
G01*
G37*
G36*
G01*
X191532500Y-85214000D02*
X192007500Y-85214000D01*
G75*
G02*
X192245000Y-85451500I0J-237500D01*
G01*
X192245000Y-86026500D01*
G75*
G02*
X192007500Y-86264000I-237500J0D01*
G01*
X191532500Y-86264000D01*
G75*
G02*
X191295000Y-86026500I0J237500D01*
G01*
X191295000Y-85451500D01*
G75*
G02*
X191532500Y-85214000I237500J0D01*
G01*
G37*
%TD*%
%TO.C,D13*%
G36*
G01*
X175022500Y-86964000D02*
X175497500Y-86964000D01*
G75*
G02*
X175735000Y-87201500I0J-237500D01*
G01*
X175735000Y-87776500D01*
G75*
G02*
X175497500Y-88014000I-237500J0D01*
G01*
X175022500Y-88014000D01*
G75*
G02*
X174785000Y-87776500I0J237500D01*
G01*
X174785000Y-87201500D01*
G75*
G02*
X175022500Y-86964000I237500J0D01*
G01*
G37*
G36*
G01*
X175022500Y-85214000D02*
X175497500Y-85214000D01*
G75*
G02*
X175735000Y-85451500I0J-237500D01*
G01*
X175735000Y-86026500D01*
G75*
G02*
X175497500Y-86264000I-237500J0D01*
G01*
X175022500Y-86264000D01*
G75*
G02*
X174785000Y-86026500I0J237500D01*
G01*
X174785000Y-85451500D01*
G75*
G02*
X175022500Y-85214000I237500J0D01*
G01*
G37*
%TD*%
%TO.C,D12*%
G36*
G01*
X158766500Y-86964000D02*
X159241500Y-86964000D01*
G75*
G02*
X159479000Y-87201500I0J-237500D01*
G01*
X159479000Y-87776500D01*
G75*
G02*
X159241500Y-88014000I-237500J0D01*
G01*
X158766500Y-88014000D01*
G75*
G02*
X158529000Y-87776500I0J237500D01*
G01*
X158529000Y-87201500D01*
G75*
G02*
X158766500Y-86964000I237500J0D01*
G01*
G37*
G36*
G01*
X158766500Y-85214000D02*
X159241500Y-85214000D01*
G75*
G02*
X159479000Y-85451500I0J-237500D01*
G01*
X159479000Y-86026500D01*
G75*
G02*
X159241500Y-86264000I-237500J0D01*
G01*
X158766500Y-86264000D01*
G75*
G02*
X158529000Y-86026500I0J237500D01*
G01*
X158529000Y-85451500D01*
G75*
G02*
X158766500Y-85214000I237500J0D01*
G01*
G37*
%TD*%
%TO.C,D11*%
G36*
G01*
X170450500Y-86964000D02*
X170925500Y-86964000D01*
G75*
G02*
X171163000Y-87201500I0J-237500D01*
G01*
X171163000Y-87776500D01*
G75*
G02*
X170925500Y-88014000I-237500J0D01*
G01*
X170450500Y-88014000D01*
G75*
G02*
X170213000Y-87776500I0J237500D01*
G01*
X170213000Y-87201500D01*
G75*
G02*
X170450500Y-86964000I237500J0D01*
G01*
G37*
G36*
G01*
X170450500Y-85214000D02*
X170925500Y-85214000D01*
G75*
G02*
X171163000Y-85451500I0J-237500D01*
G01*
X171163000Y-86026500D01*
G75*
G02*
X170925500Y-86264000I-237500J0D01*
G01*
X170450500Y-86264000D01*
G75*
G02*
X170213000Y-86026500I0J237500D01*
G01*
X170213000Y-85451500D01*
G75*
G02*
X170450500Y-85214000I237500J0D01*
G01*
G37*
%TD*%
%TO.C,D10*%
G36*
G01*
X178324500Y-86964000D02*
X178799500Y-86964000D01*
G75*
G02*
X179037000Y-87201500I0J-237500D01*
G01*
X179037000Y-87776500D01*
G75*
G02*
X178799500Y-88014000I-237500J0D01*
G01*
X178324500Y-88014000D01*
G75*
G02*
X178087000Y-87776500I0J237500D01*
G01*
X178087000Y-87201500D01*
G75*
G02*
X178324500Y-86964000I237500J0D01*
G01*
G37*
G36*
G01*
X178324500Y-85214000D02*
X178799500Y-85214000D01*
G75*
G02*
X179037000Y-85451500I0J-237500D01*
G01*
X179037000Y-86026500D01*
G75*
G02*
X178799500Y-86264000I-237500J0D01*
G01*
X178324500Y-86264000D01*
G75*
G02*
X178087000Y-86026500I0J237500D01*
G01*
X178087000Y-85451500D01*
G75*
G02*
X178324500Y-85214000I237500J0D01*
G01*
G37*
%TD*%
%TO.C,D9*%
G36*
G01*
X184928500Y-86964000D02*
X185403500Y-86964000D01*
G75*
G02*
X185641000Y-87201500I0J-237500D01*
G01*
X185641000Y-87776500D01*
G75*
G02*
X185403500Y-88014000I-237500J0D01*
G01*
X184928500Y-88014000D01*
G75*
G02*
X184691000Y-87776500I0J237500D01*
G01*
X184691000Y-87201500D01*
G75*
G02*
X184928500Y-86964000I237500J0D01*
G01*
G37*
G36*
G01*
X184928500Y-85214000D02*
X185403500Y-85214000D01*
G75*
G02*
X185641000Y-85451500I0J-237500D01*
G01*
X185641000Y-86026500D01*
G75*
G02*
X185403500Y-86264000I-237500J0D01*
G01*
X184928500Y-86264000D01*
G75*
G02*
X184691000Y-86026500I0J237500D01*
G01*
X184691000Y-85451500D01*
G75*
G02*
X184928500Y-85214000I237500J0D01*
G01*
G37*
%TD*%
%TO.C,D8*%
G36*
G01*
X181626500Y-86964000D02*
X182101500Y-86964000D01*
G75*
G02*
X182339000Y-87201500I0J-237500D01*
G01*
X182339000Y-87776500D01*
G75*
G02*
X182101500Y-88014000I-237500J0D01*
G01*
X181626500Y-88014000D01*
G75*
G02*
X181389000Y-87776500I0J237500D01*
G01*
X181389000Y-87201500D01*
G75*
G02*
X181626500Y-86964000I237500J0D01*
G01*
G37*
G36*
G01*
X181626500Y-85214000D02*
X182101500Y-85214000D01*
G75*
G02*
X182339000Y-85451500I0J-237500D01*
G01*
X182339000Y-86026500D01*
G75*
G02*
X182101500Y-86264000I-237500J0D01*
G01*
X181626500Y-86264000D01*
G75*
G02*
X181389000Y-86026500I0J237500D01*
G01*
X181389000Y-85451500D01*
G75*
G02*
X181626500Y-85214000I237500J0D01*
G01*
G37*
%TD*%
%TO.C,D7*%
G36*
G01*
X188230500Y-86964000D02*
X188705500Y-86964000D01*
G75*
G02*
X188943000Y-87201500I0J-237500D01*
G01*
X188943000Y-87776500D01*
G75*
G02*
X188705500Y-88014000I-237500J0D01*
G01*
X188230500Y-88014000D01*
G75*
G02*
X187993000Y-87776500I0J237500D01*
G01*
X187993000Y-87201500D01*
G75*
G02*
X188230500Y-86964000I237500J0D01*
G01*
G37*
G36*
G01*
X188230500Y-85214000D02*
X188705500Y-85214000D01*
G75*
G02*
X188943000Y-85451500I0J-237500D01*
G01*
X188943000Y-86026500D01*
G75*
G02*
X188705500Y-86264000I-237500J0D01*
G01*
X188230500Y-86264000D01*
G75*
G02*
X187993000Y-86026500I0J237500D01*
G01*
X187993000Y-85451500D01*
G75*
G02*
X188230500Y-85214000I237500J0D01*
G01*
G37*
%TD*%
%TO.C,D6*%
G36*
G01*
X164608500Y-86964000D02*
X165083500Y-86964000D01*
G75*
G02*
X165321000Y-87201500I0J-237500D01*
G01*
X165321000Y-87776500D01*
G75*
G02*
X165083500Y-88014000I-237500J0D01*
G01*
X164608500Y-88014000D01*
G75*
G02*
X164371000Y-87776500I0J237500D01*
G01*
X164371000Y-87201500D01*
G75*
G02*
X164608500Y-86964000I237500J0D01*
G01*
G37*
G36*
G01*
X164608500Y-85214000D02*
X165083500Y-85214000D01*
G75*
G02*
X165321000Y-85451500I0J-237500D01*
G01*
X165321000Y-86026500D01*
G75*
G02*
X165083500Y-86264000I-237500J0D01*
G01*
X164608500Y-86264000D01*
G75*
G02*
X164371000Y-86026500I0J237500D01*
G01*
X164371000Y-85451500D01*
G75*
G02*
X164608500Y-85214000I237500J0D01*
G01*
G37*
%TD*%
%TO.C,D2*%
G36*
G01*
X152924500Y-86964000D02*
X153399500Y-86964000D01*
G75*
G02*
X153637000Y-87201500I0J-237500D01*
G01*
X153637000Y-87776500D01*
G75*
G02*
X153399500Y-88014000I-237500J0D01*
G01*
X152924500Y-88014000D01*
G75*
G02*
X152687000Y-87776500I0J237500D01*
G01*
X152687000Y-87201500D01*
G75*
G02*
X152924500Y-86964000I237500J0D01*
G01*
G37*
G36*
G01*
X152924500Y-85214000D02*
X153399500Y-85214000D01*
G75*
G02*
X153637000Y-85451500I0J-237500D01*
G01*
X153637000Y-86026500D01*
G75*
G02*
X153399500Y-86264000I-237500J0D01*
G01*
X152924500Y-86264000D01*
G75*
G02*
X152687000Y-86026500I0J237500D01*
G01*
X152687000Y-85451500D01*
G75*
G02*
X152924500Y-85214000I237500J0D01*
G01*
G37*
%TD*%
%TO.C,D1*%
G36*
G01*
X194834500Y-86964000D02*
X195309500Y-86964000D01*
G75*
G02*
X195547000Y-87201500I0J-237500D01*
G01*
X195547000Y-87776500D01*
G75*
G02*
X195309500Y-88014000I-237500J0D01*
G01*
X194834500Y-88014000D01*
G75*
G02*
X194597000Y-87776500I0J237500D01*
G01*
X194597000Y-87201500D01*
G75*
G02*
X194834500Y-86964000I237500J0D01*
G01*
G37*
G36*
G01*
X194834500Y-85214000D02*
X195309500Y-85214000D01*
G75*
G02*
X195547000Y-85451500I0J-237500D01*
G01*
X195547000Y-86026500D01*
G75*
G02*
X195309500Y-86264000I-237500J0D01*
G01*
X194834500Y-86264000D01*
G75*
G02*
X194597000Y-86026500I0J237500D01*
G01*
X194597000Y-85451500D01*
G75*
G02*
X194834500Y-85214000I237500J0D01*
G01*
G37*
%TD*%
D11*
%TO.C,Conn12*%
X132322000Y-38250000D03*
X148070000Y-38250000D03*
X140196000Y-38250000D03*
%TD*%
%TO.C,Conn9*%
X106287000Y-38250000D03*
X122035000Y-38250000D03*
X114161000Y-38250000D03*
%TD*%
%TO.C,Conn4*%
X80252000Y-38250000D03*
X96000000Y-38250000D03*
X88126000Y-38250000D03*
%TD*%
%TO.C,Conn3*%
X158357000Y-38250000D03*
X174105000Y-38250000D03*
X166231000Y-38250000D03*
%TD*%
D22*
%TO.C,Conn2*%
X220645000Y-134940000D03*
X212771000Y-134940000D03*
%TD*%
%TO.C,C31*%
G36*
G01*
X224186000Y-58817500D02*
X224186000Y-59292500D01*
G75*
G02*
X223948500Y-59530000I-237500J0D01*
G01*
X223373500Y-59530000D01*
G75*
G02*
X223136000Y-59292500I0J237500D01*
G01*
X223136000Y-58817500D01*
G75*
G02*
X223373500Y-58580000I237500J0D01*
G01*
X223948500Y-58580000D01*
G75*
G02*
X224186000Y-58817500I0J-237500D01*
G01*
G37*
G36*
G01*
X225936000Y-58817500D02*
X225936000Y-59292500D01*
G75*
G02*
X225698500Y-59530000I-237500J0D01*
G01*
X225123500Y-59530000D01*
G75*
G02*
X224886000Y-59292500I0J237500D01*
G01*
X224886000Y-58817500D01*
G75*
G02*
X225123500Y-58580000I237500J0D01*
G01*
X225698500Y-58580000D01*
G75*
G02*
X225936000Y-58817500I0J-237500D01*
G01*
G37*
%TD*%
%TO.C,C30*%
G36*
G01*
X179815500Y-56038000D02*
X179340500Y-56038000D01*
G75*
G02*
X179103000Y-55800500I0J237500D01*
G01*
X179103000Y-55225500D01*
G75*
G02*
X179340500Y-54988000I237500J0D01*
G01*
X179815500Y-54988000D01*
G75*
G02*
X180053000Y-55225500I0J-237500D01*
G01*
X180053000Y-55800500D01*
G75*
G02*
X179815500Y-56038000I-237500J0D01*
G01*
G37*
G36*
G01*
X179815500Y-57788000D02*
X179340500Y-57788000D01*
G75*
G02*
X179103000Y-57550500I0J237500D01*
G01*
X179103000Y-56975500D01*
G75*
G02*
X179340500Y-56738000I237500J0D01*
G01*
X179815500Y-56738000D01*
G75*
G02*
X180053000Y-56975500I0J-237500D01*
G01*
X180053000Y-57550500D01*
G75*
G02*
X179815500Y-57788000I-237500J0D01*
G01*
G37*
%TD*%
%TO.C,C29*%
G36*
G01*
X108362000Y-53356500D02*
X108362000Y-53831500D01*
G75*
G02*
X108124500Y-54069000I-237500J0D01*
G01*
X107549500Y-54069000D01*
G75*
G02*
X107312000Y-53831500I0J237500D01*
G01*
X107312000Y-53356500D01*
G75*
G02*
X107549500Y-53119000I237500J0D01*
G01*
X108124500Y-53119000D01*
G75*
G02*
X108362000Y-53356500I0J-237500D01*
G01*
G37*
G36*
G01*
X110112000Y-53356500D02*
X110112000Y-53831500D01*
G75*
G02*
X109874500Y-54069000I-237500J0D01*
G01*
X109299500Y-54069000D01*
G75*
G02*
X109062000Y-53831500I0J237500D01*
G01*
X109062000Y-53356500D01*
G75*
G02*
X109299500Y-53119000I237500J0D01*
G01*
X109874500Y-53119000D01*
G75*
G02*
X110112000Y-53356500I0J-237500D01*
G01*
G37*
%TD*%
%TO.C,C28*%
G36*
G01*
X225202000Y-68342500D02*
X225202000Y-68817500D01*
G75*
G02*
X224964500Y-69055000I-237500J0D01*
G01*
X224389500Y-69055000D01*
G75*
G02*
X224152000Y-68817500I0J237500D01*
G01*
X224152000Y-68342500D01*
G75*
G02*
X224389500Y-68105000I237500J0D01*
G01*
X224964500Y-68105000D01*
G75*
G02*
X225202000Y-68342500I0J-237500D01*
G01*
G37*
G36*
G01*
X226952000Y-68342500D02*
X226952000Y-68817500D01*
G75*
G02*
X226714500Y-69055000I-237500J0D01*
G01*
X226139500Y-69055000D01*
G75*
G02*
X225902000Y-68817500I0J237500D01*
G01*
X225902000Y-68342500D01*
G75*
G02*
X226139500Y-68105000I237500J0D01*
G01*
X226714500Y-68105000D01*
G75*
G02*
X226952000Y-68342500I0J-237500D01*
G01*
G37*
%TD*%
%TO.C,C27*%
G36*
G01*
X179877000Y-69104500D02*
X179877000Y-69579500D01*
G75*
G02*
X179639500Y-69817000I-237500J0D01*
G01*
X179064500Y-69817000D01*
G75*
G02*
X178827000Y-69579500I0J237500D01*
G01*
X178827000Y-69104500D01*
G75*
G02*
X179064500Y-68867000I237500J0D01*
G01*
X179639500Y-68867000D01*
G75*
G02*
X179877000Y-69104500I0J-237500D01*
G01*
G37*
G36*
G01*
X181627000Y-69104500D02*
X181627000Y-69579500D01*
G75*
G02*
X181389500Y-69817000I-237500J0D01*
G01*
X180814500Y-69817000D01*
G75*
G02*
X180577000Y-69579500I0J237500D01*
G01*
X180577000Y-69104500D01*
G75*
G02*
X180814500Y-68867000I237500J0D01*
G01*
X181389500Y-68867000D01*
G75*
G02*
X181627000Y-69104500I0J-237500D01*
G01*
G37*
%TD*%
%TO.C,C26*%
G36*
G01*
X109632000Y-63008500D02*
X109632000Y-63483500D01*
G75*
G02*
X109394500Y-63721000I-237500J0D01*
G01*
X108819500Y-63721000D01*
G75*
G02*
X108582000Y-63483500I0J237500D01*
G01*
X108582000Y-63008500D01*
G75*
G02*
X108819500Y-62771000I237500J0D01*
G01*
X109394500Y-62771000D01*
G75*
G02*
X109632000Y-63008500I0J-237500D01*
G01*
G37*
G36*
G01*
X111382000Y-63008500D02*
X111382000Y-63483500D01*
G75*
G02*
X111144500Y-63721000I-237500J0D01*
G01*
X110569500Y-63721000D01*
G75*
G02*
X110332000Y-63483500I0J237500D01*
G01*
X110332000Y-63008500D01*
G75*
G02*
X110569500Y-62771000I237500J0D01*
G01*
X111144500Y-62771000D01*
G75*
G02*
X111382000Y-63008500I0J-237500D01*
G01*
G37*
%TD*%
%TO.C,C25*%
G36*
G01*
X188451500Y-56292000D02*
X187976500Y-56292000D01*
G75*
G02*
X187739000Y-56054500I0J237500D01*
G01*
X187739000Y-55479500D01*
G75*
G02*
X187976500Y-55242000I237500J0D01*
G01*
X188451500Y-55242000D01*
G75*
G02*
X188689000Y-55479500I0J-237500D01*
G01*
X188689000Y-56054500D01*
G75*
G02*
X188451500Y-56292000I-237500J0D01*
G01*
G37*
G36*
G01*
X188451500Y-58042000D02*
X187976500Y-58042000D01*
G75*
G02*
X187739000Y-57804500I0J237500D01*
G01*
X187739000Y-57229500D01*
G75*
G02*
X187976500Y-56992000I237500J0D01*
G01*
X188451500Y-56992000D01*
G75*
G02*
X188689000Y-57229500I0J-237500D01*
G01*
X188689000Y-57804500D01*
G75*
G02*
X188451500Y-58042000I-237500J0D01*
G01*
G37*
%TD*%
%TO.C,C24*%
G36*
G01*
X162972000Y-63008500D02*
X162972000Y-63483500D01*
G75*
G02*
X162734500Y-63721000I-237500J0D01*
G01*
X162159500Y-63721000D01*
G75*
G02*
X161922000Y-63483500I0J237500D01*
G01*
X161922000Y-63008500D01*
G75*
G02*
X162159500Y-62771000I237500J0D01*
G01*
X162734500Y-62771000D01*
G75*
G02*
X162972000Y-63008500I0J-237500D01*
G01*
G37*
G36*
G01*
X164722000Y-63008500D02*
X164722000Y-63483500D01*
G75*
G02*
X164484500Y-63721000I-237500J0D01*
G01*
X163909500Y-63721000D01*
G75*
G02*
X163672000Y-63483500I0J237500D01*
G01*
X163672000Y-63008500D01*
G75*
G02*
X163909500Y-62771000I237500J0D01*
G01*
X164484500Y-62771000D01*
G75*
G02*
X164722000Y-63008500I0J-237500D01*
G01*
G37*
%TD*%
%TO.C,C23*%
G36*
G01*
X188513000Y-69104500D02*
X188513000Y-69579500D01*
G75*
G02*
X188275500Y-69817000I-237500J0D01*
G01*
X187700500Y-69817000D01*
G75*
G02*
X187463000Y-69579500I0J237500D01*
G01*
X187463000Y-69104500D01*
G75*
G02*
X187700500Y-68867000I237500J0D01*
G01*
X188275500Y-68867000D01*
G75*
G02*
X188513000Y-69104500I0J-237500D01*
G01*
G37*
G36*
G01*
X190263000Y-69104500D02*
X190263000Y-69579500D01*
G75*
G02*
X190025500Y-69817000I-237500J0D01*
G01*
X189450500Y-69817000D01*
G75*
G02*
X189213000Y-69579500I0J237500D01*
G01*
X189213000Y-69104500D01*
G75*
G02*
X189450500Y-68867000I237500J0D01*
G01*
X190025500Y-68867000D01*
G75*
G02*
X190263000Y-69104500I0J-237500D01*
G01*
G37*
%TD*%
%TO.C,C22*%
G36*
G01*
X161448000Y-53356500D02*
X161448000Y-53831500D01*
G75*
G02*
X161210500Y-54069000I-237500J0D01*
G01*
X160635500Y-54069000D01*
G75*
G02*
X160398000Y-53831500I0J237500D01*
G01*
X160398000Y-53356500D01*
G75*
G02*
X160635500Y-53119000I237500J0D01*
G01*
X161210500Y-53119000D01*
G75*
G02*
X161448000Y-53356500I0J-237500D01*
G01*
G37*
G36*
G01*
X163198000Y-53356500D02*
X163198000Y-53831500D01*
G75*
G02*
X162960500Y-54069000I-237500J0D01*
G01*
X162385500Y-54069000D01*
G75*
G02*
X162148000Y-53831500I0J237500D01*
G01*
X162148000Y-53356500D01*
G75*
G02*
X162385500Y-53119000I237500J0D01*
G01*
X162960500Y-53119000D01*
G75*
G02*
X163198000Y-53356500I0J-237500D01*
G01*
G37*
%TD*%
%TO.C,C21*%
G36*
G01*
X207247500Y-56546000D02*
X206772500Y-56546000D01*
G75*
G02*
X206535000Y-56308500I0J237500D01*
G01*
X206535000Y-55733500D01*
G75*
G02*
X206772500Y-55496000I237500J0D01*
G01*
X207247500Y-55496000D01*
G75*
G02*
X207485000Y-55733500I0J-237500D01*
G01*
X207485000Y-56308500D01*
G75*
G02*
X207247500Y-56546000I-237500J0D01*
G01*
G37*
G36*
G01*
X207247500Y-58296000D02*
X206772500Y-58296000D01*
G75*
G02*
X206535000Y-58058500I0J237500D01*
G01*
X206535000Y-57483500D01*
G75*
G02*
X206772500Y-57246000I237500J0D01*
G01*
X207247500Y-57246000D01*
G75*
G02*
X207485000Y-57483500I0J-237500D01*
G01*
X207485000Y-58058500D01*
G75*
G02*
X207247500Y-58296000I-237500J0D01*
G01*
G37*
%TD*%
%TO.C,C19*%
G36*
G01*
X213772000Y-58436500D02*
X213772000Y-58911500D01*
G75*
G02*
X213534500Y-59149000I-237500J0D01*
G01*
X212959500Y-59149000D01*
G75*
G02*
X212722000Y-58911500I0J237500D01*
G01*
X212722000Y-58436500D01*
G75*
G02*
X212959500Y-58199000I237500J0D01*
G01*
X213534500Y-58199000D01*
G75*
G02*
X213772000Y-58436500I0J-237500D01*
G01*
G37*
G36*
G01*
X215522000Y-58436500D02*
X215522000Y-58911500D01*
G75*
G02*
X215284500Y-59149000I-237500J0D01*
G01*
X214709500Y-59149000D01*
G75*
G02*
X214472000Y-58911500I0J237500D01*
G01*
X214472000Y-58436500D01*
G75*
G02*
X214709500Y-58199000I237500J0D01*
G01*
X215284500Y-58199000D01*
G75*
G02*
X215522000Y-58436500I0J-237500D01*
G01*
G37*
%TD*%
%TO.C,C18*%
G36*
G01*
X134270000Y-53356500D02*
X134270000Y-53831500D01*
G75*
G02*
X134032500Y-54069000I-237500J0D01*
G01*
X133457500Y-54069000D01*
G75*
G02*
X133220000Y-53831500I0J237500D01*
G01*
X133220000Y-53356500D01*
G75*
G02*
X133457500Y-53119000I237500J0D01*
G01*
X134032500Y-53119000D01*
G75*
G02*
X134270000Y-53356500I0J-237500D01*
G01*
G37*
G36*
G01*
X136020000Y-53356500D02*
X136020000Y-53831500D01*
G75*
G02*
X135782500Y-54069000I-237500J0D01*
G01*
X135207500Y-54069000D01*
G75*
G02*
X134970000Y-53831500I0J237500D01*
G01*
X134970000Y-53356500D01*
G75*
G02*
X135207500Y-53119000I237500J0D01*
G01*
X135782500Y-53119000D01*
G75*
G02*
X136020000Y-53356500I0J-237500D01*
G01*
G37*
%TD*%
%TO.C,C17*%
G36*
G01*
X207422000Y-68088500D02*
X207422000Y-68563500D01*
G75*
G02*
X207184500Y-68801000I-237500J0D01*
G01*
X206609500Y-68801000D01*
G75*
G02*
X206372000Y-68563500I0J237500D01*
G01*
X206372000Y-68088500D01*
G75*
G02*
X206609500Y-67851000I237500J0D01*
G01*
X207184500Y-67851000D01*
G75*
G02*
X207422000Y-68088500I0J-237500D01*
G01*
G37*
G36*
G01*
X209172000Y-68088500D02*
X209172000Y-68563500D01*
G75*
G02*
X208934500Y-68801000I-237500J0D01*
G01*
X208359500Y-68801000D01*
G75*
G02*
X208122000Y-68563500I0J237500D01*
G01*
X208122000Y-68088500D01*
G75*
G02*
X208359500Y-67851000I237500J0D01*
G01*
X208934500Y-67851000D01*
G75*
G02*
X209172000Y-68088500I0J-237500D01*
G01*
G37*
%TD*%
%TO.C,C15*%
G36*
G01*
X214788000Y-68088500D02*
X214788000Y-68563500D01*
G75*
G02*
X214550500Y-68801000I-237500J0D01*
G01*
X213975500Y-68801000D01*
G75*
G02*
X213738000Y-68563500I0J237500D01*
G01*
X213738000Y-68088500D01*
G75*
G02*
X213975500Y-67851000I237500J0D01*
G01*
X214550500Y-67851000D01*
G75*
G02*
X214788000Y-68088500I0J-237500D01*
G01*
G37*
G36*
G01*
X216538000Y-68088500D02*
X216538000Y-68563500D01*
G75*
G02*
X216300500Y-68801000I-237500J0D01*
G01*
X215725500Y-68801000D01*
G75*
G02*
X215488000Y-68563500I0J237500D01*
G01*
X215488000Y-68088500D01*
G75*
G02*
X215725500Y-67851000I237500J0D01*
G01*
X216300500Y-67851000D01*
G75*
G02*
X216538000Y-68088500I0J-237500D01*
G01*
G37*
%TD*%
%TO.C,C14*%
G36*
G01*
X135540000Y-63008500D02*
X135540000Y-63483500D01*
G75*
G02*
X135302500Y-63721000I-237500J0D01*
G01*
X134727500Y-63721000D01*
G75*
G02*
X134490000Y-63483500I0J237500D01*
G01*
X134490000Y-63008500D01*
G75*
G02*
X134727500Y-62771000I237500J0D01*
G01*
X135302500Y-62771000D01*
G75*
G02*
X135540000Y-63008500I0J-237500D01*
G01*
G37*
G36*
G01*
X137290000Y-63008500D02*
X137290000Y-63483500D01*
G75*
G02*
X137052500Y-63721000I-237500J0D01*
G01*
X136477500Y-63721000D01*
G75*
G02*
X136240000Y-63483500I0J237500D01*
G01*
X136240000Y-63008500D01*
G75*
G02*
X136477500Y-62771000I237500J0D01*
G01*
X137052500Y-62771000D01*
G75*
G02*
X137290000Y-63008500I0J-237500D01*
G01*
G37*
%TD*%
%TO.C,C2*%
G36*
G01*
X211486000Y-90186500D02*
X211486000Y-90661500D01*
G75*
G02*
X211248500Y-90899000I-237500J0D01*
G01*
X210673500Y-90899000D01*
G75*
G02*
X210436000Y-90661500I0J237500D01*
G01*
X210436000Y-90186500D01*
G75*
G02*
X210673500Y-89949000I237500J0D01*
G01*
X211248500Y-89949000D01*
G75*
G02*
X211486000Y-90186500I0J-237500D01*
G01*
G37*
G36*
G01*
X213236000Y-90186500D02*
X213236000Y-90661500D01*
G75*
G02*
X212998500Y-90899000I-237500J0D01*
G01*
X212423500Y-90899000D01*
G75*
G02*
X212186000Y-90661500I0J237500D01*
G01*
X212186000Y-90186500D01*
G75*
G02*
X212423500Y-89949000I237500J0D01*
G01*
X212998500Y-89949000D01*
G75*
G02*
X213236000Y-90186500I0J-237500D01*
G01*
G37*
%TD*%
%TO.C,C1*%
G36*
G01*
X208630000Y-90661500D02*
X208630000Y-90186500D01*
G75*
G02*
X208867500Y-89949000I237500J0D01*
G01*
X209442500Y-89949000D01*
G75*
G02*
X209680000Y-90186500I0J-237500D01*
G01*
X209680000Y-90661500D01*
G75*
G02*
X209442500Y-90899000I-237500J0D01*
G01*
X208867500Y-90899000D01*
G75*
G02*
X208630000Y-90661500I0J237500D01*
G01*
G37*
G36*
G01*
X206880000Y-90661500D02*
X206880000Y-90186500D01*
G75*
G02*
X207117500Y-89949000I237500J0D01*
G01*
X207692500Y-89949000D01*
G75*
G02*
X207930000Y-90186500I0J-237500D01*
G01*
X207930000Y-90661500D01*
G75*
G02*
X207692500Y-90899000I-237500J0D01*
G01*
X207117500Y-90899000D01*
G75*
G02*
X206880000Y-90661500I0J237500D01*
G01*
G37*
%TD*%
M02*
