%TF.GenerationSoftware,KiCad,Pcbnew,(5.1.5-0)*%
%TF.CreationDate,2020-12-14T16:26:11-06:00*%
%TF.ProjectId,12VBoard_2021_Rev1,31325642-6f61-4726-945f-323032315f52,rev?*%
%TF.SameCoordinates,Original*%
%TF.FileFunction,Soldermask,Bot*%
%TF.FilePolarity,Negative*%
%FSLAX46Y46*%
G04 Gerber Fmt 4.6, Leading zero omitted, Abs format (unit mm)*
G04 Created by KiCad (PCBNEW (5.1.5-0)) date 2020-12-14 16:26:11*
%MOMM*%
%LPD*%
G04 APERTURE LIST*
%ADD10C,3.046400*%
%ADD11C,2.919400*%
%ADD12C,3.550000*%
%ADD13C,1.624000*%
%ADD14C,1.700000*%
%ADD15R,1.700000X1.700000*%
%ADD16C,5.180000*%
%ADD17C,3.148000*%
%ADD18C,3.910000*%
G04 APERTURE END LIST*
D10*
%TO.C,REF\002A\002A*%
X213161880Y-135945880D03*
%TD*%
%TO.C,REF\002A\002A*%
X119578120Y-136072880D03*
%TD*%
%TO.C,REF\002A\002A*%
X119578120Y-14549120D03*
%TD*%
%TO.C,REF\002A\002A*%
X213161880Y-14549120D03*
%TD*%
D11*
%TO.C,F2*%
X188468000Y-102870000D03*
X191897000Y-102870000D03*
X191897000Y-116332000D03*
X188468000Y-116332000D03*
%TD*%
D12*
%TO.C,Conn2*%
X212344000Y-75692000D03*
X212344000Y-62992000D03*
D13*
X203708000Y-74422000D03*
X203708000Y-71882000D03*
X203708000Y-69342000D03*
X203708000Y-66802000D03*
X203708000Y-64262000D03*
%TD*%
D11*
%TO.C,F4*%
X121920000Y-46228000D03*
X118491000Y-46228000D03*
X118491000Y-32766000D03*
X121920000Y-32766000D03*
%TD*%
D14*
%TO.C,C5*%
X178213000Y-71120000D03*
D15*
X180213000Y-71120000D03*
%TD*%
D14*
%TO.C,C49*%
X136906000Y-135668000D03*
D15*
X136906000Y-137668000D03*
%TD*%
D14*
%TO.C,C47*%
X162338000Y-129032000D03*
D15*
X164338000Y-129032000D03*
%TD*%
D14*
%TO.C,C45*%
X162814000Y-135668000D03*
D15*
X162814000Y-137668000D03*
%TD*%
D14*
%TO.C,C43*%
X138938000Y-130270000D03*
D15*
X138938000Y-128270000D03*
%TD*%
D14*
%TO.C,C7*%
X163576000Y-99028000D03*
D15*
X163576000Y-97028000D03*
%TD*%
D14*
%TO.C,C2*%
X165227000Y-71660000D03*
D15*
X165227000Y-73660000D03*
%TD*%
D16*
%TO.C,Drive*%
X157200000Y-118403000D03*
X157200000Y-110503000D03*
%TD*%
%TO.C,Conn12*%
X155194000Y-70306000D03*
X155194000Y-78206000D03*
X155194000Y-86106000D03*
%TD*%
%TO.C,Conn11*%
X144552000Y-70293000D03*
X144552000Y-78193000D03*
X144552000Y-86093000D03*
%TD*%
%TO.C,Conn10*%
X121184000Y-70293000D03*
X121184000Y-78193000D03*
X121184000Y-86093000D03*
%TD*%
%TO.C,Conn9*%
X132868000Y-70293000D03*
X132868000Y-78193000D03*
X132868000Y-86093000D03*
%TD*%
%TO.C,Extra 2*%
X134340000Y-118530000D03*
X134340000Y-110630000D03*
%TD*%
%TO.C,Extra 1*%
X145770000Y-118530000D03*
X145770000Y-110630000D03*
%TD*%
%TO.C,Nav Board*%
X180060000Y-118530000D03*
X180060000Y-110630000D03*
%TD*%
%TO.C,Cameras*%
X168630000Y-118530000D03*
X168630000Y-110630000D03*
%TD*%
%TO.C,Extra 3*%
X122402000Y-118657000D03*
X122402000Y-110757000D03*
%TD*%
%TO.C,Conn3*%
X191008000Y-126746000D03*
X198882000Y-126746000D03*
%TD*%
D13*
%TO.C,U9*%
X192278000Y-88900000D03*
X192278000Y-86360000D03*
X192278000Y-83820000D03*
%TD*%
%TO.C,Conn1*%
X203708000Y-103886000D03*
X203708000Y-101346000D03*
X203708000Y-98806000D03*
X203708000Y-96266000D03*
X203708000Y-93726000D03*
D12*
X212344000Y-105156000D03*
X212344000Y-79756000D03*
D13*
X203708000Y-91186000D03*
X203708000Y-88646000D03*
X203708000Y-86106000D03*
X203708000Y-83566000D03*
X203708000Y-81026000D03*
%TD*%
D11*
%TO.C,F3*%
X136144000Y-46228000D03*
X132715000Y-46228000D03*
X132715000Y-32766000D03*
X136144000Y-32766000D03*
%TD*%
%TO.C,F1*%
X154686000Y-46482000D03*
X151257000Y-46482000D03*
X151257000Y-33020000D03*
X154686000Y-33020000D03*
%TD*%
D14*
%TO.C,C10*%
X196794000Y-17272000D03*
D15*
X193294000Y-17272000D03*
%TD*%
D14*
%TO.C,C14*%
X128270000Y-44450000D03*
D15*
X126270000Y-44450000D03*
%TD*%
D14*
%TO.C,C16*%
X142716000Y-44450000D03*
D15*
X140716000Y-44450000D03*
%TD*%
D14*
%TO.C,C18*%
X180848000Y-65024000D03*
D15*
X178848000Y-65024000D03*
%TD*%
D17*
%TO.C,VR1*%
X162306000Y-38100000D03*
X162306000Y-41910000D03*
X162306000Y-45720000D03*
D18*
X162306000Y-49530000D03*
X162306000Y-34290000D03*
D17*
X213106000Y-49530000D03*
X213106000Y-41910000D03*
X213106000Y-34290000D03*
%TD*%
M02*
