%TF.GenerationSoftware,KiCad,Pcbnew,(5.1.8)-1*%
%TF.CreationDate,2021-04-02T01:03:45-05:00*%
%TF.ProjectId,12VBoard_2021_Rev1,31325642-6f61-4726-945f-323032315f52,rev?*%
%TF.SameCoordinates,Original*%
%TF.FileFunction,Paste,Top*%
%TF.FilePolarity,Positive*%
%FSLAX46Y46*%
G04 Gerber Fmt 4.6, Leading zero omitted, Abs format (unit mm)*
G04 Created by KiCad (PCBNEW (5.1.8)-1) date 2021-04-02 01:03:45*
%MOMM*%
%LPD*%
G01*
G04 APERTURE LIST*
%ADD10R,1.550000X0.600000*%
%ADD11R,0.600000X1.550000*%
%ADD12R,1.060000X0.650000*%
%ADD13R,0.650000X1.060000*%
%ADD14R,0.800000X0.900000*%
%ADD15R,0.900000X0.800000*%
G04 APERTURE END LIST*
%TO.C,U20*%
G36*
G01*
X140993000Y-110260000D02*
X140693000Y-110260000D01*
G75*
G02*
X140543000Y-110110000I0J150000D01*
G01*
X140543000Y-108460000D01*
G75*
G02*
X140693000Y-108310000I150000J0D01*
G01*
X140993000Y-108310000D01*
G75*
G02*
X141143000Y-108460000I0J-150000D01*
G01*
X141143000Y-110110000D01*
G75*
G02*
X140993000Y-110260000I-150000J0D01*
G01*
G37*
G36*
G01*
X142263000Y-110260000D02*
X141963000Y-110260000D01*
G75*
G02*
X141813000Y-110110000I0J150000D01*
G01*
X141813000Y-108460000D01*
G75*
G02*
X141963000Y-108310000I150000J0D01*
G01*
X142263000Y-108310000D01*
G75*
G02*
X142413000Y-108460000I0J-150000D01*
G01*
X142413000Y-110110000D01*
G75*
G02*
X142263000Y-110260000I-150000J0D01*
G01*
G37*
G36*
G01*
X143533000Y-110260000D02*
X143233000Y-110260000D01*
G75*
G02*
X143083000Y-110110000I0J150000D01*
G01*
X143083000Y-108460000D01*
G75*
G02*
X143233000Y-108310000I150000J0D01*
G01*
X143533000Y-108310000D01*
G75*
G02*
X143683000Y-108460000I0J-150000D01*
G01*
X143683000Y-110110000D01*
G75*
G02*
X143533000Y-110260000I-150000J0D01*
G01*
G37*
G36*
G01*
X144803000Y-110260000D02*
X144503000Y-110260000D01*
G75*
G02*
X144353000Y-110110000I0J150000D01*
G01*
X144353000Y-108460000D01*
G75*
G02*
X144503000Y-108310000I150000J0D01*
G01*
X144803000Y-108310000D01*
G75*
G02*
X144953000Y-108460000I0J-150000D01*
G01*
X144953000Y-110110000D01*
G75*
G02*
X144803000Y-110260000I-150000J0D01*
G01*
G37*
G36*
G01*
X144803000Y-115210000D02*
X144503000Y-115210000D01*
G75*
G02*
X144353000Y-115060000I0J150000D01*
G01*
X144353000Y-113410000D01*
G75*
G02*
X144503000Y-113260000I150000J0D01*
G01*
X144803000Y-113260000D01*
G75*
G02*
X144953000Y-113410000I0J-150000D01*
G01*
X144953000Y-115060000D01*
G75*
G02*
X144803000Y-115210000I-150000J0D01*
G01*
G37*
G36*
G01*
X143533000Y-115210000D02*
X143233000Y-115210000D01*
G75*
G02*
X143083000Y-115060000I0J150000D01*
G01*
X143083000Y-113410000D01*
G75*
G02*
X143233000Y-113260000I150000J0D01*
G01*
X143533000Y-113260000D01*
G75*
G02*
X143683000Y-113410000I0J-150000D01*
G01*
X143683000Y-115060000D01*
G75*
G02*
X143533000Y-115210000I-150000J0D01*
G01*
G37*
G36*
G01*
X142263000Y-115210000D02*
X141963000Y-115210000D01*
G75*
G02*
X141813000Y-115060000I0J150000D01*
G01*
X141813000Y-113410000D01*
G75*
G02*
X141963000Y-113260000I150000J0D01*
G01*
X142263000Y-113260000D01*
G75*
G02*
X142413000Y-113410000I0J-150000D01*
G01*
X142413000Y-115060000D01*
G75*
G02*
X142263000Y-115210000I-150000J0D01*
G01*
G37*
G36*
G01*
X140993000Y-115210000D02*
X140693000Y-115210000D01*
G75*
G02*
X140543000Y-115060000I0J150000D01*
G01*
X140543000Y-113410000D01*
G75*
G02*
X140693000Y-113260000I150000J0D01*
G01*
X140993000Y-113260000D01*
G75*
G02*
X141143000Y-113410000I0J-150000D01*
G01*
X141143000Y-115060000D01*
G75*
G02*
X140993000Y-115210000I-150000J0D01*
G01*
G37*
%TD*%
D10*
%TO.C,U19*%
X133764000Y-105029000D03*
X133764000Y-107569000D03*
X133764000Y-108839000D03*
X128364000Y-108839000D03*
X128364000Y-107569000D03*
X128364000Y-106299000D03*
X128364000Y-105029000D03*
%TD*%
%TO.C,U18*%
G36*
G01*
X130326000Y-114785000D02*
X130326000Y-115085000D01*
G75*
G02*
X130176000Y-115235000I-150000J0D01*
G01*
X128526000Y-115235000D01*
G75*
G02*
X128376000Y-115085000I0J150000D01*
G01*
X128376000Y-114785000D01*
G75*
G02*
X128526000Y-114635000I150000J0D01*
G01*
X130176000Y-114635000D01*
G75*
G02*
X130326000Y-114785000I0J-150000D01*
G01*
G37*
G36*
G01*
X130326000Y-113515000D02*
X130326000Y-113815000D01*
G75*
G02*
X130176000Y-113965000I-150000J0D01*
G01*
X128526000Y-113965000D01*
G75*
G02*
X128376000Y-113815000I0J150000D01*
G01*
X128376000Y-113515000D01*
G75*
G02*
X128526000Y-113365000I150000J0D01*
G01*
X130176000Y-113365000D01*
G75*
G02*
X130326000Y-113515000I0J-150000D01*
G01*
G37*
G36*
G01*
X130326000Y-112245000D02*
X130326000Y-112545000D01*
G75*
G02*
X130176000Y-112695000I-150000J0D01*
G01*
X128526000Y-112695000D01*
G75*
G02*
X128376000Y-112545000I0J150000D01*
G01*
X128376000Y-112245000D01*
G75*
G02*
X128526000Y-112095000I150000J0D01*
G01*
X130176000Y-112095000D01*
G75*
G02*
X130326000Y-112245000I0J-150000D01*
G01*
G37*
G36*
G01*
X130326000Y-110975000D02*
X130326000Y-111275000D01*
G75*
G02*
X130176000Y-111425000I-150000J0D01*
G01*
X128526000Y-111425000D01*
G75*
G02*
X128376000Y-111275000I0J150000D01*
G01*
X128376000Y-110975000D01*
G75*
G02*
X128526000Y-110825000I150000J0D01*
G01*
X130176000Y-110825000D01*
G75*
G02*
X130326000Y-110975000I0J-150000D01*
G01*
G37*
G36*
G01*
X135276000Y-110975000D02*
X135276000Y-111275000D01*
G75*
G02*
X135126000Y-111425000I-150000J0D01*
G01*
X133476000Y-111425000D01*
G75*
G02*
X133326000Y-111275000I0J150000D01*
G01*
X133326000Y-110975000D01*
G75*
G02*
X133476000Y-110825000I150000J0D01*
G01*
X135126000Y-110825000D01*
G75*
G02*
X135276000Y-110975000I0J-150000D01*
G01*
G37*
G36*
G01*
X135276000Y-112245000D02*
X135276000Y-112545000D01*
G75*
G02*
X135126000Y-112695000I-150000J0D01*
G01*
X133476000Y-112695000D01*
G75*
G02*
X133326000Y-112545000I0J150000D01*
G01*
X133326000Y-112245000D01*
G75*
G02*
X133476000Y-112095000I150000J0D01*
G01*
X135126000Y-112095000D01*
G75*
G02*
X135276000Y-112245000I0J-150000D01*
G01*
G37*
G36*
G01*
X135276000Y-113515000D02*
X135276000Y-113815000D01*
G75*
G02*
X135126000Y-113965000I-150000J0D01*
G01*
X133476000Y-113965000D01*
G75*
G02*
X133326000Y-113815000I0J150000D01*
G01*
X133326000Y-113515000D01*
G75*
G02*
X133476000Y-113365000I150000J0D01*
G01*
X135126000Y-113365000D01*
G75*
G02*
X135276000Y-113515000I0J-150000D01*
G01*
G37*
G36*
G01*
X135276000Y-114785000D02*
X135276000Y-115085000D01*
G75*
G02*
X135126000Y-115235000I-150000J0D01*
G01*
X133476000Y-115235000D01*
G75*
G02*
X133326000Y-115085000I0J150000D01*
G01*
X133326000Y-114785000D01*
G75*
G02*
X133476000Y-114635000I150000J0D01*
G01*
X135126000Y-114635000D01*
G75*
G02*
X135276000Y-114785000I0J-150000D01*
G01*
G37*
%TD*%
%TO.C,U17*%
X129954000Y-64643000D03*
X129954000Y-67183000D03*
X129954000Y-68453000D03*
X124554000Y-68453000D03*
X124554000Y-67183000D03*
X124554000Y-65913000D03*
X124554000Y-64643000D03*
%TD*%
%TO.C,U16*%
X145448000Y-64643000D03*
X145448000Y-67183000D03*
X145448000Y-68453000D03*
X140048000Y-68453000D03*
X140048000Y-67183000D03*
X140048000Y-65913000D03*
X140048000Y-64643000D03*
%TD*%
%TO.C,U15*%
X160942000Y-65405000D03*
X160942000Y-67945000D03*
X160942000Y-69215000D03*
X155542000Y-69215000D03*
X155542000Y-67945000D03*
X155542000Y-66675000D03*
X155542000Y-65405000D03*
%TD*%
D11*
%TO.C,U14*%
X162687000Y-56802000D03*
X160147000Y-56802000D03*
X158877000Y-56802000D03*
X158877000Y-51402000D03*
X160147000Y-51402000D03*
X161417000Y-51402000D03*
X162687000Y-51402000D03*
%TD*%
D12*
%TO.C,U13*%
X118788000Y-93152000D03*
X118788000Y-91252000D03*
X120988000Y-91252000D03*
X120988000Y-92202000D03*
X120988000Y-93152000D03*
%TD*%
D11*
%TO.C,U12*%
X126111000Y-117188000D03*
X128651000Y-117188000D03*
X129921000Y-117188000D03*
X129921000Y-122588000D03*
X128651000Y-122588000D03*
X127381000Y-122588000D03*
X126111000Y-122588000D03*
%TD*%
D13*
%TO.C,U8*%
X133792000Y-79078000D03*
X131892000Y-79078000D03*
X131892000Y-76878000D03*
X132842000Y-76878000D03*
X133792000Y-76878000D03*
%TD*%
D10*
%TO.C,U5*%
X123858000Y-135763000D03*
X123858000Y-138303000D03*
X123858000Y-139573000D03*
X118458000Y-139573000D03*
X118458000Y-138303000D03*
X118458000Y-137033000D03*
X118458000Y-135763000D03*
%TD*%
%TO.C,U3*%
X124112000Y-127381000D03*
X124112000Y-129921000D03*
X124112000Y-131191000D03*
X118712000Y-131191000D03*
X118712000Y-129921000D03*
X118712000Y-128651000D03*
X118712000Y-127381000D03*
%TD*%
D12*
%TO.C,U2*%
X84158000Y-70424000D03*
X84158000Y-72324000D03*
X81958000Y-72324000D03*
X81958000Y-71374000D03*
X81958000Y-70424000D03*
%TD*%
%TO.C,R47*%
G36*
G01*
X144509500Y-84232000D02*
X144034500Y-84232000D01*
G75*
G02*
X143797000Y-83994500I0J237500D01*
G01*
X143797000Y-83419500D01*
G75*
G02*
X144034500Y-83182000I237500J0D01*
G01*
X144509500Y-83182000D01*
G75*
G02*
X144747000Y-83419500I0J-237500D01*
G01*
X144747000Y-83994500D01*
G75*
G02*
X144509500Y-84232000I-237500J0D01*
G01*
G37*
G36*
G01*
X144509500Y-85982000D02*
X144034500Y-85982000D01*
G75*
G02*
X143797000Y-85744500I0J237500D01*
G01*
X143797000Y-85169500D01*
G75*
G02*
X144034500Y-84932000I237500J0D01*
G01*
X144509500Y-84932000D01*
G75*
G02*
X144747000Y-85169500I0J-237500D01*
G01*
X144747000Y-85744500D01*
G75*
G02*
X144509500Y-85982000I-237500J0D01*
G01*
G37*
%TD*%
%TO.C,R46*%
G36*
G01*
X121316000Y-67072500D02*
X121316000Y-67547500D01*
G75*
G02*
X121078500Y-67785000I-237500J0D01*
G01*
X120503500Y-67785000D01*
G75*
G02*
X120266000Y-67547500I0J237500D01*
G01*
X120266000Y-67072500D01*
G75*
G02*
X120503500Y-66835000I237500J0D01*
G01*
X121078500Y-66835000D01*
G75*
G02*
X121316000Y-67072500I0J-237500D01*
G01*
G37*
G36*
G01*
X123066000Y-67072500D02*
X123066000Y-67547500D01*
G75*
G02*
X122828500Y-67785000I-237500J0D01*
G01*
X122253500Y-67785000D01*
G75*
G02*
X122016000Y-67547500I0J237500D01*
G01*
X122016000Y-67072500D01*
G75*
G02*
X122253500Y-66835000I237500J0D01*
G01*
X122828500Y-66835000D01*
G75*
G02*
X123066000Y-67072500I0J-237500D01*
G01*
G37*
%TD*%
%TO.C,R45*%
G36*
G01*
X131842500Y-66136000D02*
X132317500Y-66136000D01*
G75*
G02*
X132555000Y-66373500I0J-237500D01*
G01*
X132555000Y-66948500D01*
G75*
G02*
X132317500Y-67186000I-237500J0D01*
G01*
X131842500Y-67186000D01*
G75*
G02*
X131605000Y-66948500I0J237500D01*
G01*
X131605000Y-66373500D01*
G75*
G02*
X131842500Y-66136000I237500J0D01*
G01*
G37*
G36*
G01*
X131842500Y-64386000D02*
X132317500Y-64386000D01*
G75*
G02*
X132555000Y-64623500I0J-237500D01*
G01*
X132555000Y-65198500D01*
G75*
G02*
X132317500Y-65436000I-237500J0D01*
G01*
X131842500Y-65436000D01*
G75*
G02*
X131605000Y-65198500I0J237500D01*
G01*
X131605000Y-64623500D01*
G75*
G02*
X131842500Y-64386000I237500J0D01*
G01*
G37*
%TD*%
%TO.C,R44*%
G36*
G01*
X153145500Y-82708000D02*
X152670500Y-82708000D01*
G75*
G02*
X152433000Y-82470500I0J237500D01*
G01*
X152433000Y-81895500D01*
G75*
G02*
X152670500Y-81658000I237500J0D01*
G01*
X153145500Y-81658000D01*
G75*
G02*
X153383000Y-81895500I0J-237500D01*
G01*
X153383000Y-82470500D01*
G75*
G02*
X153145500Y-82708000I-237500J0D01*
G01*
G37*
G36*
G01*
X153145500Y-84458000D02*
X152670500Y-84458000D01*
G75*
G02*
X152433000Y-84220500I0J237500D01*
G01*
X152433000Y-83645500D01*
G75*
G02*
X152670500Y-83408000I237500J0D01*
G01*
X153145500Y-83408000D01*
G75*
G02*
X153383000Y-83645500I0J-237500D01*
G01*
X153383000Y-84220500D01*
G75*
G02*
X153145500Y-84458000I-237500J0D01*
G01*
G37*
%TD*%
%TO.C,R43*%
G36*
G01*
X136556000Y-66564500D02*
X136556000Y-67039500D01*
G75*
G02*
X136318500Y-67277000I-237500J0D01*
G01*
X135743500Y-67277000D01*
G75*
G02*
X135506000Y-67039500I0J237500D01*
G01*
X135506000Y-66564500D01*
G75*
G02*
X135743500Y-66327000I237500J0D01*
G01*
X136318500Y-66327000D01*
G75*
G02*
X136556000Y-66564500I0J-237500D01*
G01*
G37*
G36*
G01*
X138306000Y-66564500D02*
X138306000Y-67039500D01*
G75*
G02*
X138068500Y-67277000I-237500J0D01*
G01*
X137493500Y-67277000D01*
G75*
G02*
X137256000Y-67039500I0J237500D01*
G01*
X137256000Y-66564500D01*
G75*
G02*
X137493500Y-66327000I237500J0D01*
G01*
X138068500Y-66327000D01*
G75*
G02*
X138306000Y-66564500I0J-237500D01*
G01*
G37*
%TD*%
%TO.C,R42*%
G36*
G01*
X147336500Y-66136000D02*
X147811500Y-66136000D01*
G75*
G02*
X148049000Y-66373500I0J-237500D01*
G01*
X148049000Y-66948500D01*
G75*
G02*
X147811500Y-67186000I-237500J0D01*
G01*
X147336500Y-67186000D01*
G75*
G02*
X147099000Y-66948500I0J237500D01*
G01*
X147099000Y-66373500D01*
G75*
G02*
X147336500Y-66136000I237500J0D01*
G01*
G37*
G36*
G01*
X147336500Y-64386000D02*
X147811500Y-64386000D01*
G75*
G02*
X148049000Y-64623500I0J-237500D01*
G01*
X148049000Y-65198500D01*
G75*
G02*
X147811500Y-65436000I-237500J0D01*
G01*
X147336500Y-65436000D01*
G75*
G02*
X147099000Y-65198500I0J237500D01*
G01*
X147099000Y-64623500D01*
G75*
G02*
X147336500Y-64386000I237500J0D01*
G01*
G37*
%TD*%
%TO.C,R41*%
G36*
G01*
X160257500Y-82454000D02*
X159782500Y-82454000D01*
G75*
G02*
X159545000Y-82216500I0J237500D01*
G01*
X159545000Y-81641500D01*
G75*
G02*
X159782500Y-81404000I237500J0D01*
G01*
X160257500Y-81404000D01*
G75*
G02*
X160495000Y-81641500I0J-237500D01*
G01*
X160495000Y-82216500D01*
G75*
G02*
X160257500Y-82454000I-237500J0D01*
G01*
G37*
G36*
G01*
X160257500Y-84204000D02*
X159782500Y-84204000D01*
G75*
G02*
X159545000Y-83966500I0J237500D01*
G01*
X159545000Y-83391500D01*
G75*
G02*
X159782500Y-83154000I237500J0D01*
G01*
X160257500Y-83154000D01*
G75*
G02*
X160495000Y-83391500I0J-237500D01*
G01*
X160495000Y-83966500D01*
G75*
G02*
X160257500Y-84204000I-237500J0D01*
G01*
G37*
%TD*%
%TO.C,R40*%
G36*
G01*
X152304000Y-67072500D02*
X152304000Y-67547500D01*
G75*
G02*
X152066500Y-67785000I-237500J0D01*
G01*
X151491500Y-67785000D01*
G75*
G02*
X151254000Y-67547500I0J237500D01*
G01*
X151254000Y-67072500D01*
G75*
G02*
X151491500Y-66835000I237500J0D01*
G01*
X152066500Y-66835000D01*
G75*
G02*
X152304000Y-67072500I0J-237500D01*
G01*
G37*
G36*
G01*
X154054000Y-67072500D02*
X154054000Y-67547500D01*
G75*
G02*
X153816500Y-67785000I-237500J0D01*
G01*
X153241500Y-67785000D01*
G75*
G02*
X153004000Y-67547500I0J237500D01*
G01*
X153004000Y-67072500D01*
G75*
G02*
X153241500Y-66835000I237500J0D01*
G01*
X153816500Y-66835000D01*
G75*
G02*
X154054000Y-67072500I0J-237500D01*
G01*
G37*
%TD*%
%TO.C,R39*%
G36*
G01*
X162830500Y-67406000D02*
X163305500Y-67406000D01*
G75*
G02*
X163543000Y-67643500I0J-237500D01*
G01*
X163543000Y-68218500D01*
G75*
G02*
X163305500Y-68456000I-237500J0D01*
G01*
X162830500Y-68456000D01*
G75*
G02*
X162593000Y-68218500I0J237500D01*
G01*
X162593000Y-67643500D01*
G75*
G02*
X162830500Y-67406000I237500J0D01*
G01*
G37*
G36*
G01*
X162830500Y-65656000D02*
X163305500Y-65656000D01*
G75*
G02*
X163543000Y-65893500I0J-237500D01*
G01*
X163543000Y-66468500D01*
G75*
G02*
X163305500Y-66706000I-237500J0D01*
G01*
X162830500Y-66706000D01*
G75*
G02*
X162593000Y-66468500I0J237500D01*
G01*
X162593000Y-65893500D01*
G75*
G02*
X162830500Y-65656000I237500J0D01*
G01*
G37*
%TD*%
%TO.C,R38*%
G36*
G01*
X153145500Y-75850000D02*
X152670500Y-75850000D01*
G75*
G02*
X152433000Y-75612500I0J237500D01*
G01*
X152433000Y-75037500D01*
G75*
G02*
X152670500Y-74800000I237500J0D01*
G01*
X153145500Y-74800000D01*
G75*
G02*
X153383000Y-75037500I0J-237500D01*
G01*
X153383000Y-75612500D01*
G75*
G02*
X153145500Y-75850000I-237500J0D01*
G01*
G37*
G36*
G01*
X153145500Y-77600000D02*
X152670500Y-77600000D01*
G75*
G02*
X152433000Y-77362500I0J237500D01*
G01*
X152433000Y-76787500D01*
G75*
G02*
X152670500Y-76550000I237500J0D01*
G01*
X153145500Y-76550000D01*
G75*
G02*
X153383000Y-76787500I0J-237500D01*
G01*
X153383000Y-77362500D01*
G75*
G02*
X153145500Y-77600000I-237500J0D01*
G01*
G37*
%TD*%
%TO.C,R37*%
G36*
G01*
X159416000Y-49038500D02*
X159416000Y-49513500D01*
G75*
G02*
X159178500Y-49751000I-237500J0D01*
G01*
X158603500Y-49751000D01*
G75*
G02*
X158366000Y-49513500I0J237500D01*
G01*
X158366000Y-49038500D01*
G75*
G02*
X158603500Y-48801000I237500J0D01*
G01*
X159178500Y-48801000D01*
G75*
G02*
X159416000Y-49038500I0J-237500D01*
G01*
G37*
G36*
G01*
X161166000Y-49038500D02*
X161166000Y-49513500D01*
G75*
G02*
X160928500Y-49751000I-237500J0D01*
G01*
X160353500Y-49751000D01*
G75*
G02*
X160116000Y-49513500I0J237500D01*
G01*
X160116000Y-49038500D01*
G75*
G02*
X160353500Y-48801000I237500J0D01*
G01*
X160928500Y-48801000D01*
G75*
G02*
X161166000Y-49038500I0J-237500D01*
G01*
G37*
%TD*%
%TO.C,R36*%
G36*
G01*
X158908000Y-59198500D02*
X158908000Y-59673500D01*
G75*
G02*
X158670500Y-59911000I-237500J0D01*
G01*
X158095500Y-59911000D01*
G75*
G02*
X157858000Y-59673500I0J237500D01*
G01*
X157858000Y-59198500D01*
G75*
G02*
X158095500Y-58961000I237500J0D01*
G01*
X158670500Y-58961000D01*
G75*
G02*
X158908000Y-59198500I0J-237500D01*
G01*
G37*
G36*
G01*
X160658000Y-59198500D02*
X160658000Y-59673500D01*
G75*
G02*
X160420500Y-59911000I-237500J0D01*
G01*
X159845500Y-59911000D01*
G75*
G02*
X159608000Y-59673500I0J237500D01*
G01*
X159608000Y-59198500D01*
G75*
G02*
X159845500Y-58961000I237500J0D01*
G01*
X160420500Y-58961000D01*
G75*
G02*
X160658000Y-59198500I0J-237500D01*
G01*
G37*
%TD*%
%TO.C,R35*%
G36*
G01*
X117252000Y-68342500D02*
X117252000Y-68817500D01*
G75*
G02*
X117014500Y-69055000I-237500J0D01*
G01*
X116439500Y-69055000D01*
G75*
G02*
X116202000Y-68817500I0J237500D01*
G01*
X116202000Y-68342500D01*
G75*
G02*
X116439500Y-68105000I237500J0D01*
G01*
X117014500Y-68105000D01*
G75*
G02*
X117252000Y-68342500I0J-237500D01*
G01*
G37*
G36*
G01*
X119002000Y-68342500D02*
X119002000Y-68817500D01*
G75*
G02*
X118764500Y-69055000I-237500J0D01*
G01*
X118189500Y-69055000D01*
G75*
G02*
X117952000Y-68817500I0J237500D01*
G01*
X117952000Y-68342500D01*
G75*
G02*
X118189500Y-68105000I237500J0D01*
G01*
X118764500Y-68105000D01*
G75*
G02*
X119002000Y-68342500I0J-237500D01*
G01*
G37*
%TD*%
%TO.C,R34*%
G36*
G01*
X155177500Y-89312000D02*
X154702500Y-89312000D01*
G75*
G02*
X154465000Y-89074500I0J237500D01*
G01*
X154465000Y-88499500D01*
G75*
G02*
X154702500Y-88262000I237500J0D01*
G01*
X155177500Y-88262000D01*
G75*
G02*
X155415000Y-88499500I0J-237500D01*
G01*
X155415000Y-89074500D01*
G75*
G02*
X155177500Y-89312000I-237500J0D01*
G01*
G37*
G36*
G01*
X155177500Y-91062000D02*
X154702500Y-91062000D01*
G75*
G02*
X154465000Y-90824500I0J237500D01*
G01*
X154465000Y-90249500D01*
G75*
G02*
X154702500Y-90012000I237500J0D01*
G01*
X155177500Y-90012000D01*
G75*
G02*
X155415000Y-90249500I0J-237500D01*
G01*
X155415000Y-90824500D01*
G75*
G02*
X155177500Y-91062000I-237500J0D01*
G01*
G37*
%TD*%
%TO.C,R33*%
G36*
G01*
X117153001Y-89865000D02*
X115002999Y-89865000D01*
G75*
G02*
X114753000Y-89615001I0J249999D01*
G01*
X114753000Y-88589999D01*
G75*
G02*
X115002999Y-88340000I249999J0D01*
G01*
X117153001Y-88340000D01*
G75*
G02*
X117403000Y-88589999I0J-249999D01*
G01*
X117403000Y-89615001D01*
G75*
G02*
X117153001Y-89865000I-249999J0D01*
G01*
G37*
G36*
G01*
X117153001Y-94540000D02*
X115002999Y-94540000D01*
G75*
G02*
X114753000Y-94290001I0J249999D01*
G01*
X114753000Y-93264999D01*
G75*
G02*
X115002999Y-93015000I249999J0D01*
G01*
X117153001Y-93015000D01*
G75*
G02*
X117403000Y-93264999I0J-249999D01*
G01*
X117403000Y-94290001D01*
G75*
G02*
X117153001Y-94540000I-249999J0D01*
G01*
G37*
%TD*%
%TO.C,R23*%
G36*
G01*
X144706500Y-93757000D02*
X144231500Y-93757000D01*
G75*
G02*
X143994000Y-93519500I0J237500D01*
G01*
X143994000Y-92944500D01*
G75*
G02*
X144231500Y-92707000I237500J0D01*
G01*
X144706500Y-92707000D01*
G75*
G02*
X144944000Y-92944500I0J-237500D01*
G01*
X144944000Y-93519500D01*
G75*
G02*
X144706500Y-93757000I-237500J0D01*
G01*
G37*
G36*
G01*
X144706500Y-95507000D02*
X144231500Y-95507000D01*
G75*
G02*
X143994000Y-95269500I0J237500D01*
G01*
X143994000Y-94694500D01*
G75*
G02*
X144231500Y-94457000I237500J0D01*
G01*
X144706500Y-94457000D01*
G75*
G02*
X144944000Y-94694500I0J-237500D01*
G01*
X144944000Y-95269500D01*
G75*
G02*
X144706500Y-95507000I-237500J0D01*
G01*
G37*
%TD*%
%TO.C,R22*%
G36*
G01*
X155177500Y-93884000D02*
X154702500Y-93884000D01*
G75*
G02*
X154465000Y-93646500I0J237500D01*
G01*
X154465000Y-93071500D01*
G75*
G02*
X154702500Y-92834000I237500J0D01*
G01*
X155177500Y-92834000D01*
G75*
G02*
X155415000Y-93071500I0J-237500D01*
G01*
X155415000Y-93646500D01*
G75*
G02*
X155177500Y-93884000I-237500J0D01*
G01*
G37*
G36*
G01*
X155177500Y-95634000D02*
X154702500Y-95634000D01*
G75*
G02*
X154465000Y-95396500I0J237500D01*
G01*
X154465000Y-94821500D01*
G75*
G02*
X154702500Y-94584000I237500J0D01*
G01*
X155177500Y-94584000D01*
G75*
G02*
X155415000Y-94821500I0J-237500D01*
G01*
X155415000Y-95396500D01*
G75*
G02*
X155177500Y-95634000I-237500J0D01*
G01*
G37*
%TD*%
%TO.C,R20*%
G36*
G01*
X135947999Y-106622000D02*
X136848001Y-106622000D01*
G75*
G02*
X137098000Y-106871999I0J-249999D01*
G01*
X137098000Y-107522001D01*
G75*
G02*
X136848001Y-107772000I-249999J0D01*
G01*
X135947999Y-107772000D01*
G75*
G02*
X135698000Y-107522001I0J249999D01*
G01*
X135698000Y-106871999D01*
G75*
G02*
X135947999Y-106622000I249999J0D01*
G01*
G37*
G36*
G01*
X135947999Y-104572000D02*
X136848001Y-104572000D01*
G75*
G02*
X137098000Y-104821999I0J-249999D01*
G01*
X137098000Y-105472001D01*
G75*
G02*
X136848001Y-105722000I-249999J0D01*
G01*
X135947999Y-105722000D01*
G75*
G02*
X135698000Y-105472001I0J249999D01*
G01*
X135698000Y-104821999D01*
G75*
G02*
X135947999Y-104572000I249999J0D01*
G01*
G37*
%TD*%
%TO.C,R19*%
G36*
G01*
X125126000Y-107458500D02*
X125126000Y-107933500D01*
G75*
G02*
X124888500Y-108171000I-237500J0D01*
G01*
X124313500Y-108171000D01*
G75*
G02*
X124076000Y-107933500I0J237500D01*
G01*
X124076000Y-107458500D01*
G75*
G02*
X124313500Y-107221000I237500J0D01*
G01*
X124888500Y-107221000D01*
G75*
G02*
X125126000Y-107458500I0J-237500D01*
G01*
G37*
G36*
G01*
X126876000Y-107458500D02*
X126876000Y-107933500D01*
G75*
G02*
X126638500Y-108171000I-237500J0D01*
G01*
X126063500Y-108171000D01*
G75*
G02*
X125826000Y-107933500I0J237500D01*
G01*
X125826000Y-107458500D01*
G75*
G02*
X126063500Y-107221000I237500J0D01*
G01*
X126638500Y-107221000D01*
G75*
G02*
X126876000Y-107458500I0J-237500D01*
G01*
G37*
%TD*%
%TO.C,R18*%
G36*
G01*
X144636500Y-89439000D02*
X144161500Y-89439000D01*
G75*
G02*
X143924000Y-89201500I0J237500D01*
G01*
X143924000Y-88626500D01*
G75*
G02*
X144161500Y-88389000I237500J0D01*
G01*
X144636500Y-88389000D01*
G75*
G02*
X144874000Y-88626500I0J-237500D01*
G01*
X144874000Y-89201500D01*
G75*
G02*
X144636500Y-89439000I-237500J0D01*
G01*
G37*
G36*
G01*
X144636500Y-91189000D02*
X144161500Y-91189000D01*
G75*
G02*
X143924000Y-90951500I0J237500D01*
G01*
X143924000Y-90376500D01*
G75*
G02*
X144161500Y-90139000I237500J0D01*
G01*
X144636500Y-90139000D01*
G75*
G02*
X144874000Y-90376500I0J-237500D01*
G01*
X144874000Y-90951500D01*
G75*
G02*
X144636500Y-91189000I-237500J0D01*
G01*
G37*
%TD*%
%TO.C,R17*%
G36*
G01*
X126434000Y-112718001D02*
X126434000Y-111817999D01*
G75*
G02*
X126683999Y-111568000I249999J0D01*
G01*
X127334001Y-111568000D01*
G75*
G02*
X127584000Y-111817999I0J-249999D01*
G01*
X127584000Y-112718001D01*
G75*
G02*
X127334001Y-112968000I-249999J0D01*
G01*
X126683999Y-112968000D01*
G75*
G02*
X126434000Y-112718001I0J249999D01*
G01*
G37*
G36*
G01*
X124384000Y-112718001D02*
X124384000Y-111817999D01*
G75*
G02*
X124633999Y-111568000I249999J0D01*
G01*
X125284001Y-111568000D01*
G75*
G02*
X125534000Y-111817999I0J-249999D01*
G01*
X125534000Y-112718001D01*
G75*
G02*
X125284001Y-112968000I-249999J0D01*
G01*
X124633999Y-112968000D01*
G75*
G02*
X124384000Y-112718001I0J249999D01*
G01*
G37*
%TD*%
%TO.C,R16*%
G36*
G01*
X126000500Y-134462000D02*
X126475500Y-134462000D01*
G75*
G02*
X126713000Y-134699500I0J-237500D01*
G01*
X126713000Y-135274500D01*
G75*
G02*
X126475500Y-135512000I-237500J0D01*
G01*
X126000500Y-135512000D01*
G75*
G02*
X125763000Y-135274500I0J237500D01*
G01*
X125763000Y-134699500D01*
G75*
G02*
X126000500Y-134462000I237500J0D01*
G01*
G37*
G36*
G01*
X126000500Y-132712000D02*
X126475500Y-132712000D01*
G75*
G02*
X126713000Y-132949500I0J-237500D01*
G01*
X126713000Y-133524500D01*
G75*
G02*
X126475500Y-133762000I-237500J0D01*
G01*
X126000500Y-133762000D01*
G75*
G02*
X125763000Y-133524500I0J237500D01*
G01*
X125763000Y-132949500D01*
G75*
G02*
X126000500Y-132712000I237500J0D01*
G01*
G37*
%TD*%
%TO.C,R15*%
G36*
G01*
X114966000Y-138192500D02*
X114966000Y-138667500D01*
G75*
G02*
X114728500Y-138905000I-237500J0D01*
G01*
X114153500Y-138905000D01*
G75*
G02*
X113916000Y-138667500I0J237500D01*
G01*
X113916000Y-138192500D01*
G75*
G02*
X114153500Y-137955000I237500J0D01*
G01*
X114728500Y-137955000D01*
G75*
G02*
X114966000Y-138192500I0J-237500D01*
G01*
G37*
G36*
G01*
X116716000Y-138192500D02*
X116716000Y-138667500D01*
G75*
G02*
X116478500Y-138905000I-237500J0D01*
G01*
X115903500Y-138905000D01*
G75*
G02*
X115666000Y-138667500I0J237500D01*
G01*
X115666000Y-138192500D01*
G75*
G02*
X115903500Y-137955000I237500J0D01*
G01*
X116478500Y-137955000D01*
G75*
G02*
X116716000Y-138192500I0J-237500D01*
G01*
G37*
%TD*%
%TO.C,R14*%
G36*
G01*
X131775000Y-80712999D02*
X131775000Y-82863001D01*
G75*
G02*
X131525001Y-83113000I-249999J0D01*
G01*
X130499999Y-83113000D01*
G75*
G02*
X130250000Y-82863001I0J249999D01*
G01*
X130250000Y-80712999D01*
G75*
G02*
X130499999Y-80463000I249999J0D01*
G01*
X131525001Y-80463000D01*
G75*
G02*
X131775000Y-80712999I0J-249999D01*
G01*
G37*
G36*
G01*
X136450000Y-80712999D02*
X136450000Y-82863001D01*
G75*
G02*
X136200001Y-83113000I-249999J0D01*
G01*
X135174999Y-83113000D01*
G75*
G02*
X134925000Y-82863001I0J249999D01*
G01*
X134925000Y-80712999D01*
G75*
G02*
X135174999Y-80463000I249999J0D01*
G01*
X136200001Y-80463000D01*
G75*
G02*
X136450000Y-80712999I0J-249999D01*
G01*
G37*
%TD*%
%TO.C,R13*%
G36*
G01*
X129556500Y-126080000D02*
X130031500Y-126080000D01*
G75*
G02*
X130269000Y-126317500I0J-237500D01*
G01*
X130269000Y-126892500D01*
G75*
G02*
X130031500Y-127130000I-237500J0D01*
G01*
X129556500Y-127130000D01*
G75*
G02*
X129319000Y-126892500I0J237500D01*
G01*
X129319000Y-126317500D01*
G75*
G02*
X129556500Y-126080000I237500J0D01*
G01*
G37*
G36*
G01*
X129556500Y-124330000D02*
X130031500Y-124330000D01*
G75*
G02*
X130269000Y-124567500I0J-237500D01*
G01*
X130269000Y-125142500D01*
G75*
G02*
X130031500Y-125380000I-237500J0D01*
G01*
X129556500Y-125380000D01*
G75*
G02*
X129319000Y-125142500I0J237500D01*
G01*
X129319000Y-124567500D01*
G75*
G02*
X129556500Y-124330000I237500J0D01*
G01*
G37*
%TD*%
%TO.C,R7*%
G36*
G01*
X126000500Y-128620000D02*
X126475500Y-128620000D01*
G75*
G02*
X126713000Y-128857500I0J-237500D01*
G01*
X126713000Y-129432500D01*
G75*
G02*
X126475500Y-129670000I-237500J0D01*
G01*
X126000500Y-129670000D01*
G75*
G02*
X125763000Y-129432500I0J237500D01*
G01*
X125763000Y-128857500D01*
G75*
G02*
X126000500Y-128620000I237500J0D01*
G01*
G37*
G36*
G01*
X126000500Y-126870000D02*
X126475500Y-126870000D01*
G75*
G02*
X126713000Y-127107500I0J-237500D01*
G01*
X126713000Y-127682500D01*
G75*
G02*
X126475500Y-127920000I-237500J0D01*
G01*
X126000500Y-127920000D01*
G75*
G02*
X125763000Y-127682500I0J237500D01*
G01*
X125763000Y-127107500D01*
G75*
G02*
X126000500Y-126870000I237500J0D01*
G01*
G37*
%TD*%
%TO.C,R6*%
G36*
G01*
X118776000Y-125238500D02*
X118776000Y-125713500D01*
G75*
G02*
X118538500Y-125951000I-237500J0D01*
G01*
X117963500Y-125951000D01*
G75*
G02*
X117726000Y-125713500I0J237500D01*
G01*
X117726000Y-125238500D01*
G75*
G02*
X117963500Y-125001000I237500J0D01*
G01*
X118538500Y-125001000D01*
G75*
G02*
X118776000Y-125238500I0J-237500D01*
G01*
G37*
G36*
G01*
X120526000Y-125238500D02*
X120526000Y-125713500D01*
G75*
G02*
X120288500Y-125951000I-237500J0D01*
G01*
X119713500Y-125951000D01*
G75*
G02*
X119476000Y-125713500I0J237500D01*
G01*
X119476000Y-125238500D01*
G75*
G02*
X119713500Y-125001000I237500J0D01*
G01*
X120288500Y-125001000D01*
G75*
G02*
X120526000Y-125238500I0J-237500D01*
G01*
G37*
%TD*%
%TO.C,R5*%
G36*
G01*
X144509500Y-77120000D02*
X144034500Y-77120000D01*
G75*
G02*
X143797000Y-76882500I0J237500D01*
G01*
X143797000Y-76307500D01*
G75*
G02*
X144034500Y-76070000I237500J0D01*
G01*
X144509500Y-76070000D01*
G75*
G02*
X144747000Y-76307500I0J-237500D01*
G01*
X144747000Y-76882500D01*
G75*
G02*
X144509500Y-77120000I-237500J0D01*
G01*
G37*
G36*
G01*
X144509500Y-78870000D02*
X144034500Y-78870000D01*
G75*
G02*
X143797000Y-78632500I0J237500D01*
G01*
X143797000Y-78057500D01*
G75*
G02*
X144034500Y-77820000I237500J0D01*
G01*
X144509500Y-77820000D01*
G75*
G02*
X144747000Y-78057500I0J-237500D01*
G01*
X144747000Y-78632500D01*
G75*
G02*
X144509500Y-78870000I-237500J0D01*
G01*
G37*
%TD*%
%TO.C,R3*%
G36*
G01*
X85989000Y-71387000D02*
X87239000Y-71387000D01*
G75*
G02*
X87489000Y-71637000I0J-250000D01*
G01*
X87489000Y-72562000D01*
G75*
G02*
X87239000Y-72812000I-250000J0D01*
G01*
X85989000Y-72812000D01*
G75*
G02*
X85739000Y-72562000I0J250000D01*
G01*
X85739000Y-71637000D01*
G75*
G02*
X85989000Y-71387000I250000J0D01*
G01*
G37*
G36*
G01*
X85989000Y-68412000D02*
X87239000Y-68412000D01*
G75*
G02*
X87489000Y-68662000I0J-250000D01*
G01*
X87489000Y-69587000D01*
G75*
G02*
X87239000Y-69837000I-250000J0D01*
G01*
X85989000Y-69837000D01*
G75*
G02*
X85739000Y-69587000I0J250000D01*
G01*
X85739000Y-68662000D01*
G75*
G02*
X85989000Y-68412000I250000J0D01*
G01*
G37*
%TD*%
%TO.C,R1*%
G36*
G01*
X106268000Y-135619500D02*
X106268000Y-135144500D01*
G75*
G02*
X106505500Y-134907000I237500J0D01*
G01*
X107080500Y-134907000D01*
G75*
G02*
X107318000Y-135144500I0J-237500D01*
G01*
X107318000Y-135619500D01*
G75*
G02*
X107080500Y-135857000I-237500J0D01*
G01*
X106505500Y-135857000D01*
G75*
G02*
X106268000Y-135619500I0J237500D01*
G01*
G37*
G36*
G01*
X104518000Y-135619500D02*
X104518000Y-135144500D01*
G75*
G02*
X104755500Y-134907000I237500J0D01*
G01*
X105330500Y-134907000D01*
G75*
G02*
X105568000Y-135144500I0J-237500D01*
G01*
X105568000Y-135619500D01*
G75*
G02*
X105330500Y-135857000I-237500J0D01*
G01*
X104755500Y-135857000D01*
G75*
G02*
X104518000Y-135619500I0J237500D01*
G01*
G37*
%TD*%
D14*
%TO.C,Q13*%
X128016000Y-59674000D03*
X127066000Y-57674000D03*
X128966000Y-57674000D03*
%TD*%
%TO.C,Q12*%
X137160000Y-59674000D03*
X136210000Y-57674000D03*
X138110000Y-57674000D03*
%TD*%
%TO.C,Q11*%
X146304000Y-59674000D03*
X145354000Y-57674000D03*
X147254000Y-57674000D03*
%TD*%
%TO.C,Q10*%
X154178000Y-59674000D03*
X153228000Y-57674000D03*
X155128000Y-57674000D03*
%TD*%
D15*
%TO.C,Q9*%
X128032000Y-135128000D03*
X130032000Y-134178000D03*
X130032000Y-136078000D03*
%TD*%
%TO.C,Q8*%
X128032000Y-130048000D03*
X130032000Y-129098000D03*
X130032000Y-130998000D03*
%TD*%
%TO.C,D18*%
G36*
G01*
X156955500Y-89312000D02*
X156480500Y-89312000D01*
G75*
G02*
X156243000Y-89074500I0J237500D01*
G01*
X156243000Y-88499500D01*
G75*
G02*
X156480500Y-88262000I237500J0D01*
G01*
X156955500Y-88262000D01*
G75*
G02*
X157193000Y-88499500I0J-237500D01*
G01*
X157193000Y-89074500D01*
G75*
G02*
X156955500Y-89312000I-237500J0D01*
G01*
G37*
G36*
G01*
X156955500Y-91062000D02*
X156480500Y-91062000D01*
G75*
G02*
X156243000Y-90824500I0J237500D01*
G01*
X156243000Y-90249500D01*
G75*
G02*
X156480500Y-90012000I237500J0D01*
G01*
X156955500Y-90012000D01*
G75*
G02*
X157193000Y-90249500I0J-237500D01*
G01*
X157193000Y-90824500D01*
G75*
G02*
X156955500Y-91062000I-237500J0D01*
G01*
G37*
%TD*%
%TO.C,D16*%
G36*
G01*
X146414500Y-93757000D02*
X145939500Y-93757000D01*
G75*
G02*
X145702000Y-93519500I0J237500D01*
G01*
X145702000Y-92944500D01*
G75*
G02*
X145939500Y-92707000I237500J0D01*
G01*
X146414500Y-92707000D01*
G75*
G02*
X146652000Y-92944500I0J-237500D01*
G01*
X146652000Y-93519500D01*
G75*
G02*
X146414500Y-93757000I-237500J0D01*
G01*
G37*
G36*
G01*
X146414500Y-95507000D02*
X145939500Y-95507000D01*
G75*
G02*
X145702000Y-95269500I0J237500D01*
G01*
X145702000Y-94694500D01*
G75*
G02*
X145939500Y-94457000I237500J0D01*
G01*
X146414500Y-94457000D01*
G75*
G02*
X146652000Y-94694500I0J-237500D01*
G01*
X146652000Y-95269500D01*
G75*
G02*
X146414500Y-95507000I-237500J0D01*
G01*
G37*
%TD*%
%TO.C,D15*%
G36*
G01*
X156955500Y-93884000D02*
X156480500Y-93884000D01*
G75*
G02*
X156243000Y-93646500I0J237500D01*
G01*
X156243000Y-93071500D01*
G75*
G02*
X156480500Y-92834000I237500J0D01*
G01*
X156955500Y-92834000D01*
G75*
G02*
X157193000Y-93071500I0J-237500D01*
G01*
X157193000Y-93646500D01*
G75*
G02*
X156955500Y-93884000I-237500J0D01*
G01*
G37*
G36*
G01*
X156955500Y-95634000D02*
X156480500Y-95634000D01*
G75*
G02*
X156243000Y-95396500I0J237500D01*
G01*
X156243000Y-94821500D01*
G75*
G02*
X156480500Y-94584000I237500J0D01*
G01*
X156955500Y-94584000D01*
G75*
G02*
X157193000Y-94821500I0J-237500D01*
G01*
X157193000Y-95396500D01*
G75*
G02*
X156955500Y-95634000I-237500J0D01*
G01*
G37*
%TD*%
%TO.C,D14*%
G36*
G01*
X146414500Y-89439000D02*
X145939500Y-89439000D01*
G75*
G02*
X145702000Y-89201500I0J237500D01*
G01*
X145702000Y-88626500D01*
G75*
G02*
X145939500Y-88389000I237500J0D01*
G01*
X146414500Y-88389000D01*
G75*
G02*
X146652000Y-88626500I0J-237500D01*
G01*
X146652000Y-89201500D01*
G75*
G02*
X146414500Y-89439000I-237500J0D01*
G01*
G37*
G36*
G01*
X146414500Y-91189000D02*
X145939500Y-91189000D01*
G75*
G02*
X145702000Y-90951500I0J237500D01*
G01*
X145702000Y-90376500D01*
G75*
G02*
X145939500Y-90139000I237500J0D01*
G01*
X146414500Y-90139000D01*
G75*
G02*
X146652000Y-90376500I0J-237500D01*
G01*
X146652000Y-90951500D01*
G75*
G02*
X146414500Y-91189000I-237500J0D01*
G01*
G37*
%TD*%
%TO.C,D10*%
G36*
G01*
X146287500Y-84232000D02*
X145812500Y-84232000D01*
G75*
G02*
X145575000Y-83994500I0J237500D01*
G01*
X145575000Y-83419500D01*
G75*
G02*
X145812500Y-83182000I237500J0D01*
G01*
X146287500Y-83182000D01*
G75*
G02*
X146525000Y-83419500I0J-237500D01*
G01*
X146525000Y-83994500D01*
G75*
G02*
X146287500Y-84232000I-237500J0D01*
G01*
G37*
G36*
G01*
X146287500Y-85982000D02*
X145812500Y-85982000D01*
G75*
G02*
X145575000Y-85744500I0J237500D01*
G01*
X145575000Y-85169500D01*
G75*
G02*
X145812500Y-84932000I237500J0D01*
G01*
X146287500Y-84932000D01*
G75*
G02*
X146525000Y-85169500I0J-237500D01*
G01*
X146525000Y-85744500D01*
G75*
G02*
X146287500Y-85982000I-237500J0D01*
G01*
G37*
%TD*%
%TO.C,D9*%
G36*
G01*
X146287500Y-77120000D02*
X145812500Y-77120000D01*
G75*
G02*
X145575000Y-76882500I0J237500D01*
G01*
X145575000Y-76307500D01*
G75*
G02*
X145812500Y-76070000I237500J0D01*
G01*
X146287500Y-76070000D01*
G75*
G02*
X146525000Y-76307500I0J-237500D01*
G01*
X146525000Y-76882500D01*
G75*
G02*
X146287500Y-77120000I-237500J0D01*
G01*
G37*
G36*
G01*
X146287500Y-78870000D02*
X145812500Y-78870000D01*
G75*
G02*
X145575000Y-78632500I0J237500D01*
G01*
X145575000Y-78057500D01*
G75*
G02*
X145812500Y-77820000I237500J0D01*
G01*
X146287500Y-77820000D01*
G75*
G02*
X146525000Y-78057500I0J-237500D01*
G01*
X146525000Y-78632500D01*
G75*
G02*
X146287500Y-78870000I-237500J0D01*
G01*
G37*
%TD*%
%TO.C,D8*%
G36*
G01*
X154923500Y-82708000D02*
X154448500Y-82708000D01*
G75*
G02*
X154211000Y-82470500I0J237500D01*
G01*
X154211000Y-81895500D01*
G75*
G02*
X154448500Y-81658000I237500J0D01*
G01*
X154923500Y-81658000D01*
G75*
G02*
X155161000Y-81895500I0J-237500D01*
G01*
X155161000Y-82470500D01*
G75*
G02*
X154923500Y-82708000I-237500J0D01*
G01*
G37*
G36*
G01*
X154923500Y-84458000D02*
X154448500Y-84458000D01*
G75*
G02*
X154211000Y-84220500I0J237500D01*
G01*
X154211000Y-83645500D01*
G75*
G02*
X154448500Y-83408000I237500J0D01*
G01*
X154923500Y-83408000D01*
G75*
G02*
X155161000Y-83645500I0J-237500D01*
G01*
X155161000Y-84220500D01*
G75*
G02*
X154923500Y-84458000I-237500J0D01*
G01*
G37*
%TD*%
%TO.C,D7*%
G36*
G01*
X159782500Y-79598000D02*
X160257500Y-79598000D01*
G75*
G02*
X160495000Y-79835500I0J-237500D01*
G01*
X160495000Y-80410500D01*
G75*
G02*
X160257500Y-80648000I-237500J0D01*
G01*
X159782500Y-80648000D01*
G75*
G02*
X159545000Y-80410500I0J237500D01*
G01*
X159545000Y-79835500D01*
G75*
G02*
X159782500Y-79598000I237500J0D01*
G01*
G37*
G36*
G01*
X159782500Y-77848000D02*
X160257500Y-77848000D01*
G75*
G02*
X160495000Y-78085500I0J-237500D01*
G01*
X160495000Y-78660500D01*
G75*
G02*
X160257500Y-78898000I-237500J0D01*
G01*
X159782500Y-78898000D01*
G75*
G02*
X159545000Y-78660500I0J237500D01*
G01*
X159545000Y-78085500D01*
G75*
G02*
X159782500Y-77848000I237500J0D01*
G01*
G37*
%TD*%
%TO.C,D6*%
G36*
G01*
X154923500Y-75850000D02*
X154448500Y-75850000D01*
G75*
G02*
X154211000Y-75612500I0J237500D01*
G01*
X154211000Y-75037500D01*
G75*
G02*
X154448500Y-74800000I237500J0D01*
G01*
X154923500Y-74800000D01*
G75*
G02*
X155161000Y-75037500I0J-237500D01*
G01*
X155161000Y-75612500D01*
G75*
G02*
X154923500Y-75850000I-237500J0D01*
G01*
G37*
G36*
G01*
X154923500Y-77600000D02*
X154448500Y-77600000D01*
G75*
G02*
X154211000Y-77362500I0J237500D01*
G01*
X154211000Y-76787500D01*
G75*
G02*
X154448500Y-76550000I237500J0D01*
G01*
X154923500Y-76550000D01*
G75*
G02*
X155161000Y-76787500I0J-237500D01*
G01*
X155161000Y-77362500D01*
G75*
G02*
X154923500Y-77600000I-237500J0D01*
G01*
G37*
%TD*%
%TO.C,D4*%
G36*
G01*
X117952000Y-70595500D02*
X117952000Y-70120500D01*
G75*
G02*
X118189500Y-69883000I237500J0D01*
G01*
X118764500Y-69883000D01*
G75*
G02*
X119002000Y-70120500I0J-237500D01*
G01*
X119002000Y-70595500D01*
G75*
G02*
X118764500Y-70833000I-237500J0D01*
G01*
X118189500Y-70833000D01*
G75*
G02*
X117952000Y-70595500I0J237500D01*
G01*
G37*
G36*
G01*
X116202000Y-70595500D02*
X116202000Y-70120500D01*
G75*
G02*
X116439500Y-69883000I237500J0D01*
G01*
X117014500Y-69883000D01*
G75*
G02*
X117252000Y-70120500I0J-237500D01*
G01*
X117252000Y-70595500D01*
G75*
G02*
X117014500Y-70833000I-237500J0D01*
G01*
X116439500Y-70833000D01*
G75*
G02*
X116202000Y-70595500I0J237500D01*
G01*
G37*
%TD*%
%TO.C,D2*%
G36*
G01*
X106268000Y-137397500D02*
X106268000Y-136922500D01*
G75*
G02*
X106505500Y-136685000I237500J0D01*
G01*
X107080500Y-136685000D01*
G75*
G02*
X107318000Y-136922500I0J-237500D01*
G01*
X107318000Y-137397500D01*
G75*
G02*
X107080500Y-137635000I-237500J0D01*
G01*
X106505500Y-137635000D01*
G75*
G02*
X106268000Y-137397500I0J237500D01*
G01*
G37*
G36*
G01*
X104518000Y-137397500D02*
X104518000Y-136922500D01*
G75*
G02*
X104755500Y-136685000I237500J0D01*
G01*
X105330500Y-136685000D01*
G75*
G02*
X105568000Y-136922500I0J-237500D01*
G01*
X105568000Y-137397500D01*
G75*
G02*
X105330500Y-137635000I-237500J0D01*
G01*
X104755500Y-137635000D01*
G75*
G02*
X104518000Y-137397500I0J237500D01*
G01*
G37*
%TD*%
%TO.C,C50*%
G36*
G01*
X121316000Y-65294500D02*
X121316000Y-65769500D01*
G75*
G02*
X121078500Y-66007000I-237500J0D01*
G01*
X120503500Y-66007000D01*
G75*
G02*
X120266000Y-65769500I0J237500D01*
G01*
X120266000Y-65294500D01*
G75*
G02*
X120503500Y-65057000I237500J0D01*
G01*
X121078500Y-65057000D01*
G75*
G02*
X121316000Y-65294500I0J-237500D01*
G01*
G37*
G36*
G01*
X123066000Y-65294500D02*
X123066000Y-65769500D01*
G75*
G02*
X122828500Y-66007000I-237500J0D01*
G01*
X122253500Y-66007000D01*
G75*
G02*
X122016000Y-65769500I0J237500D01*
G01*
X122016000Y-65294500D01*
G75*
G02*
X122253500Y-65057000I237500J0D01*
G01*
X122828500Y-65057000D01*
G75*
G02*
X123066000Y-65294500I0J-237500D01*
G01*
G37*
%TD*%
%TO.C,C48*%
G36*
G01*
X136556000Y-64786500D02*
X136556000Y-65261500D01*
G75*
G02*
X136318500Y-65499000I-237500J0D01*
G01*
X135743500Y-65499000D01*
G75*
G02*
X135506000Y-65261500I0J237500D01*
G01*
X135506000Y-64786500D01*
G75*
G02*
X135743500Y-64549000I237500J0D01*
G01*
X136318500Y-64549000D01*
G75*
G02*
X136556000Y-64786500I0J-237500D01*
G01*
G37*
G36*
G01*
X138306000Y-64786500D02*
X138306000Y-65261500D01*
G75*
G02*
X138068500Y-65499000I-237500J0D01*
G01*
X137493500Y-65499000D01*
G75*
G02*
X137256000Y-65261500I0J237500D01*
G01*
X137256000Y-64786500D01*
G75*
G02*
X137493500Y-64549000I237500J0D01*
G01*
X138068500Y-64549000D01*
G75*
G02*
X138306000Y-64786500I0J-237500D01*
G01*
G37*
%TD*%
%TO.C,C46*%
G36*
G01*
X152304000Y-65294500D02*
X152304000Y-65769500D01*
G75*
G02*
X152066500Y-66007000I-237500J0D01*
G01*
X151491500Y-66007000D01*
G75*
G02*
X151254000Y-65769500I0J237500D01*
G01*
X151254000Y-65294500D01*
G75*
G02*
X151491500Y-65057000I237500J0D01*
G01*
X152066500Y-65057000D01*
G75*
G02*
X152304000Y-65294500I0J-237500D01*
G01*
G37*
G36*
G01*
X154054000Y-65294500D02*
X154054000Y-65769500D01*
G75*
G02*
X153816500Y-66007000I-237500J0D01*
G01*
X153241500Y-66007000D01*
G75*
G02*
X153004000Y-65769500I0J237500D01*
G01*
X153004000Y-65294500D01*
G75*
G02*
X153241500Y-65057000I237500J0D01*
G01*
X153816500Y-65057000D01*
G75*
G02*
X154054000Y-65294500I0J-237500D01*
G01*
G37*
%TD*%
%TO.C,C44*%
G36*
G01*
X163926000Y-49513500D02*
X163926000Y-49038500D01*
G75*
G02*
X164163500Y-48801000I237500J0D01*
G01*
X164738500Y-48801000D01*
G75*
G02*
X164976000Y-49038500I0J-237500D01*
G01*
X164976000Y-49513500D01*
G75*
G02*
X164738500Y-49751000I-237500J0D01*
G01*
X164163500Y-49751000D01*
G75*
G02*
X163926000Y-49513500I0J237500D01*
G01*
G37*
G36*
G01*
X162176000Y-49513500D02*
X162176000Y-49038500D01*
G75*
G02*
X162413500Y-48801000I237500J0D01*
G01*
X162988500Y-48801000D01*
G75*
G02*
X163226000Y-49038500I0J-237500D01*
G01*
X163226000Y-49513500D01*
G75*
G02*
X162988500Y-49751000I-237500J0D01*
G01*
X162413500Y-49751000D01*
G75*
G02*
X162176000Y-49513500I0J237500D01*
G01*
G37*
%TD*%
%TO.C,C22*%
G36*
G01*
X95662000Y-68342500D02*
X95662000Y-68817500D01*
G75*
G02*
X95424500Y-69055000I-237500J0D01*
G01*
X94849500Y-69055000D01*
G75*
G02*
X94612000Y-68817500I0J237500D01*
G01*
X94612000Y-68342500D01*
G75*
G02*
X94849500Y-68105000I237500J0D01*
G01*
X95424500Y-68105000D01*
G75*
G02*
X95662000Y-68342500I0J-237500D01*
G01*
G37*
G36*
G01*
X97412000Y-68342500D02*
X97412000Y-68817500D01*
G75*
G02*
X97174500Y-69055000I-237500J0D01*
G01*
X96599500Y-69055000D01*
G75*
G02*
X96362000Y-68817500I0J237500D01*
G01*
X96362000Y-68342500D01*
G75*
G02*
X96599500Y-68105000I237500J0D01*
G01*
X97174500Y-68105000D01*
G75*
G02*
X97412000Y-68342500I0J-237500D01*
G01*
G37*
%TD*%
%TO.C,C21*%
G36*
G01*
X93630000Y-71136500D02*
X93630000Y-71611500D01*
G75*
G02*
X93392500Y-71849000I-237500J0D01*
G01*
X92817500Y-71849000D01*
G75*
G02*
X92580000Y-71611500I0J237500D01*
G01*
X92580000Y-71136500D01*
G75*
G02*
X92817500Y-70899000I237500J0D01*
G01*
X93392500Y-70899000D01*
G75*
G02*
X93630000Y-71136500I0J-237500D01*
G01*
G37*
G36*
G01*
X95380000Y-71136500D02*
X95380000Y-71611500D01*
G75*
G02*
X95142500Y-71849000I-237500J0D01*
G01*
X94567500Y-71849000D01*
G75*
G02*
X94330000Y-71611500I0J237500D01*
G01*
X94330000Y-71136500D01*
G75*
G02*
X94567500Y-70899000I237500J0D01*
G01*
X95142500Y-70899000D01*
G75*
G02*
X95380000Y-71136500I0J-237500D01*
G01*
G37*
%TD*%
%TO.C,C17*%
G36*
G01*
X126475500Y-104552000D02*
X126000500Y-104552000D01*
G75*
G02*
X125763000Y-104314500I0J237500D01*
G01*
X125763000Y-103739500D01*
G75*
G02*
X126000500Y-103502000I237500J0D01*
G01*
X126475500Y-103502000D01*
G75*
G02*
X126713000Y-103739500I0J-237500D01*
G01*
X126713000Y-104314500D01*
G75*
G02*
X126475500Y-104552000I-237500J0D01*
G01*
G37*
G36*
G01*
X126475500Y-106302000D02*
X126000500Y-106302000D01*
G75*
G02*
X125763000Y-106064500I0J237500D01*
G01*
X125763000Y-105489500D01*
G75*
G02*
X126000500Y-105252000I237500J0D01*
G01*
X126475500Y-105252000D01*
G75*
G02*
X126713000Y-105489500I0J-237500D01*
G01*
X126713000Y-106064500D01*
G75*
G02*
X126475500Y-106302000I-237500J0D01*
G01*
G37*
%TD*%
%TO.C,C15*%
G36*
G01*
X122840000Y-121682500D02*
X122840000Y-122157500D01*
G75*
G02*
X122602500Y-122395000I-237500J0D01*
G01*
X122027500Y-122395000D01*
G75*
G02*
X121790000Y-122157500I0J237500D01*
G01*
X121790000Y-121682500D01*
G75*
G02*
X122027500Y-121445000I237500J0D01*
G01*
X122602500Y-121445000D01*
G75*
G02*
X122840000Y-121682500I0J-237500D01*
G01*
G37*
G36*
G01*
X124590000Y-121682500D02*
X124590000Y-122157500D01*
G75*
G02*
X124352500Y-122395000I-237500J0D01*
G01*
X123777500Y-122395000D01*
G75*
G02*
X123540000Y-122157500I0J237500D01*
G01*
X123540000Y-121682500D01*
G75*
G02*
X123777500Y-121445000I237500J0D01*
G01*
X124352500Y-121445000D01*
G75*
G02*
X124590000Y-121682500I0J-237500D01*
G01*
G37*
%TD*%
%TO.C,C6*%
G36*
G01*
X116569500Y-135286000D02*
X116094500Y-135286000D01*
G75*
G02*
X115857000Y-135048500I0J237500D01*
G01*
X115857000Y-134473500D01*
G75*
G02*
X116094500Y-134236000I237500J0D01*
G01*
X116569500Y-134236000D01*
G75*
G02*
X116807000Y-134473500I0J-237500D01*
G01*
X116807000Y-135048500D01*
G75*
G02*
X116569500Y-135286000I-237500J0D01*
G01*
G37*
G36*
G01*
X116569500Y-137036000D02*
X116094500Y-137036000D01*
G75*
G02*
X115857000Y-136798500I0J237500D01*
G01*
X115857000Y-136223500D01*
G75*
G02*
X116094500Y-135986000I237500J0D01*
G01*
X116569500Y-135986000D01*
G75*
G02*
X116807000Y-136223500I0J-237500D01*
G01*
X116807000Y-136798500D01*
G75*
G02*
X116569500Y-137036000I-237500J0D01*
G01*
G37*
%TD*%
%TO.C,C3*%
G36*
G01*
X116348500Y-129509000D02*
X116823500Y-129509000D01*
G75*
G02*
X117061000Y-129746500I0J-237500D01*
G01*
X117061000Y-130321500D01*
G75*
G02*
X116823500Y-130559000I-237500J0D01*
G01*
X116348500Y-130559000D01*
G75*
G02*
X116111000Y-130321500I0J237500D01*
G01*
X116111000Y-129746500D01*
G75*
G02*
X116348500Y-129509000I237500J0D01*
G01*
G37*
G36*
G01*
X116348500Y-127759000D02*
X116823500Y-127759000D01*
G75*
G02*
X117061000Y-127996500I0J-237500D01*
G01*
X117061000Y-128571500D01*
G75*
G02*
X116823500Y-128809000I-237500J0D01*
G01*
X116348500Y-128809000D01*
G75*
G02*
X116111000Y-128571500I0J237500D01*
G01*
X116111000Y-127996500D01*
G75*
G02*
X116348500Y-127759000I237500J0D01*
G01*
G37*
%TD*%
M02*
