%TF.GenerationSoftware,KiCad,Pcbnew,(5.1.8)-1*%
%TF.CreationDate,2021-04-02T01:03:45-05:00*%
%TF.ProjectId,12VBoard_2021_Rev1,31325642-6f61-4726-945f-323032315f52,rev?*%
%TF.SameCoordinates,Original*%
%TF.FileFunction,Soldermask,Bot*%
%TF.FilePolarity,Negative*%
%FSLAX46Y46*%
G04 Gerber Fmt 4.6, Leading zero omitted, Abs format (unit mm)*
G04 Created by KiCad (PCBNEW (5.1.8)-1) date 2021-04-02 01:03:45*
%MOMM*%
%LPD*%
G01*
G04 APERTURE LIST*
%ADD10C,1.624000*%
%ADD11C,3.148000*%
%ADD12C,3.910000*%
%ADD13C,2.919400*%
%ADD14C,5.180000*%
%ADD15C,1.700000*%
%ADD16C,3.046400*%
G04 APERTURE END LIST*
D10*
%TO.C,Conn2*%
X88646000Y-43180000D03*
X88646000Y-43180000D03*
X91186000Y-43180000D03*
X93726000Y-43180000D03*
X96266000Y-43180000D03*
%TD*%
D11*
%TO.C,VR1*%
X99568000Y-77216000D03*
X95758000Y-77216000D03*
X91948000Y-77216000D03*
D12*
X88138000Y-77216000D03*
X103378000Y-77216000D03*
D11*
X88138000Y-128016000D03*
X95758000Y-128016000D03*
X103378000Y-128016000D03*
%TD*%
D10*
%TO.C,U9*%
X100076000Y-65024000D03*
X100076000Y-67564000D03*
X100076000Y-70104000D03*
%TD*%
D13*
%TO.C,F3*%
X119761000Y-112014000D03*
X116332000Y-112014000D03*
X116332000Y-98552000D03*
X119761000Y-98552000D03*
%TD*%
%TO.C,F2*%
X81280000Y-65913000D03*
X81280000Y-62484000D03*
X94742000Y-62484000D03*
X94742000Y-65913000D03*
%TD*%
%TO.C,F1*%
X137541000Y-100584000D03*
X134112000Y-100584000D03*
X134112000Y-87122000D03*
X137541000Y-87122000D03*
%TD*%
D14*
%TO.C,Drive*%
X154406000Y-52617000D03*
X154406000Y-44717000D03*
%TD*%
%TO.C,Conn12*%
X152680000Y-120077000D03*
X152680000Y-127977000D03*
X152680000Y-135877000D03*
%TD*%
%TO.C,Conn11*%
X143282000Y-120077000D03*
X143282000Y-127977000D03*
X143282000Y-135877000D03*
%TD*%
%TO.C,Conn9*%
X134138000Y-120077000D03*
X134138000Y-127977000D03*
X134138000Y-135877000D03*
%TD*%
%TO.C,Extra 2&3*%
X117830000Y-52617000D03*
X117830000Y-44717000D03*
%TD*%
%TO.C,Extra 1*%
X126974000Y-52617000D03*
X126974000Y-44717000D03*
%TD*%
%TO.C,Nav*%
X136118000Y-52617000D03*
X136118000Y-44717000D03*
%TD*%
%TO.C,Camera*%
X145262000Y-52617000D03*
X145262000Y-44717000D03*
%TD*%
%TO.C,Extra 2&3*%
X108686000Y-52617000D03*
X108686000Y-44717000D03*
%TD*%
%TO.C,Pack*%
X90131000Y-137642000D03*
X98031000Y-137642000D03*
%TD*%
D10*
%TO.C,Conn1*%
X81026000Y-50574000D03*
X83566000Y-50574000D03*
X86106000Y-50574000D03*
X88646000Y-50574000D03*
X91186000Y-50574000D03*
X93726000Y-50574000D03*
X96266000Y-50574000D03*
%TD*%
D15*
%TO.C,C49*%
X133604000Y-71596000D03*
G36*
G01*
X132804000Y-68746000D02*
X134404000Y-68746000D01*
G75*
G02*
X134454000Y-68796000I0J-50000D01*
G01*
X134454000Y-70396000D01*
G75*
G02*
X134404000Y-70446000I-50000J0D01*
G01*
X132804000Y-70446000D01*
G75*
G02*
X132754000Y-70396000I0J50000D01*
G01*
X132754000Y-68796000D01*
G75*
G02*
X132804000Y-68746000I50000J0D01*
G01*
G37*
%TD*%
%TO.C,C47*%
X149606000Y-71596000D03*
G36*
G01*
X148806000Y-68746000D02*
X150406000Y-68746000D01*
G75*
G02*
X150456000Y-68796000I0J-50000D01*
G01*
X150456000Y-70396000D01*
G75*
G02*
X150406000Y-70446000I-50000J0D01*
G01*
X148806000Y-70446000D01*
G75*
G02*
X148756000Y-70396000I0J50000D01*
G01*
X148756000Y-68796000D01*
G75*
G02*
X148806000Y-68746000I50000J0D01*
G01*
G37*
%TD*%
%TO.C,C45*%
X163068000Y-73882000D03*
G36*
G01*
X162268000Y-71032000D02*
X163868000Y-71032000D01*
G75*
G02*
X163918000Y-71082000I0J-50000D01*
G01*
X163918000Y-72682000D01*
G75*
G02*
X163868000Y-72732000I-50000J0D01*
G01*
X162268000Y-72732000D01*
G75*
G02*
X162218000Y-72682000I0J50000D01*
G01*
X162218000Y-71082000D01*
G75*
G02*
X162268000Y-71032000I50000J0D01*
G01*
G37*
%TD*%
%TO.C,C43*%
X164306000Y-61976000D03*
G36*
G01*
X161456000Y-62776000D02*
X161456000Y-61176000D01*
G75*
G02*
X161506000Y-61126000I50000J0D01*
G01*
X163106000Y-61126000D01*
G75*
G02*
X163156000Y-61176000I0J-50000D01*
G01*
X163156000Y-62776000D01*
G75*
G02*
X163106000Y-62826000I-50000J0D01*
G01*
X161506000Y-62826000D01*
G75*
G02*
X161456000Y-62776000I0J50000D01*
G01*
G37*
%TD*%
%TO.C,C18*%
X143224000Y-103632000D03*
G36*
G01*
X140374000Y-104432000D02*
X140374000Y-102832000D01*
G75*
G02*
X140424000Y-102782000I50000J0D01*
G01*
X142024000Y-102782000D01*
G75*
G02*
X142074000Y-102832000I0J-50000D01*
G01*
X142074000Y-104432000D01*
G75*
G02*
X142024000Y-104482000I-50000J0D01*
G01*
X140424000Y-104482000D01*
G75*
G02*
X140374000Y-104432000I0J50000D01*
G01*
G37*
%TD*%
%TO.C,C16*%
X121444000Y-118110000D03*
G36*
G01*
X124294000Y-117310000D02*
X124294000Y-118910000D01*
G75*
G02*
X124244000Y-118960000I-50000J0D01*
G01*
X122644000Y-118960000D01*
G75*
G02*
X122594000Y-118910000I0J50000D01*
G01*
X122594000Y-117310000D01*
G75*
G02*
X122644000Y-117260000I50000J0D01*
G01*
X124244000Y-117260000D01*
G75*
G02*
X124294000Y-117310000I0J-50000D01*
G01*
G37*
%TD*%
%TO.C,C10*%
X121158000Y-79304000D03*
G36*
G01*
X121958000Y-83654000D02*
X120358000Y-83654000D01*
G75*
G02*
X120308000Y-83604000I0J50000D01*
G01*
X120308000Y-82004000D01*
G75*
G02*
X120358000Y-81954000I50000J0D01*
G01*
X121958000Y-81954000D01*
G75*
G02*
X122008000Y-82004000I0J-50000D01*
G01*
X122008000Y-83604000D01*
G75*
G02*
X121958000Y-83654000I-50000J0D01*
G01*
G37*
%TD*%
%TO.C,C7*%
X110014000Y-135382000D03*
G36*
G01*
X112864000Y-134582000D02*
X112864000Y-136182000D01*
G75*
G02*
X112814000Y-136232000I-50000J0D01*
G01*
X111214000Y-136232000D01*
G75*
G02*
X111164000Y-136182000I0J50000D01*
G01*
X111164000Y-134582000D01*
G75*
G02*
X111214000Y-134532000I50000J0D01*
G01*
X112814000Y-134532000D01*
G75*
G02*
X112864000Y-134582000I0J-50000D01*
G01*
G37*
%TD*%
%TO.C,C5*%
X118840000Y-121666000D03*
G36*
G01*
X115990000Y-122466000D02*
X115990000Y-120866000D01*
G75*
G02*
X116040000Y-120816000I50000J0D01*
G01*
X117640000Y-120816000D01*
G75*
G02*
X117690000Y-120866000I0J-50000D01*
G01*
X117690000Y-122466000D01*
G75*
G02*
X117640000Y-122516000I-50000J0D01*
G01*
X116040000Y-122516000D01*
G75*
G02*
X115990000Y-122466000I0J50000D01*
G01*
G37*
%TD*%
D16*
%TO.C,REF\u002A\u002A*%
X162361880Y-136961880D03*
%TD*%
%TO.C,REF\u002A\u002A*%
X81478120Y-136961880D03*
%TD*%
%TO.C,REF\u002A\u002A*%
X162361880Y-43378120D03*
%TD*%
%TO.C,REF\u002A\u002A*%
X81478120Y-43378120D03*
%TD*%
M02*
