%TF.GenerationSoftware,KiCad,Pcbnew,(5.1.8)-1*%
%TF.CreationDate,2021-04-02T01:03:45-05:00*%
%TF.ProjectId,12VBoard_2021_Rev1,31325642-6f61-4726-945f-323032315f52,rev?*%
%TF.SameCoordinates,Original*%
%TF.FileFunction,Copper,L2,Bot*%
%TF.FilePolarity,Positive*%
%FSLAX46Y46*%
G04 Gerber Fmt 4.6, Leading zero omitted, Abs format (unit mm)*
G04 Created by KiCad (PCBNEW (5.1.8)-1) date 2021-04-02 01:03:45*
%MOMM*%
%LPD*%
G01*
G04 APERTURE LIST*
%TA.AperFunction,ComponentPad*%
%ADD10C,1.524000*%
%TD*%
%TA.AperFunction,ComponentPad*%
%ADD11C,3.048000*%
%TD*%
%TA.AperFunction,ComponentPad*%
%ADD12C,3.810000*%
%TD*%
%TA.AperFunction,ComponentPad*%
%ADD13C,2.819400*%
%TD*%
%TA.AperFunction,ComponentPad*%
%ADD14C,5.080000*%
%TD*%
%TA.AperFunction,ComponentPad*%
%ADD15C,1.600000*%
%TD*%
%TA.AperFunction,ComponentPad*%
%ADD16R,1.600000X1.600000*%
%TD*%
%TA.AperFunction,ViaPad*%
%ADD17C,0.800000*%
%TD*%
%TA.AperFunction,Conductor*%
%ADD18C,0.254000*%
%TD*%
%TA.AperFunction,Conductor*%
%ADD19C,0.508000*%
%TD*%
%TA.AperFunction,Conductor*%
%ADD20C,0.762000*%
%TD*%
%TA.AperFunction,Conductor*%
%ADD21C,2.540000*%
%TD*%
%TA.AperFunction,Conductor*%
%ADD22C,0.100000*%
%TD*%
G04 APERTURE END LIST*
D10*
%TO.P,Conn2,4*%
%TO.N,/Low Current Outputs/CurrentSense*%
X88646000Y-43180000D03*
X88646000Y-43180000D03*
%TO.P,Conn2,3*%
%TO.N,/High Current Outputs/GimbalSense*%
X91186000Y-43180000D03*
%TO.P,Conn2,2*%
%TO.N,/High Current Outputs/MultimediaSense*%
X93726000Y-43180000D03*
%TO.P,Conn2,1*%
%TO.N,/Tiva In/Outputs/NavBoardCTL*%
X96266000Y-43180000D03*
%TD*%
D11*
%TO.P,VR1,5*%
%TO.N,GND*%
X99568000Y-77216000D03*
%TO.P,VR1,6*%
%TO.N,Net-(VR1-Pad6)*%
X95758000Y-77216000D03*
%TO.P,VR1,7*%
%TO.N,/High Current Outputs/12VActuation*%
X91948000Y-77216000D03*
D12*
%TO.P,VR1,8*%
X88138000Y-77216000D03*
%TO.P,VR1,4*%
%TO.N,GND*%
X103378000Y-77216000D03*
D11*
%TO.P,VR1,1*%
%TO.N,/High Current Outputs/PackVoltage*%
X88138000Y-128016000D03*
%TO.P,VR1,2*%
%TO.N,GND*%
X95758000Y-128016000D03*
%TO.P,VR1,3*%
X103378000Y-128016000D03*
%TD*%
D10*
%TO.P,U9,3*%
%TO.N,+5V*%
X100076000Y-65024000D03*
%TO.P,U9,2*%
%TO.N,GND*%
X100076000Y-67564000D03*
%TO.P,U9,1*%
%TO.N,/High Current Outputs/12VActuation*%
X100076000Y-70104000D03*
%TD*%
D13*
%TO.P,F3,1*%
%TO.N,/High Current Outputs/Gimbal/12V5AON*%
X119761000Y-112014000D03*
X116332000Y-112014000D03*
%TO.P,F3,2*%
%TO.N,Net-(F3-Pad2)*%
X116332000Y-98552000D03*
X119761000Y-98552000D03*
%TD*%
%TO.P,F2,1*%
%TO.N,Net-(F2-Pad1)*%
X81280000Y-65913000D03*
X81280000Y-62484000D03*
%TO.P,F2,2*%
%TO.N,/High Current Outputs/12VLogic*%
X94742000Y-62484000D03*
X94742000Y-65913000D03*
%TD*%
%TO.P,F1,1*%
%TO.N,/High Current Outputs/Multimedia/Extra/12V5AON*%
X137541000Y-100584000D03*
X134112000Y-100584000D03*
%TO.P,F1,2*%
%TO.N,Net-(F1-Pad2)*%
X134112000Y-87122000D03*
X137541000Y-87122000D03*
%TD*%
D14*
%TO.P,Drive,2*%
%TO.N,Net-(Conn15-Pad2)*%
X154406000Y-52617000D03*
%TO.P,Drive,1*%
%TO.N,GND*%
X154406000Y-44717000D03*
%TD*%
%TO.P,Conn12,3*%
%TO.N,/High Current Outputs/Multimedia/Extra/12V5AMultiMedia*%
X152680000Y-120077000D03*
%TO.P,Conn12,2*%
%TO.N,/High Current Outputs/Multimedia/Extra/12VLogicMultiMedia*%
X152680000Y-127977000D03*
%TO.P,Conn12,1*%
%TO.N,GND*%
X152680000Y-135877000D03*
%TD*%
%TO.P,Conn11,3*%
%TO.N,/High Current Outputs/Multimedia/Extra/12V5AMultiMedia*%
X143282000Y-120077000D03*
%TO.P,Conn11,2*%
%TO.N,/High Current Outputs/Multimedia/Extra/12VLogicMultiMedia*%
X143282000Y-127977000D03*
%TO.P,Conn11,1*%
%TO.N,GND*%
X143282000Y-135877000D03*
%TD*%
%TO.P,Conn9,3*%
%TO.N,/High Current Outputs/Gimbal/12V5AGimbal*%
X134138000Y-120077000D03*
%TO.P,Conn9,2*%
%TO.N,/High Current Outputs/Gimbal/12VLogicGimbal*%
X134138000Y-127977000D03*
%TO.P,Conn9,1*%
%TO.N,GND*%
X134138000Y-135877000D03*
%TD*%
%TO.P,Extra 2&3,2*%
%TO.N,/High Current Outputs/12VLogic*%
X117830000Y-52617000D03*
%TO.P,Extra 2&3,1*%
%TO.N,GND*%
X117830000Y-44717000D03*
%TD*%
%TO.P,Extra 1,2*%
%TO.N,Net-(Conn7-Pad2)*%
X126974000Y-52617000D03*
%TO.P,Extra 1,1*%
%TO.N,GND*%
X126974000Y-44717000D03*
%TD*%
%TO.P,Nav,2*%
%TO.N,Net-(Conn6-Pad2)*%
X136118000Y-52617000D03*
%TO.P,Nav,1*%
%TO.N,GND*%
X136118000Y-44717000D03*
%TD*%
%TO.P,Camera,2*%
%TO.N,Net-(Conn5-Pad2)*%
X145262000Y-52617000D03*
%TO.P,Camera,1*%
%TO.N,GND*%
X145262000Y-44717000D03*
%TD*%
%TO.P,Extra 2&3,2*%
%TO.N,/High Current Outputs/12VLogic*%
X108686000Y-52617000D03*
%TO.P,Extra 2&3,1*%
%TO.N,GND*%
X108686000Y-44717000D03*
%TD*%
%TO.P,Pack,2*%
%TO.N,/High Current Outputs/PackVoltage*%
X90131000Y-137642000D03*
%TO.P,Pack,1*%
%TO.N,GND*%
X98031000Y-137642000D03*
%TD*%
D10*
%TO.P,Conn1,7*%
%TO.N,/Low Current Outputs/DriveCTL*%
X81026000Y-50574000D03*
%TO.P,Conn1,6*%
%TO.N,/Low Current Outputs/ExtraCTL*%
X83566000Y-50574000D03*
%TO.P,Conn1,5*%
%TO.N,/Low Current Outputs/CameraCTL*%
X86106000Y-50574000D03*
%TO.P,Conn1,4*%
%TO.N,/High Current Outputs/MultiMediaCTL_Log*%
X88646000Y-50574000D03*
%TO.P,Conn1,3*%
%TO.N,/High Current Outputs/GimbalCTL_Log*%
X91186000Y-50574000D03*
%TO.P,Conn1,2*%
%TO.N,/High Current Outputs/MultimediaCTL_Act*%
X93726000Y-50574000D03*
%TO.P,Conn1,1*%
%TO.N,/High Current Outputs/GimbalCTL_Act*%
X96266000Y-50574000D03*
%TD*%
D15*
%TO.P,C49,2*%
%TO.N,GND*%
X133604000Y-71596000D03*
D16*
%TO.P,C49,1*%
%TO.N,/High Current Outputs/12VLogic*%
X133604000Y-69596000D03*
%TD*%
D15*
%TO.P,C47,2*%
%TO.N,GND*%
X149606000Y-71596000D03*
D16*
%TO.P,C47,1*%
%TO.N,/High Current Outputs/12VLogic*%
X149606000Y-69596000D03*
%TD*%
D15*
%TO.P,C45,2*%
%TO.N,GND*%
X163068000Y-73882000D03*
D16*
%TO.P,C45,1*%
%TO.N,/High Current Outputs/12VLogic*%
X163068000Y-71882000D03*
%TD*%
D15*
%TO.P,C43,2*%
%TO.N,GND*%
X164306000Y-61976000D03*
D16*
%TO.P,C43,1*%
%TO.N,/High Current Outputs/12VLogic*%
X162306000Y-61976000D03*
%TD*%
D15*
%TO.P,C18,2*%
%TO.N,GND*%
X143224000Y-103632000D03*
D16*
%TO.P,C18,1*%
%TO.N,/High Current Outputs/Multimedia/Extra/12V5AON*%
X141224000Y-103632000D03*
%TD*%
D15*
%TO.P,C16,2*%
%TO.N,GND*%
X121444000Y-118110000D03*
D16*
%TO.P,C16,1*%
%TO.N,/High Current Outputs/Gimbal/12V5AON*%
X123444000Y-118110000D03*
%TD*%
D15*
%TO.P,C10,2*%
%TO.N,GND*%
X121158000Y-79304000D03*
D16*
%TO.P,C10,1*%
%TO.N,/High Current Outputs/12VActuation*%
X121158000Y-82804000D03*
%TD*%
D15*
%TO.P,C7,2*%
%TO.N,GND*%
X110014000Y-135382000D03*
D16*
%TO.P,C7,1*%
%TO.N,/High Current Outputs/12VLogic*%
X112014000Y-135382000D03*
%TD*%
D15*
%TO.P,C5,2*%
%TO.N,GND*%
X118840000Y-121666000D03*
D16*
%TO.P,C5,1*%
%TO.N,/High Current Outputs/12VLogic*%
X116840000Y-121666000D03*
%TD*%
D17*
%TO.N,/High Current Outputs/GimbalSense*%
X122682000Y-59690000D03*
X121158000Y-94488000D03*
%TO.N,/Tiva In/Outputs/NavBoardCTL*%
X141917672Y-60012328D03*
X142875000Y-69469000D03*
%TO.N,/High Current Outputs/Gimbal/12V5AGimbal*%
X148209000Y-97282000D03*
X138938000Y-112268000D03*
%TO.N,+5V*%
X98044000Y-68580000D03*
X135890000Y-72898000D03*
X131826000Y-72898000D03*
X151638000Y-72898000D03*
X158242000Y-48006000D03*
X122682000Y-80518000D03*
X123444000Y-109220000D03*
X114808000Y-131480000D03*
X124841000Y-125476000D03*
X116967000Y-125476000D03*
X122682000Y-91313000D03*
X114773000Y-127508000D03*
X157734000Y-64008000D03*
X122174000Y-68707000D03*
X80391000Y-72326500D03*
X112014000Y-131683003D03*
%TO.N,/High Current Outputs/GimbalCTL_Log*%
X79159010Y-67564000D03*
X78994000Y-75438000D03*
X116967000Y-131445000D03*
X112014000Y-130683000D03*
%TO.N,/High Current Outputs/Multimedia/Extra/12VLogicMultiMedia*%
X160020000Y-99949000D03*
X149436000Y-99949000D03*
%TO.N,Net-(Q11-Pad3)*%
X147574000Y-59690000D03*
X157988000Y-67056000D03*
%TO.N,Net-(Q11-Pad1)*%
X149098000Y-59690000D03*
X159131000Y-69215000D03*
%TO.N,Net-(Q12-Pad3)*%
X138430000Y-59690000D03*
X143256000Y-67056000D03*
%TO.N,Net-(Q12-Pad1)*%
X139954000Y-59436000D03*
X144018000Y-68326000D03*
%TO.N,Net-(Q13-Pad3)*%
X129032000Y-59690000D03*
X128016000Y-67056000D03*
%TO.N,Net-(Q13-Pad1)*%
X130048000Y-59944000D03*
X128270000Y-68326000D03*
%TO.N,/High Current Outputs/GimbalCTL_Act*%
X84312003Y-60198000D03*
X80391000Y-73660000D03*
X110998000Y-116840000D03*
X114808000Y-116840000D03*
%TO.N,/Low Current Outputs/CameraCTL*%
X159908997Y-70485000D03*
X92144567Y-40455567D03*
X151003000Y-58547000D03*
%TO.N,/Low Current Outputs/ExtraCTL*%
X120396000Y-59690000D03*
X120396000Y-69596000D03*
%TO.N,Net-(Conn5-Pad2)*%
X144018000Y-58674000D03*
X158750000Y-83693000D03*
%TO.N,Net-(Conn6-Pad2)*%
X135382000Y-59944000D03*
X141986000Y-72009000D03*
X141986000Y-73787000D03*
X151257000Y-83947000D03*
%TO.N,Net-(Conn7-Pad2)*%
X127254000Y-72044000D03*
X127254000Y-73752000D03*
X142875000Y-85471000D03*
X126238000Y-59563000D03*
%TO.N,Net-(Conn15-Pad2)*%
X152781000Y-59055000D03*
X160909000Y-70485000D03*
%TO.N,/High Current Outputs/MultiMediaCTL_Log*%
X78777817Y-68542183D03*
X78232000Y-76327000D03*
%TO.N,GND*%
X118110000Y-105156000D03*
X158242000Y-40640000D03*
X87630000Y-40640000D03*
X93472000Y-70104000D03*
X116332000Y-91948000D03*
X116840000Y-126873000D03*
X91186000Y-65024000D03*
X79502000Y-49276000D03*
X119380000Y-64262000D03*
X135636000Y-78740000D03*
X157988000Y-68199000D03*
X81280000Y-58420000D03*
X138430000Y-125730000D03*
X110490000Y-120650000D03*
X78232000Y-70104000D03*
X133350000Y-90170000D03*
X135890000Y-90170000D03*
X138430000Y-90170000D03*
X137160000Y-91440000D03*
X138430000Y-92710000D03*
X135890000Y-92710000D03*
X134620000Y-91440000D03*
X133350000Y-92710000D03*
X133350000Y-95250000D03*
X135890000Y-95250000D03*
X138430000Y-95250000D03*
X137160000Y-93980000D03*
X134620000Y-93980000D03*
X134620000Y-96520000D03*
X137160000Y-96520000D03*
X138430000Y-97790000D03*
X135890000Y-97790000D03*
X133350000Y-97790000D03*
%TO.N,/High Current Outputs/12VLogic*%
X89662000Y-72009000D03*
X83566000Y-74676000D03*
X89662000Y-72898000D03*
X90551000Y-72009000D03*
X89662000Y-71120000D03*
X88773000Y-72009000D03*
X83566000Y-73787000D03*
X82677000Y-74676000D03*
X84455000Y-74676000D03*
X83566000Y-75565000D03*
%TO.N,/High Current Outputs/MultimediaCTL_Act*%
X83312000Y-60198000D03*
X79623814Y-74555223D03*
X110236000Y-108839000D03*
X124460000Y-108839000D03*
X122428000Y-108839000D03*
X114773000Y-108839000D03*
%TO.N,/High Current Outputs/MultimediaSense*%
X136906000Y-73752000D03*
X135890000Y-76835000D03*
X136906000Y-72044000D03*
X133350000Y-59944000D03*
%TD*%
D18*
%TO.N,/High Current Outputs/GimbalSense*%
X121158000Y-61214000D02*
X121158000Y-76708000D01*
X120142000Y-94488000D02*
X121158000Y-94488000D01*
X119380000Y-93726000D02*
X120142000Y-94488000D01*
X121158000Y-76708000D02*
X119380000Y-78486000D01*
X119380000Y-78486000D02*
X119380000Y-93726000D01*
X122682000Y-59690000D02*
X121158000Y-61214000D01*
%TO.N,/Tiva In/Outputs/NavBoardCTL*%
X141917672Y-60012328D02*
X145288000Y-63382656D01*
X145288000Y-63382656D02*
X145288000Y-68580000D01*
X145288000Y-68580000D02*
X144399000Y-69469000D01*
X144399000Y-69469000D02*
X142875000Y-69469000D01*
%TO.N,/High Current Outputs/Gimbal/12V5AGimbal*%
X148209000Y-97282000D02*
X148209000Y-102997000D01*
X148209000Y-102997000D02*
X138938000Y-112268000D01*
D19*
%TO.N,+5V*%
X135890000Y-72898000D02*
X131826000Y-72898000D01*
X151638000Y-72898000D02*
X135890000Y-72898000D01*
X122682000Y-90424000D02*
X122682000Y-80518000D01*
X123444000Y-112522000D02*
X123444000Y-109220000D01*
X158242000Y-48006000D02*
X158242000Y-62738000D01*
X123444000Y-112522000D02*
X123444000Y-114935000D01*
X123444000Y-114935000D02*
X124841000Y-116332000D01*
X124841000Y-116332000D02*
X124841000Y-124333000D01*
X124841000Y-124333000D02*
X124841000Y-125476000D01*
X121539000Y-125476000D02*
X124841000Y-125476000D01*
X114808000Y-127254000D02*
X116586000Y-125476000D01*
X116586000Y-125476000D02*
X116967000Y-125476000D01*
X116967000Y-125476000D02*
X121539000Y-125476000D01*
X122682000Y-90424000D02*
X122682000Y-91313000D01*
X114808000Y-127254000D02*
X114808000Y-127473000D01*
X114808000Y-127473000D02*
X114773000Y-127508000D01*
X157734000Y-64008000D02*
X157861000Y-64008000D01*
X158242000Y-63627000D02*
X158242000Y-62738000D01*
X157861000Y-64008000D02*
X158242000Y-63627000D01*
X122174000Y-71374000D02*
X123698000Y-72898000D01*
X122174000Y-68707000D02*
X122174000Y-71374000D01*
X131826000Y-72898000D02*
X123698000Y-72898000D01*
X80391000Y-72326500D02*
X84137500Y-68580000D01*
X98044000Y-68580000D02*
X85534500Y-68580000D01*
X84137500Y-68580000D02*
X85534500Y-68580000D01*
X114604997Y-131683003D02*
X114808000Y-131480000D01*
X112014000Y-131683003D02*
X114604997Y-131683003D01*
D18*
%TO.N,/High Current Outputs/GimbalCTL_Log*%
X112083999Y-130752999D02*
X112014000Y-130683000D01*
X116967000Y-131445000D02*
X116274999Y-130752999D01*
X116274999Y-130752999D02*
X112083999Y-130752999D01*
X79682990Y-70416878D02*
X79682990Y-68087980D01*
X79682990Y-68087980D02*
X79159010Y-67564000D01*
X78628979Y-71470887D02*
X79682990Y-70416878D01*
X78994000Y-75438000D02*
X78628979Y-75072979D01*
X78628979Y-75072979D02*
X78628979Y-71470887D01*
%TO.N,/High Current Outputs/Multimedia/Extra/12VLogicMultiMedia*%
X160020000Y-99949000D02*
X158496000Y-99949000D01*
X158496000Y-99949000D02*
X149436000Y-99949000D01*
D20*
%TO.N,Net-(Q11-Pad3)*%
X147574000Y-59690000D02*
X148790010Y-60906010D01*
X148790010Y-60906010D02*
X150350524Y-60906010D01*
X150350524Y-60906010D02*
X156500514Y-67056000D01*
X156500514Y-67056000D02*
X157988000Y-67056000D01*
%TO.N,Net-(Q11-Pad1)*%
X159131000Y-66802000D02*
X158388020Y-66059020D01*
X158388020Y-66059020D02*
X156864020Y-66059020D01*
X149352000Y-59944000D02*
X149098000Y-59690000D01*
X156864020Y-66059020D02*
X150749000Y-59944000D01*
X159131000Y-69215000D02*
X159131000Y-66802000D01*
X150749000Y-59944000D02*
X149352000Y-59944000D01*
%TO.N,Net-(Q12-Pad3)*%
X143274991Y-67037009D02*
X143256000Y-67056000D01*
X138430000Y-59690000D02*
X143274991Y-64534991D01*
X143274991Y-64534991D02*
X143274991Y-67037009D01*
%TO.N,Net-(Q12-Pad1)*%
X144237001Y-68106999D02*
X144018000Y-68326000D01*
X139954000Y-59436000D02*
X144237001Y-63719001D01*
X144237001Y-63719001D02*
X144237001Y-68106999D01*
%TO.N,Net-(Q13-Pad3)*%
X129032000Y-66040000D02*
X128016000Y-67056000D01*
X129032000Y-59690000D02*
X129032000Y-66040000D01*
%TO.N,Net-(Q13-Pad1)*%
X130048000Y-59944000D02*
X130048000Y-66475882D01*
X128270000Y-68253882D02*
X128270000Y-68326000D01*
X130048000Y-66475882D02*
X128270000Y-68253882D01*
D18*
%TO.N,/High Current Outputs/GimbalCTL_Act*%
X114808000Y-116840000D02*
X110998000Y-116840000D01*
X79536999Y-71847001D02*
X79536999Y-72805999D01*
X79636067Y-71755000D02*
X79629000Y-71755000D01*
X80772000Y-70619067D02*
X79636067Y-71755000D01*
X79536999Y-72805999D02*
X80391000Y-73660000D01*
X79629000Y-71755000D02*
X79536999Y-71847001D01*
X84312003Y-60198000D02*
X84312003Y-66817997D01*
X80772000Y-70619067D02*
X80772000Y-70612000D01*
X84312003Y-67071997D02*
X84312003Y-66817997D01*
X80772000Y-70612000D02*
X84312003Y-67071997D01*
%TO.N,/Low Current Outputs/CameraCTL*%
X86106000Y-50574000D02*
X89735001Y-46944999D01*
X89735001Y-42865133D02*
X92144567Y-40455567D01*
X89735001Y-46944999D02*
X89735001Y-42865133D01*
X151003000Y-59055000D02*
X151003000Y-58547000D01*
X157299010Y-65351010D02*
X151003000Y-59055000D01*
X159331010Y-65351010D02*
X157299010Y-65351010D01*
X159908997Y-70485000D02*
X159908997Y-65928997D01*
X159908997Y-65928997D02*
X159331010Y-65351010D01*
%TO.N,/Low Current Outputs/ExtraCTL*%
X120396000Y-59690000D02*
X120396000Y-69596000D01*
%TO.N,Net-(Conn5-Pad2)*%
X152908000Y-68834000D02*
X144018000Y-59944000D01*
X144018000Y-59944000D02*
X144018000Y-58674000D01*
X152908000Y-68834000D02*
X157226000Y-73152000D01*
X157226000Y-73152000D02*
X158750000Y-74676000D01*
X158750000Y-74676000D02*
X158750000Y-83693000D01*
%TO.N,Net-(Conn6-Pad2)*%
X135382000Y-59944000D02*
X135382000Y-65405000D01*
X135382000Y-65405000D02*
X141986000Y-72009000D01*
X141986000Y-73787000D02*
X141986000Y-77724000D01*
X141986000Y-77724000D02*
X148209000Y-83947000D01*
X148209000Y-83947000D02*
X151257000Y-83947000D01*
%TO.N,Net-(Conn7-Pad2)*%
X127254000Y-68834000D02*
X127254000Y-72044000D01*
X127254000Y-73752000D02*
X137449000Y-83947000D01*
X137449000Y-83947000D02*
X141351000Y-83947000D01*
X141351000Y-83947000D02*
X142875000Y-85471000D01*
X126238000Y-59563000D02*
X126238000Y-67818000D01*
X126238000Y-67818000D02*
X127254000Y-68834000D01*
%TO.N,Net-(Conn15-Pad2)*%
X160909000Y-68453000D02*
X160909000Y-70485000D01*
X152781000Y-60130962D02*
X157547038Y-64897000D01*
X157547038Y-64897000D02*
X160020000Y-64897000D01*
X160020000Y-64897000D02*
X160909000Y-65786000D01*
X152781000Y-59055000D02*
X152781000Y-60130962D01*
X160909000Y-65786000D02*
X160909000Y-68453000D01*
%TO.N,/High Current Outputs/MultiMediaCTL_Log*%
X78777817Y-68542183D02*
X79228980Y-68993346D01*
X79228980Y-68993346D02*
X79228980Y-70228821D01*
X79228980Y-70228821D02*
X78174969Y-71282830D01*
X78174969Y-76269969D02*
X78232000Y-76327000D01*
X78174969Y-71282830D02*
X78174969Y-76269969D01*
D21*
%TO.N,/High Current Outputs/12VLogic*%
X89662000Y-72009000D02*
X88773000Y-72009000D01*
X86233000Y-72009000D02*
X83566000Y-74676000D01*
X88773000Y-72009000D02*
X88773000Y-72009000D01*
X88773000Y-72009000D02*
X86233000Y-72009000D01*
D18*
%TO.N,/High Current Outputs/MultimediaCTL_Act*%
X79082989Y-71658944D02*
X79082989Y-74014398D01*
X79082989Y-74014398D02*
X79623814Y-74555223D01*
X79448010Y-71300990D02*
X79440943Y-71300990D01*
X79440943Y-71300990D02*
X79082989Y-71658944D01*
X122827999Y-108439001D02*
X122428000Y-108839000D01*
X124460000Y-108839000D02*
X124060001Y-108439001D01*
X124060001Y-108439001D02*
X122827999Y-108439001D01*
X114773000Y-108839000D02*
X110236000Y-108839000D01*
X83312000Y-66451318D02*
X83312000Y-60198000D01*
X83312000Y-67429934D02*
X83312000Y-66451318D01*
X79440943Y-71300990D02*
X80583944Y-70157990D01*
X80583944Y-70157990D02*
X83312000Y-67429934D01*
%TO.N,/High Current Outputs/MultimediaSense*%
X136906000Y-73752000D02*
X136906000Y-75184000D01*
X136906000Y-75184000D02*
X136906000Y-75819000D01*
X136906000Y-75819000D02*
X135890000Y-76835000D01*
X133350000Y-66548000D02*
X136906000Y-70104000D01*
X136906000Y-70104000D02*
X136906000Y-72044000D01*
X133350000Y-59944000D02*
X133350000Y-66548000D01*
%TD*%
%TO.N,GND*%
X91646708Y-39848925D02*
X91537925Y-39957708D01*
X91452454Y-40085625D01*
X91393580Y-40227758D01*
X91363567Y-40378645D01*
X91363567Y-40518147D01*
X89482080Y-42399634D01*
X89374620Y-42292174D01*
X89187413Y-42167087D01*
X88979401Y-42080925D01*
X88758576Y-42037000D01*
X88533424Y-42037000D01*
X88312599Y-42080925D01*
X88104587Y-42167087D01*
X87917380Y-42292174D01*
X87758174Y-42451380D01*
X87633087Y-42638587D01*
X87546925Y-42846599D01*
X87503000Y-43067424D01*
X87503000Y-43292576D01*
X87546925Y-43513401D01*
X87633087Y-43721413D01*
X87758174Y-43908620D01*
X87917380Y-44067826D01*
X88104587Y-44192913D01*
X88312599Y-44279075D01*
X88533424Y-44323000D01*
X88758576Y-44323000D01*
X88979401Y-44279075D01*
X89187413Y-44192913D01*
X89227002Y-44166461D01*
X89227001Y-46734578D01*
X86472814Y-49488765D01*
X86439401Y-49474925D01*
X86218576Y-49431000D01*
X85993424Y-49431000D01*
X85772599Y-49474925D01*
X85564587Y-49561087D01*
X85377380Y-49686174D01*
X85218174Y-49845380D01*
X85093087Y-50032587D01*
X85006925Y-50240599D01*
X84963000Y-50461424D01*
X84963000Y-50686576D01*
X85006925Y-50907401D01*
X85093087Y-51115413D01*
X85218174Y-51302620D01*
X85377380Y-51461826D01*
X85564587Y-51586913D01*
X85772599Y-51673075D01*
X85993424Y-51717000D01*
X86218576Y-51717000D01*
X86439401Y-51673075D01*
X86647413Y-51586913D01*
X86834620Y-51461826D01*
X86993826Y-51302620D01*
X87118913Y-51115413D01*
X87205075Y-50907401D01*
X87249000Y-50686576D01*
X87249000Y-50461424D01*
X87503000Y-50461424D01*
X87503000Y-50686576D01*
X87546925Y-50907401D01*
X87633087Y-51115413D01*
X87758174Y-51302620D01*
X87917380Y-51461826D01*
X88104587Y-51586913D01*
X88312599Y-51673075D01*
X88533424Y-51717000D01*
X88758576Y-51717000D01*
X88979401Y-51673075D01*
X89187413Y-51586913D01*
X89374620Y-51461826D01*
X89533826Y-51302620D01*
X89658913Y-51115413D01*
X89745075Y-50907401D01*
X89789000Y-50686576D01*
X89789000Y-50461424D01*
X90043000Y-50461424D01*
X90043000Y-50686576D01*
X90086925Y-50907401D01*
X90173087Y-51115413D01*
X90298174Y-51302620D01*
X90457380Y-51461826D01*
X90644587Y-51586913D01*
X90852599Y-51673075D01*
X91073424Y-51717000D01*
X91298576Y-51717000D01*
X91519401Y-51673075D01*
X91727413Y-51586913D01*
X91914620Y-51461826D01*
X92073826Y-51302620D01*
X92198913Y-51115413D01*
X92285075Y-50907401D01*
X92329000Y-50686576D01*
X92329000Y-50461424D01*
X92583000Y-50461424D01*
X92583000Y-50686576D01*
X92626925Y-50907401D01*
X92713087Y-51115413D01*
X92838174Y-51302620D01*
X92997380Y-51461826D01*
X93184587Y-51586913D01*
X93392599Y-51673075D01*
X93613424Y-51717000D01*
X93838576Y-51717000D01*
X94059401Y-51673075D01*
X94267413Y-51586913D01*
X94454620Y-51461826D01*
X94613826Y-51302620D01*
X94738913Y-51115413D01*
X94825075Y-50907401D01*
X94869000Y-50686576D01*
X94869000Y-50461424D01*
X95123000Y-50461424D01*
X95123000Y-50686576D01*
X95166925Y-50907401D01*
X95253087Y-51115413D01*
X95378174Y-51302620D01*
X95537380Y-51461826D01*
X95724587Y-51586913D01*
X95932599Y-51673075D01*
X96153424Y-51717000D01*
X96378576Y-51717000D01*
X96599401Y-51673075D01*
X96807413Y-51586913D01*
X96994620Y-51461826D01*
X97153826Y-51302620D01*
X97278913Y-51115413D01*
X97365075Y-50907401D01*
X97409000Y-50686576D01*
X97409000Y-50461424D01*
X97365075Y-50240599D01*
X97278913Y-50032587D01*
X97153826Y-49845380D01*
X96994620Y-49686174D01*
X96807413Y-49561087D01*
X96599401Y-49474925D01*
X96378576Y-49431000D01*
X96153424Y-49431000D01*
X95932599Y-49474925D01*
X95724587Y-49561087D01*
X95537380Y-49686174D01*
X95378174Y-49845380D01*
X95253087Y-50032587D01*
X95166925Y-50240599D01*
X95123000Y-50461424D01*
X94869000Y-50461424D01*
X94825075Y-50240599D01*
X94738913Y-50032587D01*
X94613826Y-49845380D01*
X94454620Y-49686174D01*
X94267413Y-49561087D01*
X94059401Y-49474925D01*
X93838576Y-49431000D01*
X93613424Y-49431000D01*
X93392599Y-49474925D01*
X93184587Y-49561087D01*
X92997380Y-49686174D01*
X92838174Y-49845380D01*
X92713087Y-50032587D01*
X92626925Y-50240599D01*
X92583000Y-50461424D01*
X92329000Y-50461424D01*
X92285075Y-50240599D01*
X92198913Y-50032587D01*
X92073826Y-49845380D01*
X91914620Y-49686174D01*
X91727413Y-49561087D01*
X91519401Y-49474925D01*
X91298576Y-49431000D01*
X91073424Y-49431000D01*
X90852599Y-49474925D01*
X90644587Y-49561087D01*
X90457380Y-49686174D01*
X90298174Y-49845380D01*
X90173087Y-50032587D01*
X90086925Y-50240599D01*
X90043000Y-50461424D01*
X89789000Y-50461424D01*
X89745075Y-50240599D01*
X89658913Y-50032587D01*
X89533826Y-49845380D01*
X89374620Y-49686174D01*
X89187413Y-49561087D01*
X88979401Y-49474925D01*
X88758576Y-49431000D01*
X88533424Y-49431000D01*
X88312599Y-49474925D01*
X88104587Y-49561087D01*
X87917380Y-49686174D01*
X87758174Y-49845380D01*
X87633087Y-50032587D01*
X87546925Y-50240599D01*
X87503000Y-50461424D01*
X87249000Y-50461424D01*
X87205075Y-50240599D01*
X87191235Y-50207186D01*
X90076572Y-47321849D01*
X90095949Y-47305947D01*
X90137749Y-47255013D01*
X90159430Y-47228595D01*
X90206601Y-47140344D01*
X90206602Y-47140341D01*
X90235650Y-47044584D01*
X90243001Y-46969946D01*
X90243001Y-46969944D01*
X90245458Y-46945000D01*
X90243001Y-46920056D01*
X90243001Y-43826047D01*
X90298174Y-43908620D01*
X90457380Y-44067826D01*
X90644587Y-44192913D01*
X90852599Y-44279075D01*
X91073424Y-44323000D01*
X91298576Y-44323000D01*
X91519401Y-44279075D01*
X91727413Y-44192913D01*
X91914620Y-44067826D01*
X92073826Y-43908620D01*
X92198913Y-43721413D01*
X92285075Y-43513401D01*
X92329000Y-43292576D01*
X92329000Y-43067424D01*
X92583000Y-43067424D01*
X92583000Y-43292576D01*
X92626925Y-43513401D01*
X92713087Y-43721413D01*
X92838174Y-43908620D01*
X92997380Y-44067826D01*
X93184587Y-44192913D01*
X93392599Y-44279075D01*
X93613424Y-44323000D01*
X93838576Y-44323000D01*
X94059401Y-44279075D01*
X94267413Y-44192913D01*
X94454620Y-44067826D01*
X94613826Y-43908620D01*
X94738913Y-43721413D01*
X94825075Y-43513401D01*
X94869000Y-43292576D01*
X94869000Y-43067424D01*
X95123000Y-43067424D01*
X95123000Y-43292576D01*
X95166925Y-43513401D01*
X95253087Y-43721413D01*
X95378174Y-43908620D01*
X95537380Y-44067826D01*
X95724587Y-44192913D01*
X95932599Y-44279075D01*
X96153424Y-44323000D01*
X96378576Y-44323000D01*
X96599401Y-44279075D01*
X96807413Y-44192913D01*
X96994620Y-44067826D01*
X97153826Y-43908620D01*
X97278913Y-43721413D01*
X97365075Y-43513401D01*
X97409000Y-43292576D01*
X97409000Y-43067424D01*
X97365075Y-42846599D01*
X97278913Y-42638587D01*
X97153826Y-42451380D01*
X96994620Y-42292174D01*
X96807413Y-42167087D01*
X96599401Y-42080925D01*
X96378576Y-42037000D01*
X96153424Y-42037000D01*
X95932599Y-42080925D01*
X95724587Y-42167087D01*
X95537380Y-42292174D01*
X95378174Y-42451380D01*
X95253087Y-42638587D01*
X95166925Y-42846599D01*
X95123000Y-43067424D01*
X94869000Y-43067424D01*
X94825075Y-42846599D01*
X94738913Y-42638587D01*
X94613826Y-42451380D01*
X94454620Y-42292174D01*
X94267413Y-42167087D01*
X94059401Y-42080925D01*
X93838576Y-42037000D01*
X93613424Y-42037000D01*
X93392599Y-42080925D01*
X93184587Y-42167087D01*
X92997380Y-42292174D01*
X92838174Y-42451380D01*
X92713087Y-42638587D01*
X92626925Y-42846599D01*
X92583000Y-43067424D01*
X92329000Y-43067424D01*
X92285075Y-42846599D01*
X92198913Y-42638587D01*
X92073826Y-42451380D01*
X91914620Y-42292174D01*
X91727413Y-42167087D01*
X91519401Y-42080925D01*
X91298576Y-42037000D01*
X91281554Y-42037000D01*
X92081987Y-41236567D01*
X92221489Y-41236567D01*
X92372376Y-41206554D01*
X92514509Y-41147680D01*
X92642426Y-41062209D01*
X92751209Y-40953426D01*
X92836680Y-40825509D01*
X92895554Y-40683376D01*
X92925567Y-40532489D01*
X92925567Y-40378645D01*
X92895554Y-40227758D01*
X92836680Y-40085625D01*
X92751209Y-39957708D01*
X92642426Y-39848925D01*
X92533286Y-39776000D01*
X160372669Y-39776000D01*
X159748155Y-40193287D01*
X159177047Y-40764395D01*
X158728330Y-41435947D01*
X158419248Y-42182136D01*
X158261680Y-42974286D01*
X158261680Y-43781954D01*
X158419248Y-44574104D01*
X158728330Y-45320293D01*
X159177047Y-45991845D01*
X159748155Y-46562953D01*
X160419707Y-47011670D01*
X161165896Y-47320752D01*
X161958046Y-47478320D01*
X162765714Y-47478320D01*
X163557864Y-47320752D01*
X164304053Y-47011670D01*
X164975605Y-46562953D01*
X165546713Y-45991845D01*
X165964000Y-45367331D01*
X165964001Y-134972670D01*
X165546713Y-134348155D01*
X164975605Y-133777047D01*
X164304053Y-133328330D01*
X163557864Y-133019248D01*
X162765714Y-132861680D01*
X161958046Y-132861680D01*
X161165896Y-133019248D01*
X160419707Y-133328330D01*
X159748155Y-133777047D01*
X159177047Y-134348155D01*
X158728330Y-135019707D01*
X158419248Y-135765896D01*
X158261680Y-136558046D01*
X158261680Y-137365714D01*
X158419248Y-138157864D01*
X158728330Y-138904053D01*
X159177047Y-139575605D01*
X159748155Y-140146713D01*
X160372669Y-140564000D01*
X83467331Y-140564000D01*
X84091845Y-140146713D01*
X84662953Y-139575605D01*
X85111670Y-138904053D01*
X85420752Y-138157864D01*
X85578320Y-137365714D01*
X85578320Y-137354307D01*
X87210000Y-137354307D01*
X87210000Y-137929693D01*
X87322253Y-138494024D01*
X87542444Y-139025612D01*
X87862112Y-139504029D01*
X88268971Y-139910888D01*
X88747388Y-140230556D01*
X89278976Y-140450747D01*
X89843307Y-140563000D01*
X90418693Y-140563000D01*
X90983024Y-140450747D01*
X91514612Y-140230556D01*
X91993029Y-139910888D01*
X92399888Y-139504029D01*
X92719556Y-139025612D01*
X92939747Y-138494024D01*
X93052000Y-137929693D01*
X93052000Y-137354307D01*
X92939747Y-136789976D01*
X92719556Y-136258388D01*
X92399888Y-135779971D01*
X91993029Y-135373112D01*
X91514612Y-135053444D01*
X90983024Y-134833253D01*
X90418693Y-134721000D01*
X89843307Y-134721000D01*
X89278976Y-134833253D01*
X88747388Y-135053444D01*
X88268971Y-135373112D01*
X87862112Y-135779971D01*
X87542444Y-136258388D01*
X87322253Y-136789976D01*
X87210000Y-137354307D01*
X85578320Y-137354307D01*
X85578320Y-136558046D01*
X85420752Y-135765896D01*
X85111670Y-135019707D01*
X84819204Y-134582000D01*
X110831157Y-134582000D01*
X110831157Y-136182000D01*
X110838513Y-136256689D01*
X110860299Y-136328508D01*
X110895678Y-136394696D01*
X110943289Y-136452711D01*
X111001304Y-136500322D01*
X111067492Y-136535701D01*
X111139311Y-136557487D01*
X111214000Y-136564843D01*
X112814000Y-136564843D01*
X112888689Y-136557487D01*
X112960508Y-136535701D01*
X113026696Y-136500322D01*
X113084711Y-136452711D01*
X113132322Y-136394696D01*
X113167701Y-136328508D01*
X113189487Y-136256689D01*
X113196843Y-136182000D01*
X113196843Y-134582000D01*
X113189487Y-134507311D01*
X113167701Y-134435492D01*
X113132322Y-134369304D01*
X113084711Y-134311289D01*
X113026696Y-134263678D01*
X112960508Y-134228299D01*
X112888689Y-134206513D01*
X112814000Y-134199157D01*
X111214000Y-134199157D01*
X111139311Y-134206513D01*
X111067492Y-134228299D01*
X111001304Y-134263678D01*
X110943289Y-134311289D01*
X110895678Y-134369304D01*
X110860299Y-134435492D01*
X110838513Y-134507311D01*
X110831157Y-134582000D01*
X84819204Y-134582000D01*
X84662953Y-134348155D01*
X84091845Y-133777047D01*
X83420293Y-133328330D01*
X82674104Y-133019248D01*
X81881954Y-132861680D01*
X81074286Y-132861680D01*
X80282136Y-133019248D01*
X79535947Y-133328330D01*
X78864395Y-133777047D01*
X78293287Y-134348155D01*
X77876000Y-134972669D01*
X77876000Y-130606078D01*
X111233000Y-130606078D01*
X111233000Y-130759922D01*
X111263013Y-130910809D01*
X111321887Y-131052942D01*
X111407358Y-131180859D01*
X111409501Y-131183002D01*
X111407358Y-131185144D01*
X111321887Y-131313061D01*
X111263013Y-131455194D01*
X111233000Y-131606081D01*
X111233000Y-131759925D01*
X111263013Y-131910812D01*
X111321887Y-132052945D01*
X111407358Y-132180862D01*
X111516141Y-132289645D01*
X111644058Y-132375116D01*
X111786191Y-132433990D01*
X111937078Y-132464003D01*
X112090922Y-132464003D01*
X112241809Y-132433990D01*
X112383942Y-132375116D01*
X112469418Y-132318003D01*
X114573816Y-132318003D01*
X114604997Y-132321074D01*
X114636178Y-132318003D01*
X114636189Y-132318003D01*
X114729479Y-132308815D01*
X114849177Y-132272505D01*
X114870701Y-132261000D01*
X114884922Y-132261000D01*
X115035809Y-132230987D01*
X115177942Y-132172113D01*
X115305859Y-132086642D01*
X115414642Y-131977859D01*
X115500113Y-131849942D01*
X115558987Y-131707809D01*
X115589000Y-131556922D01*
X115589000Y-131403078D01*
X115560739Y-131260999D01*
X116064579Y-131260999D01*
X116186000Y-131382420D01*
X116186000Y-131521922D01*
X116216013Y-131672809D01*
X116274887Y-131814942D01*
X116360358Y-131942859D01*
X116469141Y-132051642D01*
X116597058Y-132137113D01*
X116739191Y-132195987D01*
X116890078Y-132226000D01*
X117043922Y-132226000D01*
X117194809Y-132195987D01*
X117336942Y-132137113D01*
X117464859Y-132051642D01*
X117573642Y-131942859D01*
X117659113Y-131814942D01*
X117717987Y-131672809D01*
X117748000Y-131521922D01*
X117748000Y-131368078D01*
X117717987Y-131217191D01*
X117659113Y-131075058D01*
X117573642Y-130947141D01*
X117464859Y-130838358D01*
X117336942Y-130752887D01*
X117194809Y-130694013D01*
X117043922Y-130664000D01*
X116904420Y-130664000D01*
X116651854Y-130411434D01*
X116635947Y-130392051D01*
X116558594Y-130328570D01*
X116470342Y-130281398D01*
X116374584Y-130252350D01*
X116299946Y-130244999D01*
X116299943Y-130244999D01*
X116274999Y-130242542D01*
X116250055Y-130244999D01*
X112660638Y-130244999D01*
X112620642Y-130185141D01*
X112511859Y-130076358D01*
X112383942Y-129990887D01*
X112241809Y-129932013D01*
X112090922Y-129902000D01*
X111937078Y-129902000D01*
X111786191Y-129932013D01*
X111644058Y-129990887D01*
X111516141Y-130076358D01*
X111407358Y-130185141D01*
X111321887Y-130313058D01*
X111263013Y-130455191D01*
X111233000Y-130606078D01*
X77876000Y-130606078D01*
X77876000Y-127828374D01*
X86233000Y-127828374D01*
X86233000Y-128203626D01*
X86306209Y-128571668D01*
X86449811Y-128918356D01*
X86658290Y-129230366D01*
X86923634Y-129495710D01*
X87235644Y-129704189D01*
X87582332Y-129847791D01*
X87950374Y-129921000D01*
X88325626Y-129921000D01*
X88693668Y-129847791D01*
X89040356Y-129704189D01*
X89352366Y-129495710D01*
X89617710Y-129230366D01*
X89826189Y-128918356D01*
X89969791Y-128571668D01*
X90043000Y-128203626D01*
X90043000Y-127828374D01*
X89969791Y-127460332D01*
X89957674Y-127431078D01*
X113992000Y-127431078D01*
X113992000Y-127584922D01*
X114022013Y-127735809D01*
X114080887Y-127877942D01*
X114166358Y-128005859D01*
X114275141Y-128114642D01*
X114403058Y-128200113D01*
X114545191Y-128258987D01*
X114696078Y-128289000D01*
X114849922Y-128289000D01*
X115000809Y-128258987D01*
X115142942Y-128200113D01*
X115270859Y-128114642D01*
X115379642Y-128005859D01*
X115465113Y-127877942D01*
X115523987Y-127735809D01*
X115533236Y-127689307D01*
X131217000Y-127689307D01*
X131217000Y-128264693D01*
X131329253Y-128829024D01*
X131549444Y-129360612D01*
X131869112Y-129839029D01*
X132275971Y-130245888D01*
X132754388Y-130565556D01*
X133285976Y-130785747D01*
X133850307Y-130898000D01*
X134425693Y-130898000D01*
X134990024Y-130785747D01*
X135521612Y-130565556D01*
X136000029Y-130245888D01*
X136406888Y-129839029D01*
X136726556Y-129360612D01*
X136946747Y-128829024D01*
X137059000Y-128264693D01*
X137059000Y-127689307D01*
X140361000Y-127689307D01*
X140361000Y-128264693D01*
X140473253Y-128829024D01*
X140693444Y-129360612D01*
X141013112Y-129839029D01*
X141419971Y-130245888D01*
X141898388Y-130565556D01*
X142429976Y-130785747D01*
X142994307Y-130898000D01*
X143569693Y-130898000D01*
X144134024Y-130785747D01*
X144665612Y-130565556D01*
X145144029Y-130245888D01*
X145550888Y-129839029D01*
X145870556Y-129360612D01*
X146090747Y-128829024D01*
X146203000Y-128264693D01*
X146203000Y-127689307D01*
X149759000Y-127689307D01*
X149759000Y-128264693D01*
X149871253Y-128829024D01*
X150091444Y-129360612D01*
X150411112Y-129839029D01*
X150817971Y-130245888D01*
X151296388Y-130565556D01*
X151827976Y-130785747D01*
X152392307Y-130898000D01*
X152967693Y-130898000D01*
X153532024Y-130785747D01*
X154063612Y-130565556D01*
X154542029Y-130245888D01*
X154948888Y-129839029D01*
X155268556Y-129360612D01*
X155488747Y-128829024D01*
X155601000Y-128264693D01*
X155601000Y-127689307D01*
X155488747Y-127124976D01*
X155268556Y-126593388D01*
X154948888Y-126114971D01*
X154542029Y-125708112D01*
X154063612Y-125388444D01*
X153532024Y-125168253D01*
X152967693Y-125056000D01*
X152392307Y-125056000D01*
X151827976Y-125168253D01*
X151296388Y-125388444D01*
X150817971Y-125708112D01*
X150411112Y-126114971D01*
X150091444Y-126593388D01*
X149871253Y-127124976D01*
X149759000Y-127689307D01*
X146203000Y-127689307D01*
X146090747Y-127124976D01*
X145870556Y-126593388D01*
X145550888Y-126114971D01*
X145144029Y-125708112D01*
X144665612Y-125388444D01*
X144134024Y-125168253D01*
X143569693Y-125056000D01*
X142994307Y-125056000D01*
X142429976Y-125168253D01*
X141898388Y-125388444D01*
X141419971Y-125708112D01*
X141013112Y-126114971D01*
X140693444Y-126593388D01*
X140473253Y-127124976D01*
X140361000Y-127689307D01*
X137059000Y-127689307D01*
X136946747Y-127124976D01*
X136726556Y-126593388D01*
X136406888Y-126114971D01*
X136000029Y-125708112D01*
X135521612Y-125388444D01*
X134990024Y-125168253D01*
X134425693Y-125056000D01*
X133850307Y-125056000D01*
X133285976Y-125168253D01*
X132754388Y-125388444D01*
X132275971Y-125708112D01*
X131869112Y-126114971D01*
X131549444Y-126593388D01*
X131329253Y-127124976D01*
X131217000Y-127689307D01*
X115533236Y-127689307D01*
X115554000Y-127584922D01*
X115554000Y-127431078D01*
X115549843Y-127410181D01*
X116734841Y-126225185D01*
X116739191Y-126226987D01*
X116890078Y-126257000D01*
X117043922Y-126257000D01*
X117194809Y-126226987D01*
X117336942Y-126168113D01*
X117422418Y-126111000D01*
X124385582Y-126111000D01*
X124471058Y-126168113D01*
X124613191Y-126226987D01*
X124764078Y-126257000D01*
X124917922Y-126257000D01*
X125068809Y-126226987D01*
X125210942Y-126168113D01*
X125338859Y-126082642D01*
X125447642Y-125973859D01*
X125533113Y-125845942D01*
X125591987Y-125703809D01*
X125622000Y-125552922D01*
X125622000Y-125399078D01*
X125591987Y-125248191D01*
X125533113Y-125106058D01*
X125476000Y-125020582D01*
X125476000Y-119789307D01*
X131217000Y-119789307D01*
X131217000Y-120364693D01*
X131329253Y-120929024D01*
X131549444Y-121460612D01*
X131869112Y-121939029D01*
X132275971Y-122345888D01*
X132754388Y-122665556D01*
X133285976Y-122885747D01*
X133850307Y-122998000D01*
X134425693Y-122998000D01*
X134990024Y-122885747D01*
X135521612Y-122665556D01*
X136000029Y-122345888D01*
X136406888Y-121939029D01*
X136726556Y-121460612D01*
X136946747Y-120929024D01*
X137059000Y-120364693D01*
X137059000Y-119789307D01*
X140361000Y-119789307D01*
X140361000Y-120364693D01*
X140473253Y-120929024D01*
X140693444Y-121460612D01*
X141013112Y-121939029D01*
X141419971Y-122345888D01*
X141898388Y-122665556D01*
X142429976Y-122885747D01*
X142994307Y-122998000D01*
X143569693Y-122998000D01*
X144134024Y-122885747D01*
X144665612Y-122665556D01*
X145144029Y-122345888D01*
X145550888Y-121939029D01*
X145870556Y-121460612D01*
X146090747Y-120929024D01*
X146203000Y-120364693D01*
X146203000Y-119789307D01*
X149759000Y-119789307D01*
X149759000Y-120364693D01*
X149871253Y-120929024D01*
X150091444Y-121460612D01*
X150411112Y-121939029D01*
X150817971Y-122345888D01*
X151296388Y-122665556D01*
X151827976Y-122885747D01*
X152392307Y-122998000D01*
X152967693Y-122998000D01*
X153532024Y-122885747D01*
X154063612Y-122665556D01*
X154542029Y-122345888D01*
X154948888Y-121939029D01*
X155268556Y-121460612D01*
X155488747Y-120929024D01*
X155601000Y-120364693D01*
X155601000Y-119789307D01*
X155488747Y-119224976D01*
X155268556Y-118693388D01*
X154948888Y-118214971D01*
X154542029Y-117808112D01*
X154063612Y-117488444D01*
X153532024Y-117268253D01*
X152967693Y-117156000D01*
X152392307Y-117156000D01*
X151827976Y-117268253D01*
X151296388Y-117488444D01*
X150817971Y-117808112D01*
X150411112Y-118214971D01*
X150091444Y-118693388D01*
X149871253Y-119224976D01*
X149759000Y-119789307D01*
X146203000Y-119789307D01*
X146090747Y-119224976D01*
X145870556Y-118693388D01*
X145550888Y-118214971D01*
X145144029Y-117808112D01*
X144665612Y-117488444D01*
X144134024Y-117268253D01*
X143569693Y-117156000D01*
X142994307Y-117156000D01*
X142429976Y-117268253D01*
X141898388Y-117488444D01*
X141419971Y-117808112D01*
X141013112Y-118214971D01*
X140693444Y-118693388D01*
X140473253Y-119224976D01*
X140361000Y-119789307D01*
X137059000Y-119789307D01*
X136946747Y-119224976D01*
X136726556Y-118693388D01*
X136406888Y-118214971D01*
X136000029Y-117808112D01*
X135521612Y-117488444D01*
X134990024Y-117268253D01*
X134425693Y-117156000D01*
X133850307Y-117156000D01*
X133285976Y-117268253D01*
X132754388Y-117488444D01*
X132275971Y-117808112D01*
X131869112Y-118214971D01*
X131549444Y-118693388D01*
X131329253Y-119224976D01*
X131217000Y-119789307D01*
X125476000Y-119789307D01*
X125476000Y-116363180D01*
X125479071Y-116331999D01*
X125476000Y-116300818D01*
X125476000Y-116300808D01*
X125466812Y-116207518D01*
X125430502Y-116087820D01*
X125371538Y-115977507D01*
X125371537Y-115977505D01*
X125312068Y-115905043D01*
X125292185Y-115880815D01*
X125267956Y-115860931D01*
X124079000Y-114671976D01*
X124079000Y-112191078D01*
X138157000Y-112191078D01*
X138157000Y-112344922D01*
X138187013Y-112495809D01*
X138245887Y-112637942D01*
X138331358Y-112765859D01*
X138440141Y-112874642D01*
X138568058Y-112960113D01*
X138710191Y-113018987D01*
X138861078Y-113049000D01*
X139014922Y-113049000D01*
X139165809Y-113018987D01*
X139307942Y-112960113D01*
X139435859Y-112874642D01*
X139544642Y-112765859D01*
X139630113Y-112637942D01*
X139688987Y-112495809D01*
X139719000Y-112344922D01*
X139719000Y-112205420D01*
X148550571Y-103373850D01*
X148569948Y-103357948D01*
X148588624Y-103335190D01*
X148633429Y-103280596D01*
X148680600Y-103192344D01*
X148680601Y-103192343D01*
X148709649Y-103096585D01*
X148717000Y-103021947D01*
X148717000Y-103021944D01*
X148719457Y-102997000D01*
X148717000Y-102972056D01*
X148717000Y-100254032D01*
X148743887Y-100318942D01*
X148829358Y-100446859D01*
X148938141Y-100555642D01*
X149066058Y-100641113D01*
X149208191Y-100699987D01*
X149359078Y-100730000D01*
X149512922Y-100730000D01*
X149663809Y-100699987D01*
X149805942Y-100641113D01*
X149933859Y-100555642D01*
X150032501Y-100457000D01*
X159423499Y-100457000D01*
X159522141Y-100555642D01*
X159650058Y-100641113D01*
X159792191Y-100699987D01*
X159943078Y-100730000D01*
X160096922Y-100730000D01*
X160247809Y-100699987D01*
X160389942Y-100641113D01*
X160517859Y-100555642D01*
X160626642Y-100446859D01*
X160712113Y-100318942D01*
X160770987Y-100176809D01*
X160801000Y-100025922D01*
X160801000Y-99872078D01*
X160770987Y-99721191D01*
X160712113Y-99579058D01*
X160626642Y-99451141D01*
X160517859Y-99342358D01*
X160389942Y-99256887D01*
X160247809Y-99198013D01*
X160096922Y-99168000D01*
X159943078Y-99168000D01*
X159792191Y-99198013D01*
X159650058Y-99256887D01*
X159522141Y-99342358D01*
X159423499Y-99441000D01*
X150032501Y-99441000D01*
X149933859Y-99342358D01*
X149805942Y-99256887D01*
X149663809Y-99198013D01*
X149512922Y-99168000D01*
X149359078Y-99168000D01*
X149208191Y-99198013D01*
X149066058Y-99256887D01*
X148938141Y-99342358D01*
X148829358Y-99451141D01*
X148743887Y-99579058D01*
X148717000Y-99643968D01*
X148717000Y-97878501D01*
X148815642Y-97779859D01*
X148901113Y-97651942D01*
X148959987Y-97509809D01*
X148990000Y-97358922D01*
X148990000Y-97205078D01*
X148959987Y-97054191D01*
X148901113Y-96912058D01*
X148815642Y-96784141D01*
X148706859Y-96675358D01*
X148578942Y-96589887D01*
X148436809Y-96531013D01*
X148285922Y-96501000D01*
X148132078Y-96501000D01*
X147981191Y-96531013D01*
X147839058Y-96589887D01*
X147711141Y-96675358D01*
X147602358Y-96784141D01*
X147516887Y-96912058D01*
X147458013Y-97054191D01*
X147428000Y-97205078D01*
X147428000Y-97358922D01*
X147458013Y-97509809D01*
X147516887Y-97651942D01*
X147602358Y-97779859D01*
X147701000Y-97878501D01*
X147701001Y-102786578D01*
X139000580Y-111487000D01*
X138861078Y-111487000D01*
X138710191Y-111517013D01*
X138568058Y-111575887D01*
X138440141Y-111661358D01*
X138331358Y-111770141D01*
X138245887Y-111898058D01*
X138187013Y-112040191D01*
X138157000Y-112191078D01*
X124079000Y-112191078D01*
X124079000Y-109675418D01*
X124136113Y-109589942D01*
X124150168Y-109556011D01*
X124232191Y-109589987D01*
X124383078Y-109620000D01*
X124536922Y-109620000D01*
X124687809Y-109589987D01*
X124829942Y-109531113D01*
X124957859Y-109445642D01*
X125066642Y-109336859D01*
X125152113Y-109208942D01*
X125210987Y-109066809D01*
X125241000Y-108915922D01*
X125241000Y-108762078D01*
X125210987Y-108611191D01*
X125152113Y-108469058D01*
X125066642Y-108341141D01*
X124957859Y-108232358D01*
X124829942Y-108146887D01*
X124687809Y-108088013D01*
X124536922Y-108058000D01*
X124396514Y-108058000D01*
X124343596Y-108014572D01*
X124255344Y-107967400D01*
X124159586Y-107938352D01*
X124084948Y-107931001D01*
X124084945Y-107931001D01*
X124060001Y-107928544D01*
X124035057Y-107931001D01*
X122852942Y-107931001D01*
X122827998Y-107928544D01*
X122803054Y-107931001D01*
X122803052Y-107931001D01*
X122728414Y-107938352D01*
X122632656Y-107967400D01*
X122591575Y-107989358D01*
X122544403Y-108014572D01*
X122491486Y-108058000D01*
X122351078Y-108058000D01*
X122200191Y-108088013D01*
X122058058Y-108146887D01*
X121930141Y-108232358D01*
X121821358Y-108341141D01*
X121735887Y-108469058D01*
X121677013Y-108611191D01*
X121647000Y-108762078D01*
X121647000Y-108915922D01*
X121677013Y-109066809D01*
X121735887Y-109208942D01*
X121821358Y-109336859D01*
X121930141Y-109445642D01*
X122058058Y-109531113D01*
X122200191Y-109589987D01*
X122351078Y-109620000D01*
X122504922Y-109620000D01*
X122655809Y-109589987D01*
X122737832Y-109556011D01*
X122751887Y-109589942D01*
X122809001Y-109675419D01*
X122809000Y-112490808D01*
X122809000Y-112490809D01*
X122809001Y-114903809D01*
X122805929Y-114935000D01*
X122818189Y-115059481D01*
X122854498Y-115179179D01*
X122854499Y-115179180D01*
X122913464Y-115289494D01*
X122992816Y-115386185D01*
X123017046Y-115406070D01*
X124206000Y-116595025D01*
X124206000Y-116927157D01*
X122644000Y-116927157D01*
X122569311Y-116934513D01*
X122497492Y-116956299D01*
X122431304Y-116991678D01*
X122373289Y-117039289D01*
X122325678Y-117097304D01*
X122290299Y-117163492D01*
X122268513Y-117235311D01*
X122261157Y-117310000D01*
X122261157Y-118910000D01*
X122268513Y-118984689D01*
X122290299Y-119056508D01*
X122325678Y-119122696D01*
X122373289Y-119180711D01*
X122431304Y-119228322D01*
X122497492Y-119263701D01*
X122569311Y-119285487D01*
X122644000Y-119292843D01*
X124206000Y-119292843D01*
X124206001Y-124301799D01*
X124206000Y-124301809D01*
X124206000Y-124841000D01*
X117422418Y-124841000D01*
X117336942Y-124783887D01*
X117194809Y-124725013D01*
X117043922Y-124695000D01*
X116890078Y-124695000D01*
X116739191Y-124725013D01*
X116597058Y-124783887D01*
X116504109Y-124845993D01*
X116461518Y-124850188D01*
X116341820Y-124886498D01*
X116231506Y-124945462D01*
X116159043Y-125004931D01*
X116159039Y-125004935D01*
X116134815Y-125024815D01*
X116114934Y-125049040D01*
X114381050Y-126782926D01*
X114356815Y-126802815D01*
X114277463Y-126899507D01*
X114277214Y-126899973D01*
X114275141Y-126901358D01*
X114166358Y-127010141D01*
X114080887Y-127138058D01*
X114022013Y-127280191D01*
X113992000Y-127431078D01*
X89957674Y-127431078D01*
X89826189Y-127113644D01*
X89617710Y-126801634D01*
X89352366Y-126536290D01*
X89040356Y-126327811D01*
X88693668Y-126184209D01*
X88325626Y-126111000D01*
X87950374Y-126111000D01*
X87582332Y-126184209D01*
X87235644Y-126327811D01*
X86923634Y-126536290D01*
X86658290Y-126801634D01*
X86449811Y-127113644D01*
X86306209Y-127460332D01*
X86233000Y-127828374D01*
X77876000Y-127828374D01*
X77876000Y-120866000D01*
X115657157Y-120866000D01*
X115657157Y-122466000D01*
X115664513Y-122540689D01*
X115686299Y-122612508D01*
X115721678Y-122678696D01*
X115769289Y-122736711D01*
X115827304Y-122784322D01*
X115893492Y-122819701D01*
X115965311Y-122841487D01*
X116040000Y-122848843D01*
X117640000Y-122848843D01*
X117714689Y-122841487D01*
X117786508Y-122819701D01*
X117852696Y-122784322D01*
X117910711Y-122736711D01*
X117958322Y-122678696D01*
X117993701Y-122612508D01*
X118015487Y-122540689D01*
X118022843Y-122466000D01*
X118022843Y-120866000D01*
X118015487Y-120791311D01*
X117993701Y-120719492D01*
X117958322Y-120653304D01*
X117910711Y-120595289D01*
X117852696Y-120547678D01*
X117786508Y-120512299D01*
X117714689Y-120490513D01*
X117640000Y-120483157D01*
X116040000Y-120483157D01*
X115965311Y-120490513D01*
X115893492Y-120512299D01*
X115827304Y-120547678D01*
X115769289Y-120595289D01*
X115721678Y-120653304D01*
X115686299Y-120719492D01*
X115664513Y-120791311D01*
X115657157Y-120866000D01*
X77876000Y-120866000D01*
X77876000Y-116763078D01*
X110217000Y-116763078D01*
X110217000Y-116916922D01*
X110247013Y-117067809D01*
X110305887Y-117209942D01*
X110391358Y-117337859D01*
X110500141Y-117446642D01*
X110628058Y-117532113D01*
X110770191Y-117590987D01*
X110921078Y-117621000D01*
X111074922Y-117621000D01*
X111225809Y-117590987D01*
X111367942Y-117532113D01*
X111495859Y-117446642D01*
X111594501Y-117348000D01*
X114211499Y-117348000D01*
X114310141Y-117446642D01*
X114438058Y-117532113D01*
X114580191Y-117590987D01*
X114731078Y-117621000D01*
X114884922Y-117621000D01*
X115035809Y-117590987D01*
X115177942Y-117532113D01*
X115305859Y-117446642D01*
X115414642Y-117337859D01*
X115500113Y-117209942D01*
X115558987Y-117067809D01*
X115589000Y-116916922D01*
X115589000Y-116763078D01*
X115558987Y-116612191D01*
X115500113Y-116470058D01*
X115414642Y-116342141D01*
X115305859Y-116233358D01*
X115177942Y-116147887D01*
X115035809Y-116089013D01*
X114884922Y-116059000D01*
X114731078Y-116059000D01*
X114580191Y-116089013D01*
X114438058Y-116147887D01*
X114310141Y-116233358D01*
X114211499Y-116332000D01*
X111594501Y-116332000D01*
X111495859Y-116233358D01*
X111367942Y-116147887D01*
X111225809Y-116089013D01*
X111074922Y-116059000D01*
X110921078Y-116059000D01*
X110770191Y-116089013D01*
X110628058Y-116147887D01*
X110500141Y-116233358D01*
X110391358Y-116342141D01*
X110305887Y-116470058D01*
X110247013Y-116612191D01*
X110217000Y-116763078D01*
X77876000Y-116763078D01*
X77876000Y-111837631D01*
X114541300Y-111837631D01*
X114541300Y-112190369D01*
X114610116Y-112536328D01*
X114745103Y-112862214D01*
X114941073Y-113155504D01*
X115190496Y-113404927D01*
X115483786Y-113600897D01*
X115809672Y-113735884D01*
X116155631Y-113804700D01*
X116508369Y-113804700D01*
X116854328Y-113735884D01*
X117180214Y-113600897D01*
X117473504Y-113404927D01*
X117722927Y-113155504D01*
X117918897Y-112862214D01*
X118046500Y-112554154D01*
X118174103Y-112862214D01*
X118370073Y-113155504D01*
X118619496Y-113404927D01*
X118912786Y-113600897D01*
X119238672Y-113735884D01*
X119584631Y-113804700D01*
X119937369Y-113804700D01*
X120283328Y-113735884D01*
X120609214Y-113600897D01*
X120902504Y-113404927D01*
X121151927Y-113155504D01*
X121347897Y-112862214D01*
X121482884Y-112536328D01*
X121551700Y-112190369D01*
X121551700Y-111837631D01*
X121482884Y-111491672D01*
X121347897Y-111165786D01*
X121151927Y-110872496D01*
X120902504Y-110623073D01*
X120609214Y-110427103D01*
X120283328Y-110292116D01*
X119937369Y-110223300D01*
X119584631Y-110223300D01*
X119238672Y-110292116D01*
X118912786Y-110427103D01*
X118619496Y-110623073D01*
X118370073Y-110872496D01*
X118174103Y-111165786D01*
X118046500Y-111473846D01*
X117918897Y-111165786D01*
X117722927Y-110872496D01*
X117473504Y-110623073D01*
X117180214Y-110427103D01*
X116854328Y-110292116D01*
X116508369Y-110223300D01*
X116155631Y-110223300D01*
X115809672Y-110292116D01*
X115483786Y-110427103D01*
X115190496Y-110623073D01*
X114941073Y-110872496D01*
X114745103Y-111165786D01*
X114610116Y-111491672D01*
X114541300Y-111837631D01*
X77876000Y-111837631D01*
X77876000Y-108762078D01*
X109455000Y-108762078D01*
X109455000Y-108915922D01*
X109485013Y-109066809D01*
X109543887Y-109208942D01*
X109629358Y-109336859D01*
X109738141Y-109445642D01*
X109866058Y-109531113D01*
X110008191Y-109589987D01*
X110159078Y-109620000D01*
X110312922Y-109620000D01*
X110463809Y-109589987D01*
X110605942Y-109531113D01*
X110733859Y-109445642D01*
X110832501Y-109347000D01*
X114176499Y-109347000D01*
X114275141Y-109445642D01*
X114403058Y-109531113D01*
X114545191Y-109589987D01*
X114696078Y-109620000D01*
X114849922Y-109620000D01*
X115000809Y-109589987D01*
X115142942Y-109531113D01*
X115270859Y-109445642D01*
X115379642Y-109336859D01*
X115465113Y-109208942D01*
X115523987Y-109066809D01*
X115554000Y-108915922D01*
X115554000Y-108762078D01*
X115523987Y-108611191D01*
X115465113Y-108469058D01*
X115379642Y-108341141D01*
X115270859Y-108232358D01*
X115142942Y-108146887D01*
X115000809Y-108088013D01*
X114849922Y-108058000D01*
X114696078Y-108058000D01*
X114545191Y-108088013D01*
X114403058Y-108146887D01*
X114275141Y-108232358D01*
X114176499Y-108331000D01*
X110832501Y-108331000D01*
X110733859Y-108232358D01*
X110605942Y-108146887D01*
X110463809Y-108088013D01*
X110312922Y-108058000D01*
X110159078Y-108058000D01*
X110008191Y-108088013D01*
X109866058Y-108146887D01*
X109738141Y-108232358D01*
X109629358Y-108341141D01*
X109543887Y-108469058D01*
X109485013Y-108611191D01*
X109455000Y-108762078D01*
X77876000Y-108762078D01*
X77876000Y-102832000D01*
X140041157Y-102832000D01*
X140041157Y-104432000D01*
X140048513Y-104506689D01*
X140070299Y-104578508D01*
X140105678Y-104644696D01*
X140153289Y-104702711D01*
X140211304Y-104750322D01*
X140277492Y-104785701D01*
X140349311Y-104807487D01*
X140424000Y-104814843D01*
X142024000Y-104814843D01*
X142098689Y-104807487D01*
X142170508Y-104785701D01*
X142236696Y-104750322D01*
X142294711Y-104702711D01*
X142342322Y-104644696D01*
X142377701Y-104578508D01*
X142399487Y-104506689D01*
X142406843Y-104432000D01*
X142406843Y-102832000D01*
X142399487Y-102757311D01*
X142377701Y-102685492D01*
X142342322Y-102619304D01*
X142294711Y-102561289D01*
X142236696Y-102513678D01*
X142170508Y-102478299D01*
X142098689Y-102456513D01*
X142024000Y-102449157D01*
X140424000Y-102449157D01*
X140349311Y-102456513D01*
X140277492Y-102478299D01*
X140211304Y-102513678D01*
X140153289Y-102561289D01*
X140105678Y-102619304D01*
X140070299Y-102685492D01*
X140048513Y-102757311D01*
X140041157Y-102832000D01*
X77876000Y-102832000D01*
X77876000Y-100407631D01*
X132321300Y-100407631D01*
X132321300Y-100760369D01*
X132390116Y-101106328D01*
X132525103Y-101432214D01*
X132721073Y-101725504D01*
X132970496Y-101974927D01*
X133263786Y-102170897D01*
X133589672Y-102305884D01*
X133935631Y-102374700D01*
X134288369Y-102374700D01*
X134634328Y-102305884D01*
X134960214Y-102170897D01*
X135253504Y-101974927D01*
X135502927Y-101725504D01*
X135698897Y-101432214D01*
X135826500Y-101124154D01*
X135954103Y-101432214D01*
X136150073Y-101725504D01*
X136399496Y-101974927D01*
X136692786Y-102170897D01*
X137018672Y-102305884D01*
X137364631Y-102374700D01*
X137717369Y-102374700D01*
X138063328Y-102305884D01*
X138389214Y-102170897D01*
X138682504Y-101974927D01*
X138931927Y-101725504D01*
X139127897Y-101432214D01*
X139262884Y-101106328D01*
X139331700Y-100760369D01*
X139331700Y-100407631D01*
X139262884Y-100061672D01*
X139127897Y-99735786D01*
X138931927Y-99442496D01*
X138682504Y-99193073D01*
X138389214Y-98997103D01*
X138063328Y-98862116D01*
X137717369Y-98793300D01*
X137364631Y-98793300D01*
X137018672Y-98862116D01*
X136692786Y-98997103D01*
X136399496Y-99193073D01*
X136150073Y-99442496D01*
X135954103Y-99735786D01*
X135826500Y-100043846D01*
X135698897Y-99735786D01*
X135502927Y-99442496D01*
X135253504Y-99193073D01*
X134960214Y-98997103D01*
X134634328Y-98862116D01*
X134288369Y-98793300D01*
X133935631Y-98793300D01*
X133589672Y-98862116D01*
X133263786Y-98997103D01*
X132970496Y-99193073D01*
X132721073Y-99442496D01*
X132525103Y-99735786D01*
X132390116Y-100061672D01*
X132321300Y-100407631D01*
X77876000Y-100407631D01*
X77876000Y-98375631D01*
X114541300Y-98375631D01*
X114541300Y-98728369D01*
X114610116Y-99074328D01*
X114745103Y-99400214D01*
X114941073Y-99693504D01*
X115190496Y-99942927D01*
X115483786Y-100138897D01*
X115809672Y-100273884D01*
X116155631Y-100342700D01*
X116508369Y-100342700D01*
X116854328Y-100273884D01*
X117180214Y-100138897D01*
X117473504Y-99942927D01*
X117722927Y-99693504D01*
X117918897Y-99400214D01*
X118046500Y-99092154D01*
X118174103Y-99400214D01*
X118370073Y-99693504D01*
X118619496Y-99942927D01*
X118912786Y-100138897D01*
X119238672Y-100273884D01*
X119584631Y-100342700D01*
X119937369Y-100342700D01*
X120283328Y-100273884D01*
X120609214Y-100138897D01*
X120902504Y-99942927D01*
X121151927Y-99693504D01*
X121347897Y-99400214D01*
X121482884Y-99074328D01*
X121551700Y-98728369D01*
X121551700Y-98375631D01*
X121482884Y-98029672D01*
X121347897Y-97703786D01*
X121151927Y-97410496D01*
X120902504Y-97161073D01*
X120609214Y-96965103D01*
X120283328Y-96830116D01*
X119937369Y-96761300D01*
X119584631Y-96761300D01*
X119238672Y-96830116D01*
X118912786Y-96965103D01*
X118619496Y-97161073D01*
X118370073Y-97410496D01*
X118174103Y-97703786D01*
X118046500Y-98011846D01*
X117918897Y-97703786D01*
X117722927Y-97410496D01*
X117473504Y-97161073D01*
X117180214Y-96965103D01*
X116854328Y-96830116D01*
X116508369Y-96761300D01*
X116155631Y-96761300D01*
X115809672Y-96830116D01*
X115483786Y-96965103D01*
X115190496Y-97161073D01*
X114941073Y-97410496D01*
X114745103Y-97703786D01*
X114610116Y-98029672D01*
X114541300Y-98375631D01*
X77876000Y-98375631D01*
X77876000Y-77024888D01*
X78004191Y-77077987D01*
X78155078Y-77108000D01*
X78308922Y-77108000D01*
X78459809Y-77077987D01*
X78601942Y-77019113D01*
X78644242Y-76990849D01*
X85852000Y-76990849D01*
X85852000Y-77441151D01*
X85939850Y-77882802D01*
X86112173Y-78298827D01*
X86362348Y-78673240D01*
X86680760Y-78991652D01*
X87055173Y-79241827D01*
X87471198Y-79414150D01*
X87912849Y-79502000D01*
X88363151Y-79502000D01*
X88804802Y-79414150D01*
X89220827Y-79241827D01*
X89595240Y-78991652D01*
X89913652Y-78673240D01*
X90163827Y-78298827D01*
X90249196Y-78092728D01*
X90259811Y-78118356D01*
X90468290Y-78430366D01*
X90733634Y-78695710D01*
X91045644Y-78904189D01*
X91392332Y-79047791D01*
X91760374Y-79121000D01*
X92135626Y-79121000D01*
X92503668Y-79047791D01*
X92850356Y-78904189D01*
X93162366Y-78695710D01*
X93427710Y-78430366D01*
X93636189Y-78118356D01*
X93779791Y-77771668D01*
X93853000Y-77403626D01*
X93926209Y-77771668D01*
X94069811Y-78118356D01*
X94278290Y-78430366D01*
X94543634Y-78695710D01*
X94855644Y-78904189D01*
X95202332Y-79047791D01*
X95570374Y-79121000D01*
X95945626Y-79121000D01*
X96313668Y-79047791D01*
X96660356Y-78904189D01*
X96972366Y-78695710D01*
X97182076Y-78486000D01*
X118869543Y-78486000D01*
X118872000Y-78510944D01*
X118872001Y-93701046D01*
X118869543Y-93726000D01*
X118879352Y-93825584D01*
X118908400Y-93921343D01*
X118955571Y-94009595D01*
X118999868Y-94063571D01*
X119019053Y-94086948D01*
X119038430Y-94102850D01*
X119765145Y-94829565D01*
X119781052Y-94848948D01*
X119858405Y-94912429D01*
X119946657Y-94959601D01*
X120042415Y-94988649D01*
X120117053Y-94996000D01*
X120117056Y-94996000D01*
X120142000Y-94998457D01*
X120166944Y-94996000D01*
X120561499Y-94996000D01*
X120660141Y-95094642D01*
X120788058Y-95180113D01*
X120930191Y-95238987D01*
X121081078Y-95269000D01*
X121234922Y-95269000D01*
X121385809Y-95238987D01*
X121527942Y-95180113D01*
X121655859Y-95094642D01*
X121764642Y-94985859D01*
X121850113Y-94857942D01*
X121908987Y-94715809D01*
X121939000Y-94564922D01*
X121939000Y-94411078D01*
X121908987Y-94260191D01*
X121850113Y-94118058D01*
X121764642Y-93990141D01*
X121655859Y-93881358D01*
X121527942Y-93795887D01*
X121385809Y-93737013D01*
X121234922Y-93707000D01*
X121081078Y-93707000D01*
X120930191Y-93737013D01*
X120788058Y-93795887D01*
X120660141Y-93881358D01*
X120561499Y-93980000D01*
X120352420Y-93980000D01*
X119888000Y-93515580D01*
X119888000Y-82004000D01*
X119975157Y-82004000D01*
X119975157Y-83604000D01*
X119982513Y-83678689D01*
X120004299Y-83750508D01*
X120039678Y-83816696D01*
X120087289Y-83874711D01*
X120145304Y-83922322D01*
X120211492Y-83957701D01*
X120283311Y-83979487D01*
X120358000Y-83986843D01*
X121958000Y-83986843D01*
X122032689Y-83979487D01*
X122047001Y-83975146D01*
X122047000Y-90392808D01*
X122047000Y-90857582D01*
X121989887Y-90943058D01*
X121931013Y-91085191D01*
X121901000Y-91236078D01*
X121901000Y-91389922D01*
X121931013Y-91540809D01*
X121989887Y-91682942D01*
X122075358Y-91810859D01*
X122184141Y-91919642D01*
X122312058Y-92005113D01*
X122454191Y-92063987D01*
X122605078Y-92094000D01*
X122758922Y-92094000D01*
X122909809Y-92063987D01*
X123051942Y-92005113D01*
X123179859Y-91919642D01*
X123288642Y-91810859D01*
X123374113Y-91682942D01*
X123432987Y-91540809D01*
X123463000Y-91389922D01*
X123463000Y-91236078D01*
X123432987Y-91085191D01*
X123374113Y-90943058D01*
X123317000Y-90857582D01*
X123317000Y-86945631D01*
X132321300Y-86945631D01*
X132321300Y-87298369D01*
X132390116Y-87644328D01*
X132525103Y-87970214D01*
X132721073Y-88263504D01*
X132970496Y-88512927D01*
X133263786Y-88708897D01*
X133589672Y-88843884D01*
X133935631Y-88912700D01*
X134288369Y-88912700D01*
X134634328Y-88843884D01*
X134960214Y-88708897D01*
X135253504Y-88512927D01*
X135502927Y-88263504D01*
X135698897Y-87970214D01*
X135826500Y-87662154D01*
X135954103Y-87970214D01*
X136150073Y-88263504D01*
X136399496Y-88512927D01*
X136692786Y-88708897D01*
X137018672Y-88843884D01*
X137364631Y-88912700D01*
X137717369Y-88912700D01*
X138063328Y-88843884D01*
X138389214Y-88708897D01*
X138682504Y-88512927D01*
X138931927Y-88263504D01*
X139127897Y-87970214D01*
X139262884Y-87644328D01*
X139331700Y-87298369D01*
X139331700Y-86945631D01*
X139262884Y-86599672D01*
X139127897Y-86273786D01*
X138931927Y-85980496D01*
X138682504Y-85731073D01*
X138389214Y-85535103D01*
X138063328Y-85400116D01*
X137717369Y-85331300D01*
X137364631Y-85331300D01*
X137018672Y-85400116D01*
X136692786Y-85535103D01*
X136399496Y-85731073D01*
X136150073Y-85980496D01*
X135954103Y-86273786D01*
X135826500Y-86581846D01*
X135698897Y-86273786D01*
X135502927Y-85980496D01*
X135253504Y-85731073D01*
X134960214Y-85535103D01*
X134634328Y-85400116D01*
X134288369Y-85331300D01*
X133935631Y-85331300D01*
X133589672Y-85400116D01*
X133263786Y-85535103D01*
X132970496Y-85731073D01*
X132721073Y-85980496D01*
X132525103Y-86273786D01*
X132390116Y-86599672D01*
X132321300Y-86945631D01*
X123317000Y-86945631D01*
X123317000Y-80973418D01*
X123374113Y-80887942D01*
X123432987Y-80745809D01*
X123463000Y-80594922D01*
X123463000Y-80441078D01*
X123432987Y-80290191D01*
X123374113Y-80148058D01*
X123288642Y-80020141D01*
X123179859Y-79911358D01*
X123051942Y-79825887D01*
X122909809Y-79767013D01*
X122758922Y-79737000D01*
X122605078Y-79737000D01*
X122454191Y-79767013D01*
X122312058Y-79825887D01*
X122184141Y-79911358D01*
X122075358Y-80020141D01*
X121989887Y-80148058D01*
X121931013Y-80290191D01*
X121901000Y-80441078D01*
X121901000Y-80594922D01*
X121931013Y-80745809D01*
X121989887Y-80887942D01*
X122047001Y-80973419D01*
X122047001Y-81632854D01*
X122032689Y-81628513D01*
X121958000Y-81621157D01*
X120358000Y-81621157D01*
X120283311Y-81628513D01*
X120211492Y-81650299D01*
X120145304Y-81685678D01*
X120087289Y-81733289D01*
X120039678Y-81791304D01*
X120004299Y-81857492D01*
X119982513Y-81929311D01*
X119975157Y-82004000D01*
X119888000Y-82004000D01*
X119888000Y-78696420D01*
X121499565Y-77084855D01*
X121518948Y-77068948D01*
X121582429Y-76991595D01*
X121629601Y-76903343D01*
X121658649Y-76807585D01*
X121666000Y-76732947D01*
X121666000Y-76732944D01*
X121668457Y-76708000D01*
X121666000Y-76683056D01*
X121666000Y-71755954D01*
X121722816Y-71825185D01*
X121747046Y-71845070D01*
X123226934Y-73324960D01*
X123246815Y-73349185D01*
X123271039Y-73369065D01*
X123271042Y-73369068D01*
X123343505Y-73428537D01*
X123356710Y-73435595D01*
X123453820Y-73487502D01*
X123573518Y-73523812D01*
X123666808Y-73533000D01*
X123666818Y-73533000D01*
X123697999Y-73536071D01*
X123729180Y-73533000D01*
X126501261Y-73533000D01*
X126473000Y-73675078D01*
X126473000Y-73828922D01*
X126503013Y-73979809D01*
X126561887Y-74121942D01*
X126647358Y-74249859D01*
X126756141Y-74358642D01*
X126884058Y-74444113D01*
X127026191Y-74502987D01*
X127177078Y-74533000D01*
X127316580Y-74533000D01*
X137072149Y-84288570D01*
X137088052Y-84307948D01*
X137107429Y-84323850D01*
X137165404Y-84371429D01*
X137253655Y-84418600D01*
X137253657Y-84418601D01*
X137349415Y-84447649D01*
X137424053Y-84455000D01*
X137424055Y-84455000D01*
X137448999Y-84457457D01*
X137473943Y-84455000D01*
X141140580Y-84455000D01*
X142094000Y-85408421D01*
X142094000Y-85547922D01*
X142124013Y-85698809D01*
X142182887Y-85840942D01*
X142268358Y-85968859D01*
X142377141Y-86077642D01*
X142505058Y-86163113D01*
X142647191Y-86221987D01*
X142798078Y-86252000D01*
X142951922Y-86252000D01*
X143102809Y-86221987D01*
X143244942Y-86163113D01*
X143372859Y-86077642D01*
X143481642Y-85968859D01*
X143567113Y-85840942D01*
X143625987Y-85698809D01*
X143656000Y-85547922D01*
X143656000Y-85394078D01*
X143625987Y-85243191D01*
X143567113Y-85101058D01*
X143481642Y-84973141D01*
X143372859Y-84864358D01*
X143244942Y-84778887D01*
X143102809Y-84720013D01*
X142951922Y-84690000D01*
X142812421Y-84690000D01*
X141727855Y-83605435D01*
X141711948Y-83586052D01*
X141634595Y-83522571D01*
X141546343Y-83475399D01*
X141450585Y-83446351D01*
X141375947Y-83439000D01*
X141375944Y-83439000D01*
X141351000Y-83436543D01*
X141326056Y-83439000D01*
X137659421Y-83439000D01*
X128035000Y-73814580D01*
X128035000Y-73675078D01*
X128006739Y-73533000D01*
X131370582Y-73533000D01*
X131456058Y-73590113D01*
X131598191Y-73648987D01*
X131749078Y-73679000D01*
X131902922Y-73679000D01*
X132053809Y-73648987D01*
X132195942Y-73590113D01*
X132281418Y-73533000D01*
X135434582Y-73533000D01*
X135520058Y-73590113D01*
X135662191Y-73648987D01*
X135813078Y-73679000D01*
X135966922Y-73679000D01*
X136117809Y-73648987D01*
X136131301Y-73643398D01*
X136125000Y-73675078D01*
X136125000Y-73828922D01*
X136155013Y-73979809D01*
X136213887Y-74121942D01*
X136299358Y-74249859D01*
X136398000Y-74348501D01*
X136398001Y-75159044D01*
X136398000Y-75159054D01*
X136398001Y-75608579D01*
X135952580Y-76054000D01*
X135813078Y-76054000D01*
X135662191Y-76084013D01*
X135520058Y-76142887D01*
X135392141Y-76228358D01*
X135283358Y-76337141D01*
X135197887Y-76465058D01*
X135139013Y-76607191D01*
X135109000Y-76758078D01*
X135109000Y-76911922D01*
X135139013Y-77062809D01*
X135197887Y-77204942D01*
X135283358Y-77332859D01*
X135392141Y-77441642D01*
X135520058Y-77527113D01*
X135662191Y-77585987D01*
X135813078Y-77616000D01*
X135966922Y-77616000D01*
X136117809Y-77585987D01*
X136259942Y-77527113D01*
X136387859Y-77441642D01*
X136496642Y-77332859D01*
X136582113Y-77204942D01*
X136640987Y-77062809D01*
X136671000Y-76911922D01*
X136671000Y-76772420D01*
X137247571Y-76195850D01*
X137266948Y-76179948D01*
X137307846Y-76130113D01*
X137330429Y-76102596D01*
X137377600Y-76014344D01*
X137377601Y-76014343D01*
X137406649Y-75918585D01*
X137414000Y-75843947D01*
X137414000Y-75843944D01*
X137416457Y-75819000D01*
X137414000Y-75794056D01*
X137414000Y-74348501D01*
X137512642Y-74249859D01*
X137598113Y-74121942D01*
X137656987Y-73979809D01*
X137687000Y-73828922D01*
X137687000Y-73675078D01*
X137658739Y-73533000D01*
X141245862Y-73533000D01*
X141235013Y-73559191D01*
X141205000Y-73710078D01*
X141205000Y-73863922D01*
X141235013Y-74014809D01*
X141293887Y-74156942D01*
X141379358Y-74284859D01*
X141478000Y-74383501D01*
X141478001Y-77699046D01*
X141475543Y-77724000D01*
X141485352Y-77823584D01*
X141514400Y-77919343D01*
X141561571Y-78007595D01*
X141605868Y-78061571D01*
X141625053Y-78084948D01*
X141644430Y-78100850D01*
X147832149Y-84288570D01*
X147848052Y-84307948D01*
X147867429Y-84323850D01*
X147925404Y-84371429D01*
X147972576Y-84396643D01*
X148013657Y-84418601D01*
X148109415Y-84447649D01*
X148184053Y-84455000D01*
X148184056Y-84455000D01*
X148209000Y-84457457D01*
X148233944Y-84455000D01*
X150660499Y-84455000D01*
X150759141Y-84553642D01*
X150887058Y-84639113D01*
X151029191Y-84697987D01*
X151180078Y-84728000D01*
X151333922Y-84728000D01*
X151484809Y-84697987D01*
X151626942Y-84639113D01*
X151754859Y-84553642D01*
X151863642Y-84444859D01*
X151949113Y-84316942D01*
X152007987Y-84174809D01*
X152038000Y-84023922D01*
X152038000Y-83870078D01*
X152007987Y-83719191D01*
X151949113Y-83577058D01*
X151863642Y-83449141D01*
X151754859Y-83340358D01*
X151626942Y-83254887D01*
X151484809Y-83196013D01*
X151333922Y-83166000D01*
X151180078Y-83166000D01*
X151029191Y-83196013D01*
X150887058Y-83254887D01*
X150759141Y-83340358D01*
X150660499Y-83439000D01*
X148419421Y-83439000D01*
X142494000Y-77513580D01*
X142494000Y-74383501D01*
X142592642Y-74284859D01*
X142678113Y-74156942D01*
X142736987Y-74014809D01*
X142767000Y-73863922D01*
X142767000Y-73710078D01*
X142736987Y-73559191D01*
X142726138Y-73533000D01*
X151182582Y-73533000D01*
X151268058Y-73590113D01*
X151410191Y-73648987D01*
X151561078Y-73679000D01*
X151714922Y-73679000D01*
X151865809Y-73648987D01*
X152007942Y-73590113D01*
X152135859Y-73504642D01*
X152244642Y-73395859D01*
X152330113Y-73267942D01*
X152388987Y-73125809D01*
X152419000Y-72974922D01*
X152419000Y-72821078D01*
X152388987Y-72670191D01*
X152330113Y-72528058D01*
X152244642Y-72400141D01*
X152135859Y-72291358D01*
X152007942Y-72205887D01*
X151865809Y-72147013D01*
X151714922Y-72117000D01*
X151561078Y-72117000D01*
X151410191Y-72147013D01*
X151268058Y-72205887D01*
X151182582Y-72263000D01*
X142726138Y-72263000D01*
X142736987Y-72236809D01*
X142767000Y-72085922D01*
X142767000Y-71932078D01*
X142736987Y-71781191D01*
X142678113Y-71639058D01*
X142592642Y-71511141D01*
X142483859Y-71402358D01*
X142355942Y-71316887D01*
X142213809Y-71258013D01*
X142062922Y-71228000D01*
X141923421Y-71228000D01*
X135890000Y-65194580D01*
X135890000Y-60540501D01*
X135988642Y-60441859D01*
X136074113Y-60313942D01*
X136132987Y-60171809D01*
X136163000Y-60020922D01*
X136163000Y-59867078D01*
X136132987Y-59716191D01*
X136090276Y-59613078D01*
X137649000Y-59613078D01*
X137649000Y-59766922D01*
X137679013Y-59917809D01*
X137737887Y-60059942D01*
X137823358Y-60187859D01*
X137932141Y-60296642D01*
X138013120Y-60350750D01*
X142512991Y-64850622D01*
X142512992Y-66808928D01*
X142505013Y-66828191D01*
X142475000Y-66979078D01*
X142475000Y-67132922D01*
X142505013Y-67283809D01*
X142563887Y-67425942D01*
X142649358Y-67553859D01*
X142758141Y-67662642D01*
X142886058Y-67748113D01*
X143028191Y-67806987D01*
X143179078Y-67837000D01*
X143332922Y-67837000D01*
X143419775Y-67819724D01*
X143411358Y-67828141D01*
X143325887Y-67956058D01*
X143267013Y-68098191D01*
X143237000Y-68249078D01*
X143237000Y-68402922D01*
X143267013Y-68553809D01*
X143325887Y-68695942D01*
X143411358Y-68823859D01*
X143520141Y-68932642D01*
X143562582Y-68961000D01*
X143471501Y-68961000D01*
X143372859Y-68862358D01*
X143244942Y-68776887D01*
X143102809Y-68718013D01*
X142951922Y-68688000D01*
X142798078Y-68688000D01*
X142647191Y-68718013D01*
X142505058Y-68776887D01*
X142377141Y-68862358D01*
X142268358Y-68971141D01*
X142182887Y-69099058D01*
X142124013Y-69241191D01*
X142094000Y-69392078D01*
X142094000Y-69545922D01*
X142124013Y-69696809D01*
X142182887Y-69838942D01*
X142268358Y-69966859D01*
X142377141Y-70075642D01*
X142505058Y-70161113D01*
X142647191Y-70219987D01*
X142798078Y-70250000D01*
X142951922Y-70250000D01*
X143102809Y-70219987D01*
X143244942Y-70161113D01*
X143372859Y-70075642D01*
X143471501Y-69977000D01*
X144374056Y-69977000D01*
X144399000Y-69979457D01*
X144423944Y-69977000D01*
X144423947Y-69977000D01*
X144498585Y-69969649D01*
X144594343Y-69940601D01*
X144682595Y-69893429D01*
X144759948Y-69829948D01*
X144775855Y-69810565D01*
X145629565Y-68956855D01*
X145648948Y-68940948D01*
X145712429Y-68863595D01*
X145748559Y-68796000D01*
X148423157Y-68796000D01*
X148423157Y-70396000D01*
X148430513Y-70470689D01*
X148452299Y-70542508D01*
X148487678Y-70608696D01*
X148535289Y-70666711D01*
X148593304Y-70714322D01*
X148659492Y-70749701D01*
X148731311Y-70771487D01*
X148806000Y-70778843D01*
X150406000Y-70778843D01*
X150480689Y-70771487D01*
X150552508Y-70749701D01*
X150618696Y-70714322D01*
X150676711Y-70666711D01*
X150724322Y-70608696D01*
X150759701Y-70542508D01*
X150781487Y-70470689D01*
X150788843Y-70396000D01*
X150788843Y-68796000D01*
X150781487Y-68721311D01*
X150759701Y-68649492D01*
X150724322Y-68583304D01*
X150676711Y-68525289D01*
X150618696Y-68477678D01*
X150552508Y-68442299D01*
X150480689Y-68420513D01*
X150406000Y-68413157D01*
X148806000Y-68413157D01*
X148731311Y-68420513D01*
X148659492Y-68442299D01*
X148593304Y-68477678D01*
X148535289Y-68525289D01*
X148487678Y-68583304D01*
X148452299Y-68649492D01*
X148430513Y-68721311D01*
X148423157Y-68796000D01*
X145748559Y-68796000D01*
X145759601Y-68775343D01*
X145788649Y-68679585D01*
X145796000Y-68604947D01*
X145796000Y-68604944D01*
X145798457Y-68580000D01*
X145796000Y-68555056D01*
X145796000Y-63407600D01*
X145798457Y-63382656D01*
X145793489Y-63332214D01*
X145788649Y-63283071D01*
X145759601Y-63187313D01*
X145712429Y-63099061D01*
X145648948Y-63021708D01*
X145629565Y-63005801D01*
X142698672Y-60074908D01*
X142698672Y-59935406D01*
X142668659Y-59784519D01*
X142609785Y-59642386D01*
X142524314Y-59514469D01*
X142415531Y-59405686D01*
X142287614Y-59320215D01*
X142145481Y-59261341D01*
X141994594Y-59231328D01*
X141840750Y-59231328D01*
X141689863Y-59261341D01*
X141547730Y-59320215D01*
X141419813Y-59405686D01*
X141311030Y-59514469D01*
X141230549Y-59634918D01*
X140614750Y-59019120D01*
X140560642Y-58938141D01*
X140451859Y-58829358D01*
X140323942Y-58743887D01*
X140181809Y-58685013D01*
X140030922Y-58655000D01*
X139877078Y-58655000D01*
X139726191Y-58685013D01*
X139584058Y-58743887D01*
X139456141Y-58829358D01*
X139347358Y-58938141D01*
X139261887Y-59066058D01*
X139203013Y-59208191D01*
X139173615Y-59355985D01*
X139090750Y-59273120D01*
X139036642Y-59192141D01*
X138927859Y-59083358D01*
X138799942Y-58997887D01*
X138657809Y-58939013D01*
X138506922Y-58909000D01*
X138353078Y-58909000D01*
X138202191Y-58939013D01*
X138060058Y-58997887D01*
X137932141Y-59083358D01*
X137823358Y-59192141D01*
X137737887Y-59320058D01*
X137679013Y-59462191D01*
X137649000Y-59613078D01*
X136090276Y-59613078D01*
X136074113Y-59574058D01*
X135988642Y-59446141D01*
X135879859Y-59337358D01*
X135751942Y-59251887D01*
X135609809Y-59193013D01*
X135458922Y-59163000D01*
X135305078Y-59163000D01*
X135154191Y-59193013D01*
X135012058Y-59251887D01*
X134884141Y-59337358D01*
X134775358Y-59446141D01*
X134689887Y-59574058D01*
X134631013Y-59716191D01*
X134601000Y-59867078D01*
X134601000Y-60020922D01*
X134631013Y-60171809D01*
X134689887Y-60313942D01*
X134775358Y-60441859D01*
X134874000Y-60540501D01*
X134874001Y-65380046D01*
X134871543Y-65405000D01*
X134876704Y-65457396D01*
X134881352Y-65504585D01*
X134885300Y-65517599D01*
X134910400Y-65600343D01*
X134957571Y-65688595D01*
X135005150Y-65746570D01*
X135021053Y-65765948D01*
X135040430Y-65781850D01*
X141205000Y-71946421D01*
X141205000Y-72085922D01*
X141235013Y-72236809D01*
X141245862Y-72263000D01*
X137658739Y-72263000D01*
X137687000Y-72120922D01*
X137687000Y-71967078D01*
X137656987Y-71816191D01*
X137598113Y-71674058D01*
X137512642Y-71546141D01*
X137414000Y-71447499D01*
X137414000Y-70128943D01*
X137416457Y-70103999D01*
X137412872Y-70067601D01*
X137406649Y-70004415D01*
X137377601Y-69908657D01*
X137376406Y-69906421D01*
X137330429Y-69820404D01*
X137282850Y-69762429D01*
X137266948Y-69743052D01*
X137247571Y-69727150D01*
X133858000Y-66337580D01*
X133858000Y-60540501D01*
X133956642Y-60441859D01*
X134042113Y-60313942D01*
X134100987Y-60171809D01*
X134131000Y-60020922D01*
X134131000Y-59867078D01*
X134100987Y-59716191D01*
X134042113Y-59574058D01*
X133956642Y-59446141D01*
X133847859Y-59337358D01*
X133719942Y-59251887D01*
X133577809Y-59193013D01*
X133426922Y-59163000D01*
X133273078Y-59163000D01*
X133122191Y-59193013D01*
X132980058Y-59251887D01*
X132852141Y-59337358D01*
X132743358Y-59446141D01*
X132657887Y-59574058D01*
X132599013Y-59716191D01*
X132569000Y-59867078D01*
X132569000Y-60020922D01*
X132599013Y-60171809D01*
X132657887Y-60313942D01*
X132743358Y-60441859D01*
X132842000Y-60540501D01*
X132842001Y-66523046D01*
X132839543Y-66548000D01*
X132847153Y-66625260D01*
X132849352Y-66647585D01*
X132861023Y-66686058D01*
X132878400Y-66743343D01*
X132925571Y-66831595D01*
X132958638Y-66871887D01*
X132989053Y-66908948D01*
X133008430Y-66924850D01*
X134515154Y-68431575D01*
X134478689Y-68420513D01*
X134404000Y-68413157D01*
X132804000Y-68413157D01*
X132729311Y-68420513D01*
X132657492Y-68442299D01*
X132591304Y-68477678D01*
X132533289Y-68525289D01*
X132485678Y-68583304D01*
X132450299Y-68649492D01*
X132428513Y-68721311D01*
X132421157Y-68796000D01*
X132421157Y-70396000D01*
X132428513Y-70470689D01*
X132450299Y-70542508D01*
X132485678Y-70608696D01*
X132533289Y-70666711D01*
X132591304Y-70714322D01*
X132657492Y-70749701D01*
X132729311Y-70771487D01*
X132804000Y-70778843D01*
X134404000Y-70778843D01*
X134478689Y-70771487D01*
X134550508Y-70749701D01*
X134616696Y-70714322D01*
X134674711Y-70666711D01*
X134722322Y-70608696D01*
X134757701Y-70542508D01*
X134779487Y-70470689D01*
X134786843Y-70396000D01*
X134786843Y-68796000D01*
X134779487Y-68721311D01*
X134768425Y-68684846D01*
X136398000Y-70314421D01*
X136398001Y-71447498D01*
X136299358Y-71546141D01*
X136213887Y-71674058D01*
X136155013Y-71816191D01*
X136125000Y-71967078D01*
X136125000Y-72120922D01*
X136131301Y-72152602D01*
X136117809Y-72147013D01*
X135966922Y-72117000D01*
X135813078Y-72117000D01*
X135662191Y-72147013D01*
X135520058Y-72205887D01*
X135434582Y-72263000D01*
X132281418Y-72263000D01*
X132195942Y-72205887D01*
X132053809Y-72147013D01*
X131902922Y-72117000D01*
X131749078Y-72117000D01*
X131598191Y-72147013D01*
X131456058Y-72205887D01*
X131370582Y-72263000D01*
X128006739Y-72263000D01*
X128035000Y-72120922D01*
X128035000Y-71967078D01*
X128004987Y-71816191D01*
X127946113Y-71674058D01*
X127860642Y-71546141D01*
X127762000Y-71447499D01*
X127762000Y-68922501D01*
X127772141Y-68932642D01*
X127900058Y-69018113D01*
X128042191Y-69076987D01*
X128193078Y-69107000D01*
X128346922Y-69107000D01*
X128497809Y-69076987D01*
X128639942Y-69018113D01*
X128767859Y-68932642D01*
X128876642Y-68823859D01*
X128962113Y-68695942D01*
X129002096Y-68599416D01*
X130560346Y-67041166D01*
X130589422Y-67017304D01*
X130649857Y-66943663D01*
X130684645Y-66901275D01*
X130727542Y-66821020D01*
X130755402Y-66768897D01*
X130798974Y-66625260D01*
X130810000Y-66513308D01*
X130810000Y-66513305D01*
X130813686Y-66475882D01*
X130810000Y-66438459D01*
X130810000Y-60116442D01*
X130829000Y-60020922D01*
X130829000Y-59867078D01*
X130798987Y-59716191D01*
X130740113Y-59574058D01*
X130654642Y-59446141D01*
X130545859Y-59337358D01*
X130417942Y-59251887D01*
X130275809Y-59193013D01*
X130124922Y-59163000D01*
X129971078Y-59163000D01*
X129820191Y-59193013D01*
X129678453Y-59251723D01*
X129638642Y-59192141D01*
X129529859Y-59083358D01*
X129401942Y-58997887D01*
X129259809Y-58939013D01*
X129108922Y-58909000D01*
X128955078Y-58909000D01*
X128804191Y-58939013D01*
X128662058Y-58997887D01*
X128534141Y-59083358D01*
X128425358Y-59192141D01*
X128339887Y-59320058D01*
X128281013Y-59462191D01*
X128251000Y-59613078D01*
X128251000Y-59766922D01*
X128270000Y-59862443D01*
X128270001Y-65724368D01*
X127599120Y-66395250D01*
X127518141Y-66449358D01*
X127409358Y-66558141D01*
X127323887Y-66686058D01*
X127265013Y-66828191D01*
X127235000Y-66979078D01*
X127235000Y-67132922D01*
X127265013Y-67283809D01*
X127323887Y-67425942D01*
X127409358Y-67553859D01*
X127518141Y-67662642D01*
X127646058Y-67748113D01*
X127685807Y-67764578D01*
X127672983Y-67780204D01*
X127633355Y-67828490D01*
X127619526Y-67854363D01*
X127562598Y-67960868D01*
X127526217Y-68080798D01*
X127519013Y-68098191D01*
X127489000Y-68249078D01*
X127489000Y-68350579D01*
X126746000Y-67607580D01*
X126746000Y-60159501D01*
X126844642Y-60060859D01*
X126930113Y-59932942D01*
X126988987Y-59790809D01*
X127019000Y-59639922D01*
X127019000Y-59486078D01*
X126988987Y-59335191D01*
X126930113Y-59193058D01*
X126844642Y-59065141D01*
X126735859Y-58956358D01*
X126607942Y-58870887D01*
X126465809Y-58812013D01*
X126314922Y-58782000D01*
X126161078Y-58782000D01*
X126010191Y-58812013D01*
X125868058Y-58870887D01*
X125740141Y-58956358D01*
X125631358Y-59065141D01*
X125545887Y-59193058D01*
X125487013Y-59335191D01*
X125457000Y-59486078D01*
X125457000Y-59639922D01*
X125487013Y-59790809D01*
X125545887Y-59932942D01*
X125631358Y-60060859D01*
X125730000Y-60159501D01*
X125730001Y-67793046D01*
X125727543Y-67818000D01*
X125731125Y-67854363D01*
X125737352Y-67917585D01*
X125748456Y-67954189D01*
X125766400Y-68013343D01*
X125813571Y-68101595D01*
X125835911Y-68128816D01*
X125877053Y-68178948D01*
X125896430Y-68194850D01*
X126746000Y-69044421D01*
X126746001Y-71447498D01*
X126647358Y-71546141D01*
X126561887Y-71674058D01*
X126503013Y-71816191D01*
X126473000Y-71967078D01*
X126473000Y-72120922D01*
X126501261Y-72263000D01*
X123961026Y-72263000D01*
X122809000Y-71110976D01*
X122809000Y-69162418D01*
X122866113Y-69076942D01*
X122924987Y-68934809D01*
X122955000Y-68783922D01*
X122955000Y-68630078D01*
X122924987Y-68479191D01*
X122866113Y-68337058D01*
X122780642Y-68209141D01*
X122671859Y-68100358D01*
X122543942Y-68014887D01*
X122401809Y-67956013D01*
X122250922Y-67926000D01*
X122097078Y-67926000D01*
X121946191Y-67956013D01*
X121804058Y-68014887D01*
X121676141Y-68100358D01*
X121666000Y-68110499D01*
X121666000Y-61424420D01*
X122619421Y-60471000D01*
X122758922Y-60471000D01*
X122909809Y-60440987D01*
X123051942Y-60382113D01*
X123179859Y-60296642D01*
X123288642Y-60187859D01*
X123374113Y-60059942D01*
X123432987Y-59917809D01*
X123463000Y-59766922D01*
X123463000Y-59613078D01*
X123432987Y-59462191D01*
X123374113Y-59320058D01*
X123288642Y-59192141D01*
X123179859Y-59083358D01*
X123051942Y-58997887D01*
X122909809Y-58939013D01*
X122758922Y-58909000D01*
X122605078Y-58909000D01*
X122454191Y-58939013D01*
X122312058Y-58997887D01*
X122184141Y-59083358D01*
X122075358Y-59192141D01*
X121989887Y-59320058D01*
X121931013Y-59462191D01*
X121901000Y-59613078D01*
X121901000Y-59752579D01*
X120904000Y-60749580D01*
X120904000Y-60286501D01*
X121002642Y-60187859D01*
X121088113Y-60059942D01*
X121146987Y-59917809D01*
X121177000Y-59766922D01*
X121177000Y-59613078D01*
X121146987Y-59462191D01*
X121088113Y-59320058D01*
X121002642Y-59192141D01*
X120893859Y-59083358D01*
X120765942Y-58997887D01*
X120623809Y-58939013D01*
X120472922Y-58909000D01*
X120319078Y-58909000D01*
X120168191Y-58939013D01*
X120026058Y-58997887D01*
X119898141Y-59083358D01*
X119789358Y-59192141D01*
X119703887Y-59320058D01*
X119645013Y-59462191D01*
X119615000Y-59613078D01*
X119615000Y-59766922D01*
X119645013Y-59917809D01*
X119703887Y-60059942D01*
X119789358Y-60187859D01*
X119888000Y-60286501D01*
X119888001Y-68999498D01*
X119789358Y-69098141D01*
X119703887Y-69226058D01*
X119645013Y-69368191D01*
X119615000Y-69519078D01*
X119615000Y-69672922D01*
X119645013Y-69823809D01*
X119703887Y-69965942D01*
X119789358Y-70093859D01*
X119898141Y-70202642D01*
X120026058Y-70288113D01*
X120168191Y-70346987D01*
X120319078Y-70377000D01*
X120472922Y-70377000D01*
X120623809Y-70346987D01*
X120650001Y-70336138D01*
X120650001Y-76497579D01*
X119038435Y-78109145D01*
X119019052Y-78125052D01*
X118955571Y-78202405D01*
X118908399Y-78290658D01*
X118879351Y-78386416D01*
X118872000Y-78461053D01*
X118869543Y-78486000D01*
X97182076Y-78486000D01*
X97237710Y-78430366D01*
X97446189Y-78118356D01*
X97589791Y-77771668D01*
X97663000Y-77403626D01*
X97663000Y-77028374D01*
X97589791Y-76660332D01*
X97446189Y-76313644D01*
X97237710Y-76001634D01*
X96972366Y-75736290D01*
X96660356Y-75527811D01*
X96313668Y-75384209D01*
X95945626Y-75311000D01*
X95570374Y-75311000D01*
X95202332Y-75384209D01*
X94855644Y-75527811D01*
X94543634Y-75736290D01*
X94278290Y-76001634D01*
X94069811Y-76313644D01*
X93926209Y-76660332D01*
X93853000Y-77028374D01*
X93779791Y-76660332D01*
X93636189Y-76313644D01*
X93427710Y-76001634D01*
X93162366Y-75736290D01*
X92850356Y-75527811D01*
X92503668Y-75384209D01*
X92135626Y-75311000D01*
X91760374Y-75311000D01*
X91392332Y-75384209D01*
X91045644Y-75527811D01*
X90733634Y-75736290D01*
X90468290Y-76001634D01*
X90259811Y-76313644D01*
X90249196Y-76339272D01*
X90163827Y-76133173D01*
X89913652Y-75758760D01*
X89595240Y-75440348D01*
X89220827Y-75190173D01*
X88804802Y-75017850D01*
X88363151Y-74930000D01*
X87912849Y-74930000D01*
X87471198Y-75017850D01*
X87055173Y-75190173D01*
X86680760Y-75440348D01*
X86362348Y-75758760D01*
X86112173Y-76133173D01*
X85939850Y-76549198D01*
X85852000Y-76990849D01*
X78644242Y-76990849D01*
X78729859Y-76933642D01*
X78838642Y-76824859D01*
X78924113Y-76696942D01*
X78982987Y-76554809D01*
X79013000Y-76403922D01*
X79013000Y-76250078D01*
X79006818Y-76219000D01*
X79070922Y-76219000D01*
X79221809Y-76188987D01*
X79363942Y-76130113D01*
X79491859Y-76044642D01*
X79600642Y-75935859D01*
X79686113Y-75807942D01*
X79744987Y-75665809D01*
X79775000Y-75514922D01*
X79775000Y-75361078D01*
X79767418Y-75322959D01*
X79851623Y-75306210D01*
X79993756Y-75247336D01*
X80121673Y-75161865D01*
X80230456Y-75053082D01*
X80315927Y-74925165D01*
X80374801Y-74783032D01*
X80404814Y-74632145D01*
X80404814Y-74599078D01*
X81896000Y-74599078D01*
X81896000Y-74752922D01*
X81926013Y-74903809D01*
X81930522Y-74914695D01*
X81938890Y-74999652D01*
X82033296Y-75310867D01*
X82186602Y-75597683D01*
X82392919Y-75849081D01*
X82644317Y-76055398D01*
X82931133Y-76208704D01*
X83242348Y-76303110D01*
X83327305Y-76311478D01*
X83338191Y-76315987D01*
X83489078Y-76346000D01*
X83642922Y-76346000D01*
X83793809Y-76315987D01*
X83804695Y-76311478D01*
X83889652Y-76303110D01*
X84200867Y-76208704D01*
X84487683Y-76055398D01*
X84676084Y-75900782D01*
X86916866Y-73660000D01*
X89489558Y-73660000D01*
X89585078Y-73679000D01*
X89738922Y-73679000D01*
X89889809Y-73648987D01*
X89900692Y-73644479D01*
X89985653Y-73636111D01*
X90296867Y-73541705D01*
X90583684Y-73388398D01*
X90835082Y-73182082D01*
X91041398Y-72930684D01*
X91194705Y-72643867D01*
X91289111Y-72332653D01*
X91297479Y-72247692D01*
X91301987Y-72236809D01*
X91332000Y-72085922D01*
X91332000Y-71932078D01*
X91301987Y-71781191D01*
X91297479Y-71770308D01*
X91289111Y-71685347D01*
X91194705Y-71374133D01*
X91041398Y-71087316D01*
X90835082Y-70835918D01*
X90583684Y-70629602D01*
X90296867Y-70476295D01*
X89985653Y-70381889D01*
X89900692Y-70373521D01*
X89889809Y-70369013D01*
X89738922Y-70339000D01*
X89585078Y-70339000D01*
X89489558Y-70358000D01*
X86314101Y-70358000D01*
X86233000Y-70350012D01*
X86151899Y-70358000D01*
X86151896Y-70358000D01*
X85909347Y-70381889D01*
X85670566Y-70454323D01*
X85598132Y-70476295D01*
X85311338Y-70629590D01*
X85311316Y-70629602D01*
X85059918Y-70835918D01*
X85008213Y-70898921D01*
X82341218Y-73565916D01*
X82186602Y-73754317D01*
X82033296Y-74041133D01*
X81938890Y-74352348D01*
X81930522Y-74437305D01*
X81926013Y-74448191D01*
X81896000Y-74599078D01*
X80404814Y-74599078D01*
X80404814Y-74478301D01*
X80397394Y-74441000D01*
X80467922Y-74441000D01*
X80618809Y-74410987D01*
X80760942Y-74352113D01*
X80888859Y-74266642D01*
X80997642Y-74157859D01*
X81083113Y-74029942D01*
X81141987Y-73887809D01*
X81172000Y-73736922D01*
X81172000Y-73583078D01*
X81141987Y-73432191D01*
X81083113Y-73290058D01*
X80997642Y-73162141D01*
X80888859Y-73053358D01*
X80798901Y-72993250D01*
X80888859Y-72933142D01*
X80997642Y-72824359D01*
X81083113Y-72696442D01*
X81141987Y-72554309D01*
X81162043Y-72453481D01*
X83624100Y-69991424D01*
X98933000Y-69991424D01*
X98933000Y-70216576D01*
X98976925Y-70437401D01*
X99063087Y-70645413D01*
X99188174Y-70832620D01*
X99347380Y-70991826D01*
X99534587Y-71116913D01*
X99742599Y-71203075D01*
X99963424Y-71247000D01*
X100188576Y-71247000D01*
X100409401Y-71203075D01*
X100617413Y-71116913D01*
X100804620Y-70991826D01*
X100963826Y-70832620D01*
X101088913Y-70645413D01*
X101175075Y-70437401D01*
X101219000Y-70216576D01*
X101219000Y-69991424D01*
X101175075Y-69770599D01*
X101088913Y-69562587D01*
X100963826Y-69375380D01*
X100804620Y-69216174D01*
X100617413Y-69091087D01*
X100409401Y-69004925D01*
X100188576Y-68961000D01*
X99963424Y-68961000D01*
X99742599Y-69004925D01*
X99534587Y-69091087D01*
X99347380Y-69216174D01*
X99188174Y-69375380D01*
X99063087Y-69562587D01*
X98976925Y-69770599D01*
X98933000Y-69991424D01*
X83624100Y-69991424D01*
X84400525Y-69215000D01*
X97588582Y-69215000D01*
X97674058Y-69272113D01*
X97816191Y-69330987D01*
X97967078Y-69361000D01*
X98120922Y-69361000D01*
X98271809Y-69330987D01*
X98413942Y-69272113D01*
X98541859Y-69186642D01*
X98650642Y-69077859D01*
X98736113Y-68949942D01*
X98794987Y-68807809D01*
X98825000Y-68656922D01*
X98825000Y-68503078D01*
X98794987Y-68352191D01*
X98736113Y-68210058D01*
X98650642Y-68082141D01*
X98541859Y-67973358D01*
X98413942Y-67887887D01*
X98271809Y-67829013D01*
X98120922Y-67799000D01*
X97967078Y-67799000D01*
X97816191Y-67829013D01*
X97674058Y-67887887D01*
X97588582Y-67945000D01*
X84168680Y-67945000D01*
X84158430Y-67943990D01*
X84653574Y-67448847D01*
X84672951Y-67432945D01*
X84705264Y-67393571D01*
X84736432Y-67355593D01*
X84783603Y-67267342D01*
X84783604Y-67267339D01*
X84812652Y-67171582D01*
X84820003Y-67096944D01*
X84820003Y-67096942D01*
X84822460Y-67071998D01*
X84820003Y-67047054D01*
X84820003Y-62307631D01*
X92951300Y-62307631D01*
X92951300Y-62660369D01*
X93020116Y-63006328D01*
X93155103Y-63332214D01*
X93351073Y-63625504D01*
X93600496Y-63874927D01*
X93893786Y-64070897D01*
X94201846Y-64198500D01*
X93893786Y-64326103D01*
X93600496Y-64522073D01*
X93351073Y-64771496D01*
X93155103Y-65064786D01*
X93020116Y-65390672D01*
X92951300Y-65736631D01*
X92951300Y-66089369D01*
X93020116Y-66435328D01*
X93155103Y-66761214D01*
X93351073Y-67054504D01*
X93600496Y-67303927D01*
X93893786Y-67499897D01*
X94219672Y-67634884D01*
X94565631Y-67703700D01*
X94918369Y-67703700D01*
X95264328Y-67634884D01*
X95590214Y-67499897D01*
X95883504Y-67303927D01*
X96132927Y-67054504D01*
X96328897Y-66761214D01*
X96463884Y-66435328D01*
X96532700Y-66089369D01*
X96532700Y-65736631D01*
X96463884Y-65390672D01*
X96328897Y-65064786D01*
X96226424Y-64911424D01*
X98933000Y-64911424D01*
X98933000Y-65136576D01*
X98976925Y-65357401D01*
X99063087Y-65565413D01*
X99188174Y-65752620D01*
X99347380Y-65911826D01*
X99534587Y-66036913D01*
X99742599Y-66123075D01*
X99963424Y-66167000D01*
X100188576Y-66167000D01*
X100409401Y-66123075D01*
X100617413Y-66036913D01*
X100804620Y-65911826D01*
X100963826Y-65752620D01*
X101088913Y-65565413D01*
X101175075Y-65357401D01*
X101219000Y-65136576D01*
X101219000Y-64911424D01*
X101175075Y-64690599D01*
X101088913Y-64482587D01*
X100963826Y-64295380D01*
X100804620Y-64136174D01*
X100617413Y-64011087D01*
X100409401Y-63924925D01*
X100188576Y-63881000D01*
X99963424Y-63881000D01*
X99742599Y-63924925D01*
X99534587Y-64011087D01*
X99347380Y-64136174D01*
X99188174Y-64295380D01*
X99063087Y-64482587D01*
X98976925Y-64690599D01*
X98933000Y-64911424D01*
X96226424Y-64911424D01*
X96132927Y-64771496D01*
X95883504Y-64522073D01*
X95590214Y-64326103D01*
X95282154Y-64198500D01*
X95590214Y-64070897D01*
X95883504Y-63874927D01*
X96132927Y-63625504D01*
X96328897Y-63332214D01*
X96463884Y-63006328D01*
X96532700Y-62660369D01*
X96532700Y-62307631D01*
X96463884Y-61961672D01*
X96328897Y-61635786D01*
X96132927Y-61342496D01*
X95883504Y-61093073D01*
X95590214Y-60897103D01*
X95264328Y-60762116D01*
X94918369Y-60693300D01*
X94565631Y-60693300D01*
X94219672Y-60762116D01*
X93893786Y-60897103D01*
X93600496Y-61093073D01*
X93351073Y-61342496D01*
X93155103Y-61635786D01*
X93020116Y-61961672D01*
X92951300Y-62307631D01*
X84820003Y-62307631D01*
X84820003Y-60794501D01*
X84918645Y-60695859D01*
X85004116Y-60567942D01*
X85062990Y-60425809D01*
X85093003Y-60274922D01*
X85093003Y-60121078D01*
X85062990Y-59970191D01*
X85004116Y-59828058D01*
X84918645Y-59700141D01*
X84809862Y-59591358D01*
X84681945Y-59505887D01*
X84539812Y-59447013D01*
X84388925Y-59417000D01*
X84235081Y-59417000D01*
X84084194Y-59447013D01*
X83942061Y-59505887D01*
X83814144Y-59591358D01*
X83812002Y-59593501D01*
X83809859Y-59591358D01*
X83681942Y-59505887D01*
X83539809Y-59447013D01*
X83388922Y-59417000D01*
X83235078Y-59417000D01*
X83084191Y-59447013D01*
X82942058Y-59505887D01*
X82814141Y-59591358D01*
X82705358Y-59700141D01*
X82619887Y-59828058D01*
X82561013Y-59970191D01*
X82531000Y-60121078D01*
X82531000Y-60274922D01*
X82561013Y-60425809D01*
X82619887Y-60567942D01*
X82705358Y-60695859D01*
X82804001Y-60794502D01*
X82804001Y-61541655D01*
X82670927Y-61342496D01*
X82421504Y-61093073D01*
X82128214Y-60897103D01*
X81802328Y-60762116D01*
X81456369Y-60693300D01*
X81103631Y-60693300D01*
X80757672Y-60762116D01*
X80431786Y-60897103D01*
X80138496Y-61093073D01*
X79889073Y-61342496D01*
X79693103Y-61635786D01*
X79558116Y-61961672D01*
X79489300Y-62307631D01*
X79489300Y-62660369D01*
X79558116Y-63006328D01*
X79693103Y-63332214D01*
X79889073Y-63625504D01*
X80138496Y-63874927D01*
X80431786Y-64070897D01*
X80739846Y-64198500D01*
X80431786Y-64326103D01*
X80138496Y-64522073D01*
X79889073Y-64771496D01*
X79693103Y-65064786D01*
X79558116Y-65390672D01*
X79489300Y-65736631D01*
X79489300Y-66089369D01*
X79558116Y-66435328D01*
X79693103Y-66761214D01*
X79889073Y-67054504D01*
X80138496Y-67303927D01*
X80431786Y-67499897D01*
X80757672Y-67634884D01*
X81103631Y-67703700D01*
X81456369Y-67703700D01*
X81802328Y-67634884D01*
X82128214Y-67499897D01*
X82421504Y-67303927D01*
X82670927Y-67054504D01*
X82804001Y-66855345D01*
X82804000Y-67219514D01*
X80190990Y-69832524D01*
X80190990Y-68112924D01*
X80193447Y-68087980D01*
X80190874Y-68061859D01*
X80183639Y-67988395D01*
X80154591Y-67892637D01*
X80107419Y-67804385D01*
X80043938Y-67727032D01*
X80024555Y-67711125D01*
X79940010Y-67626580D01*
X79940010Y-67487078D01*
X79909997Y-67336191D01*
X79851123Y-67194058D01*
X79765652Y-67066141D01*
X79656869Y-66957358D01*
X79528952Y-66871887D01*
X79386819Y-66813013D01*
X79235932Y-66783000D01*
X79082088Y-66783000D01*
X78931201Y-66813013D01*
X78789068Y-66871887D01*
X78661151Y-66957358D01*
X78552368Y-67066141D01*
X78466897Y-67194058D01*
X78408023Y-67336191D01*
X78378010Y-67487078D01*
X78378010Y-67640922D01*
X78408023Y-67791809D01*
X78428600Y-67841485D01*
X78407875Y-67850070D01*
X78279958Y-67935541D01*
X78171175Y-68044324D01*
X78085704Y-68172241D01*
X78026830Y-68314374D01*
X77996817Y-68465261D01*
X77996817Y-68619105D01*
X78026830Y-68769992D01*
X78085704Y-68912125D01*
X78171175Y-69040042D01*
X78279958Y-69148825D01*
X78407875Y-69234296D01*
X78550008Y-69293170D01*
X78700895Y-69323183D01*
X78720980Y-69323183D01*
X78720981Y-70018400D01*
X77876000Y-70863379D01*
X77876000Y-58597078D01*
X143237000Y-58597078D01*
X143237000Y-58750922D01*
X143267013Y-58901809D01*
X143325887Y-59043942D01*
X143411358Y-59171859D01*
X143510001Y-59270502D01*
X143510000Y-59919053D01*
X143507543Y-59944000D01*
X143510000Y-59968944D01*
X143510000Y-59968946D01*
X143517351Y-60043584D01*
X143546399Y-60139342D01*
X143593571Y-60227595D01*
X143657052Y-60304948D01*
X143676435Y-60320855D01*
X152531150Y-69175570D01*
X156884429Y-73528850D01*
X156884434Y-73528854D01*
X158242000Y-74886421D01*
X158242001Y-83096498D01*
X158143358Y-83195141D01*
X158057887Y-83323058D01*
X157999013Y-83465191D01*
X157969000Y-83616078D01*
X157969000Y-83769922D01*
X157999013Y-83920809D01*
X158057887Y-84062942D01*
X158143358Y-84190859D01*
X158252141Y-84299642D01*
X158380058Y-84385113D01*
X158522191Y-84443987D01*
X158673078Y-84474000D01*
X158826922Y-84474000D01*
X158977809Y-84443987D01*
X159119942Y-84385113D01*
X159247859Y-84299642D01*
X159356642Y-84190859D01*
X159442113Y-84062942D01*
X159500987Y-83920809D01*
X159531000Y-83769922D01*
X159531000Y-83616078D01*
X159500987Y-83465191D01*
X159442113Y-83323058D01*
X159356642Y-83195141D01*
X159258000Y-83096499D01*
X159258000Y-74700943D01*
X159260457Y-74675999D01*
X159257753Y-74648550D01*
X159250649Y-74576415D01*
X159221601Y-74480657D01*
X159208228Y-74455638D01*
X159174429Y-74392404D01*
X159126850Y-74334429D01*
X159110948Y-74315052D01*
X159091571Y-74299150D01*
X157602854Y-72810434D01*
X157602850Y-72810429D01*
X153249570Y-68457150D01*
X144526000Y-59733580D01*
X144526000Y-59613078D01*
X146793000Y-59613078D01*
X146793000Y-59766922D01*
X146823013Y-59917809D01*
X146881887Y-60059942D01*
X146967358Y-60187859D01*
X147076141Y-60296642D01*
X147157120Y-60350750D01*
X148224730Y-61418361D01*
X148248588Y-61447432D01*
X148277658Y-61471289D01*
X148364617Y-61542655D01*
X148425032Y-61574947D01*
X148496995Y-61613412D01*
X148640632Y-61656984D01*
X148752584Y-61668010D01*
X148752587Y-61668010D01*
X148790010Y-61671696D01*
X148827433Y-61668010D01*
X150034894Y-61668010D01*
X155935235Y-67568352D01*
X155959092Y-67597422D01*
X156075122Y-67692645D01*
X156139456Y-67727032D01*
X156203348Y-67761183D01*
X156207499Y-67763402D01*
X156351136Y-67806974D01*
X156463088Y-67818000D01*
X156463090Y-67818000D01*
X156500513Y-67821686D01*
X156537936Y-67818000D01*
X157815558Y-67818000D01*
X157911078Y-67837000D01*
X158064922Y-67837000D01*
X158215809Y-67806987D01*
X158357942Y-67748113D01*
X158369001Y-67740724D01*
X158369000Y-69042557D01*
X158350000Y-69138078D01*
X158350000Y-69291922D01*
X158380013Y-69442809D01*
X158438887Y-69584942D01*
X158524358Y-69712859D01*
X158633141Y-69821642D01*
X158761058Y-69907113D01*
X158903191Y-69965987D01*
X159054078Y-69996000D01*
X159207922Y-69996000D01*
X159314744Y-69974752D01*
X159302355Y-69987141D01*
X159216884Y-70115058D01*
X159158010Y-70257191D01*
X159127997Y-70408078D01*
X159127997Y-70561922D01*
X159158010Y-70712809D01*
X159216884Y-70854942D01*
X159302355Y-70982859D01*
X159411138Y-71091642D01*
X159539055Y-71177113D01*
X159681188Y-71235987D01*
X159832075Y-71266000D01*
X159985919Y-71266000D01*
X160136806Y-71235987D01*
X160278939Y-71177113D01*
X160406856Y-71091642D01*
X160408999Y-71089500D01*
X160411141Y-71091642D01*
X160539058Y-71177113D01*
X160681191Y-71235987D01*
X160832078Y-71266000D01*
X160985922Y-71266000D01*
X161136809Y-71235987D01*
X161278942Y-71177113D01*
X161406859Y-71091642D01*
X161416501Y-71082000D01*
X161885157Y-71082000D01*
X161885157Y-72682000D01*
X161892513Y-72756689D01*
X161914299Y-72828508D01*
X161949678Y-72894696D01*
X161997289Y-72952711D01*
X162055304Y-73000322D01*
X162121492Y-73035701D01*
X162193311Y-73057487D01*
X162268000Y-73064843D01*
X163868000Y-73064843D01*
X163942689Y-73057487D01*
X164014508Y-73035701D01*
X164080696Y-73000322D01*
X164138711Y-72952711D01*
X164186322Y-72894696D01*
X164221701Y-72828508D01*
X164243487Y-72756689D01*
X164250843Y-72682000D01*
X164250843Y-71082000D01*
X164243487Y-71007311D01*
X164221701Y-70935492D01*
X164186322Y-70869304D01*
X164138711Y-70811289D01*
X164080696Y-70763678D01*
X164014508Y-70728299D01*
X163942689Y-70706513D01*
X163868000Y-70699157D01*
X162268000Y-70699157D01*
X162193311Y-70706513D01*
X162121492Y-70728299D01*
X162055304Y-70763678D01*
X161997289Y-70811289D01*
X161949678Y-70869304D01*
X161914299Y-70935492D01*
X161892513Y-71007311D01*
X161885157Y-71082000D01*
X161416501Y-71082000D01*
X161515642Y-70982859D01*
X161601113Y-70854942D01*
X161659987Y-70712809D01*
X161690000Y-70561922D01*
X161690000Y-70408078D01*
X161659987Y-70257191D01*
X161601113Y-70115058D01*
X161515642Y-69987141D01*
X161417000Y-69888499D01*
X161417000Y-65810944D01*
X161419457Y-65786000D01*
X161415614Y-65746985D01*
X161409649Y-65686415D01*
X161380601Y-65590657D01*
X161333429Y-65502405D01*
X161269948Y-65425052D01*
X161250565Y-65409145D01*
X160396855Y-64555435D01*
X160380948Y-64536052D01*
X160303595Y-64472571D01*
X160215343Y-64425399D01*
X160119585Y-64396351D01*
X160044947Y-64389000D01*
X160044944Y-64389000D01*
X160020000Y-64386543D01*
X159995056Y-64389000D01*
X158418724Y-64389000D01*
X158426113Y-64377942D01*
X158452298Y-64314726D01*
X158668951Y-64098073D01*
X158693185Y-64078185D01*
X158750784Y-64008000D01*
X158772537Y-63981495D01*
X158819778Y-63893113D01*
X158831502Y-63871180D01*
X158867812Y-63751482D01*
X158877000Y-63658192D01*
X158877000Y-63658182D01*
X158880071Y-63627001D01*
X158877000Y-63595820D01*
X158877000Y-61176000D01*
X161123157Y-61176000D01*
X161123157Y-62776000D01*
X161130513Y-62850689D01*
X161152299Y-62922508D01*
X161187678Y-62988696D01*
X161235289Y-63046711D01*
X161293304Y-63094322D01*
X161359492Y-63129701D01*
X161431311Y-63151487D01*
X161506000Y-63158843D01*
X163106000Y-63158843D01*
X163180689Y-63151487D01*
X163252508Y-63129701D01*
X163318696Y-63094322D01*
X163376711Y-63046711D01*
X163424322Y-62988696D01*
X163459701Y-62922508D01*
X163481487Y-62850689D01*
X163488843Y-62776000D01*
X163488843Y-61176000D01*
X163481487Y-61101311D01*
X163459701Y-61029492D01*
X163424322Y-60963304D01*
X163376711Y-60905289D01*
X163318696Y-60857678D01*
X163252508Y-60822299D01*
X163180689Y-60800513D01*
X163106000Y-60793157D01*
X161506000Y-60793157D01*
X161431311Y-60800513D01*
X161359492Y-60822299D01*
X161293304Y-60857678D01*
X161235289Y-60905289D01*
X161187678Y-60963304D01*
X161152299Y-61029492D01*
X161130513Y-61101311D01*
X161123157Y-61176000D01*
X158877000Y-61176000D01*
X158877000Y-48461418D01*
X158934113Y-48375942D01*
X158992987Y-48233809D01*
X159023000Y-48082922D01*
X159023000Y-47929078D01*
X158992987Y-47778191D01*
X158934113Y-47636058D01*
X158848642Y-47508141D01*
X158739859Y-47399358D01*
X158611942Y-47313887D01*
X158469809Y-47255013D01*
X158318922Y-47225000D01*
X158165078Y-47225000D01*
X158014191Y-47255013D01*
X157872058Y-47313887D01*
X157744141Y-47399358D01*
X157635358Y-47508141D01*
X157549887Y-47636058D01*
X157491013Y-47778191D01*
X157461000Y-47929078D01*
X157461000Y-48082922D01*
X157491013Y-48233809D01*
X157549887Y-48375942D01*
X157607000Y-48461418D01*
X157607001Y-62706798D01*
X157607000Y-62706808D01*
X157607000Y-63236961D01*
X157506191Y-63257013D01*
X157364058Y-63315887D01*
X157236141Y-63401358D01*
X157127358Y-63510141D01*
X157041887Y-63638058D01*
X157031527Y-63663069D01*
X153289000Y-59920542D01*
X153289000Y-59651501D01*
X153387642Y-59552859D01*
X153473113Y-59424942D01*
X153531987Y-59282809D01*
X153562000Y-59131922D01*
X153562000Y-58978078D01*
X153531987Y-58827191D01*
X153473113Y-58685058D01*
X153387642Y-58557141D01*
X153278859Y-58448358D01*
X153150942Y-58362887D01*
X153008809Y-58304013D01*
X152857922Y-58274000D01*
X152704078Y-58274000D01*
X152553191Y-58304013D01*
X152411058Y-58362887D01*
X152283141Y-58448358D01*
X152174358Y-58557141D01*
X152088887Y-58685058D01*
X152030013Y-58827191D01*
X152000000Y-58978078D01*
X152000000Y-59131922D01*
X152030013Y-59282809D01*
X152087137Y-59420717D01*
X151650352Y-58983932D01*
X151695113Y-58916942D01*
X151753987Y-58774809D01*
X151784000Y-58623922D01*
X151784000Y-58470078D01*
X151753987Y-58319191D01*
X151695113Y-58177058D01*
X151609642Y-58049141D01*
X151500859Y-57940358D01*
X151372942Y-57854887D01*
X151230809Y-57796013D01*
X151079922Y-57766000D01*
X150926078Y-57766000D01*
X150775191Y-57796013D01*
X150633058Y-57854887D01*
X150505141Y-57940358D01*
X150396358Y-58049141D01*
X150310887Y-58177058D01*
X150252013Y-58319191D01*
X150222000Y-58470078D01*
X150222000Y-58623922D01*
X150252013Y-58774809D01*
X150310887Y-58916942D01*
X150396358Y-59044859D01*
X150501943Y-59150444D01*
X150502351Y-59154584D01*
X150510668Y-59182000D01*
X149694501Y-59182000D01*
X149595859Y-59083358D01*
X149467942Y-58997887D01*
X149325809Y-58939013D01*
X149174922Y-58909000D01*
X149021078Y-58909000D01*
X148870191Y-58939013D01*
X148728058Y-58997887D01*
X148600141Y-59083358D01*
X148491358Y-59192141D01*
X148405887Y-59320058D01*
X148369510Y-59407880D01*
X148234750Y-59273120D01*
X148180642Y-59192141D01*
X148071859Y-59083358D01*
X147943942Y-58997887D01*
X147801809Y-58939013D01*
X147650922Y-58909000D01*
X147497078Y-58909000D01*
X147346191Y-58939013D01*
X147204058Y-58997887D01*
X147076141Y-59083358D01*
X146967358Y-59192141D01*
X146881887Y-59320058D01*
X146823013Y-59462191D01*
X146793000Y-59613078D01*
X144526000Y-59613078D01*
X144526000Y-59270501D01*
X144624642Y-59171859D01*
X144710113Y-59043942D01*
X144768987Y-58901809D01*
X144799000Y-58750922D01*
X144799000Y-58597078D01*
X144768987Y-58446191D01*
X144710113Y-58304058D01*
X144624642Y-58176141D01*
X144515859Y-58067358D01*
X144387942Y-57981887D01*
X144245809Y-57923013D01*
X144094922Y-57893000D01*
X143941078Y-57893000D01*
X143790191Y-57923013D01*
X143648058Y-57981887D01*
X143520141Y-58067358D01*
X143411358Y-58176141D01*
X143325887Y-58304058D01*
X143267013Y-58446191D01*
X143237000Y-58597078D01*
X77876000Y-58597078D01*
X77876000Y-52329307D01*
X105765000Y-52329307D01*
X105765000Y-52904693D01*
X105877253Y-53469024D01*
X106097444Y-54000612D01*
X106417112Y-54479029D01*
X106823971Y-54885888D01*
X107302388Y-55205556D01*
X107833976Y-55425747D01*
X108398307Y-55538000D01*
X108973693Y-55538000D01*
X109538024Y-55425747D01*
X110069612Y-55205556D01*
X110548029Y-54885888D01*
X110954888Y-54479029D01*
X111274556Y-54000612D01*
X111494747Y-53469024D01*
X111607000Y-52904693D01*
X111607000Y-52329307D01*
X114909000Y-52329307D01*
X114909000Y-52904693D01*
X115021253Y-53469024D01*
X115241444Y-54000612D01*
X115561112Y-54479029D01*
X115967971Y-54885888D01*
X116446388Y-55205556D01*
X116977976Y-55425747D01*
X117542307Y-55538000D01*
X118117693Y-55538000D01*
X118682024Y-55425747D01*
X119213612Y-55205556D01*
X119692029Y-54885888D01*
X120098888Y-54479029D01*
X120418556Y-54000612D01*
X120638747Y-53469024D01*
X120751000Y-52904693D01*
X120751000Y-52329307D01*
X124053000Y-52329307D01*
X124053000Y-52904693D01*
X124165253Y-53469024D01*
X124385444Y-54000612D01*
X124705112Y-54479029D01*
X125111971Y-54885888D01*
X125590388Y-55205556D01*
X126121976Y-55425747D01*
X126686307Y-55538000D01*
X127261693Y-55538000D01*
X127826024Y-55425747D01*
X128357612Y-55205556D01*
X128836029Y-54885888D01*
X129242888Y-54479029D01*
X129562556Y-54000612D01*
X129782747Y-53469024D01*
X129895000Y-52904693D01*
X129895000Y-52329307D01*
X133197000Y-52329307D01*
X133197000Y-52904693D01*
X133309253Y-53469024D01*
X133529444Y-54000612D01*
X133849112Y-54479029D01*
X134255971Y-54885888D01*
X134734388Y-55205556D01*
X135265976Y-55425747D01*
X135830307Y-55538000D01*
X136405693Y-55538000D01*
X136970024Y-55425747D01*
X137501612Y-55205556D01*
X137980029Y-54885888D01*
X138386888Y-54479029D01*
X138706556Y-54000612D01*
X138926747Y-53469024D01*
X139039000Y-52904693D01*
X139039000Y-52329307D01*
X142341000Y-52329307D01*
X142341000Y-52904693D01*
X142453253Y-53469024D01*
X142673444Y-54000612D01*
X142993112Y-54479029D01*
X143399971Y-54885888D01*
X143878388Y-55205556D01*
X144409976Y-55425747D01*
X144974307Y-55538000D01*
X145549693Y-55538000D01*
X146114024Y-55425747D01*
X146645612Y-55205556D01*
X147124029Y-54885888D01*
X147530888Y-54479029D01*
X147850556Y-54000612D01*
X148070747Y-53469024D01*
X148183000Y-52904693D01*
X148183000Y-52329307D01*
X151485000Y-52329307D01*
X151485000Y-52904693D01*
X151597253Y-53469024D01*
X151817444Y-54000612D01*
X152137112Y-54479029D01*
X152543971Y-54885888D01*
X153022388Y-55205556D01*
X153553976Y-55425747D01*
X154118307Y-55538000D01*
X154693693Y-55538000D01*
X155258024Y-55425747D01*
X155789612Y-55205556D01*
X156268029Y-54885888D01*
X156674888Y-54479029D01*
X156994556Y-54000612D01*
X157214747Y-53469024D01*
X157327000Y-52904693D01*
X157327000Y-52329307D01*
X157214747Y-51764976D01*
X156994556Y-51233388D01*
X156674888Y-50754971D01*
X156268029Y-50348112D01*
X155789612Y-50028444D01*
X155258024Y-49808253D01*
X154693693Y-49696000D01*
X154118307Y-49696000D01*
X153553976Y-49808253D01*
X153022388Y-50028444D01*
X152543971Y-50348112D01*
X152137112Y-50754971D01*
X151817444Y-51233388D01*
X151597253Y-51764976D01*
X151485000Y-52329307D01*
X148183000Y-52329307D01*
X148070747Y-51764976D01*
X147850556Y-51233388D01*
X147530888Y-50754971D01*
X147124029Y-50348112D01*
X146645612Y-50028444D01*
X146114024Y-49808253D01*
X145549693Y-49696000D01*
X144974307Y-49696000D01*
X144409976Y-49808253D01*
X143878388Y-50028444D01*
X143399971Y-50348112D01*
X142993112Y-50754971D01*
X142673444Y-51233388D01*
X142453253Y-51764976D01*
X142341000Y-52329307D01*
X139039000Y-52329307D01*
X138926747Y-51764976D01*
X138706556Y-51233388D01*
X138386888Y-50754971D01*
X137980029Y-50348112D01*
X137501612Y-50028444D01*
X136970024Y-49808253D01*
X136405693Y-49696000D01*
X135830307Y-49696000D01*
X135265976Y-49808253D01*
X134734388Y-50028444D01*
X134255971Y-50348112D01*
X133849112Y-50754971D01*
X133529444Y-51233388D01*
X133309253Y-51764976D01*
X133197000Y-52329307D01*
X129895000Y-52329307D01*
X129782747Y-51764976D01*
X129562556Y-51233388D01*
X129242888Y-50754971D01*
X128836029Y-50348112D01*
X128357612Y-50028444D01*
X127826024Y-49808253D01*
X127261693Y-49696000D01*
X126686307Y-49696000D01*
X126121976Y-49808253D01*
X125590388Y-50028444D01*
X125111971Y-50348112D01*
X124705112Y-50754971D01*
X124385444Y-51233388D01*
X124165253Y-51764976D01*
X124053000Y-52329307D01*
X120751000Y-52329307D01*
X120638747Y-51764976D01*
X120418556Y-51233388D01*
X120098888Y-50754971D01*
X119692029Y-50348112D01*
X119213612Y-50028444D01*
X118682024Y-49808253D01*
X118117693Y-49696000D01*
X117542307Y-49696000D01*
X116977976Y-49808253D01*
X116446388Y-50028444D01*
X115967971Y-50348112D01*
X115561112Y-50754971D01*
X115241444Y-51233388D01*
X115021253Y-51764976D01*
X114909000Y-52329307D01*
X111607000Y-52329307D01*
X111494747Y-51764976D01*
X111274556Y-51233388D01*
X110954888Y-50754971D01*
X110548029Y-50348112D01*
X110069612Y-50028444D01*
X109538024Y-49808253D01*
X108973693Y-49696000D01*
X108398307Y-49696000D01*
X107833976Y-49808253D01*
X107302388Y-50028444D01*
X106823971Y-50348112D01*
X106417112Y-50754971D01*
X106097444Y-51233388D01*
X105877253Y-51764976D01*
X105765000Y-52329307D01*
X77876000Y-52329307D01*
X77876000Y-50461424D01*
X79883000Y-50461424D01*
X79883000Y-50686576D01*
X79926925Y-50907401D01*
X80013087Y-51115413D01*
X80138174Y-51302620D01*
X80297380Y-51461826D01*
X80484587Y-51586913D01*
X80692599Y-51673075D01*
X80913424Y-51717000D01*
X81138576Y-51717000D01*
X81359401Y-51673075D01*
X81567413Y-51586913D01*
X81754620Y-51461826D01*
X81913826Y-51302620D01*
X82038913Y-51115413D01*
X82125075Y-50907401D01*
X82169000Y-50686576D01*
X82169000Y-50461424D01*
X82423000Y-50461424D01*
X82423000Y-50686576D01*
X82466925Y-50907401D01*
X82553087Y-51115413D01*
X82678174Y-51302620D01*
X82837380Y-51461826D01*
X83024587Y-51586913D01*
X83232599Y-51673075D01*
X83453424Y-51717000D01*
X83678576Y-51717000D01*
X83899401Y-51673075D01*
X84107413Y-51586913D01*
X84294620Y-51461826D01*
X84453826Y-51302620D01*
X84578913Y-51115413D01*
X84665075Y-50907401D01*
X84709000Y-50686576D01*
X84709000Y-50461424D01*
X84665075Y-50240599D01*
X84578913Y-50032587D01*
X84453826Y-49845380D01*
X84294620Y-49686174D01*
X84107413Y-49561087D01*
X83899401Y-49474925D01*
X83678576Y-49431000D01*
X83453424Y-49431000D01*
X83232599Y-49474925D01*
X83024587Y-49561087D01*
X82837380Y-49686174D01*
X82678174Y-49845380D01*
X82553087Y-50032587D01*
X82466925Y-50240599D01*
X82423000Y-50461424D01*
X82169000Y-50461424D01*
X82125075Y-50240599D01*
X82038913Y-50032587D01*
X81913826Y-49845380D01*
X81754620Y-49686174D01*
X81567413Y-49561087D01*
X81359401Y-49474925D01*
X81138576Y-49431000D01*
X80913424Y-49431000D01*
X80692599Y-49474925D01*
X80484587Y-49561087D01*
X80297380Y-49686174D01*
X80138174Y-49845380D01*
X80013087Y-50032587D01*
X79926925Y-50240599D01*
X79883000Y-50461424D01*
X77876000Y-50461424D01*
X77876000Y-45367331D01*
X78293287Y-45991845D01*
X78864395Y-46562953D01*
X79535947Y-47011670D01*
X80282136Y-47320752D01*
X81074286Y-47478320D01*
X81881954Y-47478320D01*
X82674104Y-47320752D01*
X83420293Y-47011670D01*
X84091845Y-46562953D01*
X84662953Y-45991845D01*
X85111670Y-45320293D01*
X85420752Y-44574104D01*
X85578320Y-43781954D01*
X85578320Y-42974286D01*
X85420752Y-42182136D01*
X85111670Y-41435947D01*
X84662953Y-40764395D01*
X84091845Y-40193287D01*
X83467331Y-39776000D01*
X91755848Y-39776000D01*
X91646708Y-39848925D01*
%TA.AperFunction,Conductor*%
D22*
G36*
X91646708Y-39848925D02*
G01*
X91537925Y-39957708D01*
X91452454Y-40085625D01*
X91393580Y-40227758D01*
X91363567Y-40378645D01*
X91363567Y-40518147D01*
X89482080Y-42399634D01*
X89374620Y-42292174D01*
X89187413Y-42167087D01*
X88979401Y-42080925D01*
X88758576Y-42037000D01*
X88533424Y-42037000D01*
X88312599Y-42080925D01*
X88104587Y-42167087D01*
X87917380Y-42292174D01*
X87758174Y-42451380D01*
X87633087Y-42638587D01*
X87546925Y-42846599D01*
X87503000Y-43067424D01*
X87503000Y-43292576D01*
X87546925Y-43513401D01*
X87633087Y-43721413D01*
X87758174Y-43908620D01*
X87917380Y-44067826D01*
X88104587Y-44192913D01*
X88312599Y-44279075D01*
X88533424Y-44323000D01*
X88758576Y-44323000D01*
X88979401Y-44279075D01*
X89187413Y-44192913D01*
X89227002Y-44166461D01*
X89227001Y-46734578D01*
X86472814Y-49488765D01*
X86439401Y-49474925D01*
X86218576Y-49431000D01*
X85993424Y-49431000D01*
X85772599Y-49474925D01*
X85564587Y-49561087D01*
X85377380Y-49686174D01*
X85218174Y-49845380D01*
X85093087Y-50032587D01*
X85006925Y-50240599D01*
X84963000Y-50461424D01*
X84963000Y-50686576D01*
X85006925Y-50907401D01*
X85093087Y-51115413D01*
X85218174Y-51302620D01*
X85377380Y-51461826D01*
X85564587Y-51586913D01*
X85772599Y-51673075D01*
X85993424Y-51717000D01*
X86218576Y-51717000D01*
X86439401Y-51673075D01*
X86647413Y-51586913D01*
X86834620Y-51461826D01*
X86993826Y-51302620D01*
X87118913Y-51115413D01*
X87205075Y-50907401D01*
X87249000Y-50686576D01*
X87249000Y-50461424D01*
X87503000Y-50461424D01*
X87503000Y-50686576D01*
X87546925Y-50907401D01*
X87633087Y-51115413D01*
X87758174Y-51302620D01*
X87917380Y-51461826D01*
X88104587Y-51586913D01*
X88312599Y-51673075D01*
X88533424Y-51717000D01*
X88758576Y-51717000D01*
X88979401Y-51673075D01*
X89187413Y-51586913D01*
X89374620Y-51461826D01*
X89533826Y-51302620D01*
X89658913Y-51115413D01*
X89745075Y-50907401D01*
X89789000Y-50686576D01*
X89789000Y-50461424D01*
X90043000Y-50461424D01*
X90043000Y-50686576D01*
X90086925Y-50907401D01*
X90173087Y-51115413D01*
X90298174Y-51302620D01*
X90457380Y-51461826D01*
X90644587Y-51586913D01*
X90852599Y-51673075D01*
X91073424Y-51717000D01*
X91298576Y-51717000D01*
X91519401Y-51673075D01*
X91727413Y-51586913D01*
X91914620Y-51461826D01*
X92073826Y-51302620D01*
X92198913Y-51115413D01*
X92285075Y-50907401D01*
X92329000Y-50686576D01*
X92329000Y-50461424D01*
X92583000Y-50461424D01*
X92583000Y-50686576D01*
X92626925Y-50907401D01*
X92713087Y-51115413D01*
X92838174Y-51302620D01*
X92997380Y-51461826D01*
X93184587Y-51586913D01*
X93392599Y-51673075D01*
X93613424Y-51717000D01*
X93838576Y-51717000D01*
X94059401Y-51673075D01*
X94267413Y-51586913D01*
X94454620Y-51461826D01*
X94613826Y-51302620D01*
X94738913Y-51115413D01*
X94825075Y-50907401D01*
X94869000Y-50686576D01*
X94869000Y-50461424D01*
X95123000Y-50461424D01*
X95123000Y-50686576D01*
X95166925Y-50907401D01*
X95253087Y-51115413D01*
X95378174Y-51302620D01*
X95537380Y-51461826D01*
X95724587Y-51586913D01*
X95932599Y-51673075D01*
X96153424Y-51717000D01*
X96378576Y-51717000D01*
X96599401Y-51673075D01*
X96807413Y-51586913D01*
X96994620Y-51461826D01*
X97153826Y-51302620D01*
X97278913Y-51115413D01*
X97365075Y-50907401D01*
X97409000Y-50686576D01*
X97409000Y-50461424D01*
X97365075Y-50240599D01*
X97278913Y-50032587D01*
X97153826Y-49845380D01*
X96994620Y-49686174D01*
X96807413Y-49561087D01*
X96599401Y-49474925D01*
X96378576Y-49431000D01*
X96153424Y-49431000D01*
X95932599Y-49474925D01*
X95724587Y-49561087D01*
X95537380Y-49686174D01*
X95378174Y-49845380D01*
X95253087Y-50032587D01*
X95166925Y-50240599D01*
X95123000Y-50461424D01*
X94869000Y-50461424D01*
X94825075Y-50240599D01*
X94738913Y-50032587D01*
X94613826Y-49845380D01*
X94454620Y-49686174D01*
X94267413Y-49561087D01*
X94059401Y-49474925D01*
X93838576Y-49431000D01*
X93613424Y-49431000D01*
X93392599Y-49474925D01*
X93184587Y-49561087D01*
X92997380Y-49686174D01*
X92838174Y-49845380D01*
X92713087Y-50032587D01*
X92626925Y-50240599D01*
X92583000Y-50461424D01*
X92329000Y-50461424D01*
X92285075Y-50240599D01*
X92198913Y-50032587D01*
X92073826Y-49845380D01*
X91914620Y-49686174D01*
X91727413Y-49561087D01*
X91519401Y-49474925D01*
X91298576Y-49431000D01*
X91073424Y-49431000D01*
X90852599Y-49474925D01*
X90644587Y-49561087D01*
X90457380Y-49686174D01*
X90298174Y-49845380D01*
X90173087Y-50032587D01*
X90086925Y-50240599D01*
X90043000Y-50461424D01*
X89789000Y-50461424D01*
X89745075Y-50240599D01*
X89658913Y-50032587D01*
X89533826Y-49845380D01*
X89374620Y-49686174D01*
X89187413Y-49561087D01*
X88979401Y-49474925D01*
X88758576Y-49431000D01*
X88533424Y-49431000D01*
X88312599Y-49474925D01*
X88104587Y-49561087D01*
X87917380Y-49686174D01*
X87758174Y-49845380D01*
X87633087Y-50032587D01*
X87546925Y-50240599D01*
X87503000Y-50461424D01*
X87249000Y-50461424D01*
X87205075Y-50240599D01*
X87191235Y-50207186D01*
X90076572Y-47321849D01*
X90095949Y-47305947D01*
X90137749Y-47255013D01*
X90159430Y-47228595D01*
X90206601Y-47140344D01*
X90206602Y-47140341D01*
X90235650Y-47044584D01*
X90243001Y-46969946D01*
X90243001Y-46969944D01*
X90245458Y-46945000D01*
X90243001Y-46920056D01*
X90243001Y-43826047D01*
X90298174Y-43908620D01*
X90457380Y-44067826D01*
X90644587Y-44192913D01*
X90852599Y-44279075D01*
X91073424Y-44323000D01*
X91298576Y-44323000D01*
X91519401Y-44279075D01*
X91727413Y-44192913D01*
X91914620Y-44067826D01*
X92073826Y-43908620D01*
X92198913Y-43721413D01*
X92285075Y-43513401D01*
X92329000Y-43292576D01*
X92329000Y-43067424D01*
X92583000Y-43067424D01*
X92583000Y-43292576D01*
X92626925Y-43513401D01*
X92713087Y-43721413D01*
X92838174Y-43908620D01*
X92997380Y-44067826D01*
X93184587Y-44192913D01*
X93392599Y-44279075D01*
X93613424Y-44323000D01*
X93838576Y-44323000D01*
X94059401Y-44279075D01*
X94267413Y-44192913D01*
X94454620Y-44067826D01*
X94613826Y-43908620D01*
X94738913Y-43721413D01*
X94825075Y-43513401D01*
X94869000Y-43292576D01*
X94869000Y-43067424D01*
X95123000Y-43067424D01*
X95123000Y-43292576D01*
X95166925Y-43513401D01*
X95253087Y-43721413D01*
X95378174Y-43908620D01*
X95537380Y-44067826D01*
X95724587Y-44192913D01*
X95932599Y-44279075D01*
X96153424Y-44323000D01*
X96378576Y-44323000D01*
X96599401Y-44279075D01*
X96807413Y-44192913D01*
X96994620Y-44067826D01*
X97153826Y-43908620D01*
X97278913Y-43721413D01*
X97365075Y-43513401D01*
X97409000Y-43292576D01*
X97409000Y-43067424D01*
X97365075Y-42846599D01*
X97278913Y-42638587D01*
X97153826Y-42451380D01*
X96994620Y-42292174D01*
X96807413Y-42167087D01*
X96599401Y-42080925D01*
X96378576Y-42037000D01*
X96153424Y-42037000D01*
X95932599Y-42080925D01*
X95724587Y-42167087D01*
X95537380Y-42292174D01*
X95378174Y-42451380D01*
X95253087Y-42638587D01*
X95166925Y-42846599D01*
X95123000Y-43067424D01*
X94869000Y-43067424D01*
X94825075Y-42846599D01*
X94738913Y-42638587D01*
X94613826Y-42451380D01*
X94454620Y-42292174D01*
X94267413Y-42167087D01*
X94059401Y-42080925D01*
X93838576Y-42037000D01*
X93613424Y-42037000D01*
X93392599Y-42080925D01*
X93184587Y-42167087D01*
X92997380Y-42292174D01*
X92838174Y-42451380D01*
X92713087Y-42638587D01*
X92626925Y-42846599D01*
X92583000Y-43067424D01*
X92329000Y-43067424D01*
X92285075Y-42846599D01*
X92198913Y-42638587D01*
X92073826Y-42451380D01*
X91914620Y-42292174D01*
X91727413Y-42167087D01*
X91519401Y-42080925D01*
X91298576Y-42037000D01*
X91281554Y-42037000D01*
X92081987Y-41236567D01*
X92221489Y-41236567D01*
X92372376Y-41206554D01*
X92514509Y-41147680D01*
X92642426Y-41062209D01*
X92751209Y-40953426D01*
X92836680Y-40825509D01*
X92895554Y-40683376D01*
X92925567Y-40532489D01*
X92925567Y-40378645D01*
X92895554Y-40227758D01*
X92836680Y-40085625D01*
X92751209Y-39957708D01*
X92642426Y-39848925D01*
X92533286Y-39776000D01*
X160372669Y-39776000D01*
X159748155Y-40193287D01*
X159177047Y-40764395D01*
X158728330Y-41435947D01*
X158419248Y-42182136D01*
X158261680Y-42974286D01*
X158261680Y-43781954D01*
X158419248Y-44574104D01*
X158728330Y-45320293D01*
X159177047Y-45991845D01*
X159748155Y-46562953D01*
X160419707Y-47011670D01*
X161165896Y-47320752D01*
X161958046Y-47478320D01*
X162765714Y-47478320D01*
X163557864Y-47320752D01*
X164304053Y-47011670D01*
X164975605Y-46562953D01*
X165546713Y-45991845D01*
X165964000Y-45367331D01*
X165964001Y-134972670D01*
X165546713Y-134348155D01*
X164975605Y-133777047D01*
X164304053Y-133328330D01*
X163557864Y-133019248D01*
X162765714Y-132861680D01*
X161958046Y-132861680D01*
X161165896Y-133019248D01*
X160419707Y-133328330D01*
X159748155Y-133777047D01*
X159177047Y-134348155D01*
X158728330Y-135019707D01*
X158419248Y-135765896D01*
X158261680Y-136558046D01*
X158261680Y-137365714D01*
X158419248Y-138157864D01*
X158728330Y-138904053D01*
X159177047Y-139575605D01*
X159748155Y-140146713D01*
X160372669Y-140564000D01*
X83467331Y-140564000D01*
X84091845Y-140146713D01*
X84662953Y-139575605D01*
X85111670Y-138904053D01*
X85420752Y-138157864D01*
X85578320Y-137365714D01*
X85578320Y-137354307D01*
X87210000Y-137354307D01*
X87210000Y-137929693D01*
X87322253Y-138494024D01*
X87542444Y-139025612D01*
X87862112Y-139504029D01*
X88268971Y-139910888D01*
X88747388Y-140230556D01*
X89278976Y-140450747D01*
X89843307Y-140563000D01*
X90418693Y-140563000D01*
X90983024Y-140450747D01*
X91514612Y-140230556D01*
X91993029Y-139910888D01*
X92399888Y-139504029D01*
X92719556Y-139025612D01*
X92939747Y-138494024D01*
X93052000Y-137929693D01*
X93052000Y-137354307D01*
X92939747Y-136789976D01*
X92719556Y-136258388D01*
X92399888Y-135779971D01*
X91993029Y-135373112D01*
X91514612Y-135053444D01*
X90983024Y-134833253D01*
X90418693Y-134721000D01*
X89843307Y-134721000D01*
X89278976Y-134833253D01*
X88747388Y-135053444D01*
X88268971Y-135373112D01*
X87862112Y-135779971D01*
X87542444Y-136258388D01*
X87322253Y-136789976D01*
X87210000Y-137354307D01*
X85578320Y-137354307D01*
X85578320Y-136558046D01*
X85420752Y-135765896D01*
X85111670Y-135019707D01*
X84819204Y-134582000D01*
X110831157Y-134582000D01*
X110831157Y-136182000D01*
X110838513Y-136256689D01*
X110860299Y-136328508D01*
X110895678Y-136394696D01*
X110943289Y-136452711D01*
X111001304Y-136500322D01*
X111067492Y-136535701D01*
X111139311Y-136557487D01*
X111214000Y-136564843D01*
X112814000Y-136564843D01*
X112888689Y-136557487D01*
X112960508Y-136535701D01*
X113026696Y-136500322D01*
X113084711Y-136452711D01*
X113132322Y-136394696D01*
X113167701Y-136328508D01*
X113189487Y-136256689D01*
X113196843Y-136182000D01*
X113196843Y-134582000D01*
X113189487Y-134507311D01*
X113167701Y-134435492D01*
X113132322Y-134369304D01*
X113084711Y-134311289D01*
X113026696Y-134263678D01*
X112960508Y-134228299D01*
X112888689Y-134206513D01*
X112814000Y-134199157D01*
X111214000Y-134199157D01*
X111139311Y-134206513D01*
X111067492Y-134228299D01*
X111001304Y-134263678D01*
X110943289Y-134311289D01*
X110895678Y-134369304D01*
X110860299Y-134435492D01*
X110838513Y-134507311D01*
X110831157Y-134582000D01*
X84819204Y-134582000D01*
X84662953Y-134348155D01*
X84091845Y-133777047D01*
X83420293Y-133328330D01*
X82674104Y-133019248D01*
X81881954Y-132861680D01*
X81074286Y-132861680D01*
X80282136Y-133019248D01*
X79535947Y-133328330D01*
X78864395Y-133777047D01*
X78293287Y-134348155D01*
X77876000Y-134972669D01*
X77876000Y-130606078D01*
X111233000Y-130606078D01*
X111233000Y-130759922D01*
X111263013Y-130910809D01*
X111321887Y-131052942D01*
X111407358Y-131180859D01*
X111409501Y-131183002D01*
X111407358Y-131185144D01*
X111321887Y-131313061D01*
X111263013Y-131455194D01*
X111233000Y-131606081D01*
X111233000Y-131759925D01*
X111263013Y-131910812D01*
X111321887Y-132052945D01*
X111407358Y-132180862D01*
X111516141Y-132289645D01*
X111644058Y-132375116D01*
X111786191Y-132433990D01*
X111937078Y-132464003D01*
X112090922Y-132464003D01*
X112241809Y-132433990D01*
X112383942Y-132375116D01*
X112469418Y-132318003D01*
X114573816Y-132318003D01*
X114604997Y-132321074D01*
X114636178Y-132318003D01*
X114636189Y-132318003D01*
X114729479Y-132308815D01*
X114849177Y-132272505D01*
X114870701Y-132261000D01*
X114884922Y-132261000D01*
X115035809Y-132230987D01*
X115177942Y-132172113D01*
X115305859Y-132086642D01*
X115414642Y-131977859D01*
X115500113Y-131849942D01*
X115558987Y-131707809D01*
X115589000Y-131556922D01*
X115589000Y-131403078D01*
X115560739Y-131260999D01*
X116064579Y-131260999D01*
X116186000Y-131382420D01*
X116186000Y-131521922D01*
X116216013Y-131672809D01*
X116274887Y-131814942D01*
X116360358Y-131942859D01*
X116469141Y-132051642D01*
X116597058Y-132137113D01*
X116739191Y-132195987D01*
X116890078Y-132226000D01*
X117043922Y-132226000D01*
X117194809Y-132195987D01*
X117336942Y-132137113D01*
X117464859Y-132051642D01*
X117573642Y-131942859D01*
X117659113Y-131814942D01*
X117717987Y-131672809D01*
X117748000Y-131521922D01*
X117748000Y-131368078D01*
X117717987Y-131217191D01*
X117659113Y-131075058D01*
X117573642Y-130947141D01*
X117464859Y-130838358D01*
X117336942Y-130752887D01*
X117194809Y-130694013D01*
X117043922Y-130664000D01*
X116904420Y-130664000D01*
X116651854Y-130411434D01*
X116635947Y-130392051D01*
X116558594Y-130328570D01*
X116470342Y-130281398D01*
X116374584Y-130252350D01*
X116299946Y-130244999D01*
X116299943Y-130244999D01*
X116274999Y-130242542D01*
X116250055Y-130244999D01*
X112660638Y-130244999D01*
X112620642Y-130185141D01*
X112511859Y-130076358D01*
X112383942Y-129990887D01*
X112241809Y-129932013D01*
X112090922Y-129902000D01*
X111937078Y-129902000D01*
X111786191Y-129932013D01*
X111644058Y-129990887D01*
X111516141Y-130076358D01*
X111407358Y-130185141D01*
X111321887Y-130313058D01*
X111263013Y-130455191D01*
X111233000Y-130606078D01*
X77876000Y-130606078D01*
X77876000Y-127828374D01*
X86233000Y-127828374D01*
X86233000Y-128203626D01*
X86306209Y-128571668D01*
X86449811Y-128918356D01*
X86658290Y-129230366D01*
X86923634Y-129495710D01*
X87235644Y-129704189D01*
X87582332Y-129847791D01*
X87950374Y-129921000D01*
X88325626Y-129921000D01*
X88693668Y-129847791D01*
X89040356Y-129704189D01*
X89352366Y-129495710D01*
X89617710Y-129230366D01*
X89826189Y-128918356D01*
X89969791Y-128571668D01*
X90043000Y-128203626D01*
X90043000Y-127828374D01*
X89969791Y-127460332D01*
X89957674Y-127431078D01*
X113992000Y-127431078D01*
X113992000Y-127584922D01*
X114022013Y-127735809D01*
X114080887Y-127877942D01*
X114166358Y-128005859D01*
X114275141Y-128114642D01*
X114403058Y-128200113D01*
X114545191Y-128258987D01*
X114696078Y-128289000D01*
X114849922Y-128289000D01*
X115000809Y-128258987D01*
X115142942Y-128200113D01*
X115270859Y-128114642D01*
X115379642Y-128005859D01*
X115465113Y-127877942D01*
X115523987Y-127735809D01*
X115533236Y-127689307D01*
X131217000Y-127689307D01*
X131217000Y-128264693D01*
X131329253Y-128829024D01*
X131549444Y-129360612D01*
X131869112Y-129839029D01*
X132275971Y-130245888D01*
X132754388Y-130565556D01*
X133285976Y-130785747D01*
X133850307Y-130898000D01*
X134425693Y-130898000D01*
X134990024Y-130785747D01*
X135521612Y-130565556D01*
X136000029Y-130245888D01*
X136406888Y-129839029D01*
X136726556Y-129360612D01*
X136946747Y-128829024D01*
X137059000Y-128264693D01*
X137059000Y-127689307D01*
X140361000Y-127689307D01*
X140361000Y-128264693D01*
X140473253Y-128829024D01*
X140693444Y-129360612D01*
X141013112Y-129839029D01*
X141419971Y-130245888D01*
X141898388Y-130565556D01*
X142429976Y-130785747D01*
X142994307Y-130898000D01*
X143569693Y-130898000D01*
X144134024Y-130785747D01*
X144665612Y-130565556D01*
X145144029Y-130245888D01*
X145550888Y-129839029D01*
X145870556Y-129360612D01*
X146090747Y-128829024D01*
X146203000Y-128264693D01*
X146203000Y-127689307D01*
X149759000Y-127689307D01*
X149759000Y-128264693D01*
X149871253Y-128829024D01*
X150091444Y-129360612D01*
X150411112Y-129839029D01*
X150817971Y-130245888D01*
X151296388Y-130565556D01*
X151827976Y-130785747D01*
X152392307Y-130898000D01*
X152967693Y-130898000D01*
X153532024Y-130785747D01*
X154063612Y-130565556D01*
X154542029Y-130245888D01*
X154948888Y-129839029D01*
X155268556Y-129360612D01*
X155488747Y-128829024D01*
X155601000Y-128264693D01*
X155601000Y-127689307D01*
X155488747Y-127124976D01*
X155268556Y-126593388D01*
X154948888Y-126114971D01*
X154542029Y-125708112D01*
X154063612Y-125388444D01*
X153532024Y-125168253D01*
X152967693Y-125056000D01*
X152392307Y-125056000D01*
X151827976Y-125168253D01*
X151296388Y-125388444D01*
X150817971Y-125708112D01*
X150411112Y-126114971D01*
X150091444Y-126593388D01*
X149871253Y-127124976D01*
X149759000Y-127689307D01*
X146203000Y-127689307D01*
X146090747Y-127124976D01*
X145870556Y-126593388D01*
X145550888Y-126114971D01*
X145144029Y-125708112D01*
X144665612Y-125388444D01*
X144134024Y-125168253D01*
X143569693Y-125056000D01*
X142994307Y-125056000D01*
X142429976Y-125168253D01*
X141898388Y-125388444D01*
X141419971Y-125708112D01*
X141013112Y-126114971D01*
X140693444Y-126593388D01*
X140473253Y-127124976D01*
X140361000Y-127689307D01*
X137059000Y-127689307D01*
X136946747Y-127124976D01*
X136726556Y-126593388D01*
X136406888Y-126114971D01*
X136000029Y-125708112D01*
X135521612Y-125388444D01*
X134990024Y-125168253D01*
X134425693Y-125056000D01*
X133850307Y-125056000D01*
X133285976Y-125168253D01*
X132754388Y-125388444D01*
X132275971Y-125708112D01*
X131869112Y-126114971D01*
X131549444Y-126593388D01*
X131329253Y-127124976D01*
X131217000Y-127689307D01*
X115533236Y-127689307D01*
X115554000Y-127584922D01*
X115554000Y-127431078D01*
X115549843Y-127410181D01*
X116734841Y-126225185D01*
X116739191Y-126226987D01*
X116890078Y-126257000D01*
X117043922Y-126257000D01*
X117194809Y-126226987D01*
X117336942Y-126168113D01*
X117422418Y-126111000D01*
X124385582Y-126111000D01*
X124471058Y-126168113D01*
X124613191Y-126226987D01*
X124764078Y-126257000D01*
X124917922Y-126257000D01*
X125068809Y-126226987D01*
X125210942Y-126168113D01*
X125338859Y-126082642D01*
X125447642Y-125973859D01*
X125533113Y-125845942D01*
X125591987Y-125703809D01*
X125622000Y-125552922D01*
X125622000Y-125399078D01*
X125591987Y-125248191D01*
X125533113Y-125106058D01*
X125476000Y-125020582D01*
X125476000Y-119789307D01*
X131217000Y-119789307D01*
X131217000Y-120364693D01*
X131329253Y-120929024D01*
X131549444Y-121460612D01*
X131869112Y-121939029D01*
X132275971Y-122345888D01*
X132754388Y-122665556D01*
X133285976Y-122885747D01*
X133850307Y-122998000D01*
X134425693Y-122998000D01*
X134990024Y-122885747D01*
X135521612Y-122665556D01*
X136000029Y-122345888D01*
X136406888Y-121939029D01*
X136726556Y-121460612D01*
X136946747Y-120929024D01*
X137059000Y-120364693D01*
X137059000Y-119789307D01*
X140361000Y-119789307D01*
X140361000Y-120364693D01*
X140473253Y-120929024D01*
X140693444Y-121460612D01*
X141013112Y-121939029D01*
X141419971Y-122345888D01*
X141898388Y-122665556D01*
X142429976Y-122885747D01*
X142994307Y-122998000D01*
X143569693Y-122998000D01*
X144134024Y-122885747D01*
X144665612Y-122665556D01*
X145144029Y-122345888D01*
X145550888Y-121939029D01*
X145870556Y-121460612D01*
X146090747Y-120929024D01*
X146203000Y-120364693D01*
X146203000Y-119789307D01*
X149759000Y-119789307D01*
X149759000Y-120364693D01*
X149871253Y-120929024D01*
X150091444Y-121460612D01*
X150411112Y-121939029D01*
X150817971Y-122345888D01*
X151296388Y-122665556D01*
X151827976Y-122885747D01*
X152392307Y-122998000D01*
X152967693Y-122998000D01*
X153532024Y-122885747D01*
X154063612Y-122665556D01*
X154542029Y-122345888D01*
X154948888Y-121939029D01*
X155268556Y-121460612D01*
X155488747Y-120929024D01*
X155601000Y-120364693D01*
X155601000Y-119789307D01*
X155488747Y-119224976D01*
X155268556Y-118693388D01*
X154948888Y-118214971D01*
X154542029Y-117808112D01*
X154063612Y-117488444D01*
X153532024Y-117268253D01*
X152967693Y-117156000D01*
X152392307Y-117156000D01*
X151827976Y-117268253D01*
X151296388Y-117488444D01*
X150817971Y-117808112D01*
X150411112Y-118214971D01*
X150091444Y-118693388D01*
X149871253Y-119224976D01*
X149759000Y-119789307D01*
X146203000Y-119789307D01*
X146090747Y-119224976D01*
X145870556Y-118693388D01*
X145550888Y-118214971D01*
X145144029Y-117808112D01*
X144665612Y-117488444D01*
X144134024Y-117268253D01*
X143569693Y-117156000D01*
X142994307Y-117156000D01*
X142429976Y-117268253D01*
X141898388Y-117488444D01*
X141419971Y-117808112D01*
X141013112Y-118214971D01*
X140693444Y-118693388D01*
X140473253Y-119224976D01*
X140361000Y-119789307D01*
X137059000Y-119789307D01*
X136946747Y-119224976D01*
X136726556Y-118693388D01*
X136406888Y-118214971D01*
X136000029Y-117808112D01*
X135521612Y-117488444D01*
X134990024Y-117268253D01*
X134425693Y-117156000D01*
X133850307Y-117156000D01*
X133285976Y-117268253D01*
X132754388Y-117488444D01*
X132275971Y-117808112D01*
X131869112Y-118214971D01*
X131549444Y-118693388D01*
X131329253Y-119224976D01*
X131217000Y-119789307D01*
X125476000Y-119789307D01*
X125476000Y-116363180D01*
X125479071Y-116331999D01*
X125476000Y-116300818D01*
X125476000Y-116300808D01*
X125466812Y-116207518D01*
X125430502Y-116087820D01*
X125371538Y-115977507D01*
X125371537Y-115977505D01*
X125312068Y-115905043D01*
X125292185Y-115880815D01*
X125267956Y-115860931D01*
X124079000Y-114671976D01*
X124079000Y-112191078D01*
X138157000Y-112191078D01*
X138157000Y-112344922D01*
X138187013Y-112495809D01*
X138245887Y-112637942D01*
X138331358Y-112765859D01*
X138440141Y-112874642D01*
X138568058Y-112960113D01*
X138710191Y-113018987D01*
X138861078Y-113049000D01*
X139014922Y-113049000D01*
X139165809Y-113018987D01*
X139307942Y-112960113D01*
X139435859Y-112874642D01*
X139544642Y-112765859D01*
X139630113Y-112637942D01*
X139688987Y-112495809D01*
X139719000Y-112344922D01*
X139719000Y-112205420D01*
X148550571Y-103373850D01*
X148569948Y-103357948D01*
X148588624Y-103335190D01*
X148633429Y-103280596D01*
X148680600Y-103192344D01*
X148680601Y-103192343D01*
X148709649Y-103096585D01*
X148717000Y-103021947D01*
X148717000Y-103021944D01*
X148719457Y-102997000D01*
X148717000Y-102972056D01*
X148717000Y-100254032D01*
X148743887Y-100318942D01*
X148829358Y-100446859D01*
X148938141Y-100555642D01*
X149066058Y-100641113D01*
X149208191Y-100699987D01*
X149359078Y-100730000D01*
X149512922Y-100730000D01*
X149663809Y-100699987D01*
X149805942Y-100641113D01*
X149933859Y-100555642D01*
X150032501Y-100457000D01*
X159423499Y-100457000D01*
X159522141Y-100555642D01*
X159650058Y-100641113D01*
X159792191Y-100699987D01*
X159943078Y-100730000D01*
X160096922Y-100730000D01*
X160247809Y-100699987D01*
X160389942Y-100641113D01*
X160517859Y-100555642D01*
X160626642Y-100446859D01*
X160712113Y-100318942D01*
X160770987Y-100176809D01*
X160801000Y-100025922D01*
X160801000Y-99872078D01*
X160770987Y-99721191D01*
X160712113Y-99579058D01*
X160626642Y-99451141D01*
X160517859Y-99342358D01*
X160389942Y-99256887D01*
X160247809Y-99198013D01*
X160096922Y-99168000D01*
X159943078Y-99168000D01*
X159792191Y-99198013D01*
X159650058Y-99256887D01*
X159522141Y-99342358D01*
X159423499Y-99441000D01*
X150032501Y-99441000D01*
X149933859Y-99342358D01*
X149805942Y-99256887D01*
X149663809Y-99198013D01*
X149512922Y-99168000D01*
X149359078Y-99168000D01*
X149208191Y-99198013D01*
X149066058Y-99256887D01*
X148938141Y-99342358D01*
X148829358Y-99451141D01*
X148743887Y-99579058D01*
X148717000Y-99643968D01*
X148717000Y-97878501D01*
X148815642Y-97779859D01*
X148901113Y-97651942D01*
X148959987Y-97509809D01*
X148990000Y-97358922D01*
X148990000Y-97205078D01*
X148959987Y-97054191D01*
X148901113Y-96912058D01*
X148815642Y-96784141D01*
X148706859Y-96675358D01*
X148578942Y-96589887D01*
X148436809Y-96531013D01*
X148285922Y-96501000D01*
X148132078Y-96501000D01*
X147981191Y-96531013D01*
X147839058Y-96589887D01*
X147711141Y-96675358D01*
X147602358Y-96784141D01*
X147516887Y-96912058D01*
X147458013Y-97054191D01*
X147428000Y-97205078D01*
X147428000Y-97358922D01*
X147458013Y-97509809D01*
X147516887Y-97651942D01*
X147602358Y-97779859D01*
X147701000Y-97878501D01*
X147701001Y-102786578D01*
X139000580Y-111487000D01*
X138861078Y-111487000D01*
X138710191Y-111517013D01*
X138568058Y-111575887D01*
X138440141Y-111661358D01*
X138331358Y-111770141D01*
X138245887Y-111898058D01*
X138187013Y-112040191D01*
X138157000Y-112191078D01*
X124079000Y-112191078D01*
X124079000Y-109675418D01*
X124136113Y-109589942D01*
X124150168Y-109556011D01*
X124232191Y-109589987D01*
X124383078Y-109620000D01*
X124536922Y-109620000D01*
X124687809Y-109589987D01*
X124829942Y-109531113D01*
X124957859Y-109445642D01*
X125066642Y-109336859D01*
X125152113Y-109208942D01*
X125210987Y-109066809D01*
X125241000Y-108915922D01*
X125241000Y-108762078D01*
X125210987Y-108611191D01*
X125152113Y-108469058D01*
X125066642Y-108341141D01*
X124957859Y-108232358D01*
X124829942Y-108146887D01*
X124687809Y-108088013D01*
X124536922Y-108058000D01*
X124396514Y-108058000D01*
X124343596Y-108014572D01*
X124255344Y-107967400D01*
X124159586Y-107938352D01*
X124084948Y-107931001D01*
X124084945Y-107931001D01*
X124060001Y-107928544D01*
X124035057Y-107931001D01*
X122852942Y-107931001D01*
X122827998Y-107928544D01*
X122803054Y-107931001D01*
X122803052Y-107931001D01*
X122728414Y-107938352D01*
X122632656Y-107967400D01*
X122591575Y-107989358D01*
X122544403Y-108014572D01*
X122491486Y-108058000D01*
X122351078Y-108058000D01*
X122200191Y-108088013D01*
X122058058Y-108146887D01*
X121930141Y-108232358D01*
X121821358Y-108341141D01*
X121735887Y-108469058D01*
X121677013Y-108611191D01*
X121647000Y-108762078D01*
X121647000Y-108915922D01*
X121677013Y-109066809D01*
X121735887Y-109208942D01*
X121821358Y-109336859D01*
X121930141Y-109445642D01*
X122058058Y-109531113D01*
X122200191Y-109589987D01*
X122351078Y-109620000D01*
X122504922Y-109620000D01*
X122655809Y-109589987D01*
X122737832Y-109556011D01*
X122751887Y-109589942D01*
X122809001Y-109675419D01*
X122809000Y-112490808D01*
X122809000Y-112490809D01*
X122809001Y-114903809D01*
X122805929Y-114935000D01*
X122818189Y-115059481D01*
X122854498Y-115179179D01*
X122854499Y-115179180D01*
X122913464Y-115289494D01*
X122992816Y-115386185D01*
X123017046Y-115406070D01*
X124206000Y-116595025D01*
X124206000Y-116927157D01*
X122644000Y-116927157D01*
X122569311Y-116934513D01*
X122497492Y-116956299D01*
X122431304Y-116991678D01*
X122373289Y-117039289D01*
X122325678Y-117097304D01*
X122290299Y-117163492D01*
X122268513Y-117235311D01*
X122261157Y-117310000D01*
X122261157Y-118910000D01*
X122268513Y-118984689D01*
X122290299Y-119056508D01*
X122325678Y-119122696D01*
X122373289Y-119180711D01*
X122431304Y-119228322D01*
X122497492Y-119263701D01*
X122569311Y-119285487D01*
X122644000Y-119292843D01*
X124206000Y-119292843D01*
X124206001Y-124301799D01*
X124206000Y-124301809D01*
X124206000Y-124841000D01*
X117422418Y-124841000D01*
X117336942Y-124783887D01*
X117194809Y-124725013D01*
X117043922Y-124695000D01*
X116890078Y-124695000D01*
X116739191Y-124725013D01*
X116597058Y-124783887D01*
X116504109Y-124845993D01*
X116461518Y-124850188D01*
X116341820Y-124886498D01*
X116231506Y-124945462D01*
X116159043Y-125004931D01*
X116159039Y-125004935D01*
X116134815Y-125024815D01*
X116114934Y-125049040D01*
X114381050Y-126782926D01*
X114356815Y-126802815D01*
X114277463Y-126899507D01*
X114277214Y-126899973D01*
X114275141Y-126901358D01*
X114166358Y-127010141D01*
X114080887Y-127138058D01*
X114022013Y-127280191D01*
X113992000Y-127431078D01*
X89957674Y-127431078D01*
X89826189Y-127113644D01*
X89617710Y-126801634D01*
X89352366Y-126536290D01*
X89040356Y-126327811D01*
X88693668Y-126184209D01*
X88325626Y-126111000D01*
X87950374Y-126111000D01*
X87582332Y-126184209D01*
X87235644Y-126327811D01*
X86923634Y-126536290D01*
X86658290Y-126801634D01*
X86449811Y-127113644D01*
X86306209Y-127460332D01*
X86233000Y-127828374D01*
X77876000Y-127828374D01*
X77876000Y-120866000D01*
X115657157Y-120866000D01*
X115657157Y-122466000D01*
X115664513Y-122540689D01*
X115686299Y-122612508D01*
X115721678Y-122678696D01*
X115769289Y-122736711D01*
X115827304Y-122784322D01*
X115893492Y-122819701D01*
X115965311Y-122841487D01*
X116040000Y-122848843D01*
X117640000Y-122848843D01*
X117714689Y-122841487D01*
X117786508Y-122819701D01*
X117852696Y-122784322D01*
X117910711Y-122736711D01*
X117958322Y-122678696D01*
X117993701Y-122612508D01*
X118015487Y-122540689D01*
X118022843Y-122466000D01*
X118022843Y-120866000D01*
X118015487Y-120791311D01*
X117993701Y-120719492D01*
X117958322Y-120653304D01*
X117910711Y-120595289D01*
X117852696Y-120547678D01*
X117786508Y-120512299D01*
X117714689Y-120490513D01*
X117640000Y-120483157D01*
X116040000Y-120483157D01*
X115965311Y-120490513D01*
X115893492Y-120512299D01*
X115827304Y-120547678D01*
X115769289Y-120595289D01*
X115721678Y-120653304D01*
X115686299Y-120719492D01*
X115664513Y-120791311D01*
X115657157Y-120866000D01*
X77876000Y-120866000D01*
X77876000Y-116763078D01*
X110217000Y-116763078D01*
X110217000Y-116916922D01*
X110247013Y-117067809D01*
X110305887Y-117209942D01*
X110391358Y-117337859D01*
X110500141Y-117446642D01*
X110628058Y-117532113D01*
X110770191Y-117590987D01*
X110921078Y-117621000D01*
X111074922Y-117621000D01*
X111225809Y-117590987D01*
X111367942Y-117532113D01*
X111495859Y-117446642D01*
X111594501Y-117348000D01*
X114211499Y-117348000D01*
X114310141Y-117446642D01*
X114438058Y-117532113D01*
X114580191Y-117590987D01*
X114731078Y-117621000D01*
X114884922Y-117621000D01*
X115035809Y-117590987D01*
X115177942Y-117532113D01*
X115305859Y-117446642D01*
X115414642Y-117337859D01*
X115500113Y-117209942D01*
X115558987Y-117067809D01*
X115589000Y-116916922D01*
X115589000Y-116763078D01*
X115558987Y-116612191D01*
X115500113Y-116470058D01*
X115414642Y-116342141D01*
X115305859Y-116233358D01*
X115177942Y-116147887D01*
X115035809Y-116089013D01*
X114884922Y-116059000D01*
X114731078Y-116059000D01*
X114580191Y-116089013D01*
X114438058Y-116147887D01*
X114310141Y-116233358D01*
X114211499Y-116332000D01*
X111594501Y-116332000D01*
X111495859Y-116233358D01*
X111367942Y-116147887D01*
X111225809Y-116089013D01*
X111074922Y-116059000D01*
X110921078Y-116059000D01*
X110770191Y-116089013D01*
X110628058Y-116147887D01*
X110500141Y-116233358D01*
X110391358Y-116342141D01*
X110305887Y-116470058D01*
X110247013Y-116612191D01*
X110217000Y-116763078D01*
X77876000Y-116763078D01*
X77876000Y-111837631D01*
X114541300Y-111837631D01*
X114541300Y-112190369D01*
X114610116Y-112536328D01*
X114745103Y-112862214D01*
X114941073Y-113155504D01*
X115190496Y-113404927D01*
X115483786Y-113600897D01*
X115809672Y-113735884D01*
X116155631Y-113804700D01*
X116508369Y-113804700D01*
X116854328Y-113735884D01*
X117180214Y-113600897D01*
X117473504Y-113404927D01*
X117722927Y-113155504D01*
X117918897Y-112862214D01*
X118046500Y-112554154D01*
X118174103Y-112862214D01*
X118370073Y-113155504D01*
X118619496Y-113404927D01*
X118912786Y-113600897D01*
X119238672Y-113735884D01*
X119584631Y-113804700D01*
X119937369Y-113804700D01*
X120283328Y-113735884D01*
X120609214Y-113600897D01*
X120902504Y-113404927D01*
X121151927Y-113155504D01*
X121347897Y-112862214D01*
X121482884Y-112536328D01*
X121551700Y-112190369D01*
X121551700Y-111837631D01*
X121482884Y-111491672D01*
X121347897Y-111165786D01*
X121151927Y-110872496D01*
X120902504Y-110623073D01*
X120609214Y-110427103D01*
X120283328Y-110292116D01*
X119937369Y-110223300D01*
X119584631Y-110223300D01*
X119238672Y-110292116D01*
X118912786Y-110427103D01*
X118619496Y-110623073D01*
X118370073Y-110872496D01*
X118174103Y-111165786D01*
X118046500Y-111473846D01*
X117918897Y-111165786D01*
X117722927Y-110872496D01*
X117473504Y-110623073D01*
X117180214Y-110427103D01*
X116854328Y-110292116D01*
X116508369Y-110223300D01*
X116155631Y-110223300D01*
X115809672Y-110292116D01*
X115483786Y-110427103D01*
X115190496Y-110623073D01*
X114941073Y-110872496D01*
X114745103Y-111165786D01*
X114610116Y-111491672D01*
X114541300Y-111837631D01*
X77876000Y-111837631D01*
X77876000Y-108762078D01*
X109455000Y-108762078D01*
X109455000Y-108915922D01*
X109485013Y-109066809D01*
X109543887Y-109208942D01*
X109629358Y-109336859D01*
X109738141Y-109445642D01*
X109866058Y-109531113D01*
X110008191Y-109589987D01*
X110159078Y-109620000D01*
X110312922Y-109620000D01*
X110463809Y-109589987D01*
X110605942Y-109531113D01*
X110733859Y-109445642D01*
X110832501Y-109347000D01*
X114176499Y-109347000D01*
X114275141Y-109445642D01*
X114403058Y-109531113D01*
X114545191Y-109589987D01*
X114696078Y-109620000D01*
X114849922Y-109620000D01*
X115000809Y-109589987D01*
X115142942Y-109531113D01*
X115270859Y-109445642D01*
X115379642Y-109336859D01*
X115465113Y-109208942D01*
X115523987Y-109066809D01*
X115554000Y-108915922D01*
X115554000Y-108762078D01*
X115523987Y-108611191D01*
X115465113Y-108469058D01*
X115379642Y-108341141D01*
X115270859Y-108232358D01*
X115142942Y-108146887D01*
X115000809Y-108088013D01*
X114849922Y-108058000D01*
X114696078Y-108058000D01*
X114545191Y-108088013D01*
X114403058Y-108146887D01*
X114275141Y-108232358D01*
X114176499Y-108331000D01*
X110832501Y-108331000D01*
X110733859Y-108232358D01*
X110605942Y-108146887D01*
X110463809Y-108088013D01*
X110312922Y-108058000D01*
X110159078Y-108058000D01*
X110008191Y-108088013D01*
X109866058Y-108146887D01*
X109738141Y-108232358D01*
X109629358Y-108341141D01*
X109543887Y-108469058D01*
X109485013Y-108611191D01*
X109455000Y-108762078D01*
X77876000Y-108762078D01*
X77876000Y-102832000D01*
X140041157Y-102832000D01*
X140041157Y-104432000D01*
X140048513Y-104506689D01*
X140070299Y-104578508D01*
X140105678Y-104644696D01*
X140153289Y-104702711D01*
X140211304Y-104750322D01*
X140277492Y-104785701D01*
X140349311Y-104807487D01*
X140424000Y-104814843D01*
X142024000Y-104814843D01*
X142098689Y-104807487D01*
X142170508Y-104785701D01*
X142236696Y-104750322D01*
X142294711Y-104702711D01*
X142342322Y-104644696D01*
X142377701Y-104578508D01*
X142399487Y-104506689D01*
X142406843Y-104432000D01*
X142406843Y-102832000D01*
X142399487Y-102757311D01*
X142377701Y-102685492D01*
X142342322Y-102619304D01*
X142294711Y-102561289D01*
X142236696Y-102513678D01*
X142170508Y-102478299D01*
X142098689Y-102456513D01*
X142024000Y-102449157D01*
X140424000Y-102449157D01*
X140349311Y-102456513D01*
X140277492Y-102478299D01*
X140211304Y-102513678D01*
X140153289Y-102561289D01*
X140105678Y-102619304D01*
X140070299Y-102685492D01*
X140048513Y-102757311D01*
X140041157Y-102832000D01*
X77876000Y-102832000D01*
X77876000Y-100407631D01*
X132321300Y-100407631D01*
X132321300Y-100760369D01*
X132390116Y-101106328D01*
X132525103Y-101432214D01*
X132721073Y-101725504D01*
X132970496Y-101974927D01*
X133263786Y-102170897D01*
X133589672Y-102305884D01*
X133935631Y-102374700D01*
X134288369Y-102374700D01*
X134634328Y-102305884D01*
X134960214Y-102170897D01*
X135253504Y-101974927D01*
X135502927Y-101725504D01*
X135698897Y-101432214D01*
X135826500Y-101124154D01*
X135954103Y-101432214D01*
X136150073Y-101725504D01*
X136399496Y-101974927D01*
X136692786Y-102170897D01*
X137018672Y-102305884D01*
X137364631Y-102374700D01*
X137717369Y-102374700D01*
X138063328Y-102305884D01*
X138389214Y-102170897D01*
X138682504Y-101974927D01*
X138931927Y-101725504D01*
X139127897Y-101432214D01*
X139262884Y-101106328D01*
X139331700Y-100760369D01*
X139331700Y-100407631D01*
X139262884Y-100061672D01*
X139127897Y-99735786D01*
X138931927Y-99442496D01*
X138682504Y-99193073D01*
X138389214Y-98997103D01*
X138063328Y-98862116D01*
X137717369Y-98793300D01*
X137364631Y-98793300D01*
X137018672Y-98862116D01*
X136692786Y-98997103D01*
X136399496Y-99193073D01*
X136150073Y-99442496D01*
X135954103Y-99735786D01*
X135826500Y-100043846D01*
X135698897Y-99735786D01*
X135502927Y-99442496D01*
X135253504Y-99193073D01*
X134960214Y-98997103D01*
X134634328Y-98862116D01*
X134288369Y-98793300D01*
X133935631Y-98793300D01*
X133589672Y-98862116D01*
X133263786Y-98997103D01*
X132970496Y-99193073D01*
X132721073Y-99442496D01*
X132525103Y-99735786D01*
X132390116Y-100061672D01*
X132321300Y-100407631D01*
X77876000Y-100407631D01*
X77876000Y-98375631D01*
X114541300Y-98375631D01*
X114541300Y-98728369D01*
X114610116Y-99074328D01*
X114745103Y-99400214D01*
X114941073Y-99693504D01*
X115190496Y-99942927D01*
X115483786Y-100138897D01*
X115809672Y-100273884D01*
X116155631Y-100342700D01*
X116508369Y-100342700D01*
X116854328Y-100273884D01*
X117180214Y-100138897D01*
X117473504Y-99942927D01*
X117722927Y-99693504D01*
X117918897Y-99400214D01*
X118046500Y-99092154D01*
X118174103Y-99400214D01*
X118370073Y-99693504D01*
X118619496Y-99942927D01*
X118912786Y-100138897D01*
X119238672Y-100273884D01*
X119584631Y-100342700D01*
X119937369Y-100342700D01*
X120283328Y-100273884D01*
X120609214Y-100138897D01*
X120902504Y-99942927D01*
X121151927Y-99693504D01*
X121347897Y-99400214D01*
X121482884Y-99074328D01*
X121551700Y-98728369D01*
X121551700Y-98375631D01*
X121482884Y-98029672D01*
X121347897Y-97703786D01*
X121151927Y-97410496D01*
X120902504Y-97161073D01*
X120609214Y-96965103D01*
X120283328Y-96830116D01*
X119937369Y-96761300D01*
X119584631Y-96761300D01*
X119238672Y-96830116D01*
X118912786Y-96965103D01*
X118619496Y-97161073D01*
X118370073Y-97410496D01*
X118174103Y-97703786D01*
X118046500Y-98011846D01*
X117918897Y-97703786D01*
X117722927Y-97410496D01*
X117473504Y-97161073D01*
X117180214Y-96965103D01*
X116854328Y-96830116D01*
X116508369Y-96761300D01*
X116155631Y-96761300D01*
X115809672Y-96830116D01*
X115483786Y-96965103D01*
X115190496Y-97161073D01*
X114941073Y-97410496D01*
X114745103Y-97703786D01*
X114610116Y-98029672D01*
X114541300Y-98375631D01*
X77876000Y-98375631D01*
X77876000Y-77024888D01*
X78004191Y-77077987D01*
X78155078Y-77108000D01*
X78308922Y-77108000D01*
X78459809Y-77077987D01*
X78601942Y-77019113D01*
X78644242Y-76990849D01*
X85852000Y-76990849D01*
X85852000Y-77441151D01*
X85939850Y-77882802D01*
X86112173Y-78298827D01*
X86362348Y-78673240D01*
X86680760Y-78991652D01*
X87055173Y-79241827D01*
X87471198Y-79414150D01*
X87912849Y-79502000D01*
X88363151Y-79502000D01*
X88804802Y-79414150D01*
X89220827Y-79241827D01*
X89595240Y-78991652D01*
X89913652Y-78673240D01*
X90163827Y-78298827D01*
X90249196Y-78092728D01*
X90259811Y-78118356D01*
X90468290Y-78430366D01*
X90733634Y-78695710D01*
X91045644Y-78904189D01*
X91392332Y-79047791D01*
X91760374Y-79121000D01*
X92135626Y-79121000D01*
X92503668Y-79047791D01*
X92850356Y-78904189D01*
X93162366Y-78695710D01*
X93427710Y-78430366D01*
X93636189Y-78118356D01*
X93779791Y-77771668D01*
X93853000Y-77403626D01*
X93926209Y-77771668D01*
X94069811Y-78118356D01*
X94278290Y-78430366D01*
X94543634Y-78695710D01*
X94855644Y-78904189D01*
X95202332Y-79047791D01*
X95570374Y-79121000D01*
X95945626Y-79121000D01*
X96313668Y-79047791D01*
X96660356Y-78904189D01*
X96972366Y-78695710D01*
X97182076Y-78486000D01*
X118869543Y-78486000D01*
X118872000Y-78510944D01*
X118872001Y-93701046D01*
X118869543Y-93726000D01*
X118879352Y-93825584D01*
X118908400Y-93921343D01*
X118955571Y-94009595D01*
X118999868Y-94063571D01*
X119019053Y-94086948D01*
X119038430Y-94102850D01*
X119765145Y-94829565D01*
X119781052Y-94848948D01*
X119858405Y-94912429D01*
X119946657Y-94959601D01*
X120042415Y-94988649D01*
X120117053Y-94996000D01*
X120117056Y-94996000D01*
X120142000Y-94998457D01*
X120166944Y-94996000D01*
X120561499Y-94996000D01*
X120660141Y-95094642D01*
X120788058Y-95180113D01*
X120930191Y-95238987D01*
X121081078Y-95269000D01*
X121234922Y-95269000D01*
X121385809Y-95238987D01*
X121527942Y-95180113D01*
X121655859Y-95094642D01*
X121764642Y-94985859D01*
X121850113Y-94857942D01*
X121908987Y-94715809D01*
X121939000Y-94564922D01*
X121939000Y-94411078D01*
X121908987Y-94260191D01*
X121850113Y-94118058D01*
X121764642Y-93990141D01*
X121655859Y-93881358D01*
X121527942Y-93795887D01*
X121385809Y-93737013D01*
X121234922Y-93707000D01*
X121081078Y-93707000D01*
X120930191Y-93737013D01*
X120788058Y-93795887D01*
X120660141Y-93881358D01*
X120561499Y-93980000D01*
X120352420Y-93980000D01*
X119888000Y-93515580D01*
X119888000Y-82004000D01*
X119975157Y-82004000D01*
X119975157Y-83604000D01*
X119982513Y-83678689D01*
X120004299Y-83750508D01*
X120039678Y-83816696D01*
X120087289Y-83874711D01*
X120145304Y-83922322D01*
X120211492Y-83957701D01*
X120283311Y-83979487D01*
X120358000Y-83986843D01*
X121958000Y-83986843D01*
X122032689Y-83979487D01*
X122047001Y-83975146D01*
X122047000Y-90392808D01*
X122047000Y-90857582D01*
X121989887Y-90943058D01*
X121931013Y-91085191D01*
X121901000Y-91236078D01*
X121901000Y-91389922D01*
X121931013Y-91540809D01*
X121989887Y-91682942D01*
X122075358Y-91810859D01*
X122184141Y-91919642D01*
X122312058Y-92005113D01*
X122454191Y-92063987D01*
X122605078Y-92094000D01*
X122758922Y-92094000D01*
X122909809Y-92063987D01*
X123051942Y-92005113D01*
X123179859Y-91919642D01*
X123288642Y-91810859D01*
X123374113Y-91682942D01*
X123432987Y-91540809D01*
X123463000Y-91389922D01*
X123463000Y-91236078D01*
X123432987Y-91085191D01*
X123374113Y-90943058D01*
X123317000Y-90857582D01*
X123317000Y-86945631D01*
X132321300Y-86945631D01*
X132321300Y-87298369D01*
X132390116Y-87644328D01*
X132525103Y-87970214D01*
X132721073Y-88263504D01*
X132970496Y-88512927D01*
X133263786Y-88708897D01*
X133589672Y-88843884D01*
X133935631Y-88912700D01*
X134288369Y-88912700D01*
X134634328Y-88843884D01*
X134960214Y-88708897D01*
X135253504Y-88512927D01*
X135502927Y-88263504D01*
X135698897Y-87970214D01*
X135826500Y-87662154D01*
X135954103Y-87970214D01*
X136150073Y-88263504D01*
X136399496Y-88512927D01*
X136692786Y-88708897D01*
X137018672Y-88843884D01*
X137364631Y-88912700D01*
X137717369Y-88912700D01*
X138063328Y-88843884D01*
X138389214Y-88708897D01*
X138682504Y-88512927D01*
X138931927Y-88263504D01*
X139127897Y-87970214D01*
X139262884Y-87644328D01*
X139331700Y-87298369D01*
X139331700Y-86945631D01*
X139262884Y-86599672D01*
X139127897Y-86273786D01*
X138931927Y-85980496D01*
X138682504Y-85731073D01*
X138389214Y-85535103D01*
X138063328Y-85400116D01*
X137717369Y-85331300D01*
X137364631Y-85331300D01*
X137018672Y-85400116D01*
X136692786Y-85535103D01*
X136399496Y-85731073D01*
X136150073Y-85980496D01*
X135954103Y-86273786D01*
X135826500Y-86581846D01*
X135698897Y-86273786D01*
X135502927Y-85980496D01*
X135253504Y-85731073D01*
X134960214Y-85535103D01*
X134634328Y-85400116D01*
X134288369Y-85331300D01*
X133935631Y-85331300D01*
X133589672Y-85400116D01*
X133263786Y-85535103D01*
X132970496Y-85731073D01*
X132721073Y-85980496D01*
X132525103Y-86273786D01*
X132390116Y-86599672D01*
X132321300Y-86945631D01*
X123317000Y-86945631D01*
X123317000Y-80973418D01*
X123374113Y-80887942D01*
X123432987Y-80745809D01*
X123463000Y-80594922D01*
X123463000Y-80441078D01*
X123432987Y-80290191D01*
X123374113Y-80148058D01*
X123288642Y-80020141D01*
X123179859Y-79911358D01*
X123051942Y-79825887D01*
X122909809Y-79767013D01*
X122758922Y-79737000D01*
X122605078Y-79737000D01*
X122454191Y-79767013D01*
X122312058Y-79825887D01*
X122184141Y-79911358D01*
X122075358Y-80020141D01*
X121989887Y-80148058D01*
X121931013Y-80290191D01*
X121901000Y-80441078D01*
X121901000Y-80594922D01*
X121931013Y-80745809D01*
X121989887Y-80887942D01*
X122047001Y-80973419D01*
X122047001Y-81632854D01*
X122032689Y-81628513D01*
X121958000Y-81621157D01*
X120358000Y-81621157D01*
X120283311Y-81628513D01*
X120211492Y-81650299D01*
X120145304Y-81685678D01*
X120087289Y-81733289D01*
X120039678Y-81791304D01*
X120004299Y-81857492D01*
X119982513Y-81929311D01*
X119975157Y-82004000D01*
X119888000Y-82004000D01*
X119888000Y-78696420D01*
X121499565Y-77084855D01*
X121518948Y-77068948D01*
X121582429Y-76991595D01*
X121629601Y-76903343D01*
X121658649Y-76807585D01*
X121666000Y-76732947D01*
X121666000Y-76732944D01*
X121668457Y-76708000D01*
X121666000Y-76683056D01*
X121666000Y-71755954D01*
X121722816Y-71825185D01*
X121747046Y-71845070D01*
X123226934Y-73324960D01*
X123246815Y-73349185D01*
X123271039Y-73369065D01*
X123271042Y-73369068D01*
X123343505Y-73428537D01*
X123356710Y-73435595D01*
X123453820Y-73487502D01*
X123573518Y-73523812D01*
X123666808Y-73533000D01*
X123666818Y-73533000D01*
X123697999Y-73536071D01*
X123729180Y-73533000D01*
X126501261Y-73533000D01*
X126473000Y-73675078D01*
X126473000Y-73828922D01*
X126503013Y-73979809D01*
X126561887Y-74121942D01*
X126647358Y-74249859D01*
X126756141Y-74358642D01*
X126884058Y-74444113D01*
X127026191Y-74502987D01*
X127177078Y-74533000D01*
X127316580Y-74533000D01*
X137072149Y-84288570D01*
X137088052Y-84307948D01*
X137107429Y-84323850D01*
X137165404Y-84371429D01*
X137253655Y-84418600D01*
X137253657Y-84418601D01*
X137349415Y-84447649D01*
X137424053Y-84455000D01*
X137424055Y-84455000D01*
X137448999Y-84457457D01*
X137473943Y-84455000D01*
X141140580Y-84455000D01*
X142094000Y-85408421D01*
X142094000Y-85547922D01*
X142124013Y-85698809D01*
X142182887Y-85840942D01*
X142268358Y-85968859D01*
X142377141Y-86077642D01*
X142505058Y-86163113D01*
X142647191Y-86221987D01*
X142798078Y-86252000D01*
X142951922Y-86252000D01*
X143102809Y-86221987D01*
X143244942Y-86163113D01*
X143372859Y-86077642D01*
X143481642Y-85968859D01*
X143567113Y-85840942D01*
X143625987Y-85698809D01*
X143656000Y-85547922D01*
X143656000Y-85394078D01*
X143625987Y-85243191D01*
X143567113Y-85101058D01*
X143481642Y-84973141D01*
X143372859Y-84864358D01*
X143244942Y-84778887D01*
X143102809Y-84720013D01*
X142951922Y-84690000D01*
X142812421Y-84690000D01*
X141727855Y-83605435D01*
X141711948Y-83586052D01*
X141634595Y-83522571D01*
X141546343Y-83475399D01*
X141450585Y-83446351D01*
X141375947Y-83439000D01*
X141375944Y-83439000D01*
X141351000Y-83436543D01*
X141326056Y-83439000D01*
X137659421Y-83439000D01*
X128035000Y-73814580D01*
X128035000Y-73675078D01*
X128006739Y-73533000D01*
X131370582Y-73533000D01*
X131456058Y-73590113D01*
X131598191Y-73648987D01*
X131749078Y-73679000D01*
X131902922Y-73679000D01*
X132053809Y-73648987D01*
X132195942Y-73590113D01*
X132281418Y-73533000D01*
X135434582Y-73533000D01*
X135520058Y-73590113D01*
X135662191Y-73648987D01*
X135813078Y-73679000D01*
X135966922Y-73679000D01*
X136117809Y-73648987D01*
X136131301Y-73643398D01*
X136125000Y-73675078D01*
X136125000Y-73828922D01*
X136155013Y-73979809D01*
X136213887Y-74121942D01*
X136299358Y-74249859D01*
X136398000Y-74348501D01*
X136398001Y-75159044D01*
X136398000Y-75159054D01*
X136398001Y-75608579D01*
X135952580Y-76054000D01*
X135813078Y-76054000D01*
X135662191Y-76084013D01*
X135520058Y-76142887D01*
X135392141Y-76228358D01*
X135283358Y-76337141D01*
X135197887Y-76465058D01*
X135139013Y-76607191D01*
X135109000Y-76758078D01*
X135109000Y-76911922D01*
X135139013Y-77062809D01*
X135197887Y-77204942D01*
X135283358Y-77332859D01*
X135392141Y-77441642D01*
X135520058Y-77527113D01*
X135662191Y-77585987D01*
X135813078Y-77616000D01*
X135966922Y-77616000D01*
X136117809Y-77585987D01*
X136259942Y-77527113D01*
X136387859Y-77441642D01*
X136496642Y-77332859D01*
X136582113Y-77204942D01*
X136640987Y-77062809D01*
X136671000Y-76911922D01*
X136671000Y-76772420D01*
X137247571Y-76195850D01*
X137266948Y-76179948D01*
X137307846Y-76130113D01*
X137330429Y-76102596D01*
X137377600Y-76014344D01*
X137377601Y-76014343D01*
X137406649Y-75918585D01*
X137414000Y-75843947D01*
X137414000Y-75843944D01*
X137416457Y-75819000D01*
X137414000Y-75794056D01*
X137414000Y-74348501D01*
X137512642Y-74249859D01*
X137598113Y-74121942D01*
X137656987Y-73979809D01*
X137687000Y-73828922D01*
X137687000Y-73675078D01*
X137658739Y-73533000D01*
X141245862Y-73533000D01*
X141235013Y-73559191D01*
X141205000Y-73710078D01*
X141205000Y-73863922D01*
X141235013Y-74014809D01*
X141293887Y-74156942D01*
X141379358Y-74284859D01*
X141478000Y-74383501D01*
X141478001Y-77699046D01*
X141475543Y-77724000D01*
X141485352Y-77823584D01*
X141514400Y-77919343D01*
X141561571Y-78007595D01*
X141605868Y-78061571D01*
X141625053Y-78084948D01*
X141644430Y-78100850D01*
X147832149Y-84288570D01*
X147848052Y-84307948D01*
X147867429Y-84323850D01*
X147925404Y-84371429D01*
X147972576Y-84396643D01*
X148013657Y-84418601D01*
X148109415Y-84447649D01*
X148184053Y-84455000D01*
X148184056Y-84455000D01*
X148209000Y-84457457D01*
X148233944Y-84455000D01*
X150660499Y-84455000D01*
X150759141Y-84553642D01*
X150887058Y-84639113D01*
X151029191Y-84697987D01*
X151180078Y-84728000D01*
X151333922Y-84728000D01*
X151484809Y-84697987D01*
X151626942Y-84639113D01*
X151754859Y-84553642D01*
X151863642Y-84444859D01*
X151949113Y-84316942D01*
X152007987Y-84174809D01*
X152038000Y-84023922D01*
X152038000Y-83870078D01*
X152007987Y-83719191D01*
X151949113Y-83577058D01*
X151863642Y-83449141D01*
X151754859Y-83340358D01*
X151626942Y-83254887D01*
X151484809Y-83196013D01*
X151333922Y-83166000D01*
X151180078Y-83166000D01*
X151029191Y-83196013D01*
X150887058Y-83254887D01*
X150759141Y-83340358D01*
X150660499Y-83439000D01*
X148419421Y-83439000D01*
X142494000Y-77513580D01*
X142494000Y-74383501D01*
X142592642Y-74284859D01*
X142678113Y-74156942D01*
X142736987Y-74014809D01*
X142767000Y-73863922D01*
X142767000Y-73710078D01*
X142736987Y-73559191D01*
X142726138Y-73533000D01*
X151182582Y-73533000D01*
X151268058Y-73590113D01*
X151410191Y-73648987D01*
X151561078Y-73679000D01*
X151714922Y-73679000D01*
X151865809Y-73648987D01*
X152007942Y-73590113D01*
X152135859Y-73504642D01*
X152244642Y-73395859D01*
X152330113Y-73267942D01*
X152388987Y-73125809D01*
X152419000Y-72974922D01*
X152419000Y-72821078D01*
X152388987Y-72670191D01*
X152330113Y-72528058D01*
X152244642Y-72400141D01*
X152135859Y-72291358D01*
X152007942Y-72205887D01*
X151865809Y-72147013D01*
X151714922Y-72117000D01*
X151561078Y-72117000D01*
X151410191Y-72147013D01*
X151268058Y-72205887D01*
X151182582Y-72263000D01*
X142726138Y-72263000D01*
X142736987Y-72236809D01*
X142767000Y-72085922D01*
X142767000Y-71932078D01*
X142736987Y-71781191D01*
X142678113Y-71639058D01*
X142592642Y-71511141D01*
X142483859Y-71402358D01*
X142355942Y-71316887D01*
X142213809Y-71258013D01*
X142062922Y-71228000D01*
X141923421Y-71228000D01*
X135890000Y-65194580D01*
X135890000Y-60540501D01*
X135988642Y-60441859D01*
X136074113Y-60313942D01*
X136132987Y-60171809D01*
X136163000Y-60020922D01*
X136163000Y-59867078D01*
X136132987Y-59716191D01*
X136090276Y-59613078D01*
X137649000Y-59613078D01*
X137649000Y-59766922D01*
X137679013Y-59917809D01*
X137737887Y-60059942D01*
X137823358Y-60187859D01*
X137932141Y-60296642D01*
X138013120Y-60350750D01*
X142512991Y-64850622D01*
X142512992Y-66808928D01*
X142505013Y-66828191D01*
X142475000Y-66979078D01*
X142475000Y-67132922D01*
X142505013Y-67283809D01*
X142563887Y-67425942D01*
X142649358Y-67553859D01*
X142758141Y-67662642D01*
X142886058Y-67748113D01*
X143028191Y-67806987D01*
X143179078Y-67837000D01*
X143332922Y-67837000D01*
X143419775Y-67819724D01*
X143411358Y-67828141D01*
X143325887Y-67956058D01*
X143267013Y-68098191D01*
X143237000Y-68249078D01*
X143237000Y-68402922D01*
X143267013Y-68553809D01*
X143325887Y-68695942D01*
X143411358Y-68823859D01*
X143520141Y-68932642D01*
X143562582Y-68961000D01*
X143471501Y-68961000D01*
X143372859Y-68862358D01*
X143244942Y-68776887D01*
X143102809Y-68718013D01*
X142951922Y-68688000D01*
X142798078Y-68688000D01*
X142647191Y-68718013D01*
X142505058Y-68776887D01*
X142377141Y-68862358D01*
X142268358Y-68971141D01*
X142182887Y-69099058D01*
X142124013Y-69241191D01*
X142094000Y-69392078D01*
X142094000Y-69545922D01*
X142124013Y-69696809D01*
X142182887Y-69838942D01*
X142268358Y-69966859D01*
X142377141Y-70075642D01*
X142505058Y-70161113D01*
X142647191Y-70219987D01*
X142798078Y-70250000D01*
X142951922Y-70250000D01*
X143102809Y-70219987D01*
X143244942Y-70161113D01*
X143372859Y-70075642D01*
X143471501Y-69977000D01*
X144374056Y-69977000D01*
X144399000Y-69979457D01*
X144423944Y-69977000D01*
X144423947Y-69977000D01*
X144498585Y-69969649D01*
X144594343Y-69940601D01*
X144682595Y-69893429D01*
X144759948Y-69829948D01*
X144775855Y-69810565D01*
X145629565Y-68956855D01*
X145648948Y-68940948D01*
X145712429Y-68863595D01*
X145748559Y-68796000D01*
X148423157Y-68796000D01*
X148423157Y-70396000D01*
X148430513Y-70470689D01*
X148452299Y-70542508D01*
X148487678Y-70608696D01*
X148535289Y-70666711D01*
X148593304Y-70714322D01*
X148659492Y-70749701D01*
X148731311Y-70771487D01*
X148806000Y-70778843D01*
X150406000Y-70778843D01*
X150480689Y-70771487D01*
X150552508Y-70749701D01*
X150618696Y-70714322D01*
X150676711Y-70666711D01*
X150724322Y-70608696D01*
X150759701Y-70542508D01*
X150781487Y-70470689D01*
X150788843Y-70396000D01*
X150788843Y-68796000D01*
X150781487Y-68721311D01*
X150759701Y-68649492D01*
X150724322Y-68583304D01*
X150676711Y-68525289D01*
X150618696Y-68477678D01*
X150552508Y-68442299D01*
X150480689Y-68420513D01*
X150406000Y-68413157D01*
X148806000Y-68413157D01*
X148731311Y-68420513D01*
X148659492Y-68442299D01*
X148593304Y-68477678D01*
X148535289Y-68525289D01*
X148487678Y-68583304D01*
X148452299Y-68649492D01*
X148430513Y-68721311D01*
X148423157Y-68796000D01*
X145748559Y-68796000D01*
X145759601Y-68775343D01*
X145788649Y-68679585D01*
X145796000Y-68604947D01*
X145796000Y-68604944D01*
X145798457Y-68580000D01*
X145796000Y-68555056D01*
X145796000Y-63407600D01*
X145798457Y-63382656D01*
X145793489Y-63332214D01*
X145788649Y-63283071D01*
X145759601Y-63187313D01*
X145712429Y-63099061D01*
X145648948Y-63021708D01*
X145629565Y-63005801D01*
X142698672Y-60074908D01*
X142698672Y-59935406D01*
X142668659Y-59784519D01*
X142609785Y-59642386D01*
X142524314Y-59514469D01*
X142415531Y-59405686D01*
X142287614Y-59320215D01*
X142145481Y-59261341D01*
X141994594Y-59231328D01*
X141840750Y-59231328D01*
X141689863Y-59261341D01*
X141547730Y-59320215D01*
X141419813Y-59405686D01*
X141311030Y-59514469D01*
X141230549Y-59634918D01*
X140614750Y-59019120D01*
X140560642Y-58938141D01*
X140451859Y-58829358D01*
X140323942Y-58743887D01*
X140181809Y-58685013D01*
X140030922Y-58655000D01*
X139877078Y-58655000D01*
X139726191Y-58685013D01*
X139584058Y-58743887D01*
X139456141Y-58829358D01*
X139347358Y-58938141D01*
X139261887Y-59066058D01*
X139203013Y-59208191D01*
X139173615Y-59355985D01*
X139090750Y-59273120D01*
X139036642Y-59192141D01*
X138927859Y-59083358D01*
X138799942Y-58997887D01*
X138657809Y-58939013D01*
X138506922Y-58909000D01*
X138353078Y-58909000D01*
X138202191Y-58939013D01*
X138060058Y-58997887D01*
X137932141Y-59083358D01*
X137823358Y-59192141D01*
X137737887Y-59320058D01*
X137679013Y-59462191D01*
X137649000Y-59613078D01*
X136090276Y-59613078D01*
X136074113Y-59574058D01*
X135988642Y-59446141D01*
X135879859Y-59337358D01*
X135751942Y-59251887D01*
X135609809Y-59193013D01*
X135458922Y-59163000D01*
X135305078Y-59163000D01*
X135154191Y-59193013D01*
X135012058Y-59251887D01*
X134884141Y-59337358D01*
X134775358Y-59446141D01*
X134689887Y-59574058D01*
X134631013Y-59716191D01*
X134601000Y-59867078D01*
X134601000Y-60020922D01*
X134631013Y-60171809D01*
X134689887Y-60313942D01*
X134775358Y-60441859D01*
X134874000Y-60540501D01*
X134874001Y-65380046D01*
X134871543Y-65405000D01*
X134876704Y-65457396D01*
X134881352Y-65504585D01*
X134885300Y-65517599D01*
X134910400Y-65600343D01*
X134957571Y-65688595D01*
X135005150Y-65746570D01*
X135021053Y-65765948D01*
X135040430Y-65781850D01*
X141205000Y-71946421D01*
X141205000Y-72085922D01*
X141235013Y-72236809D01*
X141245862Y-72263000D01*
X137658739Y-72263000D01*
X137687000Y-72120922D01*
X137687000Y-71967078D01*
X137656987Y-71816191D01*
X137598113Y-71674058D01*
X137512642Y-71546141D01*
X137414000Y-71447499D01*
X137414000Y-70128943D01*
X137416457Y-70103999D01*
X137412872Y-70067601D01*
X137406649Y-70004415D01*
X137377601Y-69908657D01*
X137376406Y-69906421D01*
X137330429Y-69820404D01*
X137282850Y-69762429D01*
X137266948Y-69743052D01*
X137247571Y-69727150D01*
X133858000Y-66337580D01*
X133858000Y-60540501D01*
X133956642Y-60441859D01*
X134042113Y-60313942D01*
X134100987Y-60171809D01*
X134131000Y-60020922D01*
X134131000Y-59867078D01*
X134100987Y-59716191D01*
X134042113Y-59574058D01*
X133956642Y-59446141D01*
X133847859Y-59337358D01*
X133719942Y-59251887D01*
X133577809Y-59193013D01*
X133426922Y-59163000D01*
X133273078Y-59163000D01*
X133122191Y-59193013D01*
X132980058Y-59251887D01*
X132852141Y-59337358D01*
X132743358Y-59446141D01*
X132657887Y-59574058D01*
X132599013Y-59716191D01*
X132569000Y-59867078D01*
X132569000Y-60020922D01*
X132599013Y-60171809D01*
X132657887Y-60313942D01*
X132743358Y-60441859D01*
X132842000Y-60540501D01*
X132842001Y-66523046D01*
X132839543Y-66548000D01*
X132847153Y-66625260D01*
X132849352Y-66647585D01*
X132861023Y-66686058D01*
X132878400Y-66743343D01*
X132925571Y-66831595D01*
X132958638Y-66871887D01*
X132989053Y-66908948D01*
X133008430Y-66924850D01*
X134515154Y-68431575D01*
X134478689Y-68420513D01*
X134404000Y-68413157D01*
X132804000Y-68413157D01*
X132729311Y-68420513D01*
X132657492Y-68442299D01*
X132591304Y-68477678D01*
X132533289Y-68525289D01*
X132485678Y-68583304D01*
X132450299Y-68649492D01*
X132428513Y-68721311D01*
X132421157Y-68796000D01*
X132421157Y-70396000D01*
X132428513Y-70470689D01*
X132450299Y-70542508D01*
X132485678Y-70608696D01*
X132533289Y-70666711D01*
X132591304Y-70714322D01*
X132657492Y-70749701D01*
X132729311Y-70771487D01*
X132804000Y-70778843D01*
X134404000Y-70778843D01*
X134478689Y-70771487D01*
X134550508Y-70749701D01*
X134616696Y-70714322D01*
X134674711Y-70666711D01*
X134722322Y-70608696D01*
X134757701Y-70542508D01*
X134779487Y-70470689D01*
X134786843Y-70396000D01*
X134786843Y-68796000D01*
X134779487Y-68721311D01*
X134768425Y-68684846D01*
X136398000Y-70314421D01*
X136398001Y-71447498D01*
X136299358Y-71546141D01*
X136213887Y-71674058D01*
X136155013Y-71816191D01*
X136125000Y-71967078D01*
X136125000Y-72120922D01*
X136131301Y-72152602D01*
X136117809Y-72147013D01*
X135966922Y-72117000D01*
X135813078Y-72117000D01*
X135662191Y-72147013D01*
X135520058Y-72205887D01*
X135434582Y-72263000D01*
X132281418Y-72263000D01*
X132195942Y-72205887D01*
X132053809Y-72147013D01*
X131902922Y-72117000D01*
X131749078Y-72117000D01*
X131598191Y-72147013D01*
X131456058Y-72205887D01*
X131370582Y-72263000D01*
X128006739Y-72263000D01*
X128035000Y-72120922D01*
X128035000Y-71967078D01*
X128004987Y-71816191D01*
X127946113Y-71674058D01*
X127860642Y-71546141D01*
X127762000Y-71447499D01*
X127762000Y-68922501D01*
X127772141Y-68932642D01*
X127900058Y-69018113D01*
X128042191Y-69076987D01*
X128193078Y-69107000D01*
X128346922Y-69107000D01*
X128497809Y-69076987D01*
X128639942Y-69018113D01*
X128767859Y-68932642D01*
X128876642Y-68823859D01*
X128962113Y-68695942D01*
X129002096Y-68599416D01*
X130560346Y-67041166D01*
X130589422Y-67017304D01*
X130649857Y-66943663D01*
X130684645Y-66901275D01*
X130727542Y-66821020D01*
X130755402Y-66768897D01*
X130798974Y-66625260D01*
X130810000Y-66513308D01*
X130810000Y-66513305D01*
X130813686Y-66475882D01*
X130810000Y-66438459D01*
X130810000Y-60116442D01*
X130829000Y-60020922D01*
X130829000Y-59867078D01*
X130798987Y-59716191D01*
X130740113Y-59574058D01*
X130654642Y-59446141D01*
X130545859Y-59337358D01*
X130417942Y-59251887D01*
X130275809Y-59193013D01*
X130124922Y-59163000D01*
X129971078Y-59163000D01*
X129820191Y-59193013D01*
X129678453Y-59251723D01*
X129638642Y-59192141D01*
X129529859Y-59083358D01*
X129401942Y-58997887D01*
X129259809Y-58939013D01*
X129108922Y-58909000D01*
X128955078Y-58909000D01*
X128804191Y-58939013D01*
X128662058Y-58997887D01*
X128534141Y-59083358D01*
X128425358Y-59192141D01*
X128339887Y-59320058D01*
X128281013Y-59462191D01*
X128251000Y-59613078D01*
X128251000Y-59766922D01*
X128270000Y-59862443D01*
X128270001Y-65724368D01*
X127599120Y-66395250D01*
X127518141Y-66449358D01*
X127409358Y-66558141D01*
X127323887Y-66686058D01*
X127265013Y-66828191D01*
X127235000Y-66979078D01*
X127235000Y-67132922D01*
X127265013Y-67283809D01*
X127323887Y-67425942D01*
X127409358Y-67553859D01*
X127518141Y-67662642D01*
X127646058Y-67748113D01*
X127685807Y-67764578D01*
X127672983Y-67780204D01*
X127633355Y-67828490D01*
X127619526Y-67854363D01*
X127562598Y-67960868D01*
X127526217Y-68080798D01*
X127519013Y-68098191D01*
X127489000Y-68249078D01*
X127489000Y-68350579D01*
X126746000Y-67607580D01*
X126746000Y-60159501D01*
X126844642Y-60060859D01*
X126930113Y-59932942D01*
X126988987Y-59790809D01*
X127019000Y-59639922D01*
X127019000Y-59486078D01*
X126988987Y-59335191D01*
X126930113Y-59193058D01*
X126844642Y-59065141D01*
X126735859Y-58956358D01*
X126607942Y-58870887D01*
X126465809Y-58812013D01*
X126314922Y-58782000D01*
X126161078Y-58782000D01*
X126010191Y-58812013D01*
X125868058Y-58870887D01*
X125740141Y-58956358D01*
X125631358Y-59065141D01*
X125545887Y-59193058D01*
X125487013Y-59335191D01*
X125457000Y-59486078D01*
X125457000Y-59639922D01*
X125487013Y-59790809D01*
X125545887Y-59932942D01*
X125631358Y-60060859D01*
X125730000Y-60159501D01*
X125730001Y-67793046D01*
X125727543Y-67818000D01*
X125731125Y-67854363D01*
X125737352Y-67917585D01*
X125748456Y-67954189D01*
X125766400Y-68013343D01*
X125813571Y-68101595D01*
X125835911Y-68128816D01*
X125877053Y-68178948D01*
X125896430Y-68194850D01*
X126746000Y-69044421D01*
X126746001Y-71447498D01*
X126647358Y-71546141D01*
X126561887Y-71674058D01*
X126503013Y-71816191D01*
X126473000Y-71967078D01*
X126473000Y-72120922D01*
X126501261Y-72263000D01*
X123961026Y-72263000D01*
X122809000Y-71110976D01*
X122809000Y-69162418D01*
X122866113Y-69076942D01*
X122924987Y-68934809D01*
X122955000Y-68783922D01*
X122955000Y-68630078D01*
X122924987Y-68479191D01*
X122866113Y-68337058D01*
X122780642Y-68209141D01*
X122671859Y-68100358D01*
X122543942Y-68014887D01*
X122401809Y-67956013D01*
X122250922Y-67926000D01*
X122097078Y-67926000D01*
X121946191Y-67956013D01*
X121804058Y-68014887D01*
X121676141Y-68100358D01*
X121666000Y-68110499D01*
X121666000Y-61424420D01*
X122619421Y-60471000D01*
X122758922Y-60471000D01*
X122909809Y-60440987D01*
X123051942Y-60382113D01*
X123179859Y-60296642D01*
X123288642Y-60187859D01*
X123374113Y-60059942D01*
X123432987Y-59917809D01*
X123463000Y-59766922D01*
X123463000Y-59613078D01*
X123432987Y-59462191D01*
X123374113Y-59320058D01*
X123288642Y-59192141D01*
X123179859Y-59083358D01*
X123051942Y-58997887D01*
X122909809Y-58939013D01*
X122758922Y-58909000D01*
X122605078Y-58909000D01*
X122454191Y-58939013D01*
X122312058Y-58997887D01*
X122184141Y-59083358D01*
X122075358Y-59192141D01*
X121989887Y-59320058D01*
X121931013Y-59462191D01*
X121901000Y-59613078D01*
X121901000Y-59752579D01*
X120904000Y-60749580D01*
X120904000Y-60286501D01*
X121002642Y-60187859D01*
X121088113Y-60059942D01*
X121146987Y-59917809D01*
X121177000Y-59766922D01*
X121177000Y-59613078D01*
X121146987Y-59462191D01*
X121088113Y-59320058D01*
X121002642Y-59192141D01*
X120893859Y-59083358D01*
X120765942Y-58997887D01*
X120623809Y-58939013D01*
X120472922Y-58909000D01*
X120319078Y-58909000D01*
X120168191Y-58939013D01*
X120026058Y-58997887D01*
X119898141Y-59083358D01*
X119789358Y-59192141D01*
X119703887Y-59320058D01*
X119645013Y-59462191D01*
X119615000Y-59613078D01*
X119615000Y-59766922D01*
X119645013Y-59917809D01*
X119703887Y-60059942D01*
X119789358Y-60187859D01*
X119888000Y-60286501D01*
X119888001Y-68999498D01*
X119789358Y-69098141D01*
X119703887Y-69226058D01*
X119645013Y-69368191D01*
X119615000Y-69519078D01*
X119615000Y-69672922D01*
X119645013Y-69823809D01*
X119703887Y-69965942D01*
X119789358Y-70093859D01*
X119898141Y-70202642D01*
X120026058Y-70288113D01*
X120168191Y-70346987D01*
X120319078Y-70377000D01*
X120472922Y-70377000D01*
X120623809Y-70346987D01*
X120650001Y-70336138D01*
X120650001Y-76497579D01*
X119038435Y-78109145D01*
X119019052Y-78125052D01*
X118955571Y-78202405D01*
X118908399Y-78290658D01*
X118879351Y-78386416D01*
X118872000Y-78461053D01*
X118869543Y-78486000D01*
X97182076Y-78486000D01*
X97237710Y-78430366D01*
X97446189Y-78118356D01*
X97589791Y-77771668D01*
X97663000Y-77403626D01*
X97663000Y-77028374D01*
X97589791Y-76660332D01*
X97446189Y-76313644D01*
X97237710Y-76001634D01*
X96972366Y-75736290D01*
X96660356Y-75527811D01*
X96313668Y-75384209D01*
X95945626Y-75311000D01*
X95570374Y-75311000D01*
X95202332Y-75384209D01*
X94855644Y-75527811D01*
X94543634Y-75736290D01*
X94278290Y-76001634D01*
X94069811Y-76313644D01*
X93926209Y-76660332D01*
X93853000Y-77028374D01*
X93779791Y-76660332D01*
X93636189Y-76313644D01*
X93427710Y-76001634D01*
X93162366Y-75736290D01*
X92850356Y-75527811D01*
X92503668Y-75384209D01*
X92135626Y-75311000D01*
X91760374Y-75311000D01*
X91392332Y-75384209D01*
X91045644Y-75527811D01*
X90733634Y-75736290D01*
X90468290Y-76001634D01*
X90259811Y-76313644D01*
X90249196Y-76339272D01*
X90163827Y-76133173D01*
X89913652Y-75758760D01*
X89595240Y-75440348D01*
X89220827Y-75190173D01*
X88804802Y-75017850D01*
X88363151Y-74930000D01*
X87912849Y-74930000D01*
X87471198Y-75017850D01*
X87055173Y-75190173D01*
X86680760Y-75440348D01*
X86362348Y-75758760D01*
X86112173Y-76133173D01*
X85939850Y-76549198D01*
X85852000Y-76990849D01*
X78644242Y-76990849D01*
X78729859Y-76933642D01*
X78838642Y-76824859D01*
X78924113Y-76696942D01*
X78982987Y-76554809D01*
X79013000Y-76403922D01*
X79013000Y-76250078D01*
X79006818Y-76219000D01*
X79070922Y-76219000D01*
X79221809Y-76188987D01*
X79363942Y-76130113D01*
X79491859Y-76044642D01*
X79600642Y-75935859D01*
X79686113Y-75807942D01*
X79744987Y-75665809D01*
X79775000Y-75514922D01*
X79775000Y-75361078D01*
X79767418Y-75322959D01*
X79851623Y-75306210D01*
X79993756Y-75247336D01*
X80121673Y-75161865D01*
X80230456Y-75053082D01*
X80315927Y-74925165D01*
X80374801Y-74783032D01*
X80404814Y-74632145D01*
X80404814Y-74599078D01*
X81896000Y-74599078D01*
X81896000Y-74752922D01*
X81926013Y-74903809D01*
X81930522Y-74914695D01*
X81938890Y-74999652D01*
X82033296Y-75310867D01*
X82186602Y-75597683D01*
X82392919Y-75849081D01*
X82644317Y-76055398D01*
X82931133Y-76208704D01*
X83242348Y-76303110D01*
X83327305Y-76311478D01*
X83338191Y-76315987D01*
X83489078Y-76346000D01*
X83642922Y-76346000D01*
X83793809Y-76315987D01*
X83804695Y-76311478D01*
X83889652Y-76303110D01*
X84200867Y-76208704D01*
X84487683Y-76055398D01*
X84676084Y-75900782D01*
X86916866Y-73660000D01*
X89489558Y-73660000D01*
X89585078Y-73679000D01*
X89738922Y-73679000D01*
X89889809Y-73648987D01*
X89900692Y-73644479D01*
X89985653Y-73636111D01*
X90296867Y-73541705D01*
X90583684Y-73388398D01*
X90835082Y-73182082D01*
X91041398Y-72930684D01*
X91194705Y-72643867D01*
X91289111Y-72332653D01*
X91297479Y-72247692D01*
X91301987Y-72236809D01*
X91332000Y-72085922D01*
X91332000Y-71932078D01*
X91301987Y-71781191D01*
X91297479Y-71770308D01*
X91289111Y-71685347D01*
X91194705Y-71374133D01*
X91041398Y-71087316D01*
X90835082Y-70835918D01*
X90583684Y-70629602D01*
X90296867Y-70476295D01*
X89985653Y-70381889D01*
X89900692Y-70373521D01*
X89889809Y-70369013D01*
X89738922Y-70339000D01*
X89585078Y-70339000D01*
X89489558Y-70358000D01*
X86314101Y-70358000D01*
X86233000Y-70350012D01*
X86151899Y-70358000D01*
X86151896Y-70358000D01*
X85909347Y-70381889D01*
X85670566Y-70454323D01*
X85598132Y-70476295D01*
X85311338Y-70629590D01*
X85311316Y-70629602D01*
X85059918Y-70835918D01*
X85008213Y-70898921D01*
X82341218Y-73565916D01*
X82186602Y-73754317D01*
X82033296Y-74041133D01*
X81938890Y-74352348D01*
X81930522Y-74437305D01*
X81926013Y-74448191D01*
X81896000Y-74599078D01*
X80404814Y-74599078D01*
X80404814Y-74478301D01*
X80397394Y-74441000D01*
X80467922Y-74441000D01*
X80618809Y-74410987D01*
X80760942Y-74352113D01*
X80888859Y-74266642D01*
X80997642Y-74157859D01*
X81083113Y-74029942D01*
X81141987Y-73887809D01*
X81172000Y-73736922D01*
X81172000Y-73583078D01*
X81141987Y-73432191D01*
X81083113Y-73290058D01*
X80997642Y-73162141D01*
X80888859Y-73053358D01*
X80798901Y-72993250D01*
X80888859Y-72933142D01*
X80997642Y-72824359D01*
X81083113Y-72696442D01*
X81141987Y-72554309D01*
X81162043Y-72453481D01*
X83624100Y-69991424D01*
X98933000Y-69991424D01*
X98933000Y-70216576D01*
X98976925Y-70437401D01*
X99063087Y-70645413D01*
X99188174Y-70832620D01*
X99347380Y-70991826D01*
X99534587Y-71116913D01*
X99742599Y-71203075D01*
X99963424Y-71247000D01*
X100188576Y-71247000D01*
X100409401Y-71203075D01*
X100617413Y-71116913D01*
X100804620Y-70991826D01*
X100963826Y-70832620D01*
X101088913Y-70645413D01*
X101175075Y-70437401D01*
X101219000Y-70216576D01*
X101219000Y-69991424D01*
X101175075Y-69770599D01*
X101088913Y-69562587D01*
X100963826Y-69375380D01*
X100804620Y-69216174D01*
X100617413Y-69091087D01*
X100409401Y-69004925D01*
X100188576Y-68961000D01*
X99963424Y-68961000D01*
X99742599Y-69004925D01*
X99534587Y-69091087D01*
X99347380Y-69216174D01*
X99188174Y-69375380D01*
X99063087Y-69562587D01*
X98976925Y-69770599D01*
X98933000Y-69991424D01*
X83624100Y-69991424D01*
X84400525Y-69215000D01*
X97588582Y-69215000D01*
X97674058Y-69272113D01*
X97816191Y-69330987D01*
X97967078Y-69361000D01*
X98120922Y-69361000D01*
X98271809Y-69330987D01*
X98413942Y-69272113D01*
X98541859Y-69186642D01*
X98650642Y-69077859D01*
X98736113Y-68949942D01*
X98794987Y-68807809D01*
X98825000Y-68656922D01*
X98825000Y-68503078D01*
X98794987Y-68352191D01*
X98736113Y-68210058D01*
X98650642Y-68082141D01*
X98541859Y-67973358D01*
X98413942Y-67887887D01*
X98271809Y-67829013D01*
X98120922Y-67799000D01*
X97967078Y-67799000D01*
X97816191Y-67829013D01*
X97674058Y-67887887D01*
X97588582Y-67945000D01*
X84168680Y-67945000D01*
X84158430Y-67943990D01*
X84653574Y-67448847D01*
X84672951Y-67432945D01*
X84705264Y-67393571D01*
X84736432Y-67355593D01*
X84783603Y-67267342D01*
X84783604Y-67267339D01*
X84812652Y-67171582D01*
X84820003Y-67096944D01*
X84820003Y-67096942D01*
X84822460Y-67071998D01*
X84820003Y-67047054D01*
X84820003Y-62307631D01*
X92951300Y-62307631D01*
X92951300Y-62660369D01*
X93020116Y-63006328D01*
X93155103Y-63332214D01*
X93351073Y-63625504D01*
X93600496Y-63874927D01*
X93893786Y-64070897D01*
X94201846Y-64198500D01*
X93893786Y-64326103D01*
X93600496Y-64522073D01*
X93351073Y-64771496D01*
X93155103Y-65064786D01*
X93020116Y-65390672D01*
X92951300Y-65736631D01*
X92951300Y-66089369D01*
X93020116Y-66435328D01*
X93155103Y-66761214D01*
X93351073Y-67054504D01*
X93600496Y-67303927D01*
X93893786Y-67499897D01*
X94219672Y-67634884D01*
X94565631Y-67703700D01*
X94918369Y-67703700D01*
X95264328Y-67634884D01*
X95590214Y-67499897D01*
X95883504Y-67303927D01*
X96132927Y-67054504D01*
X96328897Y-66761214D01*
X96463884Y-66435328D01*
X96532700Y-66089369D01*
X96532700Y-65736631D01*
X96463884Y-65390672D01*
X96328897Y-65064786D01*
X96226424Y-64911424D01*
X98933000Y-64911424D01*
X98933000Y-65136576D01*
X98976925Y-65357401D01*
X99063087Y-65565413D01*
X99188174Y-65752620D01*
X99347380Y-65911826D01*
X99534587Y-66036913D01*
X99742599Y-66123075D01*
X99963424Y-66167000D01*
X100188576Y-66167000D01*
X100409401Y-66123075D01*
X100617413Y-66036913D01*
X100804620Y-65911826D01*
X100963826Y-65752620D01*
X101088913Y-65565413D01*
X101175075Y-65357401D01*
X101219000Y-65136576D01*
X101219000Y-64911424D01*
X101175075Y-64690599D01*
X101088913Y-64482587D01*
X100963826Y-64295380D01*
X100804620Y-64136174D01*
X100617413Y-64011087D01*
X100409401Y-63924925D01*
X100188576Y-63881000D01*
X99963424Y-63881000D01*
X99742599Y-63924925D01*
X99534587Y-64011087D01*
X99347380Y-64136174D01*
X99188174Y-64295380D01*
X99063087Y-64482587D01*
X98976925Y-64690599D01*
X98933000Y-64911424D01*
X96226424Y-64911424D01*
X96132927Y-64771496D01*
X95883504Y-64522073D01*
X95590214Y-64326103D01*
X95282154Y-64198500D01*
X95590214Y-64070897D01*
X95883504Y-63874927D01*
X96132927Y-63625504D01*
X96328897Y-63332214D01*
X96463884Y-63006328D01*
X96532700Y-62660369D01*
X96532700Y-62307631D01*
X96463884Y-61961672D01*
X96328897Y-61635786D01*
X96132927Y-61342496D01*
X95883504Y-61093073D01*
X95590214Y-60897103D01*
X95264328Y-60762116D01*
X94918369Y-60693300D01*
X94565631Y-60693300D01*
X94219672Y-60762116D01*
X93893786Y-60897103D01*
X93600496Y-61093073D01*
X93351073Y-61342496D01*
X93155103Y-61635786D01*
X93020116Y-61961672D01*
X92951300Y-62307631D01*
X84820003Y-62307631D01*
X84820003Y-60794501D01*
X84918645Y-60695859D01*
X85004116Y-60567942D01*
X85062990Y-60425809D01*
X85093003Y-60274922D01*
X85093003Y-60121078D01*
X85062990Y-59970191D01*
X85004116Y-59828058D01*
X84918645Y-59700141D01*
X84809862Y-59591358D01*
X84681945Y-59505887D01*
X84539812Y-59447013D01*
X84388925Y-59417000D01*
X84235081Y-59417000D01*
X84084194Y-59447013D01*
X83942061Y-59505887D01*
X83814144Y-59591358D01*
X83812002Y-59593501D01*
X83809859Y-59591358D01*
X83681942Y-59505887D01*
X83539809Y-59447013D01*
X83388922Y-59417000D01*
X83235078Y-59417000D01*
X83084191Y-59447013D01*
X82942058Y-59505887D01*
X82814141Y-59591358D01*
X82705358Y-59700141D01*
X82619887Y-59828058D01*
X82561013Y-59970191D01*
X82531000Y-60121078D01*
X82531000Y-60274922D01*
X82561013Y-60425809D01*
X82619887Y-60567942D01*
X82705358Y-60695859D01*
X82804001Y-60794502D01*
X82804001Y-61541655D01*
X82670927Y-61342496D01*
X82421504Y-61093073D01*
X82128214Y-60897103D01*
X81802328Y-60762116D01*
X81456369Y-60693300D01*
X81103631Y-60693300D01*
X80757672Y-60762116D01*
X80431786Y-60897103D01*
X80138496Y-61093073D01*
X79889073Y-61342496D01*
X79693103Y-61635786D01*
X79558116Y-61961672D01*
X79489300Y-62307631D01*
X79489300Y-62660369D01*
X79558116Y-63006328D01*
X79693103Y-63332214D01*
X79889073Y-63625504D01*
X80138496Y-63874927D01*
X80431786Y-64070897D01*
X80739846Y-64198500D01*
X80431786Y-64326103D01*
X80138496Y-64522073D01*
X79889073Y-64771496D01*
X79693103Y-65064786D01*
X79558116Y-65390672D01*
X79489300Y-65736631D01*
X79489300Y-66089369D01*
X79558116Y-66435328D01*
X79693103Y-66761214D01*
X79889073Y-67054504D01*
X80138496Y-67303927D01*
X80431786Y-67499897D01*
X80757672Y-67634884D01*
X81103631Y-67703700D01*
X81456369Y-67703700D01*
X81802328Y-67634884D01*
X82128214Y-67499897D01*
X82421504Y-67303927D01*
X82670927Y-67054504D01*
X82804001Y-66855345D01*
X82804000Y-67219514D01*
X80190990Y-69832524D01*
X80190990Y-68112924D01*
X80193447Y-68087980D01*
X80190874Y-68061859D01*
X80183639Y-67988395D01*
X80154591Y-67892637D01*
X80107419Y-67804385D01*
X80043938Y-67727032D01*
X80024555Y-67711125D01*
X79940010Y-67626580D01*
X79940010Y-67487078D01*
X79909997Y-67336191D01*
X79851123Y-67194058D01*
X79765652Y-67066141D01*
X79656869Y-66957358D01*
X79528952Y-66871887D01*
X79386819Y-66813013D01*
X79235932Y-66783000D01*
X79082088Y-66783000D01*
X78931201Y-66813013D01*
X78789068Y-66871887D01*
X78661151Y-66957358D01*
X78552368Y-67066141D01*
X78466897Y-67194058D01*
X78408023Y-67336191D01*
X78378010Y-67487078D01*
X78378010Y-67640922D01*
X78408023Y-67791809D01*
X78428600Y-67841485D01*
X78407875Y-67850070D01*
X78279958Y-67935541D01*
X78171175Y-68044324D01*
X78085704Y-68172241D01*
X78026830Y-68314374D01*
X77996817Y-68465261D01*
X77996817Y-68619105D01*
X78026830Y-68769992D01*
X78085704Y-68912125D01*
X78171175Y-69040042D01*
X78279958Y-69148825D01*
X78407875Y-69234296D01*
X78550008Y-69293170D01*
X78700895Y-69323183D01*
X78720980Y-69323183D01*
X78720981Y-70018400D01*
X77876000Y-70863379D01*
X77876000Y-58597078D01*
X143237000Y-58597078D01*
X143237000Y-58750922D01*
X143267013Y-58901809D01*
X143325887Y-59043942D01*
X143411358Y-59171859D01*
X143510001Y-59270502D01*
X143510000Y-59919053D01*
X143507543Y-59944000D01*
X143510000Y-59968944D01*
X143510000Y-59968946D01*
X143517351Y-60043584D01*
X143546399Y-60139342D01*
X143593571Y-60227595D01*
X143657052Y-60304948D01*
X143676435Y-60320855D01*
X152531150Y-69175570D01*
X156884429Y-73528850D01*
X156884434Y-73528854D01*
X158242000Y-74886421D01*
X158242001Y-83096498D01*
X158143358Y-83195141D01*
X158057887Y-83323058D01*
X157999013Y-83465191D01*
X157969000Y-83616078D01*
X157969000Y-83769922D01*
X157999013Y-83920809D01*
X158057887Y-84062942D01*
X158143358Y-84190859D01*
X158252141Y-84299642D01*
X158380058Y-84385113D01*
X158522191Y-84443987D01*
X158673078Y-84474000D01*
X158826922Y-84474000D01*
X158977809Y-84443987D01*
X159119942Y-84385113D01*
X159247859Y-84299642D01*
X159356642Y-84190859D01*
X159442113Y-84062942D01*
X159500987Y-83920809D01*
X159531000Y-83769922D01*
X159531000Y-83616078D01*
X159500987Y-83465191D01*
X159442113Y-83323058D01*
X159356642Y-83195141D01*
X159258000Y-83096499D01*
X159258000Y-74700943D01*
X159260457Y-74675999D01*
X159257753Y-74648550D01*
X159250649Y-74576415D01*
X159221601Y-74480657D01*
X159208228Y-74455638D01*
X159174429Y-74392404D01*
X159126850Y-74334429D01*
X159110948Y-74315052D01*
X159091571Y-74299150D01*
X157602854Y-72810434D01*
X157602850Y-72810429D01*
X153249570Y-68457150D01*
X144526000Y-59733580D01*
X144526000Y-59613078D01*
X146793000Y-59613078D01*
X146793000Y-59766922D01*
X146823013Y-59917809D01*
X146881887Y-60059942D01*
X146967358Y-60187859D01*
X147076141Y-60296642D01*
X147157120Y-60350750D01*
X148224730Y-61418361D01*
X148248588Y-61447432D01*
X148277658Y-61471289D01*
X148364617Y-61542655D01*
X148425032Y-61574947D01*
X148496995Y-61613412D01*
X148640632Y-61656984D01*
X148752584Y-61668010D01*
X148752587Y-61668010D01*
X148790010Y-61671696D01*
X148827433Y-61668010D01*
X150034894Y-61668010D01*
X155935235Y-67568352D01*
X155959092Y-67597422D01*
X156075122Y-67692645D01*
X156139456Y-67727032D01*
X156203348Y-67761183D01*
X156207499Y-67763402D01*
X156351136Y-67806974D01*
X156463088Y-67818000D01*
X156463090Y-67818000D01*
X156500513Y-67821686D01*
X156537936Y-67818000D01*
X157815558Y-67818000D01*
X157911078Y-67837000D01*
X158064922Y-67837000D01*
X158215809Y-67806987D01*
X158357942Y-67748113D01*
X158369001Y-67740724D01*
X158369000Y-69042557D01*
X158350000Y-69138078D01*
X158350000Y-69291922D01*
X158380013Y-69442809D01*
X158438887Y-69584942D01*
X158524358Y-69712859D01*
X158633141Y-69821642D01*
X158761058Y-69907113D01*
X158903191Y-69965987D01*
X159054078Y-69996000D01*
X159207922Y-69996000D01*
X159314744Y-69974752D01*
X159302355Y-69987141D01*
X159216884Y-70115058D01*
X159158010Y-70257191D01*
X159127997Y-70408078D01*
X159127997Y-70561922D01*
X159158010Y-70712809D01*
X159216884Y-70854942D01*
X159302355Y-70982859D01*
X159411138Y-71091642D01*
X159539055Y-71177113D01*
X159681188Y-71235987D01*
X159832075Y-71266000D01*
X159985919Y-71266000D01*
X160136806Y-71235987D01*
X160278939Y-71177113D01*
X160406856Y-71091642D01*
X160408999Y-71089500D01*
X160411141Y-71091642D01*
X160539058Y-71177113D01*
X160681191Y-71235987D01*
X160832078Y-71266000D01*
X160985922Y-71266000D01*
X161136809Y-71235987D01*
X161278942Y-71177113D01*
X161406859Y-71091642D01*
X161416501Y-71082000D01*
X161885157Y-71082000D01*
X161885157Y-72682000D01*
X161892513Y-72756689D01*
X161914299Y-72828508D01*
X161949678Y-72894696D01*
X161997289Y-72952711D01*
X162055304Y-73000322D01*
X162121492Y-73035701D01*
X162193311Y-73057487D01*
X162268000Y-73064843D01*
X163868000Y-73064843D01*
X163942689Y-73057487D01*
X164014508Y-73035701D01*
X164080696Y-73000322D01*
X164138711Y-72952711D01*
X164186322Y-72894696D01*
X164221701Y-72828508D01*
X164243487Y-72756689D01*
X164250843Y-72682000D01*
X164250843Y-71082000D01*
X164243487Y-71007311D01*
X164221701Y-70935492D01*
X164186322Y-70869304D01*
X164138711Y-70811289D01*
X164080696Y-70763678D01*
X164014508Y-70728299D01*
X163942689Y-70706513D01*
X163868000Y-70699157D01*
X162268000Y-70699157D01*
X162193311Y-70706513D01*
X162121492Y-70728299D01*
X162055304Y-70763678D01*
X161997289Y-70811289D01*
X161949678Y-70869304D01*
X161914299Y-70935492D01*
X161892513Y-71007311D01*
X161885157Y-71082000D01*
X161416501Y-71082000D01*
X161515642Y-70982859D01*
X161601113Y-70854942D01*
X161659987Y-70712809D01*
X161690000Y-70561922D01*
X161690000Y-70408078D01*
X161659987Y-70257191D01*
X161601113Y-70115058D01*
X161515642Y-69987141D01*
X161417000Y-69888499D01*
X161417000Y-65810944D01*
X161419457Y-65786000D01*
X161415614Y-65746985D01*
X161409649Y-65686415D01*
X161380601Y-65590657D01*
X161333429Y-65502405D01*
X161269948Y-65425052D01*
X161250565Y-65409145D01*
X160396855Y-64555435D01*
X160380948Y-64536052D01*
X160303595Y-64472571D01*
X160215343Y-64425399D01*
X160119585Y-64396351D01*
X160044947Y-64389000D01*
X160044944Y-64389000D01*
X160020000Y-64386543D01*
X159995056Y-64389000D01*
X158418724Y-64389000D01*
X158426113Y-64377942D01*
X158452298Y-64314726D01*
X158668951Y-64098073D01*
X158693185Y-64078185D01*
X158750784Y-64008000D01*
X158772537Y-63981495D01*
X158819778Y-63893113D01*
X158831502Y-63871180D01*
X158867812Y-63751482D01*
X158877000Y-63658192D01*
X158877000Y-63658182D01*
X158880071Y-63627001D01*
X158877000Y-63595820D01*
X158877000Y-61176000D01*
X161123157Y-61176000D01*
X161123157Y-62776000D01*
X161130513Y-62850689D01*
X161152299Y-62922508D01*
X161187678Y-62988696D01*
X161235289Y-63046711D01*
X161293304Y-63094322D01*
X161359492Y-63129701D01*
X161431311Y-63151487D01*
X161506000Y-63158843D01*
X163106000Y-63158843D01*
X163180689Y-63151487D01*
X163252508Y-63129701D01*
X163318696Y-63094322D01*
X163376711Y-63046711D01*
X163424322Y-62988696D01*
X163459701Y-62922508D01*
X163481487Y-62850689D01*
X163488843Y-62776000D01*
X163488843Y-61176000D01*
X163481487Y-61101311D01*
X163459701Y-61029492D01*
X163424322Y-60963304D01*
X163376711Y-60905289D01*
X163318696Y-60857678D01*
X163252508Y-60822299D01*
X163180689Y-60800513D01*
X163106000Y-60793157D01*
X161506000Y-60793157D01*
X161431311Y-60800513D01*
X161359492Y-60822299D01*
X161293304Y-60857678D01*
X161235289Y-60905289D01*
X161187678Y-60963304D01*
X161152299Y-61029492D01*
X161130513Y-61101311D01*
X161123157Y-61176000D01*
X158877000Y-61176000D01*
X158877000Y-48461418D01*
X158934113Y-48375942D01*
X158992987Y-48233809D01*
X159023000Y-48082922D01*
X159023000Y-47929078D01*
X158992987Y-47778191D01*
X158934113Y-47636058D01*
X158848642Y-47508141D01*
X158739859Y-47399358D01*
X158611942Y-47313887D01*
X158469809Y-47255013D01*
X158318922Y-47225000D01*
X158165078Y-47225000D01*
X158014191Y-47255013D01*
X157872058Y-47313887D01*
X157744141Y-47399358D01*
X157635358Y-47508141D01*
X157549887Y-47636058D01*
X157491013Y-47778191D01*
X157461000Y-47929078D01*
X157461000Y-48082922D01*
X157491013Y-48233809D01*
X157549887Y-48375942D01*
X157607000Y-48461418D01*
X157607001Y-62706798D01*
X157607000Y-62706808D01*
X157607000Y-63236961D01*
X157506191Y-63257013D01*
X157364058Y-63315887D01*
X157236141Y-63401358D01*
X157127358Y-63510141D01*
X157041887Y-63638058D01*
X157031527Y-63663069D01*
X153289000Y-59920542D01*
X153289000Y-59651501D01*
X153387642Y-59552859D01*
X153473113Y-59424942D01*
X153531987Y-59282809D01*
X153562000Y-59131922D01*
X153562000Y-58978078D01*
X153531987Y-58827191D01*
X153473113Y-58685058D01*
X153387642Y-58557141D01*
X153278859Y-58448358D01*
X153150942Y-58362887D01*
X153008809Y-58304013D01*
X152857922Y-58274000D01*
X152704078Y-58274000D01*
X152553191Y-58304013D01*
X152411058Y-58362887D01*
X152283141Y-58448358D01*
X152174358Y-58557141D01*
X152088887Y-58685058D01*
X152030013Y-58827191D01*
X152000000Y-58978078D01*
X152000000Y-59131922D01*
X152030013Y-59282809D01*
X152087137Y-59420717D01*
X151650352Y-58983932D01*
X151695113Y-58916942D01*
X151753987Y-58774809D01*
X151784000Y-58623922D01*
X151784000Y-58470078D01*
X151753987Y-58319191D01*
X151695113Y-58177058D01*
X151609642Y-58049141D01*
X151500859Y-57940358D01*
X151372942Y-57854887D01*
X151230809Y-57796013D01*
X151079922Y-57766000D01*
X150926078Y-57766000D01*
X150775191Y-57796013D01*
X150633058Y-57854887D01*
X150505141Y-57940358D01*
X150396358Y-58049141D01*
X150310887Y-58177058D01*
X150252013Y-58319191D01*
X150222000Y-58470078D01*
X150222000Y-58623922D01*
X150252013Y-58774809D01*
X150310887Y-58916942D01*
X150396358Y-59044859D01*
X150501943Y-59150444D01*
X150502351Y-59154584D01*
X150510668Y-59182000D01*
X149694501Y-59182000D01*
X149595859Y-59083358D01*
X149467942Y-58997887D01*
X149325809Y-58939013D01*
X149174922Y-58909000D01*
X149021078Y-58909000D01*
X148870191Y-58939013D01*
X148728058Y-58997887D01*
X148600141Y-59083358D01*
X148491358Y-59192141D01*
X148405887Y-59320058D01*
X148369510Y-59407880D01*
X148234750Y-59273120D01*
X148180642Y-59192141D01*
X148071859Y-59083358D01*
X147943942Y-58997887D01*
X147801809Y-58939013D01*
X147650922Y-58909000D01*
X147497078Y-58909000D01*
X147346191Y-58939013D01*
X147204058Y-58997887D01*
X147076141Y-59083358D01*
X146967358Y-59192141D01*
X146881887Y-59320058D01*
X146823013Y-59462191D01*
X146793000Y-59613078D01*
X144526000Y-59613078D01*
X144526000Y-59270501D01*
X144624642Y-59171859D01*
X144710113Y-59043942D01*
X144768987Y-58901809D01*
X144799000Y-58750922D01*
X144799000Y-58597078D01*
X144768987Y-58446191D01*
X144710113Y-58304058D01*
X144624642Y-58176141D01*
X144515859Y-58067358D01*
X144387942Y-57981887D01*
X144245809Y-57923013D01*
X144094922Y-57893000D01*
X143941078Y-57893000D01*
X143790191Y-57923013D01*
X143648058Y-57981887D01*
X143520141Y-58067358D01*
X143411358Y-58176141D01*
X143325887Y-58304058D01*
X143267013Y-58446191D01*
X143237000Y-58597078D01*
X77876000Y-58597078D01*
X77876000Y-52329307D01*
X105765000Y-52329307D01*
X105765000Y-52904693D01*
X105877253Y-53469024D01*
X106097444Y-54000612D01*
X106417112Y-54479029D01*
X106823971Y-54885888D01*
X107302388Y-55205556D01*
X107833976Y-55425747D01*
X108398307Y-55538000D01*
X108973693Y-55538000D01*
X109538024Y-55425747D01*
X110069612Y-55205556D01*
X110548029Y-54885888D01*
X110954888Y-54479029D01*
X111274556Y-54000612D01*
X111494747Y-53469024D01*
X111607000Y-52904693D01*
X111607000Y-52329307D01*
X114909000Y-52329307D01*
X114909000Y-52904693D01*
X115021253Y-53469024D01*
X115241444Y-54000612D01*
X115561112Y-54479029D01*
X115967971Y-54885888D01*
X116446388Y-55205556D01*
X116977976Y-55425747D01*
X117542307Y-55538000D01*
X118117693Y-55538000D01*
X118682024Y-55425747D01*
X119213612Y-55205556D01*
X119692029Y-54885888D01*
X120098888Y-54479029D01*
X120418556Y-54000612D01*
X120638747Y-53469024D01*
X120751000Y-52904693D01*
X120751000Y-52329307D01*
X124053000Y-52329307D01*
X124053000Y-52904693D01*
X124165253Y-53469024D01*
X124385444Y-54000612D01*
X124705112Y-54479029D01*
X125111971Y-54885888D01*
X125590388Y-55205556D01*
X126121976Y-55425747D01*
X126686307Y-55538000D01*
X127261693Y-55538000D01*
X127826024Y-55425747D01*
X128357612Y-55205556D01*
X128836029Y-54885888D01*
X129242888Y-54479029D01*
X129562556Y-54000612D01*
X129782747Y-53469024D01*
X129895000Y-52904693D01*
X129895000Y-52329307D01*
X133197000Y-52329307D01*
X133197000Y-52904693D01*
X133309253Y-53469024D01*
X133529444Y-54000612D01*
X133849112Y-54479029D01*
X134255971Y-54885888D01*
X134734388Y-55205556D01*
X135265976Y-55425747D01*
X135830307Y-55538000D01*
X136405693Y-55538000D01*
X136970024Y-55425747D01*
X137501612Y-55205556D01*
X137980029Y-54885888D01*
X138386888Y-54479029D01*
X138706556Y-54000612D01*
X138926747Y-53469024D01*
X139039000Y-52904693D01*
X139039000Y-52329307D01*
X142341000Y-52329307D01*
X142341000Y-52904693D01*
X142453253Y-53469024D01*
X142673444Y-54000612D01*
X142993112Y-54479029D01*
X143399971Y-54885888D01*
X143878388Y-55205556D01*
X144409976Y-55425747D01*
X144974307Y-55538000D01*
X145549693Y-55538000D01*
X146114024Y-55425747D01*
X146645612Y-55205556D01*
X147124029Y-54885888D01*
X147530888Y-54479029D01*
X147850556Y-54000612D01*
X148070747Y-53469024D01*
X148183000Y-52904693D01*
X148183000Y-52329307D01*
X151485000Y-52329307D01*
X151485000Y-52904693D01*
X151597253Y-53469024D01*
X151817444Y-54000612D01*
X152137112Y-54479029D01*
X152543971Y-54885888D01*
X153022388Y-55205556D01*
X153553976Y-55425747D01*
X154118307Y-55538000D01*
X154693693Y-55538000D01*
X155258024Y-55425747D01*
X155789612Y-55205556D01*
X156268029Y-54885888D01*
X156674888Y-54479029D01*
X156994556Y-54000612D01*
X157214747Y-53469024D01*
X157327000Y-52904693D01*
X157327000Y-52329307D01*
X157214747Y-51764976D01*
X156994556Y-51233388D01*
X156674888Y-50754971D01*
X156268029Y-50348112D01*
X155789612Y-50028444D01*
X155258024Y-49808253D01*
X154693693Y-49696000D01*
X154118307Y-49696000D01*
X153553976Y-49808253D01*
X153022388Y-50028444D01*
X152543971Y-50348112D01*
X152137112Y-50754971D01*
X151817444Y-51233388D01*
X151597253Y-51764976D01*
X151485000Y-52329307D01*
X148183000Y-52329307D01*
X148070747Y-51764976D01*
X147850556Y-51233388D01*
X147530888Y-50754971D01*
X147124029Y-50348112D01*
X146645612Y-50028444D01*
X146114024Y-49808253D01*
X145549693Y-49696000D01*
X144974307Y-49696000D01*
X144409976Y-49808253D01*
X143878388Y-50028444D01*
X143399971Y-50348112D01*
X142993112Y-50754971D01*
X142673444Y-51233388D01*
X142453253Y-51764976D01*
X142341000Y-52329307D01*
X139039000Y-52329307D01*
X138926747Y-51764976D01*
X138706556Y-51233388D01*
X138386888Y-50754971D01*
X137980029Y-50348112D01*
X137501612Y-50028444D01*
X136970024Y-49808253D01*
X136405693Y-49696000D01*
X135830307Y-49696000D01*
X135265976Y-49808253D01*
X134734388Y-50028444D01*
X134255971Y-50348112D01*
X133849112Y-50754971D01*
X133529444Y-51233388D01*
X133309253Y-51764976D01*
X133197000Y-52329307D01*
X129895000Y-52329307D01*
X129782747Y-51764976D01*
X129562556Y-51233388D01*
X129242888Y-50754971D01*
X128836029Y-50348112D01*
X128357612Y-50028444D01*
X127826024Y-49808253D01*
X127261693Y-49696000D01*
X126686307Y-49696000D01*
X126121976Y-49808253D01*
X125590388Y-50028444D01*
X125111971Y-50348112D01*
X124705112Y-50754971D01*
X124385444Y-51233388D01*
X124165253Y-51764976D01*
X124053000Y-52329307D01*
X120751000Y-52329307D01*
X120638747Y-51764976D01*
X120418556Y-51233388D01*
X120098888Y-50754971D01*
X119692029Y-50348112D01*
X119213612Y-50028444D01*
X118682024Y-49808253D01*
X118117693Y-49696000D01*
X117542307Y-49696000D01*
X116977976Y-49808253D01*
X116446388Y-50028444D01*
X115967971Y-50348112D01*
X115561112Y-50754971D01*
X115241444Y-51233388D01*
X115021253Y-51764976D01*
X114909000Y-52329307D01*
X111607000Y-52329307D01*
X111494747Y-51764976D01*
X111274556Y-51233388D01*
X110954888Y-50754971D01*
X110548029Y-50348112D01*
X110069612Y-50028444D01*
X109538024Y-49808253D01*
X108973693Y-49696000D01*
X108398307Y-49696000D01*
X107833976Y-49808253D01*
X107302388Y-50028444D01*
X106823971Y-50348112D01*
X106417112Y-50754971D01*
X106097444Y-51233388D01*
X105877253Y-51764976D01*
X105765000Y-52329307D01*
X77876000Y-52329307D01*
X77876000Y-50461424D01*
X79883000Y-50461424D01*
X79883000Y-50686576D01*
X79926925Y-50907401D01*
X80013087Y-51115413D01*
X80138174Y-51302620D01*
X80297380Y-51461826D01*
X80484587Y-51586913D01*
X80692599Y-51673075D01*
X80913424Y-51717000D01*
X81138576Y-51717000D01*
X81359401Y-51673075D01*
X81567413Y-51586913D01*
X81754620Y-51461826D01*
X81913826Y-51302620D01*
X82038913Y-51115413D01*
X82125075Y-50907401D01*
X82169000Y-50686576D01*
X82169000Y-50461424D01*
X82423000Y-50461424D01*
X82423000Y-50686576D01*
X82466925Y-50907401D01*
X82553087Y-51115413D01*
X82678174Y-51302620D01*
X82837380Y-51461826D01*
X83024587Y-51586913D01*
X83232599Y-51673075D01*
X83453424Y-51717000D01*
X83678576Y-51717000D01*
X83899401Y-51673075D01*
X84107413Y-51586913D01*
X84294620Y-51461826D01*
X84453826Y-51302620D01*
X84578913Y-51115413D01*
X84665075Y-50907401D01*
X84709000Y-50686576D01*
X84709000Y-50461424D01*
X84665075Y-50240599D01*
X84578913Y-50032587D01*
X84453826Y-49845380D01*
X84294620Y-49686174D01*
X84107413Y-49561087D01*
X83899401Y-49474925D01*
X83678576Y-49431000D01*
X83453424Y-49431000D01*
X83232599Y-49474925D01*
X83024587Y-49561087D01*
X82837380Y-49686174D01*
X82678174Y-49845380D01*
X82553087Y-50032587D01*
X82466925Y-50240599D01*
X82423000Y-50461424D01*
X82169000Y-50461424D01*
X82125075Y-50240599D01*
X82038913Y-50032587D01*
X81913826Y-49845380D01*
X81754620Y-49686174D01*
X81567413Y-49561087D01*
X81359401Y-49474925D01*
X81138576Y-49431000D01*
X80913424Y-49431000D01*
X80692599Y-49474925D01*
X80484587Y-49561087D01*
X80297380Y-49686174D01*
X80138174Y-49845380D01*
X80013087Y-50032587D01*
X79926925Y-50240599D01*
X79883000Y-50461424D01*
X77876000Y-50461424D01*
X77876000Y-45367331D01*
X78293287Y-45991845D01*
X78864395Y-46562953D01*
X79535947Y-47011670D01*
X80282136Y-47320752D01*
X81074286Y-47478320D01*
X81881954Y-47478320D01*
X82674104Y-47320752D01*
X83420293Y-47011670D01*
X84091845Y-46562953D01*
X84662953Y-45991845D01*
X85111670Y-45320293D01*
X85420752Y-44574104D01*
X85578320Y-43781954D01*
X85578320Y-42974286D01*
X85420752Y-42182136D01*
X85111670Y-41435947D01*
X84662953Y-40764395D01*
X84091845Y-40193287D01*
X83467331Y-39776000D01*
X91755848Y-39776000D01*
X91646708Y-39848925D01*
G37*
%TD.AperFunction*%
%TD*%
M02*
