M48
; DRILL file {KiCad (5.1.8)-1} date 04/02/21 01:03:43
; FORMAT={-:-/ absolute / inch / decimal}
; #@! TF.CreationDate,2021-04-02T01:03:43-05:00
; #@! TF.GenerationSoftware,Kicad,Pcbnew,(5.1.8)-1
; #@! TF.FileFunction,Plated,1,2,PTH
FMAT,2
INCH
T1C0.0157
T2C0.0315
T3C0.0350
T4C0.0354
T5C0.0660
T6C0.0700
T7C0.0900
T8C0.1616
T9C0.1616
%
G90
G05
T1
X3.08Y-2.76
X3.08Y-3.005
X3.1015Y-2.6985
X3.11Y-2.97
X3.1165Y-2.66
X3.13Y-1.94
X3.1348Y-2.9352
X3.165Y-2.8475
X3.165Y-2.9
X3.2Y-2.3
X3.255Y-2.94
X3.28Y-2.37
X3.29Y-2.905
X3.29Y-2.94
X3.29Y-2.975
X3.3194Y-2.37
X3.325Y-2.94
X3.45Y-1.6
X3.495Y-2.835
X3.53Y-2.8
X3.53Y-2.835
X3.53Y-2.87
X3.565Y-2.835
X3.59Y-2.56
X3.6277Y-1.5927
X3.68Y-2.76
X3.86Y-2.7
X4.34Y-4.285
X4.35Y-4.75
X4.37Y-4.6
X4.41Y-5.145
X4.41Y-5.1844
X4.5186Y-4.285
X4.5186Y-5.02
X4.52Y-4.6
X4.52Y-5.1764
X4.58Y-3.62
X4.6Y-4.995
X4.605Y-4.94
X4.605Y-5.175
X4.65Y-4.14
X4.7Y-2.53
X4.74Y-2.35
X4.74Y-2.74
X4.77Y-3.72
X4.81Y-2.705
X4.82Y-4.285
X4.83Y-2.35
X4.83Y-3.17
X4.83Y-3.595
X4.86Y-4.3
X4.9Y-4.285
X4.915Y-4.94
X4.97Y-2.345
X5.01Y-2.8364
X5.01Y-2.9036
X5.04Y-2.64
X5.05Y-2.69
X5.08Y-2.35
X5.12Y-2.36
X5.19Y-2.87
X5.25Y-2.36
X5.25Y-3.55
X5.25Y-3.65
X5.25Y-3.75
X5.25Y-3.85
X5.3Y-3.6
X5.3Y-3.7
X5.3Y-3.8
X5.33Y-2.36
X5.34Y-3.1
X5.35Y-2.87
X5.35Y-3.025
X5.35Y-3.55
X5.35Y-3.65
X5.35Y-3.75
X5.35Y-3.85
X5.39Y-2.8364
X5.39Y-2.9036
X5.4Y-3.6
X5.4Y-3.7
X5.4Y-3.8
X5.45Y-2.35
X5.45Y-3.55
X5.45Y-3.65
X5.45Y-3.75
X5.45Y-3.85
X5.45Y-4.95
X5.47Y-4.42
X5.51Y-2.34
X5.5873Y-2.3627
X5.59Y-2.835
X5.59Y-2.905
X5.625Y-2.735
X5.625Y-3.365
X5.64Y-2.64
X5.67Y-2.31
X5.67Y-2.69
X5.81Y-2.35
X5.835Y-3.83
X5.87Y-2.35
X5.8833Y-3.935
X5.945Y-2.305
X5.955Y-3.305
X5.97Y-2.87
X6.015Y-2.325
X6.21Y-2.52
X6.22Y-2.64
X6.22Y-2.685
X6.23Y-1.6
X6.23Y-1.89
X6.25Y-3.295
X6.265Y-2.725
X6.2956Y-2.775
X6.3Y-3.935
X6.335Y-2.775
T2
X5.89Y-2.74
X5.89Y-2.8187
X5.26Y-2.74
X5.26Y-2.8187
X5.56Y-4.08
X5.6387Y-4.08
X4.77Y-3.1222
X4.77Y-3.26
X6.39Y-2.44
X6.4687Y-2.44
X4.7813Y-4.65
X4.86Y-4.65
X6.42Y-2.83
X6.42Y-2.9087
X4.6Y-4.79
X4.6787Y-4.79
X4.3313Y-5.33
X4.41Y-5.33
T3
X3.94Y-2.56
X3.94Y-2.66
X3.94Y-2.76
T4
X3.19Y-1.9911
X3.29Y-1.9911
X3.39Y-1.9911
X3.49Y-1.9911
X3.59Y-1.9911
X3.69Y-1.9911
X3.79Y-1.9911
X3.49Y-1.7
X3.49Y-1.7
X3.59Y-1.7
X3.69Y-1.7
X3.79Y-1.7
T5
X5.28Y-3.43
X5.28Y-3.96
X5.415Y-3.43
X5.415Y-3.96
X4.58Y-3.88
X4.58Y-4.41
X4.715Y-3.88
X4.715Y-4.41
X3.2Y-2.46
X3.2Y-2.595
X3.73Y-2.46
X3.73Y-2.595
T6
X3.47Y-5.04
X3.62Y-3.04
X3.77Y-3.04
X3.77Y-5.04
X3.92Y-3.04
X4.07Y-5.04
T7
X3.47Y-3.04
X4.07Y-3.04
T8
X3.5485Y-5.419
T9
X4.279Y-1.7605
X4.279Y-2.0715
X5.281Y-4.7274
X5.281Y-5.0385
X5.281Y-5.3495
X6.011Y-4.7274
X6.011Y-5.0385
X6.011Y-5.3495
X3.8595Y-5.419
X5.641Y-4.7274
X5.641Y-5.0385
X5.641Y-5.3495
X4.999Y-1.7605
X4.999Y-2.0715
X4.639Y-1.7605
X4.639Y-2.0715
X5.719Y-1.7605
X5.719Y-2.0715
X5.359Y-1.7605
X5.359Y-2.0715
X6.079Y-1.7605
X6.079Y-2.0715
T0
M30
