%TF.GenerationSoftware,KiCad,Pcbnew,(5.1.8)-1*%
%TF.CreationDate,2021-04-02T01:03:45-05:00*%
%TF.ProjectId,12VBoard_2021_Rev1,31325642-6f61-4726-945f-323032315f52,rev?*%
%TF.SameCoordinates,Original*%
%TF.FileFunction,Soldermask,Top*%
%TF.FilePolarity,Negative*%
%FSLAX46Y46*%
G04 Gerber Fmt 4.6, Leading zero omitted, Abs format (unit mm)*
G04 Created by KiCad (PCBNEW (5.1.8)-1) date 2021-04-02 01:03:45*
%MOMM*%
%LPD*%
G01*
G04 APERTURE LIST*
%ADD10C,1.624000*%
%ADD11C,3.148000*%
%ADD12C,3.910000*%
%ADD13C,2.919400*%
%ADD14C,5.180000*%
%ADD15C,1.700000*%
%ADD16C,3.046400*%
G04 APERTURE END LIST*
D10*
%TO.C,Conn2*%
X88646000Y-43180000D03*
X88646000Y-43180000D03*
X91186000Y-43180000D03*
X93726000Y-43180000D03*
X96266000Y-43180000D03*
%TD*%
D11*
%TO.C,VR1*%
X99568000Y-77216000D03*
X95758000Y-77216000D03*
X91948000Y-77216000D03*
D12*
X88138000Y-77216000D03*
X103378000Y-77216000D03*
D11*
X88138000Y-128016000D03*
X95758000Y-128016000D03*
X103378000Y-128016000D03*
%TD*%
%TO.C,U20*%
G36*
G01*
X141018000Y-110310000D02*
X140668000Y-110310000D01*
G75*
G02*
X140493000Y-110135000I0J175000D01*
G01*
X140493000Y-108435000D01*
G75*
G02*
X140668000Y-108260000I175000J0D01*
G01*
X141018000Y-108260000D01*
G75*
G02*
X141193000Y-108435000I0J-175000D01*
G01*
X141193000Y-110135000D01*
G75*
G02*
X141018000Y-110310000I-175000J0D01*
G01*
G37*
G36*
G01*
X142288000Y-110310000D02*
X141938000Y-110310000D01*
G75*
G02*
X141763000Y-110135000I0J175000D01*
G01*
X141763000Y-108435000D01*
G75*
G02*
X141938000Y-108260000I175000J0D01*
G01*
X142288000Y-108260000D01*
G75*
G02*
X142463000Y-108435000I0J-175000D01*
G01*
X142463000Y-110135000D01*
G75*
G02*
X142288000Y-110310000I-175000J0D01*
G01*
G37*
G36*
G01*
X143558000Y-110310000D02*
X143208000Y-110310000D01*
G75*
G02*
X143033000Y-110135000I0J175000D01*
G01*
X143033000Y-108435000D01*
G75*
G02*
X143208000Y-108260000I175000J0D01*
G01*
X143558000Y-108260000D01*
G75*
G02*
X143733000Y-108435000I0J-175000D01*
G01*
X143733000Y-110135000D01*
G75*
G02*
X143558000Y-110310000I-175000J0D01*
G01*
G37*
G36*
G01*
X144828000Y-110310000D02*
X144478000Y-110310000D01*
G75*
G02*
X144303000Y-110135000I0J175000D01*
G01*
X144303000Y-108435000D01*
G75*
G02*
X144478000Y-108260000I175000J0D01*
G01*
X144828000Y-108260000D01*
G75*
G02*
X145003000Y-108435000I0J-175000D01*
G01*
X145003000Y-110135000D01*
G75*
G02*
X144828000Y-110310000I-175000J0D01*
G01*
G37*
G36*
G01*
X144828000Y-115260000D02*
X144478000Y-115260000D01*
G75*
G02*
X144303000Y-115085000I0J175000D01*
G01*
X144303000Y-113385000D01*
G75*
G02*
X144478000Y-113210000I175000J0D01*
G01*
X144828000Y-113210000D01*
G75*
G02*
X145003000Y-113385000I0J-175000D01*
G01*
X145003000Y-115085000D01*
G75*
G02*
X144828000Y-115260000I-175000J0D01*
G01*
G37*
G36*
G01*
X143558000Y-115260000D02*
X143208000Y-115260000D01*
G75*
G02*
X143033000Y-115085000I0J175000D01*
G01*
X143033000Y-113385000D01*
G75*
G02*
X143208000Y-113210000I175000J0D01*
G01*
X143558000Y-113210000D01*
G75*
G02*
X143733000Y-113385000I0J-175000D01*
G01*
X143733000Y-115085000D01*
G75*
G02*
X143558000Y-115260000I-175000J0D01*
G01*
G37*
G36*
G01*
X142288000Y-115260000D02*
X141938000Y-115260000D01*
G75*
G02*
X141763000Y-115085000I0J175000D01*
G01*
X141763000Y-113385000D01*
G75*
G02*
X141938000Y-113210000I175000J0D01*
G01*
X142288000Y-113210000D01*
G75*
G02*
X142463000Y-113385000I0J-175000D01*
G01*
X142463000Y-115085000D01*
G75*
G02*
X142288000Y-115260000I-175000J0D01*
G01*
G37*
G36*
G01*
X141018000Y-115260000D02*
X140668000Y-115260000D01*
G75*
G02*
X140493000Y-115085000I0J175000D01*
G01*
X140493000Y-113385000D01*
G75*
G02*
X140668000Y-113210000I175000J0D01*
G01*
X141018000Y-113210000D01*
G75*
G02*
X141193000Y-113385000I0J-175000D01*
G01*
X141193000Y-115085000D01*
G75*
G02*
X141018000Y-115260000I-175000J0D01*
G01*
G37*
%TD*%
%TO.C,U19*%
G36*
G01*
X132939000Y-105329000D02*
X132939000Y-104729000D01*
G75*
G02*
X132989000Y-104679000I50000J0D01*
G01*
X134539000Y-104679000D01*
G75*
G02*
X134589000Y-104729000I0J-50000D01*
G01*
X134589000Y-105329000D01*
G75*
G02*
X134539000Y-105379000I-50000J0D01*
G01*
X132989000Y-105379000D01*
G75*
G02*
X132939000Y-105329000I0J50000D01*
G01*
G37*
G36*
G01*
X132939000Y-107869000D02*
X132939000Y-107269000D01*
G75*
G02*
X132989000Y-107219000I50000J0D01*
G01*
X134539000Y-107219000D01*
G75*
G02*
X134589000Y-107269000I0J-50000D01*
G01*
X134589000Y-107869000D01*
G75*
G02*
X134539000Y-107919000I-50000J0D01*
G01*
X132989000Y-107919000D01*
G75*
G02*
X132939000Y-107869000I0J50000D01*
G01*
G37*
G36*
G01*
X132939000Y-109139000D02*
X132939000Y-108539000D01*
G75*
G02*
X132989000Y-108489000I50000J0D01*
G01*
X134539000Y-108489000D01*
G75*
G02*
X134589000Y-108539000I0J-50000D01*
G01*
X134589000Y-109139000D01*
G75*
G02*
X134539000Y-109189000I-50000J0D01*
G01*
X132989000Y-109189000D01*
G75*
G02*
X132939000Y-109139000I0J50000D01*
G01*
G37*
G36*
G01*
X127539000Y-109139000D02*
X127539000Y-108539000D01*
G75*
G02*
X127589000Y-108489000I50000J0D01*
G01*
X129139000Y-108489000D01*
G75*
G02*
X129189000Y-108539000I0J-50000D01*
G01*
X129189000Y-109139000D01*
G75*
G02*
X129139000Y-109189000I-50000J0D01*
G01*
X127589000Y-109189000D01*
G75*
G02*
X127539000Y-109139000I0J50000D01*
G01*
G37*
G36*
G01*
X127539000Y-107869000D02*
X127539000Y-107269000D01*
G75*
G02*
X127589000Y-107219000I50000J0D01*
G01*
X129139000Y-107219000D01*
G75*
G02*
X129189000Y-107269000I0J-50000D01*
G01*
X129189000Y-107869000D01*
G75*
G02*
X129139000Y-107919000I-50000J0D01*
G01*
X127589000Y-107919000D01*
G75*
G02*
X127539000Y-107869000I0J50000D01*
G01*
G37*
G36*
G01*
X127539000Y-106599000D02*
X127539000Y-105999000D01*
G75*
G02*
X127589000Y-105949000I50000J0D01*
G01*
X129139000Y-105949000D01*
G75*
G02*
X129189000Y-105999000I0J-50000D01*
G01*
X129189000Y-106599000D01*
G75*
G02*
X129139000Y-106649000I-50000J0D01*
G01*
X127589000Y-106649000D01*
G75*
G02*
X127539000Y-106599000I0J50000D01*
G01*
G37*
G36*
G01*
X127539000Y-105329000D02*
X127539000Y-104729000D01*
G75*
G02*
X127589000Y-104679000I50000J0D01*
G01*
X129139000Y-104679000D01*
G75*
G02*
X129189000Y-104729000I0J-50000D01*
G01*
X129189000Y-105329000D01*
G75*
G02*
X129139000Y-105379000I-50000J0D01*
G01*
X127589000Y-105379000D01*
G75*
G02*
X127539000Y-105329000I0J50000D01*
G01*
G37*
%TD*%
%TO.C,U18*%
G36*
G01*
X130376000Y-114760000D02*
X130376000Y-115110000D01*
G75*
G02*
X130201000Y-115285000I-175000J0D01*
G01*
X128501000Y-115285000D01*
G75*
G02*
X128326000Y-115110000I0J175000D01*
G01*
X128326000Y-114760000D01*
G75*
G02*
X128501000Y-114585000I175000J0D01*
G01*
X130201000Y-114585000D01*
G75*
G02*
X130376000Y-114760000I0J-175000D01*
G01*
G37*
G36*
G01*
X130376000Y-113490000D02*
X130376000Y-113840000D01*
G75*
G02*
X130201000Y-114015000I-175000J0D01*
G01*
X128501000Y-114015000D01*
G75*
G02*
X128326000Y-113840000I0J175000D01*
G01*
X128326000Y-113490000D01*
G75*
G02*
X128501000Y-113315000I175000J0D01*
G01*
X130201000Y-113315000D01*
G75*
G02*
X130376000Y-113490000I0J-175000D01*
G01*
G37*
G36*
G01*
X130376000Y-112220000D02*
X130376000Y-112570000D01*
G75*
G02*
X130201000Y-112745000I-175000J0D01*
G01*
X128501000Y-112745000D01*
G75*
G02*
X128326000Y-112570000I0J175000D01*
G01*
X128326000Y-112220000D01*
G75*
G02*
X128501000Y-112045000I175000J0D01*
G01*
X130201000Y-112045000D01*
G75*
G02*
X130376000Y-112220000I0J-175000D01*
G01*
G37*
G36*
G01*
X130376000Y-110950000D02*
X130376000Y-111300000D01*
G75*
G02*
X130201000Y-111475000I-175000J0D01*
G01*
X128501000Y-111475000D01*
G75*
G02*
X128326000Y-111300000I0J175000D01*
G01*
X128326000Y-110950000D01*
G75*
G02*
X128501000Y-110775000I175000J0D01*
G01*
X130201000Y-110775000D01*
G75*
G02*
X130376000Y-110950000I0J-175000D01*
G01*
G37*
G36*
G01*
X135326000Y-110950000D02*
X135326000Y-111300000D01*
G75*
G02*
X135151000Y-111475000I-175000J0D01*
G01*
X133451000Y-111475000D01*
G75*
G02*
X133276000Y-111300000I0J175000D01*
G01*
X133276000Y-110950000D01*
G75*
G02*
X133451000Y-110775000I175000J0D01*
G01*
X135151000Y-110775000D01*
G75*
G02*
X135326000Y-110950000I0J-175000D01*
G01*
G37*
G36*
G01*
X135326000Y-112220000D02*
X135326000Y-112570000D01*
G75*
G02*
X135151000Y-112745000I-175000J0D01*
G01*
X133451000Y-112745000D01*
G75*
G02*
X133276000Y-112570000I0J175000D01*
G01*
X133276000Y-112220000D01*
G75*
G02*
X133451000Y-112045000I175000J0D01*
G01*
X135151000Y-112045000D01*
G75*
G02*
X135326000Y-112220000I0J-175000D01*
G01*
G37*
G36*
G01*
X135326000Y-113490000D02*
X135326000Y-113840000D01*
G75*
G02*
X135151000Y-114015000I-175000J0D01*
G01*
X133451000Y-114015000D01*
G75*
G02*
X133276000Y-113840000I0J175000D01*
G01*
X133276000Y-113490000D01*
G75*
G02*
X133451000Y-113315000I175000J0D01*
G01*
X135151000Y-113315000D01*
G75*
G02*
X135326000Y-113490000I0J-175000D01*
G01*
G37*
G36*
G01*
X135326000Y-114760000D02*
X135326000Y-115110000D01*
G75*
G02*
X135151000Y-115285000I-175000J0D01*
G01*
X133451000Y-115285000D01*
G75*
G02*
X133276000Y-115110000I0J175000D01*
G01*
X133276000Y-114760000D01*
G75*
G02*
X133451000Y-114585000I175000J0D01*
G01*
X135151000Y-114585000D01*
G75*
G02*
X135326000Y-114760000I0J-175000D01*
G01*
G37*
%TD*%
%TO.C,U17*%
G36*
G01*
X129129000Y-64943000D02*
X129129000Y-64343000D01*
G75*
G02*
X129179000Y-64293000I50000J0D01*
G01*
X130729000Y-64293000D01*
G75*
G02*
X130779000Y-64343000I0J-50000D01*
G01*
X130779000Y-64943000D01*
G75*
G02*
X130729000Y-64993000I-50000J0D01*
G01*
X129179000Y-64993000D01*
G75*
G02*
X129129000Y-64943000I0J50000D01*
G01*
G37*
G36*
G01*
X129129000Y-67483000D02*
X129129000Y-66883000D01*
G75*
G02*
X129179000Y-66833000I50000J0D01*
G01*
X130729000Y-66833000D01*
G75*
G02*
X130779000Y-66883000I0J-50000D01*
G01*
X130779000Y-67483000D01*
G75*
G02*
X130729000Y-67533000I-50000J0D01*
G01*
X129179000Y-67533000D01*
G75*
G02*
X129129000Y-67483000I0J50000D01*
G01*
G37*
G36*
G01*
X129129000Y-68753000D02*
X129129000Y-68153000D01*
G75*
G02*
X129179000Y-68103000I50000J0D01*
G01*
X130729000Y-68103000D01*
G75*
G02*
X130779000Y-68153000I0J-50000D01*
G01*
X130779000Y-68753000D01*
G75*
G02*
X130729000Y-68803000I-50000J0D01*
G01*
X129179000Y-68803000D01*
G75*
G02*
X129129000Y-68753000I0J50000D01*
G01*
G37*
G36*
G01*
X123729000Y-68753000D02*
X123729000Y-68153000D01*
G75*
G02*
X123779000Y-68103000I50000J0D01*
G01*
X125329000Y-68103000D01*
G75*
G02*
X125379000Y-68153000I0J-50000D01*
G01*
X125379000Y-68753000D01*
G75*
G02*
X125329000Y-68803000I-50000J0D01*
G01*
X123779000Y-68803000D01*
G75*
G02*
X123729000Y-68753000I0J50000D01*
G01*
G37*
G36*
G01*
X123729000Y-67483000D02*
X123729000Y-66883000D01*
G75*
G02*
X123779000Y-66833000I50000J0D01*
G01*
X125329000Y-66833000D01*
G75*
G02*
X125379000Y-66883000I0J-50000D01*
G01*
X125379000Y-67483000D01*
G75*
G02*
X125329000Y-67533000I-50000J0D01*
G01*
X123779000Y-67533000D01*
G75*
G02*
X123729000Y-67483000I0J50000D01*
G01*
G37*
G36*
G01*
X123729000Y-66213000D02*
X123729000Y-65613000D01*
G75*
G02*
X123779000Y-65563000I50000J0D01*
G01*
X125329000Y-65563000D01*
G75*
G02*
X125379000Y-65613000I0J-50000D01*
G01*
X125379000Y-66213000D01*
G75*
G02*
X125329000Y-66263000I-50000J0D01*
G01*
X123779000Y-66263000D01*
G75*
G02*
X123729000Y-66213000I0J50000D01*
G01*
G37*
G36*
G01*
X123729000Y-64943000D02*
X123729000Y-64343000D01*
G75*
G02*
X123779000Y-64293000I50000J0D01*
G01*
X125329000Y-64293000D01*
G75*
G02*
X125379000Y-64343000I0J-50000D01*
G01*
X125379000Y-64943000D01*
G75*
G02*
X125329000Y-64993000I-50000J0D01*
G01*
X123779000Y-64993000D01*
G75*
G02*
X123729000Y-64943000I0J50000D01*
G01*
G37*
%TD*%
%TO.C,U16*%
G36*
G01*
X144623000Y-64943000D02*
X144623000Y-64343000D01*
G75*
G02*
X144673000Y-64293000I50000J0D01*
G01*
X146223000Y-64293000D01*
G75*
G02*
X146273000Y-64343000I0J-50000D01*
G01*
X146273000Y-64943000D01*
G75*
G02*
X146223000Y-64993000I-50000J0D01*
G01*
X144673000Y-64993000D01*
G75*
G02*
X144623000Y-64943000I0J50000D01*
G01*
G37*
G36*
G01*
X144623000Y-67483000D02*
X144623000Y-66883000D01*
G75*
G02*
X144673000Y-66833000I50000J0D01*
G01*
X146223000Y-66833000D01*
G75*
G02*
X146273000Y-66883000I0J-50000D01*
G01*
X146273000Y-67483000D01*
G75*
G02*
X146223000Y-67533000I-50000J0D01*
G01*
X144673000Y-67533000D01*
G75*
G02*
X144623000Y-67483000I0J50000D01*
G01*
G37*
G36*
G01*
X144623000Y-68753000D02*
X144623000Y-68153000D01*
G75*
G02*
X144673000Y-68103000I50000J0D01*
G01*
X146223000Y-68103000D01*
G75*
G02*
X146273000Y-68153000I0J-50000D01*
G01*
X146273000Y-68753000D01*
G75*
G02*
X146223000Y-68803000I-50000J0D01*
G01*
X144673000Y-68803000D01*
G75*
G02*
X144623000Y-68753000I0J50000D01*
G01*
G37*
G36*
G01*
X139223000Y-68753000D02*
X139223000Y-68153000D01*
G75*
G02*
X139273000Y-68103000I50000J0D01*
G01*
X140823000Y-68103000D01*
G75*
G02*
X140873000Y-68153000I0J-50000D01*
G01*
X140873000Y-68753000D01*
G75*
G02*
X140823000Y-68803000I-50000J0D01*
G01*
X139273000Y-68803000D01*
G75*
G02*
X139223000Y-68753000I0J50000D01*
G01*
G37*
G36*
G01*
X139223000Y-67483000D02*
X139223000Y-66883000D01*
G75*
G02*
X139273000Y-66833000I50000J0D01*
G01*
X140823000Y-66833000D01*
G75*
G02*
X140873000Y-66883000I0J-50000D01*
G01*
X140873000Y-67483000D01*
G75*
G02*
X140823000Y-67533000I-50000J0D01*
G01*
X139273000Y-67533000D01*
G75*
G02*
X139223000Y-67483000I0J50000D01*
G01*
G37*
G36*
G01*
X139223000Y-66213000D02*
X139223000Y-65613000D01*
G75*
G02*
X139273000Y-65563000I50000J0D01*
G01*
X140823000Y-65563000D01*
G75*
G02*
X140873000Y-65613000I0J-50000D01*
G01*
X140873000Y-66213000D01*
G75*
G02*
X140823000Y-66263000I-50000J0D01*
G01*
X139273000Y-66263000D01*
G75*
G02*
X139223000Y-66213000I0J50000D01*
G01*
G37*
G36*
G01*
X139223000Y-64943000D02*
X139223000Y-64343000D01*
G75*
G02*
X139273000Y-64293000I50000J0D01*
G01*
X140823000Y-64293000D01*
G75*
G02*
X140873000Y-64343000I0J-50000D01*
G01*
X140873000Y-64943000D01*
G75*
G02*
X140823000Y-64993000I-50000J0D01*
G01*
X139273000Y-64993000D01*
G75*
G02*
X139223000Y-64943000I0J50000D01*
G01*
G37*
%TD*%
%TO.C,U15*%
G36*
G01*
X160117000Y-65705000D02*
X160117000Y-65105000D01*
G75*
G02*
X160167000Y-65055000I50000J0D01*
G01*
X161717000Y-65055000D01*
G75*
G02*
X161767000Y-65105000I0J-50000D01*
G01*
X161767000Y-65705000D01*
G75*
G02*
X161717000Y-65755000I-50000J0D01*
G01*
X160167000Y-65755000D01*
G75*
G02*
X160117000Y-65705000I0J50000D01*
G01*
G37*
G36*
G01*
X160117000Y-68245000D02*
X160117000Y-67645000D01*
G75*
G02*
X160167000Y-67595000I50000J0D01*
G01*
X161717000Y-67595000D01*
G75*
G02*
X161767000Y-67645000I0J-50000D01*
G01*
X161767000Y-68245000D01*
G75*
G02*
X161717000Y-68295000I-50000J0D01*
G01*
X160167000Y-68295000D01*
G75*
G02*
X160117000Y-68245000I0J50000D01*
G01*
G37*
G36*
G01*
X160117000Y-69515000D02*
X160117000Y-68915000D01*
G75*
G02*
X160167000Y-68865000I50000J0D01*
G01*
X161717000Y-68865000D01*
G75*
G02*
X161767000Y-68915000I0J-50000D01*
G01*
X161767000Y-69515000D01*
G75*
G02*
X161717000Y-69565000I-50000J0D01*
G01*
X160167000Y-69565000D01*
G75*
G02*
X160117000Y-69515000I0J50000D01*
G01*
G37*
G36*
G01*
X154717000Y-69515000D02*
X154717000Y-68915000D01*
G75*
G02*
X154767000Y-68865000I50000J0D01*
G01*
X156317000Y-68865000D01*
G75*
G02*
X156367000Y-68915000I0J-50000D01*
G01*
X156367000Y-69515000D01*
G75*
G02*
X156317000Y-69565000I-50000J0D01*
G01*
X154767000Y-69565000D01*
G75*
G02*
X154717000Y-69515000I0J50000D01*
G01*
G37*
G36*
G01*
X154717000Y-68245000D02*
X154717000Y-67645000D01*
G75*
G02*
X154767000Y-67595000I50000J0D01*
G01*
X156317000Y-67595000D01*
G75*
G02*
X156367000Y-67645000I0J-50000D01*
G01*
X156367000Y-68245000D01*
G75*
G02*
X156317000Y-68295000I-50000J0D01*
G01*
X154767000Y-68295000D01*
G75*
G02*
X154717000Y-68245000I0J50000D01*
G01*
G37*
G36*
G01*
X154717000Y-66975000D02*
X154717000Y-66375000D01*
G75*
G02*
X154767000Y-66325000I50000J0D01*
G01*
X156317000Y-66325000D01*
G75*
G02*
X156367000Y-66375000I0J-50000D01*
G01*
X156367000Y-66975000D01*
G75*
G02*
X156317000Y-67025000I-50000J0D01*
G01*
X154767000Y-67025000D01*
G75*
G02*
X154717000Y-66975000I0J50000D01*
G01*
G37*
G36*
G01*
X154717000Y-65705000D02*
X154717000Y-65105000D01*
G75*
G02*
X154767000Y-65055000I50000J0D01*
G01*
X156317000Y-65055000D01*
G75*
G02*
X156367000Y-65105000I0J-50000D01*
G01*
X156367000Y-65705000D01*
G75*
G02*
X156317000Y-65755000I-50000J0D01*
G01*
X154767000Y-65755000D01*
G75*
G02*
X154717000Y-65705000I0J50000D01*
G01*
G37*
%TD*%
%TO.C,U14*%
G36*
G01*
X162387000Y-55977000D02*
X162987000Y-55977000D01*
G75*
G02*
X163037000Y-56027000I0J-50000D01*
G01*
X163037000Y-57577000D01*
G75*
G02*
X162987000Y-57627000I-50000J0D01*
G01*
X162387000Y-57627000D01*
G75*
G02*
X162337000Y-57577000I0J50000D01*
G01*
X162337000Y-56027000D01*
G75*
G02*
X162387000Y-55977000I50000J0D01*
G01*
G37*
G36*
G01*
X159847000Y-55977000D02*
X160447000Y-55977000D01*
G75*
G02*
X160497000Y-56027000I0J-50000D01*
G01*
X160497000Y-57577000D01*
G75*
G02*
X160447000Y-57627000I-50000J0D01*
G01*
X159847000Y-57627000D01*
G75*
G02*
X159797000Y-57577000I0J50000D01*
G01*
X159797000Y-56027000D01*
G75*
G02*
X159847000Y-55977000I50000J0D01*
G01*
G37*
G36*
G01*
X158577000Y-55977000D02*
X159177000Y-55977000D01*
G75*
G02*
X159227000Y-56027000I0J-50000D01*
G01*
X159227000Y-57577000D01*
G75*
G02*
X159177000Y-57627000I-50000J0D01*
G01*
X158577000Y-57627000D01*
G75*
G02*
X158527000Y-57577000I0J50000D01*
G01*
X158527000Y-56027000D01*
G75*
G02*
X158577000Y-55977000I50000J0D01*
G01*
G37*
G36*
G01*
X158577000Y-50577000D02*
X159177000Y-50577000D01*
G75*
G02*
X159227000Y-50627000I0J-50000D01*
G01*
X159227000Y-52177000D01*
G75*
G02*
X159177000Y-52227000I-50000J0D01*
G01*
X158577000Y-52227000D01*
G75*
G02*
X158527000Y-52177000I0J50000D01*
G01*
X158527000Y-50627000D01*
G75*
G02*
X158577000Y-50577000I50000J0D01*
G01*
G37*
G36*
G01*
X159847000Y-50577000D02*
X160447000Y-50577000D01*
G75*
G02*
X160497000Y-50627000I0J-50000D01*
G01*
X160497000Y-52177000D01*
G75*
G02*
X160447000Y-52227000I-50000J0D01*
G01*
X159847000Y-52227000D01*
G75*
G02*
X159797000Y-52177000I0J50000D01*
G01*
X159797000Y-50627000D01*
G75*
G02*
X159847000Y-50577000I50000J0D01*
G01*
G37*
G36*
G01*
X161117000Y-50577000D02*
X161717000Y-50577000D01*
G75*
G02*
X161767000Y-50627000I0J-50000D01*
G01*
X161767000Y-52177000D01*
G75*
G02*
X161717000Y-52227000I-50000J0D01*
G01*
X161117000Y-52227000D01*
G75*
G02*
X161067000Y-52177000I0J50000D01*
G01*
X161067000Y-50627000D01*
G75*
G02*
X161117000Y-50577000I50000J0D01*
G01*
G37*
G36*
G01*
X162387000Y-50577000D02*
X162987000Y-50577000D01*
G75*
G02*
X163037000Y-50627000I0J-50000D01*
G01*
X163037000Y-52177000D01*
G75*
G02*
X162987000Y-52227000I-50000J0D01*
G01*
X162387000Y-52227000D01*
G75*
G02*
X162337000Y-52177000I0J50000D01*
G01*
X162337000Y-50627000D01*
G75*
G02*
X162387000Y-50577000I50000J0D01*
G01*
G37*
%TD*%
%TO.C,U13*%
G36*
G01*
X119368000Y-92827000D02*
X119368000Y-93477000D01*
G75*
G02*
X119318000Y-93527000I-50000J0D01*
G01*
X118258000Y-93527000D01*
G75*
G02*
X118208000Y-93477000I0J50000D01*
G01*
X118208000Y-92827000D01*
G75*
G02*
X118258000Y-92777000I50000J0D01*
G01*
X119318000Y-92777000D01*
G75*
G02*
X119368000Y-92827000I0J-50000D01*
G01*
G37*
G36*
G01*
X119368000Y-90927000D02*
X119368000Y-91577000D01*
G75*
G02*
X119318000Y-91627000I-50000J0D01*
G01*
X118258000Y-91627000D01*
G75*
G02*
X118208000Y-91577000I0J50000D01*
G01*
X118208000Y-90927000D01*
G75*
G02*
X118258000Y-90877000I50000J0D01*
G01*
X119318000Y-90877000D01*
G75*
G02*
X119368000Y-90927000I0J-50000D01*
G01*
G37*
G36*
G01*
X121568000Y-90927000D02*
X121568000Y-91577000D01*
G75*
G02*
X121518000Y-91627000I-50000J0D01*
G01*
X120458000Y-91627000D01*
G75*
G02*
X120408000Y-91577000I0J50000D01*
G01*
X120408000Y-90927000D01*
G75*
G02*
X120458000Y-90877000I50000J0D01*
G01*
X121518000Y-90877000D01*
G75*
G02*
X121568000Y-90927000I0J-50000D01*
G01*
G37*
G36*
G01*
X121568000Y-91877000D02*
X121568000Y-92527000D01*
G75*
G02*
X121518000Y-92577000I-50000J0D01*
G01*
X120458000Y-92577000D01*
G75*
G02*
X120408000Y-92527000I0J50000D01*
G01*
X120408000Y-91877000D01*
G75*
G02*
X120458000Y-91827000I50000J0D01*
G01*
X121518000Y-91827000D01*
G75*
G02*
X121568000Y-91877000I0J-50000D01*
G01*
G37*
G36*
G01*
X121568000Y-92827000D02*
X121568000Y-93477000D01*
G75*
G02*
X121518000Y-93527000I-50000J0D01*
G01*
X120458000Y-93527000D01*
G75*
G02*
X120408000Y-93477000I0J50000D01*
G01*
X120408000Y-92827000D01*
G75*
G02*
X120458000Y-92777000I50000J0D01*
G01*
X121518000Y-92777000D01*
G75*
G02*
X121568000Y-92827000I0J-50000D01*
G01*
G37*
%TD*%
%TO.C,U12*%
G36*
G01*
X126411000Y-118013000D02*
X125811000Y-118013000D01*
G75*
G02*
X125761000Y-117963000I0J50000D01*
G01*
X125761000Y-116413000D01*
G75*
G02*
X125811000Y-116363000I50000J0D01*
G01*
X126411000Y-116363000D01*
G75*
G02*
X126461000Y-116413000I0J-50000D01*
G01*
X126461000Y-117963000D01*
G75*
G02*
X126411000Y-118013000I-50000J0D01*
G01*
G37*
G36*
G01*
X128951000Y-118013000D02*
X128351000Y-118013000D01*
G75*
G02*
X128301000Y-117963000I0J50000D01*
G01*
X128301000Y-116413000D01*
G75*
G02*
X128351000Y-116363000I50000J0D01*
G01*
X128951000Y-116363000D01*
G75*
G02*
X129001000Y-116413000I0J-50000D01*
G01*
X129001000Y-117963000D01*
G75*
G02*
X128951000Y-118013000I-50000J0D01*
G01*
G37*
G36*
G01*
X130221000Y-118013000D02*
X129621000Y-118013000D01*
G75*
G02*
X129571000Y-117963000I0J50000D01*
G01*
X129571000Y-116413000D01*
G75*
G02*
X129621000Y-116363000I50000J0D01*
G01*
X130221000Y-116363000D01*
G75*
G02*
X130271000Y-116413000I0J-50000D01*
G01*
X130271000Y-117963000D01*
G75*
G02*
X130221000Y-118013000I-50000J0D01*
G01*
G37*
G36*
G01*
X130221000Y-123413000D02*
X129621000Y-123413000D01*
G75*
G02*
X129571000Y-123363000I0J50000D01*
G01*
X129571000Y-121813000D01*
G75*
G02*
X129621000Y-121763000I50000J0D01*
G01*
X130221000Y-121763000D01*
G75*
G02*
X130271000Y-121813000I0J-50000D01*
G01*
X130271000Y-123363000D01*
G75*
G02*
X130221000Y-123413000I-50000J0D01*
G01*
G37*
G36*
G01*
X128951000Y-123413000D02*
X128351000Y-123413000D01*
G75*
G02*
X128301000Y-123363000I0J50000D01*
G01*
X128301000Y-121813000D01*
G75*
G02*
X128351000Y-121763000I50000J0D01*
G01*
X128951000Y-121763000D01*
G75*
G02*
X129001000Y-121813000I0J-50000D01*
G01*
X129001000Y-123363000D01*
G75*
G02*
X128951000Y-123413000I-50000J0D01*
G01*
G37*
G36*
G01*
X127681000Y-123413000D02*
X127081000Y-123413000D01*
G75*
G02*
X127031000Y-123363000I0J50000D01*
G01*
X127031000Y-121813000D01*
G75*
G02*
X127081000Y-121763000I50000J0D01*
G01*
X127681000Y-121763000D01*
G75*
G02*
X127731000Y-121813000I0J-50000D01*
G01*
X127731000Y-123363000D01*
G75*
G02*
X127681000Y-123413000I-50000J0D01*
G01*
G37*
G36*
G01*
X126411000Y-123413000D02*
X125811000Y-123413000D01*
G75*
G02*
X125761000Y-123363000I0J50000D01*
G01*
X125761000Y-121813000D01*
G75*
G02*
X125811000Y-121763000I50000J0D01*
G01*
X126411000Y-121763000D01*
G75*
G02*
X126461000Y-121813000I0J-50000D01*
G01*
X126461000Y-123363000D01*
G75*
G02*
X126411000Y-123413000I-50000J0D01*
G01*
G37*
%TD*%
D10*
%TO.C,U9*%
X100076000Y-65024000D03*
X100076000Y-67564000D03*
X100076000Y-70104000D03*
%TD*%
%TO.C,U8*%
G36*
G01*
X133467000Y-78498000D02*
X134117000Y-78498000D01*
G75*
G02*
X134167000Y-78548000I0J-50000D01*
G01*
X134167000Y-79608000D01*
G75*
G02*
X134117000Y-79658000I-50000J0D01*
G01*
X133467000Y-79658000D01*
G75*
G02*
X133417000Y-79608000I0J50000D01*
G01*
X133417000Y-78548000D01*
G75*
G02*
X133467000Y-78498000I50000J0D01*
G01*
G37*
G36*
G01*
X131567000Y-78498000D02*
X132217000Y-78498000D01*
G75*
G02*
X132267000Y-78548000I0J-50000D01*
G01*
X132267000Y-79608000D01*
G75*
G02*
X132217000Y-79658000I-50000J0D01*
G01*
X131567000Y-79658000D01*
G75*
G02*
X131517000Y-79608000I0J50000D01*
G01*
X131517000Y-78548000D01*
G75*
G02*
X131567000Y-78498000I50000J0D01*
G01*
G37*
G36*
G01*
X131567000Y-76298000D02*
X132217000Y-76298000D01*
G75*
G02*
X132267000Y-76348000I0J-50000D01*
G01*
X132267000Y-77408000D01*
G75*
G02*
X132217000Y-77458000I-50000J0D01*
G01*
X131567000Y-77458000D01*
G75*
G02*
X131517000Y-77408000I0J50000D01*
G01*
X131517000Y-76348000D01*
G75*
G02*
X131567000Y-76298000I50000J0D01*
G01*
G37*
G36*
G01*
X132517000Y-76298000D02*
X133167000Y-76298000D01*
G75*
G02*
X133217000Y-76348000I0J-50000D01*
G01*
X133217000Y-77408000D01*
G75*
G02*
X133167000Y-77458000I-50000J0D01*
G01*
X132517000Y-77458000D01*
G75*
G02*
X132467000Y-77408000I0J50000D01*
G01*
X132467000Y-76348000D01*
G75*
G02*
X132517000Y-76298000I50000J0D01*
G01*
G37*
G36*
G01*
X133467000Y-76298000D02*
X134117000Y-76298000D01*
G75*
G02*
X134167000Y-76348000I0J-50000D01*
G01*
X134167000Y-77408000D01*
G75*
G02*
X134117000Y-77458000I-50000J0D01*
G01*
X133467000Y-77458000D01*
G75*
G02*
X133417000Y-77408000I0J50000D01*
G01*
X133417000Y-76348000D01*
G75*
G02*
X133467000Y-76298000I50000J0D01*
G01*
G37*
%TD*%
%TO.C,U5*%
G36*
G01*
X123033000Y-136063000D02*
X123033000Y-135463000D01*
G75*
G02*
X123083000Y-135413000I50000J0D01*
G01*
X124633000Y-135413000D01*
G75*
G02*
X124683000Y-135463000I0J-50000D01*
G01*
X124683000Y-136063000D01*
G75*
G02*
X124633000Y-136113000I-50000J0D01*
G01*
X123083000Y-136113000D01*
G75*
G02*
X123033000Y-136063000I0J50000D01*
G01*
G37*
G36*
G01*
X123033000Y-138603000D02*
X123033000Y-138003000D01*
G75*
G02*
X123083000Y-137953000I50000J0D01*
G01*
X124633000Y-137953000D01*
G75*
G02*
X124683000Y-138003000I0J-50000D01*
G01*
X124683000Y-138603000D01*
G75*
G02*
X124633000Y-138653000I-50000J0D01*
G01*
X123083000Y-138653000D01*
G75*
G02*
X123033000Y-138603000I0J50000D01*
G01*
G37*
G36*
G01*
X123033000Y-139873000D02*
X123033000Y-139273000D01*
G75*
G02*
X123083000Y-139223000I50000J0D01*
G01*
X124633000Y-139223000D01*
G75*
G02*
X124683000Y-139273000I0J-50000D01*
G01*
X124683000Y-139873000D01*
G75*
G02*
X124633000Y-139923000I-50000J0D01*
G01*
X123083000Y-139923000D01*
G75*
G02*
X123033000Y-139873000I0J50000D01*
G01*
G37*
G36*
G01*
X117633000Y-139873000D02*
X117633000Y-139273000D01*
G75*
G02*
X117683000Y-139223000I50000J0D01*
G01*
X119233000Y-139223000D01*
G75*
G02*
X119283000Y-139273000I0J-50000D01*
G01*
X119283000Y-139873000D01*
G75*
G02*
X119233000Y-139923000I-50000J0D01*
G01*
X117683000Y-139923000D01*
G75*
G02*
X117633000Y-139873000I0J50000D01*
G01*
G37*
G36*
G01*
X117633000Y-138603000D02*
X117633000Y-138003000D01*
G75*
G02*
X117683000Y-137953000I50000J0D01*
G01*
X119233000Y-137953000D01*
G75*
G02*
X119283000Y-138003000I0J-50000D01*
G01*
X119283000Y-138603000D01*
G75*
G02*
X119233000Y-138653000I-50000J0D01*
G01*
X117683000Y-138653000D01*
G75*
G02*
X117633000Y-138603000I0J50000D01*
G01*
G37*
G36*
G01*
X117633000Y-137333000D02*
X117633000Y-136733000D01*
G75*
G02*
X117683000Y-136683000I50000J0D01*
G01*
X119233000Y-136683000D01*
G75*
G02*
X119283000Y-136733000I0J-50000D01*
G01*
X119283000Y-137333000D01*
G75*
G02*
X119233000Y-137383000I-50000J0D01*
G01*
X117683000Y-137383000D01*
G75*
G02*
X117633000Y-137333000I0J50000D01*
G01*
G37*
G36*
G01*
X117633000Y-136063000D02*
X117633000Y-135463000D01*
G75*
G02*
X117683000Y-135413000I50000J0D01*
G01*
X119233000Y-135413000D01*
G75*
G02*
X119283000Y-135463000I0J-50000D01*
G01*
X119283000Y-136063000D01*
G75*
G02*
X119233000Y-136113000I-50000J0D01*
G01*
X117683000Y-136113000D01*
G75*
G02*
X117633000Y-136063000I0J50000D01*
G01*
G37*
%TD*%
%TO.C,U3*%
G36*
G01*
X123287000Y-127681000D02*
X123287000Y-127081000D01*
G75*
G02*
X123337000Y-127031000I50000J0D01*
G01*
X124887000Y-127031000D01*
G75*
G02*
X124937000Y-127081000I0J-50000D01*
G01*
X124937000Y-127681000D01*
G75*
G02*
X124887000Y-127731000I-50000J0D01*
G01*
X123337000Y-127731000D01*
G75*
G02*
X123287000Y-127681000I0J50000D01*
G01*
G37*
G36*
G01*
X123287000Y-130221000D02*
X123287000Y-129621000D01*
G75*
G02*
X123337000Y-129571000I50000J0D01*
G01*
X124887000Y-129571000D01*
G75*
G02*
X124937000Y-129621000I0J-50000D01*
G01*
X124937000Y-130221000D01*
G75*
G02*
X124887000Y-130271000I-50000J0D01*
G01*
X123337000Y-130271000D01*
G75*
G02*
X123287000Y-130221000I0J50000D01*
G01*
G37*
G36*
G01*
X123287000Y-131491000D02*
X123287000Y-130891000D01*
G75*
G02*
X123337000Y-130841000I50000J0D01*
G01*
X124887000Y-130841000D01*
G75*
G02*
X124937000Y-130891000I0J-50000D01*
G01*
X124937000Y-131491000D01*
G75*
G02*
X124887000Y-131541000I-50000J0D01*
G01*
X123337000Y-131541000D01*
G75*
G02*
X123287000Y-131491000I0J50000D01*
G01*
G37*
G36*
G01*
X117887000Y-131491000D02*
X117887000Y-130891000D01*
G75*
G02*
X117937000Y-130841000I50000J0D01*
G01*
X119487000Y-130841000D01*
G75*
G02*
X119537000Y-130891000I0J-50000D01*
G01*
X119537000Y-131491000D01*
G75*
G02*
X119487000Y-131541000I-50000J0D01*
G01*
X117937000Y-131541000D01*
G75*
G02*
X117887000Y-131491000I0J50000D01*
G01*
G37*
G36*
G01*
X117887000Y-130221000D02*
X117887000Y-129621000D01*
G75*
G02*
X117937000Y-129571000I50000J0D01*
G01*
X119487000Y-129571000D01*
G75*
G02*
X119537000Y-129621000I0J-50000D01*
G01*
X119537000Y-130221000D01*
G75*
G02*
X119487000Y-130271000I-50000J0D01*
G01*
X117937000Y-130271000D01*
G75*
G02*
X117887000Y-130221000I0J50000D01*
G01*
G37*
G36*
G01*
X117887000Y-128951000D02*
X117887000Y-128351000D01*
G75*
G02*
X117937000Y-128301000I50000J0D01*
G01*
X119487000Y-128301000D01*
G75*
G02*
X119537000Y-128351000I0J-50000D01*
G01*
X119537000Y-128951000D01*
G75*
G02*
X119487000Y-129001000I-50000J0D01*
G01*
X117937000Y-129001000D01*
G75*
G02*
X117887000Y-128951000I0J50000D01*
G01*
G37*
G36*
G01*
X117887000Y-127681000D02*
X117887000Y-127081000D01*
G75*
G02*
X117937000Y-127031000I50000J0D01*
G01*
X119487000Y-127031000D01*
G75*
G02*
X119537000Y-127081000I0J-50000D01*
G01*
X119537000Y-127681000D01*
G75*
G02*
X119487000Y-127731000I-50000J0D01*
G01*
X117937000Y-127731000D01*
G75*
G02*
X117887000Y-127681000I0J50000D01*
G01*
G37*
%TD*%
%TO.C,U2*%
G36*
G01*
X83578000Y-70749000D02*
X83578000Y-70099000D01*
G75*
G02*
X83628000Y-70049000I50000J0D01*
G01*
X84688000Y-70049000D01*
G75*
G02*
X84738000Y-70099000I0J-50000D01*
G01*
X84738000Y-70749000D01*
G75*
G02*
X84688000Y-70799000I-50000J0D01*
G01*
X83628000Y-70799000D01*
G75*
G02*
X83578000Y-70749000I0J50000D01*
G01*
G37*
G36*
G01*
X83578000Y-72649000D02*
X83578000Y-71999000D01*
G75*
G02*
X83628000Y-71949000I50000J0D01*
G01*
X84688000Y-71949000D01*
G75*
G02*
X84738000Y-71999000I0J-50000D01*
G01*
X84738000Y-72649000D01*
G75*
G02*
X84688000Y-72699000I-50000J0D01*
G01*
X83628000Y-72699000D01*
G75*
G02*
X83578000Y-72649000I0J50000D01*
G01*
G37*
G36*
G01*
X81378000Y-72649000D02*
X81378000Y-71999000D01*
G75*
G02*
X81428000Y-71949000I50000J0D01*
G01*
X82488000Y-71949000D01*
G75*
G02*
X82538000Y-71999000I0J-50000D01*
G01*
X82538000Y-72649000D01*
G75*
G02*
X82488000Y-72699000I-50000J0D01*
G01*
X81428000Y-72699000D01*
G75*
G02*
X81378000Y-72649000I0J50000D01*
G01*
G37*
G36*
G01*
X81378000Y-71699000D02*
X81378000Y-71049000D01*
G75*
G02*
X81428000Y-70999000I50000J0D01*
G01*
X82488000Y-70999000D01*
G75*
G02*
X82538000Y-71049000I0J-50000D01*
G01*
X82538000Y-71699000D01*
G75*
G02*
X82488000Y-71749000I-50000J0D01*
G01*
X81428000Y-71749000D01*
G75*
G02*
X81378000Y-71699000I0J50000D01*
G01*
G37*
G36*
G01*
X81378000Y-70749000D02*
X81378000Y-70099000D01*
G75*
G02*
X81428000Y-70049000I50000J0D01*
G01*
X82488000Y-70049000D01*
G75*
G02*
X82538000Y-70099000I0J-50000D01*
G01*
X82538000Y-70749000D01*
G75*
G02*
X82488000Y-70799000I-50000J0D01*
G01*
X81428000Y-70799000D01*
G75*
G02*
X81378000Y-70749000I0J50000D01*
G01*
G37*
%TD*%
%TO.C,R47*%
G36*
G01*
X144534500Y-84282000D02*
X144009500Y-84282000D01*
G75*
G02*
X143747000Y-84019500I0J262500D01*
G01*
X143747000Y-83394500D01*
G75*
G02*
X144009500Y-83132000I262500J0D01*
G01*
X144534500Y-83132000D01*
G75*
G02*
X144797000Y-83394500I0J-262500D01*
G01*
X144797000Y-84019500D01*
G75*
G02*
X144534500Y-84282000I-262500J0D01*
G01*
G37*
G36*
G01*
X144534500Y-86032000D02*
X144009500Y-86032000D01*
G75*
G02*
X143747000Y-85769500I0J262500D01*
G01*
X143747000Y-85144500D01*
G75*
G02*
X144009500Y-84882000I262500J0D01*
G01*
X144534500Y-84882000D01*
G75*
G02*
X144797000Y-85144500I0J-262500D01*
G01*
X144797000Y-85769500D01*
G75*
G02*
X144534500Y-86032000I-262500J0D01*
G01*
G37*
%TD*%
%TO.C,R46*%
G36*
G01*
X121366000Y-67047500D02*
X121366000Y-67572500D01*
G75*
G02*
X121103500Y-67835000I-262500J0D01*
G01*
X120478500Y-67835000D01*
G75*
G02*
X120216000Y-67572500I0J262500D01*
G01*
X120216000Y-67047500D01*
G75*
G02*
X120478500Y-66785000I262500J0D01*
G01*
X121103500Y-66785000D01*
G75*
G02*
X121366000Y-67047500I0J-262500D01*
G01*
G37*
G36*
G01*
X123116000Y-67047500D02*
X123116000Y-67572500D01*
G75*
G02*
X122853500Y-67835000I-262500J0D01*
G01*
X122228500Y-67835000D01*
G75*
G02*
X121966000Y-67572500I0J262500D01*
G01*
X121966000Y-67047500D01*
G75*
G02*
X122228500Y-66785000I262500J0D01*
G01*
X122853500Y-66785000D01*
G75*
G02*
X123116000Y-67047500I0J-262500D01*
G01*
G37*
%TD*%
%TO.C,R45*%
G36*
G01*
X131817500Y-66086000D02*
X132342500Y-66086000D01*
G75*
G02*
X132605000Y-66348500I0J-262500D01*
G01*
X132605000Y-66973500D01*
G75*
G02*
X132342500Y-67236000I-262500J0D01*
G01*
X131817500Y-67236000D01*
G75*
G02*
X131555000Y-66973500I0J262500D01*
G01*
X131555000Y-66348500D01*
G75*
G02*
X131817500Y-66086000I262500J0D01*
G01*
G37*
G36*
G01*
X131817500Y-64336000D02*
X132342500Y-64336000D01*
G75*
G02*
X132605000Y-64598500I0J-262500D01*
G01*
X132605000Y-65223500D01*
G75*
G02*
X132342500Y-65486000I-262500J0D01*
G01*
X131817500Y-65486000D01*
G75*
G02*
X131555000Y-65223500I0J262500D01*
G01*
X131555000Y-64598500D01*
G75*
G02*
X131817500Y-64336000I262500J0D01*
G01*
G37*
%TD*%
%TO.C,R44*%
G36*
G01*
X153170500Y-82758000D02*
X152645500Y-82758000D01*
G75*
G02*
X152383000Y-82495500I0J262500D01*
G01*
X152383000Y-81870500D01*
G75*
G02*
X152645500Y-81608000I262500J0D01*
G01*
X153170500Y-81608000D01*
G75*
G02*
X153433000Y-81870500I0J-262500D01*
G01*
X153433000Y-82495500D01*
G75*
G02*
X153170500Y-82758000I-262500J0D01*
G01*
G37*
G36*
G01*
X153170500Y-84508000D02*
X152645500Y-84508000D01*
G75*
G02*
X152383000Y-84245500I0J262500D01*
G01*
X152383000Y-83620500D01*
G75*
G02*
X152645500Y-83358000I262500J0D01*
G01*
X153170500Y-83358000D01*
G75*
G02*
X153433000Y-83620500I0J-262500D01*
G01*
X153433000Y-84245500D01*
G75*
G02*
X153170500Y-84508000I-262500J0D01*
G01*
G37*
%TD*%
%TO.C,R43*%
G36*
G01*
X136606000Y-66539500D02*
X136606000Y-67064500D01*
G75*
G02*
X136343500Y-67327000I-262500J0D01*
G01*
X135718500Y-67327000D01*
G75*
G02*
X135456000Y-67064500I0J262500D01*
G01*
X135456000Y-66539500D01*
G75*
G02*
X135718500Y-66277000I262500J0D01*
G01*
X136343500Y-66277000D01*
G75*
G02*
X136606000Y-66539500I0J-262500D01*
G01*
G37*
G36*
G01*
X138356000Y-66539500D02*
X138356000Y-67064500D01*
G75*
G02*
X138093500Y-67327000I-262500J0D01*
G01*
X137468500Y-67327000D01*
G75*
G02*
X137206000Y-67064500I0J262500D01*
G01*
X137206000Y-66539500D01*
G75*
G02*
X137468500Y-66277000I262500J0D01*
G01*
X138093500Y-66277000D01*
G75*
G02*
X138356000Y-66539500I0J-262500D01*
G01*
G37*
%TD*%
%TO.C,R42*%
G36*
G01*
X147311500Y-66086000D02*
X147836500Y-66086000D01*
G75*
G02*
X148099000Y-66348500I0J-262500D01*
G01*
X148099000Y-66973500D01*
G75*
G02*
X147836500Y-67236000I-262500J0D01*
G01*
X147311500Y-67236000D01*
G75*
G02*
X147049000Y-66973500I0J262500D01*
G01*
X147049000Y-66348500D01*
G75*
G02*
X147311500Y-66086000I262500J0D01*
G01*
G37*
G36*
G01*
X147311500Y-64336000D02*
X147836500Y-64336000D01*
G75*
G02*
X148099000Y-64598500I0J-262500D01*
G01*
X148099000Y-65223500D01*
G75*
G02*
X147836500Y-65486000I-262500J0D01*
G01*
X147311500Y-65486000D01*
G75*
G02*
X147049000Y-65223500I0J262500D01*
G01*
X147049000Y-64598500D01*
G75*
G02*
X147311500Y-64336000I262500J0D01*
G01*
G37*
%TD*%
%TO.C,R41*%
G36*
G01*
X160282500Y-82504000D02*
X159757500Y-82504000D01*
G75*
G02*
X159495000Y-82241500I0J262500D01*
G01*
X159495000Y-81616500D01*
G75*
G02*
X159757500Y-81354000I262500J0D01*
G01*
X160282500Y-81354000D01*
G75*
G02*
X160545000Y-81616500I0J-262500D01*
G01*
X160545000Y-82241500D01*
G75*
G02*
X160282500Y-82504000I-262500J0D01*
G01*
G37*
G36*
G01*
X160282500Y-84254000D02*
X159757500Y-84254000D01*
G75*
G02*
X159495000Y-83991500I0J262500D01*
G01*
X159495000Y-83366500D01*
G75*
G02*
X159757500Y-83104000I262500J0D01*
G01*
X160282500Y-83104000D01*
G75*
G02*
X160545000Y-83366500I0J-262500D01*
G01*
X160545000Y-83991500D01*
G75*
G02*
X160282500Y-84254000I-262500J0D01*
G01*
G37*
%TD*%
%TO.C,R40*%
G36*
G01*
X152354000Y-67047500D02*
X152354000Y-67572500D01*
G75*
G02*
X152091500Y-67835000I-262500J0D01*
G01*
X151466500Y-67835000D01*
G75*
G02*
X151204000Y-67572500I0J262500D01*
G01*
X151204000Y-67047500D01*
G75*
G02*
X151466500Y-66785000I262500J0D01*
G01*
X152091500Y-66785000D01*
G75*
G02*
X152354000Y-67047500I0J-262500D01*
G01*
G37*
G36*
G01*
X154104000Y-67047500D02*
X154104000Y-67572500D01*
G75*
G02*
X153841500Y-67835000I-262500J0D01*
G01*
X153216500Y-67835000D01*
G75*
G02*
X152954000Y-67572500I0J262500D01*
G01*
X152954000Y-67047500D01*
G75*
G02*
X153216500Y-66785000I262500J0D01*
G01*
X153841500Y-66785000D01*
G75*
G02*
X154104000Y-67047500I0J-262500D01*
G01*
G37*
%TD*%
%TO.C,R39*%
G36*
G01*
X162805500Y-67356000D02*
X163330500Y-67356000D01*
G75*
G02*
X163593000Y-67618500I0J-262500D01*
G01*
X163593000Y-68243500D01*
G75*
G02*
X163330500Y-68506000I-262500J0D01*
G01*
X162805500Y-68506000D01*
G75*
G02*
X162543000Y-68243500I0J262500D01*
G01*
X162543000Y-67618500D01*
G75*
G02*
X162805500Y-67356000I262500J0D01*
G01*
G37*
G36*
G01*
X162805500Y-65606000D02*
X163330500Y-65606000D01*
G75*
G02*
X163593000Y-65868500I0J-262500D01*
G01*
X163593000Y-66493500D01*
G75*
G02*
X163330500Y-66756000I-262500J0D01*
G01*
X162805500Y-66756000D01*
G75*
G02*
X162543000Y-66493500I0J262500D01*
G01*
X162543000Y-65868500D01*
G75*
G02*
X162805500Y-65606000I262500J0D01*
G01*
G37*
%TD*%
%TO.C,R38*%
G36*
G01*
X153170500Y-75900000D02*
X152645500Y-75900000D01*
G75*
G02*
X152383000Y-75637500I0J262500D01*
G01*
X152383000Y-75012500D01*
G75*
G02*
X152645500Y-74750000I262500J0D01*
G01*
X153170500Y-74750000D01*
G75*
G02*
X153433000Y-75012500I0J-262500D01*
G01*
X153433000Y-75637500D01*
G75*
G02*
X153170500Y-75900000I-262500J0D01*
G01*
G37*
G36*
G01*
X153170500Y-77650000D02*
X152645500Y-77650000D01*
G75*
G02*
X152383000Y-77387500I0J262500D01*
G01*
X152383000Y-76762500D01*
G75*
G02*
X152645500Y-76500000I262500J0D01*
G01*
X153170500Y-76500000D01*
G75*
G02*
X153433000Y-76762500I0J-262500D01*
G01*
X153433000Y-77387500D01*
G75*
G02*
X153170500Y-77650000I-262500J0D01*
G01*
G37*
%TD*%
%TO.C,R37*%
G36*
G01*
X159466000Y-49013500D02*
X159466000Y-49538500D01*
G75*
G02*
X159203500Y-49801000I-262500J0D01*
G01*
X158578500Y-49801000D01*
G75*
G02*
X158316000Y-49538500I0J262500D01*
G01*
X158316000Y-49013500D01*
G75*
G02*
X158578500Y-48751000I262500J0D01*
G01*
X159203500Y-48751000D01*
G75*
G02*
X159466000Y-49013500I0J-262500D01*
G01*
G37*
G36*
G01*
X161216000Y-49013500D02*
X161216000Y-49538500D01*
G75*
G02*
X160953500Y-49801000I-262500J0D01*
G01*
X160328500Y-49801000D01*
G75*
G02*
X160066000Y-49538500I0J262500D01*
G01*
X160066000Y-49013500D01*
G75*
G02*
X160328500Y-48751000I262500J0D01*
G01*
X160953500Y-48751000D01*
G75*
G02*
X161216000Y-49013500I0J-262500D01*
G01*
G37*
%TD*%
%TO.C,R36*%
G36*
G01*
X158958000Y-59173500D02*
X158958000Y-59698500D01*
G75*
G02*
X158695500Y-59961000I-262500J0D01*
G01*
X158070500Y-59961000D01*
G75*
G02*
X157808000Y-59698500I0J262500D01*
G01*
X157808000Y-59173500D01*
G75*
G02*
X158070500Y-58911000I262500J0D01*
G01*
X158695500Y-58911000D01*
G75*
G02*
X158958000Y-59173500I0J-262500D01*
G01*
G37*
G36*
G01*
X160708000Y-59173500D02*
X160708000Y-59698500D01*
G75*
G02*
X160445500Y-59961000I-262500J0D01*
G01*
X159820500Y-59961000D01*
G75*
G02*
X159558000Y-59698500I0J262500D01*
G01*
X159558000Y-59173500D01*
G75*
G02*
X159820500Y-58911000I262500J0D01*
G01*
X160445500Y-58911000D01*
G75*
G02*
X160708000Y-59173500I0J-262500D01*
G01*
G37*
%TD*%
%TO.C,R35*%
G36*
G01*
X117302000Y-68317500D02*
X117302000Y-68842500D01*
G75*
G02*
X117039500Y-69105000I-262500J0D01*
G01*
X116414500Y-69105000D01*
G75*
G02*
X116152000Y-68842500I0J262500D01*
G01*
X116152000Y-68317500D01*
G75*
G02*
X116414500Y-68055000I262500J0D01*
G01*
X117039500Y-68055000D01*
G75*
G02*
X117302000Y-68317500I0J-262500D01*
G01*
G37*
G36*
G01*
X119052000Y-68317500D02*
X119052000Y-68842500D01*
G75*
G02*
X118789500Y-69105000I-262500J0D01*
G01*
X118164500Y-69105000D01*
G75*
G02*
X117902000Y-68842500I0J262500D01*
G01*
X117902000Y-68317500D01*
G75*
G02*
X118164500Y-68055000I262500J0D01*
G01*
X118789500Y-68055000D01*
G75*
G02*
X119052000Y-68317500I0J-262500D01*
G01*
G37*
%TD*%
%TO.C,R34*%
G36*
G01*
X155202500Y-89362000D02*
X154677500Y-89362000D01*
G75*
G02*
X154415000Y-89099500I0J262500D01*
G01*
X154415000Y-88474500D01*
G75*
G02*
X154677500Y-88212000I262500J0D01*
G01*
X155202500Y-88212000D01*
G75*
G02*
X155465000Y-88474500I0J-262500D01*
G01*
X155465000Y-89099500D01*
G75*
G02*
X155202500Y-89362000I-262500J0D01*
G01*
G37*
G36*
G01*
X155202500Y-91112000D02*
X154677500Y-91112000D01*
G75*
G02*
X154415000Y-90849500I0J262500D01*
G01*
X154415000Y-90224500D01*
G75*
G02*
X154677500Y-89962000I262500J0D01*
G01*
X155202500Y-89962000D01*
G75*
G02*
X155465000Y-90224500I0J-262500D01*
G01*
X155465000Y-90849500D01*
G75*
G02*
X155202500Y-91112000I-262500J0D01*
G01*
G37*
%TD*%
%TO.C,R33*%
G36*
G01*
X117186608Y-89915000D02*
X114969392Y-89915000D01*
G75*
G02*
X114703000Y-89648608I0J266392D01*
G01*
X114703000Y-88556392D01*
G75*
G02*
X114969392Y-88290000I266392J0D01*
G01*
X117186608Y-88290000D01*
G75*
G02*
X117453000Y-88556392I0J-266392D01*
G01*
X117453000Y-89648608D01*
G75*
G02*
X117186608Y-89915000I-266392J0D01*
G01*
G37*
G36*
G01*
X117186608Y-94590000D02*
X114969392Y-94590000D01*
G75*
G02*
X114703000Y-94323608I0J266392D01*
G01*
X114703000Y-93231392D01*
G75*
G02*
X114969392Y-92965000I266392J0D01*
G01*
X117186608Y-92965000D01*
G75*
G02*
X117453000Y-93231392I0J-266392D01*
G01*
X117453000Y-94323608D01*
G75*
G02*
X117186608Y-94590000I-266392J0D01*
G01*
G37*
%TD*%
%TO.C,R23*%
G36*
G01*
X144731500Y-93807000D02*
X144206500Y-93807000D01*
G75*
G02*
X143944000Y-93544500I0J262500D01*
G01*
X143944000Y-92919500D01*
G75*
G02*
X144206500Y-92657000I262500J0D01*
G01*
X144731500Y-92657000D01*
G75*
G02*
X144994000Y-92919500I0J-262500D01*
G01*
X144994000Y-93544500D01*
G75*
G02*
X144731500Y-93807000I-262500J0D01*
G01*
G37*
G36*
G01*
X144731500Y-95557000D02*
X144206500Y-95557000D01*
G75*
G02*
X143944000Y-95294500I0J262500D01*
G01*
X143944000Y-94669500D01*
G75*
G02*
X144206500Y-94407000I262500J0D01*
G01*
X144731500Y-94407000D01*
G75*
G02*
X144994000Y-94669500I0J-262500D01*
G01*
X144994000Y-95294500D01*
G75*
G02*
X144731500Y-95557000I-262500J0D01*
G01*
G37*
%TD*%
%TO.C,R22*%
G36*
G01*
X155202500Y-93934000D02*
X154677500Y-93934000D01*
G75*
G02*
X154415000Y-93671500I0J262500D01*
G01*
X154415000Y-93046500D01*
G75*
G02*
X154677500Y-92784000I262500J0D01*
G01*
X155202500Y-92784000D01*
G75*
G02*
X155465000Y-93046500I0J-262500D01*
G01*
X155465000Y-93671500D01*
G75*
G02*
X155202500Y-93934000I-262500J0D01*
G01*
G37*
G36*
G01*
X155202500Y-95684000D02*
X154677500Y-95684000D01*
G75*
G02*
X154415000Y-95421500I0J262500D01*
G01*
X154415000Y-94796500D01*
G75*
G02*
X154677500Y-94534000I262500J0D01*
G01*
X155202500Y-94534000D01*
G75*
G02*
X155465000Y-94796500I0J-262500D01*
G01*
X155465000Y-95421500D01*
G75*
G02*
X155202500Y-95684000I-262500J0D01*
G01*
G37*
%TD*%
%TO.C,R20*%
G36*
G01*
X135919738Y-106572000D02*
X136876262Y-106572000D01*
G75*
G02*
X137148000Y-106843738I0J-271738D01*
G01*
X137148000Y-107550262D01*
G75*
G02*
X136876262Y-107822000I-271738J0D01*
G01*
X135919738Y-107822000D01*
G75*
G02*
X135648000Y-107550262I0J271738D01*
G01*
X135648000Y-106843738D01*
G75*
G02*
X135919738Y-106572000I271738J0D01*
G01*
G37*
G36*
G01*
X135919738Y-104522000D02*
X136876262Y-104522000D01*
G75*
G02*
X137148000Y-104793738I0J-271738D01*
G01*
X137148000Y-105500262D01*
G75*
G02*
X136876262Y-105772000I-271738J0D01*
G01*
X135919738Y-105772000D01*
G75*
G02*
X135648000Y-105500262I0J271738D01*
G01*
X135648000Y-104793738D01*
G75*
G02*
X135919738Y-104522000I271738J0D01*
G01*
G37*
%TD*%
%TO.C,R19*%
G36*
G01*
X125176000Y-107433500D02*
X125176000Y-107958500D01*
G75*
G02*
X124913500Y-108221000I-262500J0D01*
G01*
X124288500Y-108221000D01*
G75*
G02*
X124026000Y-107958500I0J262500D01*
G01*
X124026000Y-107433500D01*
G75*
G02*
X124288500Y-107171000I262500J0D01*
G01*
X124913500Y-107171000D01*
G75*
G02*
X125176000Y-107433500I0J-262500D01*
G01*
G37*
G36*
G01*
X126926000Y-107433500D02*
X126926000Y-107958500D01*
G75*
G02*
X126663500Y-108221000I-262500J0D01*
G01*
X126038500Y-108221000D01*
G75*
G02*
X125776000Y-107958500I0J262500D01*
G01*
X125776000Y-107433500D01*
G75*
G02*
X126038500Y-107171000I262500J0D01*
G01*
X126663500Y-107171000D01*
G75*
G02*
X126926000Y-107433500I0J-262500D01*
G01*
G37*
%TD*%
%TO.C,R18*%
G36*
G01*
X144661500Y-89489000D02*
X144136500Y-89489000D01*
G75*
G02*
X143874000Y-89226500I0J262500D01*
G01*
X143874000Y-88601500D01*
G75*
G02*
X144136500Y-88339000I262500J0D01*
G01*
X144661500Y-88339000D01*
G75*
G02*
X144924000Y-88601500I0J-262500D01*
G01*
X144924000Y-89226500D01*
G75*
G02*
X144661500Y-89489000I-262500J0D01*
G01*
G37*
G36*
G01*
X144661500Y-91239000D02*
X144136500Y-91239000D01*
G75*
G02*
X143874000Y-90976500I0J262500D01*
G01*
X143874000Y-90351500D01*
G75*
G02*
X144136500Y-90089000I262500J0D01*
G01*
X144661500Y-90089000D01*
G75*
G02*
X144924000Y-90351500I0J-262500D01*
G01*
X144924000Y-90976500D01*
G75*
G02*
X144661500Y-91239000I-262500J0D01*
G01*
G37*
%TD*%
%TO.C,R17*%
G36*
G01*
X126384000Y-112746262D02*
X126384000Y-111789738D01*
G75*
G02*
X126655738Y-111518000I271738J0D01*
G01*
X127362262Y-111518000D01*
G75*
G02*
X127634000Y-111789738I0J-271738D01*
G01*
X127634000Y-112746262D01*
G75*
G02*
X127362262Y-113018000I-271738J0D01*
G01*
X126655738Y-113018000D01*
G75*
G02*
X126384000Y-112746262I0J271738D01*
G01*
G37*
G36*
G01*
X124334000Y-112746262D02*
X124334000Y-111789738D01*
G75*
G02*
X124605738Y-111518000I271738J0D01*
G01*
X125312262Y-111518000D01*
G75*
G02*
X125584000Y-111789738I0J-271738D01*
G01*
X125584000Y-112746262D01*
G75*
G02*
X125312262Y-113018000I-271738J0D01*
G01*
X124605738Y-113018000D01*
G75*
G02*
X124334000Y-112746262I0J271738D01*
G01*
G37*
%TD*%
%TO.C,R16*%
G36*
G01*
X125975500Y-134412000D02*
X126500500Y-134412000D01*
G75*
G02*
X126763000Y-134674500I0J-262500D01*
G01*
X126763000Y-135299500D01*
G75*
G02*
X126500500Y-135562000I-262500J0D01*
G01*
X125975500Y-135562000D01*
G75*
G02*
X125713000Y-135299500I0J262500D01*
G01*
X125713000Y-134674500D01*
G75*
G02*
X125975500Y-134412000I262500J0D01*
G01*
G37*
G36*
G01*
X125975500Y-132662000D02*
X126500500Y-132662000D01*
G75*
G02*
X126763000Y-132924500I0J-262500D01*
G01*
X126763000Y-133549500D01*
G75*
G02*
X126500500Y-133812000I-262500J0D01*
G01*
X125975500Y-133812000D01*
G75*
G02*
X125713000Y-133549500I0J262500D01*
G01*
X125713000Y-132924500D01*
G75*
G02*
X125975500Y-132662000I262500J0D01*
G01*
G37*
%TD*%
%TO.C,R15*%
G36*
G01*
X115016000Y-138167500D02*
X115016000Y-138692500D01*
G75*
G02*
X114753500Y-138955000I-262500J0D01*
G01*
X114128500Y-138955000D01*
G75*
G02*
X113866000Y-138692500I0J262500D01*
G01*
X113866000Y-138167500D01*
G75*
G02*
X114128500Y-137905000I262500J0D01*
G01*
X114753500Y-137905000D01*
G75*
G02*
X115016000Y-138167500I0J-262500D01*
G01*
G37*
G36*
G01*
X116766000Y-138167500D02*
X116766000Y-138692500D01*
G75*
G02*
X116503500Y-138955000I-262500J0D01*
G01*
X115878500Y-138955000D01*
G75*
G02*
X115616000Y-138692500I0J262500D01*
G01*
X115616000Y-138167500D01*
G75*
G02*
X115878500Y-137905000I262500J0D01*
G01*
X116503500Y-137905000D01*
G75*
G02*
X116766000Y-138167500I0J-262500D01*
G01*
G37*
%TD*%
%TO.C,R14*%
G36*
G01*
X131825000Y-80679392D02*
X131825000Y-82896608D01*
G75*
G02*
X131558608Y-83163000I-266392J0D01*
G01*
X130466392Y-83163000D01*
G75*
G02*
X130200000Y-82896608I0J266392D01*
G01*
X130200000Y-80679392D01*
G75*
G02*
X130466392Y-80413000I266392J0D01*
G01*
X131558608Y-80413000D01*
G75*
G02*
X131825000Y-80679392I0J-266392D01*
G01*
G37*
G36*
G01*
X136500000Y-80679392D02*
X136500000Y-82896608D01*
G75*
G02*
X136233608Y-83163000I-266392J0D01*
G01*
X135141392Y-83163000D01*
G75*
G02*
X134875000Y-82896608I0J266392D01*
G01*
X134875000Y-80679392D01*
G75*
G02*
X135141392Y-80413000I266392J0D01*
G01*
X136233608Y-80413000D01*
G75*
G02*
X136500000Y-80679392I0J-266392D01*
G01*
G37*
%TD*%
%TO.C,R13*%
G36*
G01*
X129531500Y-126030000D02*
X130056500Y-126030000D01*
G75*
G02*
X130319000Y-126292500I0J-262500D01*
G01*
X130319000Y-126917500D01*
G75*
G02*
X130056500Y-127180000I-262500J0D01*
G01*
X129531500Y-127180000D01*
G75*
G02*
X129269000Y-126917500I0J262500D01*
G01*
X129269000Y-126292500D01*
G75*
G02*
X129531500Y-126030000I262500J0D01*
G01*
G37*
G36*
G01*
X129531500Y-124280000D02*
X130056500Y-124280000D01*
G75*
G02*
X130319000Y-124542500I0J-262500D01*
G01*
X130319000Y-125167500D01*
G75*
G02*
X130056500Y-125430000I-262500J0D01*
G01*
X129531500Y-125430000D01*
G75*
G02*
X129269000Y-125167500I0J262500D01*
G01*
X129269000Y-124542500D01*
G75*
G02*
X129531500Y-124280000I262500J0D01*
G01*
G37*
%TD*%
%TO.C,R7*%
G36*
G01*
X125975500Y-128570000D02*
X126500500Y-128570000D01*
G75*
G02*
X126763000Y-128832500I0J-262500D01*
G01*
X126763000Y-129457500D01*
G75*
G02*
X126500500Y-129720000I-262500J0D01*
G01*
X125975500Y-129720000D01*
G75*
G02*
X125713000Y-129457500I0J262500D01*
G01*
X125713000Y-128832500D01*
G75*
G02*
X125975500Y-128570000I262500J0D01*
G01*
G37*
G36*
G01*
X125975500Y-126820000D02*
X126500500Y-126820000D01*
G75*
G02*
X126763000Y-127082500I0J-262500D01*
G01*
X126763000Y-127707500D01*
G75*
G02*
X126500500Y-127970000I-262500J0D01*
G01*
X125975500Y-127970000D01*
G75*
G02*
X125713000Y-127707500I0J262500D01*
G01*
X125713000Y-127082500D01*
G75*
G02*
X125975500Y-126820000I262500J0D01*
G01*
G37*
%TD*%
%TO.C,R6*%
G36*
G01*
X118826000Y-125213500D02*
X118826000Y-125738500D01*
G75*
G02*
X118563500Y-126001000I-262500J0D01*
G01*
X117938500Y-126001000D01*
G75*
G02*
X117676000Y-125738500I0J262500D01*
G01*
X117676000Y-125213500D01*
G75*
G02*
X117938500Y-124951000I262500J0D01*
G01*
X118563500Y-124951000D01*
G75*
G02*
X118826000Y-125213500I0J-262500D01*
G01*
G37*
G36*
G01*
X120576000Y-125213500D02*
X120576000Y-125738500D01*
G75*
G02*
X120313500Y-126001000I-262500J0D01*
G01*
X119688500Y-126001000D01*
G75*
G02*
X119426000Y-125738500I0J262500D01*
G01*
X119426000Y-125213500D01*
G75*
G02*
X119688500Y-124951000I262500J0D01*
G01*
X120313500Y-124951000D01*
G75*
G02*
X120576000Y-125213500I0J-262500D01*
G01*
G37*
%TD*%
%TO.C,R5*%
G36*
G01*
X144534500Y-77170000D02*
X144009500Y-77170000D01*
G75*
G02*
X143747000Y-76907500I0J262500D01*
G01*
X143747000Y-76282500D01*
G75*
G02*
X144009500Y-76020000I262500J0D01*
G01*
X144534500Y-76020000D01*
G75*
G02*
X144797000Y-76282500I0J-262500D01*
G01*
X144797000Y-76907500D01*
G75*
G02*
X144534500Y-77170000I-262500J0D01*
G01*
G37*
G36*
G01*
X144534500Y-78920000D02*
X144009500Y-78920000D01*
G75*
G02*
X143747000Y-78657500I0J262500D01*
G01*
X143747000Y-78032500D01*
G75*
G02*
X144009500Y-77770000I262500J0D01*
G01*
X144534500Y-77770000D01*
G75*
G02*
X144797000Y-78032500I0J-262500D01*
G01*
X144797000Y-78657500D01*
G75*
G02*
X144534500Y-78920000I-262500J0D01*
G01*
G37*
%TD*%
%TO.C,R3*%
G36*
G01*
X85956543Y-71337000D02*
X87271457Y-71337000D01*
G75*
G02*
X87539000Y-71604543I0J-267543D01*
G01*
X87539000Y-72594457D01*
G75*
G02*
X87271457Y-72862000I-267543J0D01*
G01*
X85956543Y-72862000D01*
G75*
G02*
X85689000Y-72594457I0J267543D01*
G01*
X85689000Y-71604543D01*
G75*
G02*
X85956543Y-71337000I267543J0D01*
G01*
G37*
G36*
G01*
X85956543Y-68362000D02*
X87271457Y-68362000D01*
G75*
G02*
X87539000Y-68629543I0J-267543D01*
G01*
X87539000Y-69619457D01*
G75*
G02*
X87271457Y-69887000I-267543J0D01*
G01*
X85956543Y-69887000D01*
G75*
G02*
X85689000Y-69619457I0J267543D01*
G01*
X85689000Y-68629543D01*
G75*
G02*
X85956543Y-68362000I267543J0D01*
G01*
G37*
%TD*%
%TO.C,R1*%
G36*
G01*
X106218000Y-135644500D02*
X106218000Y-135119500D01*
G75*
G02*
X106480500Y-134857000I262500J0D01*
G01*
X107105500Y-134857000D01*
G75*
G02*
X107368000Y-135119500I0J-262500D01*
G01*
X107368000Y-135644500D01*
G75*
G02*
X107105500Y-135907000I-262500J0D01*
G01*
X106480500Y-135907000D01*
G75*
G02*
X106218000Y-135644500I0J262500D01*
G01*
G37*
G36*
G01*
X104468000Y-135644500D02*
X104468000Y-135119500D01*
G75*
G02*
X104730500Y-134857000I262500J0D01*
G01*
X105355500Y-134857000D01*
G75*
G02*
X105618000Y-135119500I0J-262500D01*
G01*
X105618000Y-135644500D01*
G75*
G02*
X105355500Y-135907000I-262500J0D01*
G01*
X104730500Y-135907000D01*
G75*
G02*
X104468000Y-135644500I0J262500D01*
G01*
G37*
%TD*%
%TO.C,Q13*%
G36*
G01*
X127616000Y-59174000D02*
X128416000Y-59174000D01*
G75*
G02*
X128466000Y-59224000I0J-50000D01*
G01*
X128466000Y-60124000D01*
G75*
G02*
X128416000Y-60174000I-50000J0D01*
G01*
X127616000Y-60174000D01*
G75*
G02*
X127566000Y-60124000I0J50000D01*
G01*
X127566000Y-59224000D01*
G75*
G02*
X127616000Y-59174000I50000J0D01*
G01*
G37*
G36*
G01*
X126666000Y-57174000D02*
X127466000Y-57174000D01*
G75*
G02*
X127516000Y-57224000I0J-50000D01*
G01*
X127516000Y-58124000D01*
G75*
G02*
X127466000Y-58174000I-50000J0D01*
G01*
X126666000Y-58174000D01*
G75*
G02*
X126616000Y-58124000I0J50000D01*
G01*
X126616000Y-57224000D01*
G75*
G02*
X126666000Y-57174000I50000J0D01*
G01*
G37*
G36*
G01*
X128566000Y-57174000D02*
X129366000Y-57174000D01*
G75*
G02*
X129416000Y-57224000I0J-50000D01*
G01*
X129416000Y-58124000D01*
G75*
G02*
X129366000Y-58174000I-50000J0D01*
G01*
X128566000Y-58174000D01*
G75*
G02*
X128516000Y-58124000I0J50000D01*
G01*
X128516000Y-57224000D01*
G75*
G02*
X128566000Y-57174000I50000J0D01*
G01*
G37*
%TD*%
%TO.C,Q12*%
G36*
G01*
X136760000Y-59174000D02*
X137560000Y-59174000D01*
G75*
G02*
X137610000Y-59224000I0J-50000D01*
G01*
X137610000Y-60124000D01*
G75*
G02*
X137560000Y-60174000I-50000J0D01*
G01*
X136760000Y-60174000D01*
G75*
G02*
X136710000Y-60124000I0J50000D01*
G01*
X136710000Y-59224000D01*
G75*
G02*
X136760000Y-59174000I50000J0D01*
G01*
G37*
G36*
G01*
X135810000Y-57174000D02*
X136610000Y-57174000D01*
G75*
G02*
X136660000Y-57224000I0J-50000D01*
G01*
X136660000Y-58124000D01*
G75*
G02*
X136610000Y-58174000I-50000J0D01*
G01*
X135810000Y-58174000D01*
G75*
G02*
X135760000Y-58124000I0J50000D01*
G01*
X135760000Y-57224000D01*
G75*
G02*
X135810000Y-57174000I50000J0D01*
G01*
G37*
G36*
G01*
X137710000Y-57174000D02*
X138510000Y-57174000D01*
G75*
G02*
X138560000Y-57224000I0J-50000D01*
G01*
X138560000Y-58124000D01*
G75*
G02*
X138510000Y-58174000I-50000J0D01*
G01*
X137710000Y-58174000D01*
G75*
G02*
X137660000Y-58124000I0J50000D01*
G01*
X137660000Y-57224000D01*
G75*
G02*
X137710000Y-57174000I50000J0D01*
G01*
G37*
%TD*%
%TO.C,Q11*%
G36*
G01*
X145904000Y-59174000D02*
X146704000Y-59174000D01*
G75*
G02*
X146754000Y-59224000I0J-50000D01*
G01*
X146754000Y-60124000D01*
G75*
G02*
X146704000Y-60174000I-50000J0D01*
G01*
X145904000Y-60174000D01*
G75*
G02*
X145854000Y-60124000I0J50000D01*
G01*
X145854000Y-59224000D01*
G75*
G02*
X145904000Y-59174000I50000J0D01*
G01*
G37*
G36*
G01*
X144954000Y-57174000D02*
X145754000Y-57174000D01*
G75*
G02*
X145804000Y-57224000I0J-50000D01*
G01*
X145804000Y-58124000D01*
G75*
G02*
X145754000Y-58174000I-50000J0D01*
G01*
X144954000Y-58174000D01*
G75*
G02*
X144904000Y-58124000I0J50000D01*
G01*
X144904000Y-57224000D01*
G75*
G02*
X144954000Y-57174000I50000J0D01*
G01*
G37*
G36*
G01*
X146854000Y-57174000D02*
X147654000Y-57174000D01*
G75*
G02*
X147704000Y-57224000I0J-50000D01*
G01*
X147704000Y-58124000D01*
G75*
G02*
X147654000Y-58174000I-50000J0D01*
G01*
X146854000Y-58174000D01*
G75*
G02*
X146804000Y-58124000I0J50000D01*
G01*
X146804000Y-57224000D01*
G75*
G02*
X146854000Y-57174000I50000J0D01*
G01*
G37*
%TD*%
%TO.C,Q10*%
G36*
G01*
X153778000Y-59174000D02*
X154578000Y-59174000D01*
G75*
G02*
X154628000Y-59224000I0J-50000D01*
G01*
X154628000Y-60124000D01*
G75*
G02*
X154578000Y-60174000I-50000J0D01*
G01*
X153778000Y-60174000D01*
G75*
G02*
X153728000Y-60124000I0J50000D01*
G01*
X153728000Y-59224000D01*
G75*
G02*
X153778000Y-59174000I50000J0D01*
G01*
G37*
G36*
G01*
X152828000Y-57174000D02*
X153628000Y-57174000D01*
G75*
G02*
X153678000Y-57224000I0J-50000D01*
G01*
X153678000Y-58124000D01*
G75*
G02*
X153628000Y-58174000I-50000J0D01*
G01*
X152828000Y-58174000D01*
G75*
G02*
X152778000Y-58124000I0J50000D01*
G01*
X152778000Y-57224000D01*
G75*
G02*
X152828000Y-57174000I50000J0D01*
G01*
G37*
G36*
G01*
X154728000Y-57174000D02*
X155528000Y-57174000D01*
G75*
G02*
X155578000Y-57224000I0J-50000D01*
G01*
X155578000Y-58124000D01*
G75*
G02*
X155528000Y-58174000I-50000J0D01*
G01*
X154728000Y-58174000D01*
G75*
G02*
X154678000Y-58124000I0J50000D01*
G01*
X154678000Y-57224000D01*
G75*
G02*
X154728000Y-57174000I50000J0D01*
G01*
G37*
%TD*%
%TO.C,Q9*%
G36*
G01*
X128532000Y-134728000D02*
X128532000Y-135528000D01*
G75*
G02*
X128482000Y-135578000I-50000J0D01*
G01*
X127582000Y-135578000D01*
G75*
G02*
X127532000Y-135528000I0J50000D01*
G01*
X127532000Y-134728000D01*
G75*
G02*
X127582000Y-134678000I50000J0D01*
G01*
X128482000Y-134678000D01*
G75*
G02*
X128532000Y-134728000I0J-50000D01*
G01*
G37*
G36*
G01*
X130532000Y-133778000D02*
X130532000Y-134578000D01*
G75*
G02*
X130482000Y-134628000I-50000J0D01*
G01*
X129582000Y-134628000D01*
G75*
G02*
X129532000Y-134578000I0J50000D01*
G01*
X129532000Y-133778000D01*
G75*
G02*
X129582000Y-133728000I50000J0D01*
G01*
X130482000Y-133728000D01*
G75*
G02*
X130532000Y-133778000I0J-50000D01*
G01*
G37*
G36*
G01*
X130532000Y-135678000D02*
X130532000Y-136478000D01*
G75*
G02*
X130482000Y-136528000I-50000J0D01*
G01*
X129582000Y-136528000D01*
G75*
G02*
X129532000Y-136478000I0J50000D01*
G01*
X129532000Y-135678000D01*
G75*
G02*
X129582000Y-135628000I50000J0D01*
G01*
X130482000Y-135628000D01*
G75*
G02*
X130532000Y-135678000I0J-50000D01*
G01*
G37*
%TD*%
%TO.C,Q8*%
G36*
G01*
X128532000Y-129648000D02*
X128532000Y-130448000D01*
G75*
G02*
X128482000Y-130498000I-50000J0D01*
G01*
X127582000Y-130498000D01*
G75*
G02*
X127532000Y-130448000I0J50000D01*
G01*
X127532000Y-129648000D01*
G75*
G02*
X127582000Y-129598000I50000J0D01*
G01*
X128482000Y-129598000D01*
G75*
G02*
X128532000Y-129648000I0J-50000D01*
G01*
G37*
G36*
G01*
X130532000Y-128698000D02*
X130532000Y-129498000D01*
G75*
G02*
X130482000Y-129548000I-50000J0D01*
G01*
X129582000Y-129548000D01*
G75*
G02*
X129532000Y-129498000I0J50000D01*
G01*
X129532000Y-128698000D01*
G75*
G02*
X129582000Y-128648000I50000J0D01*
G01*
X130482000Y-128648000D01*
G75*
G02*
X130532000Y-128698000I0J-50000D01*
G01*
G37*
G36*
G01*
X130532000Y-130598000D02*
X130532000Y-131398000D01*
G75*
G02*
X130482000Y-131448000I-50000J0D01*
G01*
X129582000Y-131448000D01*
G75*
G02*
X129532000Y-131398000I0J50000D01*
G01*
X129532000Y-130598000D01*
G75*
G02*
X129582000Y-130548000I50000J0D01*
G01*
X130482000Y-130548000D01*
G75*
G02*
X130532000Y-130598000I0J-50000D01*
G01*
G37*
%TD*%
D13*
%TO.C,F3*%
X119761000Y-112014000D03*
X116332000Y-112014000D03*
X116332000Y-98552000D03*
X119761000Y-98552000D03*
%TD*%
%TO.C,F2*%
X81280000Y-65913000D03*
X81280000Y-62484000D03*
X94742000Y-62484000D03*
X94742000Y-65913000D03*
%TD*%
%TO.C,F1*%
X137541000Y-100584000D03*
X134112000Y-100584000D03*
X134112000Y-87122000D03*
X137541000Y-87122000D03*
%TD*%
%TO.C,D18*%
G36*
G01*
X156980500Y-89362000D02*
X156455500Y-89362000D01*
G75*
G02*
X156193000Y-89099500I0J262500D01*
G01*
X156193000Y-88474500D01*
G75*
G02*
X156455500Y-88212000I262500J0D01*
G01*
X156980500Y-88212000D01*
G75*
G02*
X157243000Y-88474500I0J-262500D01*
G01*
X157243000Y-89099500D01*
G75*
G02*
X156980500Y-89362000I-262500J0D01*
G01*
G37*
G36*
G01*
X156980500Y-91112000D02*
X156455500Y-91112000D01*
G75*
G02*
X156193000Y-90849500I0J262500D01*
G01*
X156193000Y-90224500D01*
G75*
G02*
X156455500Y-89962000I262500J0D01*
G01*
X156980500Y-89962000D01*
G75*
G02*
X157243000Y-90224500I0J-262500D01*
G01*
X157243000Y-90849500D01*
G75*
G02*
X156980500Y-91112000I-262500J0D01*
G01*
G37*
%TD*%
%TO.C,D16*%
G36*
G01*
X146439500Y-93807000D02*
X145914500Y-93807000D01*
G75*
G02*
X145652000Y-93544500I0J262500D01*
G01*
X145652000Y-92919500D01*
G75*
G02*
X145914500Y-92657000I262500J0D01*
G01*
X146439500Y-92657000D01*
G75*
G02*
X146702000Y-92919500I0J-262500D01*
G01*
X146702000Y-93544500D01*
G75*
G02*
X146439500Y-93807000I-262500J0D01*
G01*
G37*
G36*
G01*
X146439500Y-95557000D02*
X145914500Y-95557000D01*
G75*
G02*
X145652000Y-95294500I0J262500D01*
G01*
X145652000Y-94669500D01*
G75*
G02*
X145914500Y-94407000I262500J0D01*
G01*
X146439500Y-94407000D01*
G75*
G02*
X146702000Y-94669500I0J-262500D01*
G01*
X146702000Y-95294500D01*
G75*
G02*
X146439500Y-95557000I-262500J0D01*
G01*
G37*
%TD*%
%TO.C,D15*%
G36*
G01*
X156980500Y-93934000D02*
X156455500Y-93934000D01*
G75*
G02*
X156193000Y-93671500I0J262500D01*
G01*
X156193000Y-93046500D01*
G75*
G02*
X156455500Y-92784000I262500J0D01*
G01*
X156980500Y-92784000D01*
G75*
G02*
X157243000Y-93046500I0J-262500D01*
G01*
X157243000Y-93671500D01*
G75*
G02*
X156980500Y-93934000I-262500J0D01*
G01*
G37*
G36*
G01*
X156980500Y-95684000D02*
X156455500Y-95684000D01*
G75*
G02*
X156193000Y-95421500I0J262500D01*
G01*
X156193000Y-94796500D01*
G75*
G02*
X156455500Y-94534000I262500J0D01*
G01*
X156980500Y-94534000D01*
G75*
G02*
X157243000Y-94796500I0J-262500D01*
G01*
X157243000Y-95421500D01*
G75*
G02*
X156980500Y-95684000I-262500J0D01*
G01*
G37*
%TD*%
%TO.C,D14*%
G36*
G01*
X146439500Y-89489000D02*
X145914500Y-89489000D01*
G75*
G02*
X145652000Y-89226500I0J262500D01*
G01*
X145652000Y-88601500D01*
G75*
G02*
X145914500Y-88339000I262500J0D01*
G01*
X146439500Y-88339000D01*
G75*
G02*
X146702000Y-88601500I0J-262500D01*
G01*
X146702000Y-89226500D01*
G75*
G02*
X146439500Y-89489000I-262500J0D01*
G01*
G37*
G36*
G01*
X146439500Y-91239000D02*
X145914500Y-91239000D01*
G75*
G02*
X145652000Y-90976500I0J262500D01*
G01*
X145652000Y-90351500D01*
G75*
G02*
X145914500Y-90089000I262500J0D01*
G01*
X146439500Y-90089000D01*
G75*
G02*
X146702000Y-90351500I0J-262500D01*
G01*
X146702000Y-90976500D01*
G75*
G02*
X146439500Y-91239000I-262500J0D01*
G01*
G37*
%TD*%
%TO.C,D10*%
G36*
G01*
X146312500Y-84282000D02*
X145787500Y-84282000D01*
G75*
G02*
X145525000Y-84019500I0J262500D01*
G01*
X145525000Y-83394500D01*
G75*
G02*
X145787500Y-83132000I262500J0D01*
G01*
X146312500Y-83132000D01*
G75*
G02*
X146575000Y-83394500I0J-262500D01*
G01*
X146575000Y-84019500D01*
G75*
G02*
X146312500Y-84282000I-262500J0D01*
G01*
G37*
G36*
G01*
X146312500Y-86032000D02*
X145787500Y-86032000D01*
G75*
G02*
X145525000Y-85769500I0J262500D01*
G01*
X145525000Y-85144500D01*
G75*
G02*
X145787500Y-84882000I262500J0D01*
G01*
X146312500Y-84882000D01*
G75*
G02*
X146575000Y-85144500I0J-262500D01*
G01*
X146575000Y-85769500D01*
G75*
G02*
X146312500Y-86032000I-262500J0D01*
G01*
G37*
%TD*%
%TO.C,D9*%
G36*
G01*
X146312500Y-77170000D02*
X145787500Y-77170000D01*
G75*
G02*
X145525000Y-76907500I0J262500D01*
G01*
X145525000Y-76282500D01*
G75*
G02*
X145787500Y-76020000I262500J0D01*
G01*
X146312500Y-76020000D01*
G75*
G02*
X146575000Y-76282500I0J-262500D01*
G01*
X146575000Y-76907500D01*
G75*
G02*
X146312500Y-77170000I-262500J0D01*
G01*
G37*
G36*
G01*
X146312500Y-78920000D02*
X145787500Y-78920000D01*
G75*
G02*
X145525000Y-78657500I0J262500D01*
G01*
X145525000Y-78032500D01*
G75*
G02*
X145787500Y-77770000I262500J0D01*
G01*
X146312500Y-77770000D01*
G75*
G02*
X146575000Y-78032500I0J-262500D01*
G01*
X146575000Y-78657500D01*
G75*
G02*
X146312500Y-78920000I-262500J0D01*
G01*
G37*
%TD*%
%TO.C,D8*%
G36*
G01*
X154948500Y-82758000D02*
X154423500Y-82758000D01*
G75*
G02*
X154161000Y-82495500I0J262500D01*
G01*
X154161000Y-81870500D01*
G75*
G02*
X154423500Y-81608000I262500J0D01*
G01*
X154948500Y-81608000D01*
G75*
G02*
X155211000Y-81870500I0J-262500D01*
G01*
X155211000Y-82495500D01*
G75*
G02*
X154948500Y-82758000I-262500J0D01*
G01*
G37*
G36*
G01*
X154948500Y-84508000D02*
X154423500Y-84508000D01*
G75*
G02*
X154161000Y-84245500I0J262500D01*
G01*
X154161000Y-83620500D01*
G75*
G02*
X154423500Y-83358000I262500J0D01*
G01*
X154948500Y-83358000D01*
G75*
G02*
X155211000Y-83620500I0J-262500D01*
G01*
X155211000Y-84245500D01*
G75*
G02*
X154948500Y-84508000I-262500J0D01*
G01*
G37*
%TD*%
%TO.C,D7*%
G36*
G01*
X159757500Y-79548000D02*
X160282500Y-79548000D01*
G75*
G02*
X160545000Y-79810500I0J-262500D01*
G01*
X160545000Y-80435500D01*
G75*
G02*
X160282500Y-80698000I-262500J0D01*
G01*
X159757500Y-80698000D01*
G75*
G02*
X159495000Y-80435500I0J262500D01*
G01*
X159495000Y-79810500D01*
G75*
G02*
X159757500Y-79548000I262500J0D01*
G01*
G37*
G36*
G01*
X159757500Y-77798000D02*
X160282500Y-77798000D01*
G75*
G02*
X160545000Y-78060500I0J-262500D01*
G01*
X160545000Y-78685500D01*
G75*
G02*
X160282500Y-78948000I-262500J0D01*
G01*
X159757500Y-78948000D01*
G75*
G02*
X159495000Y-78685500I0J262500D01*
G01*
X159495000Y-78060500D01*
G75*
G02*
X159757500Y-77798000I262500J0D01*
G01*
G37*
%TD*%
%TO.C,D6*%
G36*
G01*
X154948500Y-75900000D02*
X154423500Y-75900000D01*
G75*
G02*
X154161000Y-75637500I0J262500D01*
G01*
X154161000Y-75012500D01*
G75*
G02*
X154423500Y-74750000I262500J0D01*
G01*
X154948500Y-74750000D01*
G75*
G02*
X155211000Y-75012500I0J-262500D01*
G01*
X155211000Y-75637500D01*
G75*
G02*
X154948500Y-75900000I-262500J0D01*
G01*
G37*
G36*
G01*
X154948500Y-77650000D02*
X154423500Y-77650000D01*
G75*
G02*
X154161000Y-77387500I0J262500D01*
G01*
X154161000Y-76762500D01*
G75*
G02*
X154423500Y-76500000I262500J0D01*
G01*
X154948500Y-76500000D01*
G75*
G02*
X155211000Y-76762500I0J-262500D01*
G01*
X155211000Y-77387500D01*
G75*
G02*
X154948500Y-77650000I-262500J0D01*
G01*
G37*
%TD*%
%TO.C,D4*%
G36*
G01*
X117902000Y-70620500D02*
X117902000Y-70095500D01*
G75*
G02*
X118164500Y-69833000I262500J0D01*
G01*
X118789500Y-69833000D01*
G75*
G02*
X119052000Y-70095500I0J-262500D01*
G01*
X119052000Y-70620500D01*
G75*
G02*
X118789500Y-70883000I-262500J0D01*
G01*
X118164500Y-70883000D01*
G75*
G02*
X117902000Y-70620500I0J262500D01*
G01*
G37*
G36*
G01*
X116152000Y-70620500D02*
X116152000Y-70095500D01*
G75*
G02*
X116414500Y-69833000I262500J0D01*
G01*
X117039500Y-69833000D01*
G75*
G02*
X117302000Y-70095500I0J-262500D01*
G01*
X117302000Y-70620500D01*
G75*
G02*
X117039500Y-70883000I-262500J0D01*
G01*
X116414500Y-70883000D01*
G75*
G02*
X116152000Y-70620500I0J262500D01*
G01*
G37*
%TD*%
%TO.C,D2*%
G36*
G01*
X106218000Y-137422500D02*
X106218000Y-136897500D01*
G75*
G02*
X106480500Y-136635000I262500J0D01*
G01*
X107105500Y-136635000D01*
G75*
G02*
X107368000Y-136897500I0J-262500D01*
G01*
X107368000Y-137422500D01*
G75*
G02*
X107105500Y-137685000I-262500J0D01*
G01*
X106480500Y-137685000D01*
G75*
G02*
X106218000Y-137422500I0J262500D01*
G01*
G37*
G36*
G01*
X104468000Y-137422500D02*
X104468000Y-136897500D01*
G75*
G02*
X104730500Y-136635000I262500J0D01*
G01*
X105355500Y-136635000D01*
G75*
G02*
X105618000Y-136897500I0J-262500D01*
G01*
X105618000Y-137422500D01*
G75*
G02*
X105355500Y-137685000I-262500J0D01*
G01*
X104730500Y-137685000D01*
G75*
G02*
X104468000Y-137422500I0J262500D01*
G01*
G37*
%TD*%
D14*
%TO.C,Drive*%
X154406000Y-52617000D03*
X154406000Y-44717000D03*
%TD*%
%TO.C,Conn12*%
X152680000Y-120077000D03*
X152680000Y-127977000D03*
X152680000Y-135877000D03*
%TD*%
%TO.C,Conn11*%
X143282000Y-120077000D03*
X143282000Y-127977000D03*
X143282000Y-135877000D03*
%TD*%
%TO.C,Conn9*%
X134138000Y-120077000D03*
X134138000Y-127977000D03*
X134138000Y-135877000D03*
%TD*%
%TO.C,Extra 2&3*%
X117830000Y-52617000D03*
X117830000Y-44717000D03*
%TD*%
%TO.C,Extra 1*%
X126974000Y-52617000D03*
X126974000Y-44717000D03*
%TD*%
%TO.C,Nav*%
X136118000Y-52617000D03*
X136118000Y-44717000D03*
%TD*%
%TO.C,Camera*%
X145262000Y-52617000D03*
X145262000Y-44717000D03*
%TD*%
%TO.C,Extra 2&3*%
X108686000Y-52617000D03*
X108686000Y-44717000D03*
%TD*%
%TO.C,Pack*%
X90131000Y-137642000D03*
X98031000Y-137642000D03*
%TD*%
D10*
%TO.C,Conn1*%
X81026000Y-50574000D03*
X83566000Y-50574000D03*
X86106000Y-50574000D03*
X88646000Y-50574000D03*
X91186000Y-50574000D03*
X93726000Y-50574000D03*
X96266000Y-50574000D03*
%TD*%
%TO.C,C50*%
G36*
G01*
X121366000Y-65269500D02*
X121366000Y-65794500D01*
G75*
G02*
X121103500Y-66057000I-262500J0D01*
G01*
X120478500Y-66057000D01*
G75*
G02*
X120216000Y-65794500I0J262500D01*
G01*
X120216000Y-65269500D01*
G75*
G02*
X120478500Y-65007000I262500J0D01*
G01*
X121103500Y-65007000D01*
G75*
G02*
X121366000Y-65269500I0J-262500D01*
G01*
G37*
G36*
G01*
X123116000Y-65269500D02*
X123116000Y-65794500D01*
G75*
G02*
X122853500Y-66057000I-262500J0D01*
G01*
X122228500Y-66057000D01*
G75*
G02*
X121966000Y-65794500I0J262500D01*
G01*
X121966000Y-65269500D01*
G75*
G02*
X122228500Y-65007000I262500J0D01*
G01*
X122853500Y-65007000D01*
G75*
G02*
X123116000Y-65269500I0J-262500D01*
G01*
G37*
%TD*%
D15*
%TO.C,C49*%
X133604000Y-71596000D03*
G36*
G01*
X132804000Y-68746000D02*
X134404000Y-68746000D01*
G75*
G02*
X134454000Y-68796000I0J-50000D01*
G01*
X134454000Y-70396000D01*
G75*
G02*
X134404000Y-70446000I-50000J0D01*
G01*
X132804000Y-70446000D01*
G75*
G02*
X132754000Y-70396000I0J50000D01*
G01*
X132754000Y-68796000D01*
G75*
G02*
X132804000Y-68746000I50000J0D01*
G01*
G37*
%TD*%
%TO.C,C48*%
G36*
G01*
X136606000Y-64761500D02*
X136606000Y-65286500D01*
G75*
G02*
X136343500Y-65549000I-262500J0D01*
G01*
X135718500Y-65549000D01*
G75*
G02*
X135456000Y-65286500I0J262500D01*
G01*
X135456000Y-64761500D01*
G75*
G02*
X135718500Y-64499000I262500J0D01*
G01*
X136343500Y-64499000D01*
G75*
G02*
X136606000Y-64761500I0J-262500D01*
G01*
G37*
G36*
G01*
X138356000Y-64761500D02*
X138356000Y-65286500D01*
G75*
G02*
X138093500Y-65549000I-262500J0D01*
G01*
X137468500Y-65549000D01*
G75*
G02*
X137206000Y-65286500I0J262500D01*
G01*
X137206000Y-64761500D01*
G75*
G02*
X137468500Y-64499000I262500J0D01*
G01*
X138093500Y-64499000D01*
G75*
G02*
X138356000Y-64761500I0J-262500D01*
G01*
G37*
%TD*%
%TO.C,C47*%
X149606000Y-71596000D03*
G36*
G01*
X148806000Y-68746000D02*
X150406000Y-68746000D01*
G75*
G02*
X150456000Y-68796000I0J-50000D01*
G01*
X150456000Y-70396000D01*
G75*
G02*
X150406000Y-70446000I-50000J0D01*
G01*
X148806000Y-70446000D01*
G75*
G02*
X148756000Y-70396000I0J50000D01*
G01*
X148756000Y-68796000D01*
G75*
G02*
X148806000Y-68746000I50000J0D01*
G01*
G37*
%TD*%
%TO.C,C46*%
G36*
G01*
X152354000Y-65269500D02*
X152354000Y-65794500D01*
G75*
G02*
X152091500Y-66057000I-262500J0D01*
G01*
X151466500Y-66057000D01*
G75*
G02*
X151204000Y-65794500I0J262500D01*
G01*
X151204000Y-65269500D01*
G75*
G02*
X151466500Y-65007000I262500J0D01*
G01*
X152091500Y-65007000D01*
G75*
G02*
X152354000Y-65269500I0J-262500D01*
G01*
G37*
G36*
G01*
X154104000Y-65269500D02*
X154104000Y-65794500D01*
G75*
G02*
X153841500Y-66057000I-262500J0D01*
G01*
X153216500Y-66057000D01*
G75*
G02*
X152954000Y-65794500I0J262500D01*
G01*
X152954000Y-65269500D01*
G75*
G02*
X153216500Y-65007000I262500J0D01*
G01*
X153841500Y-65007000D01*
G75*
G02*
X154104000Y-65269500I0J-262500D01*
G01*
G37*
%TD*%
%TO.C,C45*%
X163068000Y-73882000D03*
G36*
G01*
X162268000Y-71032000D02*
X163868000Y-71032000D01*
G75*
G02*
X163918000Y-71082000I0J-50000D01*
G01*
X163918000Y-72682000D01*
G75*
G02*
X163868000Y-72732000I-50000J0D01*
G01*
X162268000Y-72732000D01*
G75*
G02*
X162218000Y-72682000I0J50000D01*
G01*
X162218000Y-71082000D01*
G75*
G02*
X162268000Y-71032000I50000J0D01*
G01*
G37*
%TD*%
%TO.C,C44*%
G36*
G01*
X163876000Y-49538500D02*
X163876000Y-49013500D01*
G75*
G02*
X164138500Y-48751000I262500J0D01*
G01*
X164763500Y-48751000D01*
G75*
G02*
X165026000Y-49013500I0J-262500D01*
G01*
X165026000Y-49538500D01*
G75*
G02*
X164763500Y-49801000I-262500J0D01*
G01*
X164138500Y-49801000D01*
G75*
G02*
X163876000Y-49538500I0J262500D01*
G01*
G37*
G36*
G01*
X162126000Y-49538500D02*
X162126000Y-49013500D01*
G75*
G02*
X162388500Y-48751000I262500J0D01*
G01*
X163013500Y-48751000D01*
G75*
G02*
X163276000Y-49013500I0J-262500D01*
G01*
X163276000Y-49538500D01*
G75*
G02*
X163013500Y-49801000I-262500J0D01*
G01*
X162388500Y-49801000D01*
G75*
G02*
X162126000Y-49538500I0J262500D01*
G01*
G37*
%TD*%
%TO.C,C43*%
X164306000Y-61976000D03*
G36*
G01*
X161456000Y-62776000D02*
X161456000Y-61176000D01*
G75*
G02*
X161506000Y-61126000I50000J0D01*
G01*
X163106000Y-61126000D01*
G75*
G02*
X163156000Y-61176000I0J-50000D01*
G01*
X163156000Y-62776000D01*
G75*
G02*
X163106000Y-62826000I-50000J0D01*
G01*
X161506000Y-62826000D01*
G75*
G02*
X161456000Y-62776000I0J50000D01*
G01*
G37*
%TD*%
%TO.C,C22*%
G36*
G01*
X95712000Y-68317500D02*
X95712000Y-68842500D01*
G75*
G02*
X95449500Y-69105000I-262500J0D01*
G01*
X94824500Y-69105000D01*
G75*
G02*
X94562000Y-68842500I0J262500D01*
G01*
X94562000Y-68317500D01*
G75*
G02*
X94824500Y-68055000I262500J0D01*
G01*
X95449500Y-68055000D01*
G75*
G02*
X95712000Y-68317500I0J-262500D01*
G01*
G37*
G36*
G01*
X97462000Y-68317500D02*
X97462000Y-68842500D01*
G75*
G02*
X97199500Y-69105000I-262500J0D01*
G01*
X96574500Y-69105000D01*
G75*
G02*
X96312000Y-68842500I0J262500D01*
G01*
X96312000Y-68317500D01*
G75*
G02*
X96574500Y-68055000I262500J0D01*
G01*
X97199500Y-68055000D01*
G75*
G02*
X97462000Y-68317500I0J-262500D01*
G01*
G37*
%TD*%
%TO.C,C21*%
G36*
G01*
X93680000Y-71111500D02*
X93680000Y-71636500D01*
G75*
G02*
X93417500Y-71899000I-262500J0D01*
G01*
X92792500Y-71899000D01*
G75*
G02*
X92530000Y-71636500I0J262500D01*
G01*
X92530000Y-71111500D01*
G75*
G02*
X92792500Y-70849000I262500J0D01*
G01*
X93417500Y-70849000D01*
G75*
G02*
X93680000Y-71111500I0J-262500D01*
G01*
G37*
G36*
G01*
X95430000Y-71111500D02*
X95430000Y-71636500D01*
G75*
G02*
X95167500Y-71899000I-262500J0D01*
G01*
X94542500Y-71899000D01*
G75*
G02*
X94280000Y-71636500I0J262500D01*
G01*
X94280000Y-71111500D01*
G75*
G02*
X94542500Y-70849000I262500J0D01*
G01*
X95167500Y-70849000D01*
G75*
G02*
X95430000Y-71111500I0J-262500D01*
G01*
G37*
%TD*%
%TO.C,C18*%
X143224000Y-103632000D03*
G36*
G01*
X140374000Y-104432000D02*
X140374000Y-102832000D01*
G75*
G02*
X140424000Y-102782000I50000J0D01*
G01*
X142024000Y-102782000D01*
G75*
G02*
X142074000Y-102832000I0J-50000D01*
G01*
X142074000Y-104432000D01*
G75*
G02*
X142024000Y-104482000I-50000J0D01*
G01*
X140424000Y-104482000D01*
G75*
G02*
X140374000Y-104432000I0J50000D01*
G01*
G37*
%TD*%
%TO.C,C17*%
G36*
G01*
X126500500Y-104602000D02*
X125975500Y-104602000D01*
G75*
G02*
X125713000Y-104339500I0J262500D01*
G01*
X125713000Y-103714500D01*
G75*
G02*
X125975500Y-103452000I262500J0D01*
G01*
X126500500Y-103452000D01*
G75*
G02*
X126763000Y-103714500I0J-262500D01*
G01*
X126763000Y-104339500D01*
G75*
G02*
X126500500Y-104602000I-262500J0D01*
G01*
G37*
G36*
G01*
X126500500Y-106352000D02*
X125975500Y-106352000D01*
G75*
G02*
X125713000Y-106089500I0J262500D01*
G01*
X125713000Y-105464500D01*
G75*
G02*
X125975500Y-105202000I262500J0D01*
G01*
X126500500Y-105202000D01*
G75*
G02*
X126763000Y-105464500I0J-262500D01*
G01*
X126763000Y-106089500D01*
G75*
G02*
X126500500Y-106352000I-262500J0D01*
G01*
G37*
%TD*%
%TO.C,C16*%
X121444000Y-118110000D03*
G36*
G01*
X124294000Y-117310000D02*
X124294000Y-118910000D01*
G75*
G02*
X124244000Y-118960000I-50000J0D01*
G01*
X122644000Y-118960000D01*
G75*
G02*
X122594000Y-118910000I0J50000D01*
G01*
X122594000Y-117310000D01*
G75*
G02*
X122644000Y-117260000I50000J0D01*
G01*
X124244000Y-117260000D01*
G75*
G02*
X124294000Y-117310000I0J-50000D01*
G01*
G37*
%TD*%
%TO.C,C15*%
G36*
G01*
X122890000Y-121657500D02*
X122890000Y-122182500D01*
G75*
G02*
X122627500Y-122445000I-262500J0D01*
G01*
X122002500Y-122445000D01*
G75*
G02*
X121740000Y-122182500I0J262500D01*
G01*
X121740000Y-121657500D01*
G75*
G02*
X122002500Y-121395000I262500J0D01*
G01*
X122627500Y-121395000D01*
G75*
G02*
X122890000Y-121657500I0J-262500D01*
G01*
G37*
G36*
G01*
X124640000Y-121657500D02*
X124640000Y-122182500D01*
G75*
G02*
X124377500Y-122445000I-262500J0D01*
G01*
X123752500Y-122445000D01*
G75*
G02*
X123490000Y-122182500I0J262500D01*
G01*
X123490000Y-121657500D01*
G75*
G02*
X123752500Y-121395000I262500J0D01*
G01*
X124377500Y-121395000D01*
G75*
G02*
X124640000Y-121657500I0J-262500D01*
G01*
G37*
%TD*%
%TO.C,C10*%
X121158000Y-79304000D03*
G36*
G01*
X121958000Y-83654000D02*
X120358000Y-83654000D01*
G75*
G02*
X120308000Y-83604000I0J50000D01*
G01*
X120308000Y-82004000D01*
G75*
G02*
X120358000Y-81954000I50000J0D01*
G01*
X121958000Y-81954000D01*
G75*
G02*
X122008000Y-82004000I0J-50000D01*
G01*
X122008000Y-83604000D01*
G75*
G02*
X121958000Y-83654000I-50000J0D01*
G01*
G37*
%TD*%
%TO.C,C7*%
X110014000Y-135382000D03*
G36*
G01*
X112864000Y-134582000D02*
X112864000Y-136182000D01*
G75*
G02*
X112814000Y-136232000I-50000J0D01*
G01*
X111214000Y-136232000D01*
G75*
G02*
X111164000Y-136182000I0J50000D01*
G01*
X111164000Y-134582000D01*
G75*
G02*
X111214000Y-134532000I50000J0D01*
G01*
X112814000Y-134532000D01*
G75*
G02*
X112864000Y-134582000I0J-50000D01*
G01*
G37*
%TD*%
%TO.C,C6*%
G36*
G01*
X116594500Y-135336000D02*
X116069500Y-135336000D01*
G75*
G02*
X115807000Y-135073500I0J262500D01*
G01*
X115807000Y-134448500D01*
G75*
G02*
X116069500Y-134186000I262500J0D01*
G01*
X116594500Y-134186000D01*
G75*
G02*
X116857000Y-134448500I0J-262500D01*
G01*
X116857000Y-135073500D01*
G75*
G02*
X116594500Y-135336000I-262500J0D01*
G01*
G37*
G36*
G01*
X116594500Y-137086000D02*
X116069500Y-137086000D01*
G75*
G02*
X115807000Y-136823500I0J262500D01*
G01*
X115807000Y-136198500D01*
G75*
G02*
X116069500Y-135936000I262500J0D01*
G01*
X116594500Y-135936000D01*
G75*
G02*
X116857000Y-136198500I0J-262500D01*
G01*
X116857000Y-136823500D01*
G75*
G02*
X116594500Y-137086000I-262500J0D01*
G01*
G37*
%TD*%
%TO.C,C5*%
X118840000Y-121666000D03*
G36*
G01*
X115990000Y-122466000D02*
X115990000Y-120866000D01*
G75*
G02*
X116040000Y-120816000I50000J0D01*
G01*
X117640000Y-120816000D01*
G75*
G02*
X117690000Y-120866000I0J-50000D01*
G01*
X117690000Y-122466000D01*
G75*
G02*
X117640000Y-122516000I-50000J0D01*
G01*
X116040000Y-122516000D01*
G75*
G02*
X115990000Y-122466000I0J50000D01*
G01*
G37*
%TD*%
%TO.C,C3*%
G36*
G01*
X116323500Y-129459000D02*
X116848500Y-129459000D01*
G75*
G02*
X117111000Y-129721500I0J-262500D01*
G01*
X117111000Y-130346500D01*
G75*
G02*
X116848500Y-130609000I-262500J0D01*
G01*
X116323500Y-130609000D01*
G75*
G02*
X116061000Y-130346500I0J262500D01*
G01*
X116061000Y-129721500D01*
G75*
G02*
X116323500Y-129459000I262500J0D01*
G01*
G37*
G36*
G01*
X116323500Y-127709000D02*
X116848500Y-127709000D01*
G75*
G02*
X117111000Y-127971500I0J-262500D01*
G01*
X117111000Y-128596500D01*
G75*
G02*
X116848500Y-128859000I-262500J0D01*
G01*
X116323500Y-128859000D01*
G75*
G02*
X116061000Y-128596500I0J262500D01*
G01*
X116061000Y-127971500D01*
G75*
G02*
X116323500Y-127709000I262500J0D01*
G01*
G37*
%TD*%
D16*
%TO.C,REF\u002A\u002A*%
X162361880Y-136961880D03*
%TD*%
%TO.C,REF\u002A\u002A*%
X81478120Y-136961880D03*
%TD*%
%TO.C,REF\u002A\u002A*%
X162361880Y-43378120D03*
%TD*%
%TO.C,REF\u002A\u002A*%
X81478120Y-43378120D03*
%TD*%
M02*
