M48
; DRILL file {KiCad (5.1.5-0)} date Monday, December 14, 2020 at 04:26:29 PM
; FORMAT={-:-/ absolute / inch / decimal}
; #@! TF.CreationDate,2020-12-14T16:26:29-06:00
; #@! TF.GenerationSoftware,Kicad,Pcbnew,(5.1.5-0)
; #@! TF.FileFunction,Plated,1,2,PTH
FMAT,2
INCH
T1C0.0157
T2C0.0315
T3C0.0350
T4C0.0354
T5C0.0660
T6C0.0700
T7C0.0900
T8C0.1598
T9C0.1616
%
G90
G05
T1
X4.6Y-1.4
X4.6Y-1.5
X4.6Y-1.6
X4.6Y-1.7
X4.7Y-1.4
X4.7Y-1.5
X4.7Y-1.6
X4.7Y-1.7
X4.8Y-1.4
X4.8Y-1.5
X4.8Y-1.6
X4.8Y-1.7
X4.9Y-1.6
X4.9Y-1.7
X4.91Y-4.92
X4.95Y-2.4
X4.9526Y-3.26
X4.99Y-1.915
X5.0Y-2.4
X5.02Y-2.04
X5.02Y-2.26
X5.05Y-1.82
X5.05Y-2.4
X5.05Y-5.2686
X5.0793Y-2.0507
X5.11Y-4.94
X5.13Y-1.465
X5.175Y-2.09
X5.195Y-2.17
X5.195Y-2.25
X5.29Y-5.23
X5.505Y-3.165
X5.56Y-5.23
X5.7Y-1.67
X5.702Y-1.432
X5.7205Y-1.9155
X5.773Y-1.217
X5.775Y-5.19
X5.82Y-1.17
X5.83Y-5.1685
X5.85Y-3.1
X5.85Y-3.155
X5.86Y-2.42
X5.91Y-3.095
X5.93Y-4.87
X5.945Y-2.405
X5.97Y-4.9
X6.01Y-4.94
X6.01Y-5.11
X6.04Y-5.2915
X6.05Y-2.405
X6.135Y-2.135
X6.15Y-2.3664
X6.255Y-1.105
X6.2595Y-1.1833
X6.26Y-1.2227
X6.2606Y-1.144
X6.2647Y-1.2709
X6.3Y-5.23
X6.33Y-2.535
X6.37Y-2.5711
X6.38Y-3.44
X6.54Y-5.23
X6.6174Y-3.2376
X6.66Y-2.93
X6.66Y-2.98
X6.675Y-3.675
X6.68Y-3.38
X6.695Y-2.49
X6.72Y-3.79
X6.785Y-3.455
X6.7887Y-2.7127
X6.79Y-5.37
X6.825Y-5.1914
X6.83Y-5.46
X6.845Y-5.32
X6.87Y-3.045
X6.91Y-4.94
X6.925Y-2.845
X6.93Y-2.71
X6.93Y-5.46
X7.0Y-0.55
X7.0Y-0.65
X7.0Y-0.75
X7.0Y-3.26
X7.0Y-5.235
X7.05Y-0.6
X7.05Y-0.7
X7.05Y-0.8
X7.1Y-0.55
X7.1Y-0.65
X7.1Y-0.75
X7.12Y-2.9
X7.13Y-2.97
X7.15Y-0.6
X7.15Y-0.7
X7.15Y-0.8
X7.195Y-3.17
X7.2Y-0.55
X7.2Y-0.65
X7.2Y-0.75
X7.23Y-3.26
X7.24Y-2.78
X7.25Y-0.6
X7.25Y-0.7
X7.25Y-0.8
X7.26Y-3.59
X7.26Y-4.46
X7.3Y-0.55
X7.3Y-0.65
X7.3Y-0.75
X7.315Y-2.7761
X7.315Y-4.715
X7.35Y-0.6
X7.35Y-0.7
X7.35Y-0.8
X7.39Y-3.51
X7.39Y-3.56
X7.39Y-3.61
X7.39Y-3.66
X7.4Y-0.55
X7.4Y-0.65
X7.4Y-0.75
X7.44Y-3.51
X7.44Y-3.56
X7.44Y-3.61
X7.44Y-3.66
X7.45Y-0.6
X7.45Y-0.7
X7.45Y-0.8
X7.49Y-3.51
X7.49Y-3.56
X7.49Y-3.61
X7.49Y-3.66
X7.49Y-3.71
X7.5Y-0.55
X7.5Y-0.65
X7.5Y-0.75
X7.56Y-3.09
X7.9872Y-5.0982
X7.9889Y-5.4142
X7.995Y-1.145
X8.0189Y-5.44
X8.02Y-5.12
X8.025Y-4.15
X8.0267Y-1.1833
X8.05Y-5.465
X8.0511Y-5.1452
X8.065Y-1.225
X8.0739Y-1.2634
X8.0811Y-5.1709
X8.0811Y-5.385
X8.0965Y-3.39
X8.0965Y-3.49
X8.13Y-1.1489
X8.1611Y-4.15
X8.17Y-1.18
X8.19Y-2.83
X8.1951Y-1.225
X8.2262Y-1.26
X8.26Y-2.93
T2
X5.54Y-1.75
X5.6187Y-1.75
X6.41Y-5.3413
X6.41Y-5.42
X5.39Y-5.3413
X5.39Y-5.42
X6.44Y-3.82
X6.44Y-3.8987
X4.9713Y-1.75
X5.05Y-1.75
X6.505Y-2.8213
X6.505Y-2.9
X7.0163Y-2.8
X7.095Y-2.8
X7.0413Y-2.56
X7.12Y-2.56
X5.47Y-5.05
X5.47Y-5.1287
X7.61Y-0.68
X7.7478Y-0.68
X6.3913Y-5.08
X6.47Y-5.08
T3
X7.57Y-3.3
X7.57Y-3.4
X7.57Y-3.5
T4
X8.02Y-2.53
X8.02Y-2.63
X8.02Y-2.73
X8.02Y-2.83
X8.02Y-2.93
X8.02Y-3.19
X8.02Y-3.29
X8.02Y-3.39
X8.02Y-3.49
X8.02Y-3.59
X8.02Y-3.69
X8.02Y-3.79
X8.02Y-3.89
X8.02Y-3.99
X8.02Y-4.09
T5
X5.225Y-1.29
X5.225Y-1.82
X5.36Y-1.29
X5.36Y-1.82
X5.955Y-1.3
X5.955Y-1.83
X6.09Y-1.3
X6.09Y-1.83
X7.42Y-4.05
X7.42Y-4.58
X7.555Y-4.05
X7.555Y-4.58
X4.665Y-1.29
X4.665Y-1.82
X4.8Y-1.29
X4.8Y-1.82
T6
X6.39Y-1.5
X6.39Y-1.65
X6.39Y-1.8
X8.39Y-1.35
X8.39Y-1.65
X8.39Y-1.95
T7
X6.39Y-1.35
X6.39Y-1.95
T8
X7.52Y-4.99
X7.83Y-4.99
T9
X4.819Y-4.3605
X4.819Y-4.6715
X6.639Y-4.3555
X6.639Y-4.6665
X7.089Y-4.3555
X7.089Y-4.6665
X4.771Y-2.7674
X4.771Y-3.0785
X4.771Y-3.3895
X5.739Y-4.3555
X5.739Y-4.6665
X5.231Y-2.7674
X5.231Y-3.0785
X5.231Y-3.3895
X5.289Y-4.3555
X5.289Y-4.6665
X6.11Y-2.768
X6.11Y-3.079
X6.11Y-3.39
X5.691Y-2.7674
X5.691Y-3.0785
X5.691Y-3.3895
X6.189Y-4.3505
X6.189Y-4.6615
T0
M30
